<svg width="29" height="24" viewBox="0 0 29 24" fill="none" xmlns="http://www.w3.org/2000/svg">
<path d="M28.4161 23.2469H27.9503L27.8571 18.1052C27.9503 18.1052 28.0124 18.0117 28.0124 17.8715C28.0124 17.7313 27.9503 17.6378 27.8571 17.6378H27.8261L27.7019 12.0287H27.764C27.8571 12.0287 27.9193 11.9352 27.9193 11.795C27.9193 11.6547 27.8571 11.5612 27.764 11.5612H27.7019L27.6397 7.82183C27.7329 7.82183 27.795 7.72834 27.795 7.58812C27.795 7.44789 27.7329 7.3544 27.6397 7.3544V6.84023C27.6397 6.55978 27.5466 6.27932 27.3913 6.13909L27.3292 6.09235V5.76515C27.3292 5.62493 27.2671 5.53144 27.1739 5.53144C27.0807 5.53144 27.0186 5.62493 27.0186 5.76515V6.09235L26.9876 6.13909C26.8323 6.27932 26.7391 6.55978 26.7391 6.84023V7.3544C26.646 7.3544 26.5838 7.44789 26.5838 7.58812C26.5838 7.72834 26.646 7.82183 26.7391 7.82183L26.677 11.5612H26.6149C26.5217 11.5612 26.4596 11.6547 26.4596 11.795C26.4596 11.9352 26.5217 12.0287 26.6149 12.0287L26.4907 17.6378H26.4596C26.3665 17.6378 26.3043 17.7313 26.3043 17.8715C26.3043 18.0117 26.3665 18.1052 26.4596 18.1052H26.4907L26.3975 23.2469H25.1553L25.0621 19.9749C25.1553 19.9749 25.2174 19.8814 25.2174 19.7412C25.2174 19.601 25.1553 19.5075 25.0621 19.5075H25.0311L24.9379 16.2355H24.9689C25.0621 16.2355 25.1242 16.142 25.1242 16.0018C25.1242 15.8616 25.0621 15.7681 24.9689 15.7681H24.9068L24.8137 12.4961C24.9068 12.4961 24.9689 12.4026 24.9689 12.2624C24.9689 12.1222 24.9068 12.0287 24.8137 12.0287V11.5145C24.8137 11.234 24.7205 10.9536 24.5652 10.8134L24.5342 10.7666V10.4394C24.5342 10.2992 24.472 10.2057 24.3789 10.2057C24.2857 10.2057 24.2236 10.2992 24.2236 10.4394V10.7666L24.1925 10.8134C24.0373 10.9536 23.9441 11.234 23.9441 11.5145V12.0287C23.8509 12.0287 23.7888 12.1222 23.7888 12.2624C23.7888 12.4026 23.8509 12.4961 23.9441 12.4961L23.8509 15.7681H23.7888C23.6957 15.7681 23.6335 15.8616 23.6335 16.0018C23.6335 16.142 23.6957 16.2355 23.7888 16.2355H23.8509L23.7578 19.5075H23.7267C23.6335 19.5075 23.5714 19.601 23.5714 19.7412C23.5714 19.8814 23.6335 19.9749 23.7267 19.9749H23.7578L23.6646 23.2936H22.4224V11.3743C22.4224 11.234 22.3602 11.1406 22.2671 11.1406C22.1739 11.1406 22.1118 11.234 22.1118 11.3743V12.5428H21.8012V12.0754C21.8012 11.9352 21.7391 11.8417 21.646 11.8417C21.5528 11.8417 21.4907 11.9352 21.4907 12.0754V12.5428H19.6273V11.5145L19.6584 11.3743C19.9068 10.6731 19.7826 9.83176 19.3478 9.41108L18.8199 8.89691V8.14903C18.8199 8.0088 18.7578 7.91532 18.6646 7.91532C18.5714 7.91532 18.5093 8.0088 18.5093 8.14903V8.94365L17.9814 9.36434C17.5466 9.78502 17.4224 10.6731 17.6708 11.3275L17.7019 11.3743V12.4961H17.3913V10.3459C18.0435 8.24251 17.6397 5.67167 16.3665 4.31613L14.441 2.35294V1.09089C14.441 0.950663 14.3789 0.857178 14.2857 0.857178C14.1925 0.857178 14.1304 0.950663 14.1304 1.09089V2.35294L12.205 4.36287C10.9317 5.71841 10.4969 8.24251 11.1801 10.3927V12.5428H10.8696V11.421L10.9006 11.3743C11.1491 10.6731 11.0248 9.83176 10.5901 9.41108L10.0932 8.89691V8.10228C10.0932 7.96206 10.0311 7.86857 9.93789 7.86857C9.84472 7.86857 9.78261 7.96206 9.78261 8.10228V8.85017L9.25466 9.36434C8.81987 9.78502 8.69565 10.6731 8.9441 11.3275L8.97515 11.4678V12.4961H7.1118V12.0287C7.1118 11.8884 7.04969 11.795 6.95652 11.795C6.86335 11.795 6.80124 11.8884 6.80124 12.0287V12.4961H6.49068V11.3275C6.49068 11.1873 6.42857 11.0938 6.3354 11.0938C6.24224 11.0938 6.18012 11.1873 6.18012 11.3275V23.2469H4.93789L4.87578 19.9749C4.96894 19.9749 5.03106 19.8814 5.03106 19.7412C5.03106 19.601 4.96894 19.5075 4.87578 19.5075H4.84472L4.75155 16.2355H4.81366C4.90683 16.2355 4.96894 16.142 4.96894 16.0018C4.96894 15.8616 4.90683 15.7681 4.81366 15.7681H4.75155L4.65838 12.4961C4.75155 12.4961 4.81366 12.4026 4.81366 12.2624C4.81366 12.1222 4.75155 12.0287 4.65838 12.0287V11.5145C4.65838 11.234 4.56522 10.9536 4.40994 10.8134L4.34783 10.7666V10.4394C4.34783 10.2992 4.28571 10.2057 4.19255 10.2057C4.09938 10.2057 4.03727 10.2992 4.03727 10.4394V10.7666L3.97515 10.8134C3.81988 10.9536 3.72671 11.234 3.72671 11.5145V12.0287C3.63354 12.0287 3.57143 12.1222 3.57143 12.2624C3.57143 12.4026 3.63354 12.4961 3.72671 12.4961L3.63354 15.7681H3.57143C3.47826 15.7681 3.41615 15.8616 3.41615 16.0018C3.41615 16.142 3.47826 16.2355 3.57143 16.2355H3.60248L3.50932 19.5075H3.47826C3.38509 19.5075 3.32298 19.601 3.32298 19.7412C3.32298 19.8814 3.38509 19.9749 3.47826 19.9749L3.38509 23.2936H2.17391L2.08074 18.152C2.17391 18.152 2.23602 18.0585 2.23602 17.9182C2.23602 17.778 2.17391 17.6845 2.08074 17.6845H2.04969L1.92547 12.0754H1.98758C2.08074 12.0754 2.14286 11.9819 2.14286 11.8417C2.14286 11.7015 2.08074 11.608 1.98758 11.608H1.92547L1.86335 7.86857C1.95652 7.86857 2.01863 7.77509 2.01863 7.63486C2.01863 7.49463 1.95652 7.40114 1.86335 7.40114V6.88698C1.86335 6.60652 1.77019 6.32607 1.61491 6.18584L1.55279 6.09235V5.76515C1.55279 5.62493 1.49068 5.53144 1.39752 5.53144C1.30435 5.53144 1.24224 5.62493 1.24224 5.71841V6.09235L1.18012 6.13909C1.02484 6.27932 0.931677 6.55978 0.931677 6.84023V7.3544C0.838509 7.3544 0.776397 7.44789 0.776397 7.58812C0.776397 7.72834 0.838509 7.82183 0.931677 7.82183L0.869565 11.5612H0.776397C0.68323 11.5612 0.621118 11.6547 0.621118 11.795C0.621118 11.9352 0.68323 12.0287 0.776397 12.0287H0.838509L0.714286 17.6378H0.68323C0.621118 17.6378 0.52795 17.778 0.52795 17.8715C0.52795 17.965 0.590062 18.1052 0.68323 18.1052H0.714286L0.621118 23.2469H0.155279C0.0621118 23.2469 0 23.3404 0 23.4806C0 23.6208 0.0621118 23.7143 0.155279 23.7143H28.4161C28.5093 23.7143 28.5714 23.6208 28.5714 23.4806C28.5714 23.3404 28.5093 23.2469 28.4161 23.2469ZM1.36646 6.51304L1.39752 6.46629L1.42857 6.51304C1.49068 6.60652 1.55279 6.70001 1.55279 6.84023V7.3544H1.24224V6.84023C1.24224 6.70001 1.27329 6.60652 1.36646 6.51304ZM1.24224 7.82183H1.55279L1.61491 11.5612H1.14907L1.24224 7.82183ZM1.14907 12.0287H1.64596L1.77019 17.6378H1.02484L1.14907 12.0287ZM0.931677 23.2469L1.02484 18.1052H1.73913L1.8323 23.2469H0.931677ZM24.2236 11.5145C24.2236 11.3743 24.2547 11.2808 24.3478 11.1873L24.3789 11.1406L24.4099 11.1873C24.472 11.2808 24.5342 11.3743 24.5342 11.5145V12.0287H24.2236V11.5145ZM24.2236 12.4961H24.5342L24.6273 15.7213H24.1304L24.2236 12.4961ZM24.0994 16.2355H24.6273L24.7205 19.5075H24.0062L24.0994 16.2355ZM21.4286 18.1052H20.8075V15.5811C20.8075 15.3474 20.9006 15.1137 21.0248 14.9735L21.118 14.88L21.2112 14.9735C21.3354 15.1137 21.4286 15.3007 21.4286 15.5811V18.1052ZM21.3665 14.5995L21.1801 14.4125C21.118 14.3658 21.0559 14.3658 21.0248 14.4125L20.8385 14.5995C20.6211 14.8332 20.4658 15.1604 20.4658 15.5811V18.1052H20.1553V13.9451H22.0186V18.1052H21.7081V15.5811C21.7391 15.1604 21.6149 14.8332 21.3665 14.5995ZM18.0124 18.1052V16.2355C18.0124 15.7681 18.1677 15.3474 18.4161 15.1137L18.6335 14.9267L18.8509 15.1604C19.0994 15.3941 19.2547 15.8148 19.2547 16.2822V18.152H18.0124V18.1052ZM19.0062 14.693L18.6957 14.4125C18.6335 14.3658 18.5714 14.3658 18.5404 14.4125L18.2298 14.693C17.8882 15.0202 17.6708 15.5811 17.6708 16.1888V18.1052H17.3602V13.9451H19.8447V18.1052H19.5342V16.1888C19.5652 15.6278 19.3478 15.0669 19.0062 14.693ZM16.7702 11.0938C16.677 11.0938 16.6149 11.1873 16.6149 11.3275V11.5612H16.3043V11.3275C16.3043 11.1873 16.2422 11.0938 16.1491 11.0938C16.0559 11.0938 15.9938 11.1873 15.9938 11.3275V11.5612H15.6832V11.3275C15.6832 11.1873 15.6211 11.0938 15.5279 11.0938C15.4348 11.0938 15.3727 11.1873 15.3727 11.3275V11.5612H15.0621V11.3275C15.0621 11.1873 15 11.0938 14.9068 11.0938C14.8137 11.0938 14.7516 11.1873 14.7516 11.3275V11.5612H14.441V11.3275C14.441 11.1873 14.3789 11.0938 14.2857 11.0938C14.1925 11.0938 14.1304 11.1873 14.1304 11.3275V11.5612H13.8199V11.3275C13.8199 11.1873 13.7578 11.0938 13.6646 11.0938C13.5714 11.0938 13.5093 11.1873 13.5093 11.3275V11.5612H13.1988V11.3275C13.1988 11.1873 13.1366 11.0938 13.0435 11.0938C12.9503 11.0938 12.8882 11.1873 12.8882 11.3275V11.5612H12.5776V11.3275C12.5776 11.1873 12.5155 11.0938 12.4224 11.0938C12.3292 11.0938 12.2671 11.1873 12.2671 11.3275V11.5612H11.9565V11.3275C11.9565 11.1873 11.8944 11.0938 11.8012 11.0938C11.7081 11.0938 11.646 11.1873 11.646 11.3275V11.5612H11.4907V10.6264H17.0807V11.5612H16.9255V11.3275C16.9255 11.234 16.8634 11.0938 16.7702 11.0938ZM10.559 18.1052H9.31677V16.1888C9.31677 15.7213 9.47205 15.3006 9.7205 15.0669L9.93789 14.8332L10.1553 15.0202C10.4037 15.2539 10.559 15.6746 10.559 16.142V18.1052ZM10.3106 14.693L10 14.4125C9.93789 14.3658 9.87578 14.3658 9.84472 14.4125L9.53416 14.693C9.19255 15.0202 8.97515 15.5811 8.97515 16.1888V18.1052H8.6646V13.9451H11.1491V18.1052H10.8385V16.1888C10.8696 15.6278 10.6522 15.0202 10.3106 14.693ZM7.76397 18.1052H7.14286V15.5811C7.14286 15.3474 7.23602 15.1137 7.36025 14.9735L7.45342 14.88L7.54658 14.9735C7.67081 15.1137 7.76397 15.3474 7.76397 15.5811V18.1052ZM7.70186 14.5995L7.51553 14.4125C7.45342 14.3658 7.3913 14.3658 7.36025 14.4125L7.17391 14.5995C6.95652 14.8332 6.8323 15.1604 6.8323 15.5811V18.1052H6.52174V13.9451H8.38509V18.1052H8.07453V15.5811C8.07453 15.1604 7.95031 14.7865 7.70186 14.5995ZM22.0497 13.4777H20.1863V12.9635H22.0497V13.4777ZM18.1677 9.73828L18.6646 9.22411L19.1615 9.73828C19.472 10.0187 19.5342 10.6264 19.3789 11.0938H18.0124C17.795 10.6264 17.8882 10.0655 18.1677 9.73828ZM18.0124 11.5612H19.2547V12.4961H18.7888V12.2624C18.7888 12.1222 18.7267 12.0287 18.6335 12.0287C18.5404 12.0287 18.4783 12.1222 18.4783 12.2624V12.4961H18.0124V11.5612ZM17.8571 12.9635H19.8758V13.4777H17.3913V12.9635H17.8571ZM13.4472 3.61499L14.2857 2.72688L15.1242 3.61499H13.4472ZM12.3913 4.73682L12.9193 4.17591V4.31613C12.9193 4.45636 12.9814 4.54985 13.0745 4.54985C13.1677 4.54985 13.2298 4.45636 13.2298 4.31613V4.08242H13.5404V4.31613C13.5404 4.45636 13.6025 4.54985 13.6957 4.54985C13.7888 4.54985 13.8509 4.45636 13.8509 4.31613V4.08242H14.1615V4.31613C14.1615 4.45636 14.2236 4.54985 14.3168 4.54985C14.4099 4.54985 14.472 4.45636 14.472 4.31613V4.08242H14.7826V4.31613C14.7826 4.45636 14.8447 4.54985 14.9379 4.54985C15.0311 4.54985 15.0932 4.45636 15.0932 4.31613V4.08242H15.4037V4.31613C15.4037 4.45636 15.4658 4.54985 15.559 4.54985C15.6522 4.54985 15.7143 4.45636 15.7143 4.31613V4.22265L16.2112 4.73682C17.3602 5.95212 17.7329 8.24251 17.1429 10.159H11.4596C10.8696 8.24251 11.2422 5.95212 12.3913 4.73682ZM11.1801 13.4777H8.69565V12.9635H11.1801V13.4777ZM9.44099 9.73828L9.93789 9.22411L10.4348 9.73828C10.7453 10.0187 10.8075 10.6264 10.6522 11.0938H9.2236C9.03727 10.6264 9.13043 10.0655 9.44099 9.73828ZM9.31677 11.5612H10.559V12.4961H10.0932V12.2624C10.0932 12.1222 10.0311 12.0287 9.93789 12.0287C9.84472 12.0287 9.78261 12.1222 9.78261 12.2624V12.4961H9.31677V11.5612ZM8.38509 13.4777H6.52174V12.9635H8.38509V13.4777ZM4.16149 11.1873L4.19255 11.1406L4.2236 11.1873C4.28571 11.2808 4.34783 11.3743 4.34783 11.5145V12.0287H4.03727V11.5145C4.03727 11.3743 4.06832 11.2808 4.16149 11.1873ZM4.03727 12.4961H4.34783L4.44099 15.7213H3.9441L4.03727 12.4961ZM3.91304 16.2355H4.44099L4.53416 19.5075H3.81988L3.91304 16.2355ZM3.72671 23.2469L3.81988 19.9282H4.56522L4.65838 23.2469H3.72671ZM6.52174 18.5726H8.38509V23.2469H8.07453V20.7228C8.07453 20.3021 7.95031 19.9749 7.70186 19.7412L7.51553 19.5542C7.45342 19.5075 7.3913 19.5075 7.36025 19.5542L7.17391 19.7412C6.95652 19.9749 6.8323 20.3021 6.8323 20.7228V23.2469H6.52174V18.5726ZM7.14286 23.2469V20.7228C7.14286 20.4891 7.23602 20.2554 7.36025 20.1151L7.45342 20.0217L7.54658 20.1151C7.67081 20.2554 7.76397 20.4891 7.76397 20.7228V23.2469H7.14286ZM8.69565 18.5726H11.1801V23.2469H10.8696V21.3304C10.8696 20.7228 10.6522 20.1619 10.3106 19.8347L10 19.5542C9.93789 19.5075 9.87578 19.5075 9.84472 19.5542L9.53416 19.8347C9.19255 20.1619 8.97515 20.7228 8.97515 21.3304V23.2469H8.6646V18.5726H8.69565ZM9.31677 23.2469V21.3304C9.31677 20.863 9.47205 20.4423 9.7205 20.2086L9.93789 19.9749L10.1553 20.1619C10.4037 20.3956 10.559 20.8163 10.559 21.2837V23.2002H9.31677V23.2469ZM11.4907 12.7298V12.0287H17.0807V23.2469H16.4596V17.8247C16.4596 16.329 15.9627 15.0202 15.1553 14.2256L14.3789 13.4777C14.3168 13.4309 14.2547 13.4309 14.2236 13.4777L13.4472 14.2256C12.6398 15.0202 12.1429 16.3757 12.1429 17.8247V23.2469H11.5217V12.7298H11.4907ZM13.354 23.2469H12.4224V18.5726H16.1491V23.2469H15.2174V21.3304C15.2174 20.7228 15 20.1619 14.6584 19.8347L14.3478 19.5542C14.2857 19.5075 14.2236 19.5075 14.1925 19.5542L13.882 19.8347C13.5404 20.1619 13.323 20.7228 13.323 21.3304V23.2469H13.354ZM16.1491 18.1052H15.2174V17.1236C15.2174 16.516 15 15.955 14.6584 15.6278L14.3478 15.3474C14.2857 15.3007 14.2236 15.3007 14.1925 15.3474L13.882 15.6278C13.5404 15.955 13.323 16.516 13.323 17.1236V18.1052H12.3913V17.8247C12.3913 16.516 12.8261 15.3006 13.5714 14.5995L14.2857 13.9451L14.9689 14.5995C15.7143 15.3006 16.1491 16.516 16.1491 17.8247V18.1052ZM14.9068 18.1052H13.6646V17.1236C13.6646 16.6562 13.8199 16.2355 14.0683 16.0018L14.2857 15.7681L14.5031 15.955C14.7516 16.1888 14.9068 16.6094 14.9068 17.0769V18.1052ZM13.6646 23.2469V21.3304C13.6646 20.863 13.8199 20.4423 14.0683 20.2086L14.2857 19.9749L14.5031 20.1619C14.7516 20.3956 14.9068 20.8163 14.9068 21.2837V23.2002H13.6646V23.2469ZM17.3913 18.5726H19.8758V23.2469H19.5652V21.3304C19.5652 20.7228 19.3478 20.1619 19.0062 19.8347L18.6957 19.5542C18.6335 19.5075 18.5714 19.5075 18.5404 19.5542L18.2298 19.8347C17.8882 20.1619 17.6708 20.7228 17.6708 21.3304V23.2469H17.3602V18.5726H17.3913ZM19.2547 23.2469H18.0124V21.3304C18.0124 20.863 18.1677 20.4423 18.4161 20.2086L18.6335 20.0217L18.8509 20.2554C19.0994 20.4891 19.2547 20.9098 19.2547 21.3772V23.2469ZM20.8075 23.2469V20.7228C20.8075 20.4891 20.9006 20.2554 21.0248 20.1151L21.118 20.0217L21.2112 20.1151C21.3354 20.2554 21.4286 20.4423 21.4286 20.7228V23.2469H20.8075ZM21.7391 23.2469V20.7228C21.7391 20.3021 21.6149 19.9749 21.3975 19.7412L21.2112 19.5542C21.1491 19.5075 21.087 19.5075 21.0559 19.5542L20.8696 19.7412C20.6522 19.9749 20.4969 20.3021 20.4969 20.7228V23.2469H20.1863V18.5726H22.0497V23.2469H21.7391ZM23.913 23.2469L24.0062 19.9282H24.7515L24.8447 23.2469H23.913ZM27.3292 7.3544H27.0186V6.84023C27.0186 6.70001 27.0497 6.60652 27.1429 6.51304L27.1739 6.46629L27.205 6.51304C27.2671 6.60652 27.3292 6.70001 27.3292 6.84023V7.3544ZM27.0186 7.82183H27.3292L27.3913 11.5612H26.9255L27.0186 7.82183ZM26.9255 12.0287H27.4224L27.5466 17.6378H26.8323L26.9255 12.0287ZM26.7081 23.2469L26.8012 18.1052H27.5466L27.6397 23.2469H26.7081Z" fill="white"/>
</svg>
