<svg width="24" height="24" viewBox="0 0 24 24" fill="none" xmlns="http://www.w3.org/2000/svg">
<path d="M10.2768 0.571411C10.239 0.571411 10.2026 0.587243 10.1758 0.615425C10.149 0.643606 10.134 0.681828 10.134 0.721682V1.47304H9.70541C9.15398 1.47304 8.70541 1.94489 8.70541 2.52494V4.18273H8.42284C8.38495 4.18273 8.34861 4.19856 8.32182 4.22674C8.29503 4.25492 8.27998 4.29314 8.27998 4.333C8.27998 4.37285 8.29503 4.41107 8.32182 4.43926C8.34861 4.46744 8.38495 4.48327 8.42284 4.48327H8.70541V5.08856H8.59827C8.56038 5.08856 8.52404 5.10439 8.49725 5.13258C8.47046 5.16076 8.45541 5.19898 8.45541 5.23883C8.45541 5.27869 8.47046 5.31691 8.49725 5.34509C8.52404 5.37327 8.56038 5.3891 8.59827 5.3891H8.71484V11.9989H8.42912V11.8414C8.42912 11.5926 8.23055 11.3897 8.00055 11.393V11.0122L8.0417 10.9681C8.12255 10.883 8.16741 10.7694 8.16741 10.6489C8.16741 10.5284 8.12255 10.4157 8.0417 10.3303L7.67255 9.94202C7.65928 9.92802 7.64352 9.91692 7.62616 9.90935C7.60881 9.90177 7.5902 9.89787 7.57141 9.89787C7.55262 9.89787 7.53401 9.90177 7.51666 9.90935C7.4993 9.91692 7.48354 9.92802 7.47027 9.94202L7.10113 10.3306C7.06127 10.3724 7.02966 10.4221 7.00808 10.4768C6.98651 10.5315 6.97541 10.5901 6.97541 10.6493C6.97541 10.7086 6.98651 10.7672 7.00808 10.8219C7.02966 10.8766 7.06127 10.9263 7.10113 10.9681L7.14284 11.0122V11.3909C7.02962 11.3909 6.921 11.4381 6.8407 11.522C6.7604 11.606 6.71495 11.7199 6.71427 11.839V11.9989H6.42855V11.839C6.42855 11.5905 6.23627 11.3882 5.99998 11.3882C5.7637 11.3882 5.57141 11.5905 5.57141 11.839V11.9989H5.2857V11.839C5.2857 11.5905 5.09341 11.3882 4.85713 11.3882C4.62084 11.3882 4.42855 11.5905 4.42855 11.839V11.9989H4.14284V11.839C4.14284 11.5905 3.95055 11.3882 3.71427 11.3882C3.47798 11.3882 3.2857 11.5905 3.2857 11.839V11.9989H2.99998V11.839C2.99998 11.5902 2.80141 11.3873 2.57141 11.3906V11.0119L2.61313 10.9687C2.69398 10.8836 2.73884 10.7697 2.73884 10.6492C2.73895 10.59 2.72789 10.5313 2.70631 10.4767C2.68473 10.422 2.65306 10.3723 2.61313 10.3306L2.24398 9.94202C2.23071 9.92802 2.21495 9.91692 2.19759 9.90935C2.18024 9.90177 2.16163 9.89787 2.14284 9.89787C2.12405 9.89787 2.10544 9.90177 2.08809 9.90935C2.07073 9.91692 2.05497 9.92802 2.0417 9.94202L1.67255 10.3306C1.63262 10.3725 1.60093 10.4222 1.5793 10.4769C1.55768 10.5317 1.54655 10.5904 1.54655 10.6496C1.54655 10.7089 1.55768 10.7676 1.5793 10.8224C1.60093 10.8771 1.63262 10.9268 1.67255 10.9687L1.7137 11.0122V16.0097L1.71484 16.1085V23.128H0.714268C0.628554 23.128 0.571411 23.1881 0.571411 23.2783C0.571411 23.3684 0.628554 23.4286 0.714268 23.4286H23.2857C23.3714 23.4286 23.4286 23.3684 23.4286 23.2783C23.4286 23.1881 23.3714 23.128 23.2857 23.128H22.2863V11.0119L22.3274 10.9678C22.4083 10.8827 22.4531 10.7694 22.4531 10.6492C22.4534 10.59 22.4425 10.5313 22.421 10.4765C22.3996 10.4218 22.3679 10.3721 22.328 10.3303L21.9586 9.94172C21.9318 9.91355 21.8954 9.89772 21.8576 9.89772C21.8197 9.89772 21.7833 9.91355 21.7566 9.94172L21.3871 10.3303C21.3063 10.4151 21.2617 10.5284 21.2617 10.6489C21.2617 10.7691 21.3063 10.8824 21.3874 10.9678L21.4291 11.0119V11.3909C21.3159 11.3909 21.2072 11.4381 21.1269 11.5221C21.0466 11.6061 21.0012 11.7202 21.0006 11.8393V11.9992H20.7148V11.8393C20.7148 11.5908 20.5226 11.3885 20.2863 11.3885C20.05 11.3885 19.8577 11.5908 19.8577 11.8393V11.9992H19.572V11.8393C19.572 11.5908 19.3797 11.3885 19.1434 11.3885C18.9071 11.3885 18.7148 11.5908 18.7148 11.8393V11.9992H18.4291V11.8393C18.4291 11.5908 18.2368 11.3885 18.0006 11.3885C17.7643 11.3885 17.572 11.5908 17.572 11.8393V11.9992H17.2863V11.8393C17.2863 11.5905 17.0877 11.3876 16.8577 11.3909V11.0122L16.8988 10.9684C16.9797 10.8833 17.0246 10.7697 17.0246 10.6492C17.0246 10.5287 16.9797 10.416 16.8988 10.3306L16.5297 9.94232C16.5164 9.92832 16.5007 9.91722 16.4833 9.90965C16.466 9.90207 16.4473 9.89817 16.4286 9.89817C16.4098 9.89817 16.3912 9.90207 16.3738 9.90965C16.3564 9.91722 16.3407 9.92832 16.3274 9.94232L15.9583 10.3309C15.9184 10.3727 15.8868 10.4224 15.8652 10.4771C15.8437 10.5318 15.8326 10.5904 15.8326 10.6496C15.8326 10.7089 15.8437 10.7675 15.8652 10.8222C15.8868 10.8769 15.9184 10.9266 15.9583 10.9684L16 11.0126V11.3933C15.8867 11.3933 15.778 11.4405 15.6977 11.5245C15.6174 11.6086 15.572 11.7226 15.5714 11.8417V11.9992H15.2857V5.32088C15.3021 5.29692 15.3112 5.26833 15.312 5.23883C15.3116 5.20301 15.2989 5.16855 15.2763 5.14176V4.48327H15.5534C15.5913 4.48327 15.6276 4.46744 15.6544 4.43926C15.6812 4.41107 15.6963 4.37285 15.6963 4.333C15.6963 4.29314 15.6812 4.25492 15.6544 4.22674C15.6276 4.19856 15.5913 4.18273 15.5534 4.18273H15.2768V2.52494C15.2768 1.94489 14.8283 1.47304 14.2768 1.47304H14.134V0.721682C14.134 0.681828 14.1189 0.643606 14.0921 0.615425C14.0653 0.587243 14.029 0.571411 13.9911 0.571411C13.9532 0.571411 13.9169 0.587243 13.8901 0.615425C13.8633 0.643606 13.8483 0.681828 13.8483 0.721682V1.47304H10.4197V0.721682C10.4197 0.681828 10.4046 0.643606 10.3779 0.615425C10.3511 0.587243 10.3147 0.571411 10.2768 0.571411ZM9.70541 1.77358H14.2768C14.622 1.77358 14.9103 2.03205 14.9766 2.37467H9.0057C9.07198 2.03205 9.35998 1.77358 9.70541 1.77358ZM8.99113 2.68482H14.9911V4.18333H8.99113V2.68482ZM8.99113 4.48327H9.26684V5.08255H8.99113V4.48327ZM9.55255 4.48327H10.1228V5.08255H9.55255V4.48327ZM10.4086 4.48327H10.9783V5.08255H10.4086V4.48327ZM11.264 4.48327H11.8343V5.08255H11.264V4.48327ZM12.12 4.48327H12.6891V5.08255H12.12V4.48327ZM12.9748 4.48327H13.5451V5.08255H12.9748V4.48327ZM13.8308 4.48327H14.4011V5.08255H13.8308V4.48327ZM14.6868 4.48327H14.9911V5.08255H14.6868V4.48327ZM9.00055 5.38971H10.4291V11.4186C10.3834 11.4008 10.335 11.3914 10.2863 11.3909C10.05 11.3909 9.8577 11.5932 9.8577 11.8417V11.9992H9.57198V11.8417C9.57198 11.5932 9.3797 11.3909 9.14341 11.3909C9.09312 11.3909 9.04541 11.4018 9.00055 11.4186V5.38971ZM10.7148 5.38971H13.2863V11.9989H13.0006V11.8414C13.0006 11.5929 12.8083 11.3906 12.572 11.3906C12.3357 11.3906 12.1434 11.5929 12.1434 11.8414V11.9989H11.8577V11.8414C11.8577 11.5929 11.6654 11.3906 11.4291 11.3906C11.1928 11.3906 11.0006 11.5929 11.0006 11.8414V11.9989H10.7148V5.38971ZM13.572 5.38971H15.0006V11.4186C14.9548 11.4008 14.9065 11.3914 14.8577 11.3909C14.6214 11.3909 14.4291 11.5932 14.4291 11.8417V11.9992H14.1434V11.8417C14.1434 11.5932 13.9511 11.3909 13.7148 11.3909C13.6646 11.3909 13.6168 11.4018 13.572 11.4186V5.38971ZM2.14341 10.2606L2.41113 10.5428C2.43827 10.5714 2.45313 10.6089 2.45313 10.6492C2.4533 10.6689 2.44973 10.6884 2.44261 10.7066C2.4355 10.7249 2.42498 10.7414 2.4117 10.7553L2.36998 10.7995H1.91627L1.87484 10.7553C1.86144 10.7414 1.8508 10.7249 1.84354 10.7066C1.83627 10.6884 1.83253 10.6688 1.83253 10.649C1.83253 10.6293 1.83627 10.6097 1.84354 10.5915C1.8508 10.5732 1.86144 10.5567 1.87484 10.5428L2.14341 10.2606ZM7.57198 10.2606L7.8397 10.5428C7.86684 10.5714 7.8817 10.6089 7.8817 10.6492C7.88187 10.6689 7.8783 10.6884 7.87118 10.7066C7.86407 10.7249 7.85356 10.7414 7.84027 10.7553L7.79855 10.7995H7.34484L7.30341 10.7553C7.29001 10.7414 7.27937 10.7249 7.27211 10.7066C7.26485 10.6884 7.2611 10.6688 7.2611 10.649C7.2611 10.6293 7.26485 10.6097 7.27211 10.5915C7.27937 10.5732 7.29001 10.5567 7.30341 10.5428L7.57198 10.2606ZM16.4291 10.2606L16.6968 10.5428C16.724 10.5714 16.7388 10.6089 16.7388 10.6492C16.739 10.6689 16.7354 10.6884 16.7283 10.7066C16.7212 10.7249 16.7107 10.7414 16.6974 10.7553L16.6557 10.7995H16.202L16.1608 10.7553C16.1474 10.7414 16.1368 10.7249 16.1295 10.7066C16.1223 10.6884 16.1185 10.6688 16.1185 10.649C16.1185 10.6293 16.1223 10.6097 16.1295 10.5915C16.1368 10.5732 16.1474 10.5567 16.1608 10.5428L16.4291 10.2606ZM21.8577 10.2606L22.1254 10.5428C22.1526 10.5714 22.1674 10.6089 22.1674 10.6492C22.1676 10.6689 22.164 10.6884 22.1569 10.7066C22.1498 10.7249 22.1393 10.7414 22.126 10.7553L22.0843 10.7995H21.6306L21.5894 10.7553C21.576 10.7414 21.5654 10.7249 21.5581 10.7066C21.5508 10.6884 21.5471 10.6688 21.5471 10.649C21.5471 10.6293 21.5508 10.6097 21.5581 10.5915C21.5654 10.5732 21.576 10.5567 21.5894 10.5428L21.8577 10.2606ZM2.00055 11.1H2.28627V12.0016H2.00055V11.1ZM7.42912 11.1H7.71484V12.0016H7.42912V11.1ZM16.2863 11.1H16.572V12.0016H16.2863V11.1ZM21.7148 11.1H22.0006V12.0016H21.7148V11.1ZM2.57198 11.6891C2.65055 11.6891 2.71484 11.7567 2.71484 11.8393V11.9896H2.57198V11.6891ZM3.71484 11.6891C3.79341 11.6891 3.8577 11.7567 3.8577 11.8393V11.9896H3.57198V11.8393C3.57198 11.7567 3.63627 11.6891 3.71484 11.6891ZM4.8577 11.6891C4.93627 11.6891 5.00055 11.7567 5.00055 11.8393V11.9896H4.71484V11.8393C4.71484 11.7567 4.77913 11.6891 4.8577 11.6891ZM6.00055 11.6891C6.07913 11.6891 6.14341 11.7567 6.14341 11.8393V11.9896H5.8577V11.8393C5.8577 11.7567 5.92198 11.6891 6.00055 11.6891ZM7.14341 11.6891V11.9896H7.00055V11.8393C7.00055 11.7567 7.06484 11.6891 7.14341 11.6891ZM16.8577 11.6891C16.9363 11.6891 17.0006 11.7567 17.0006 11.8393V11.9896H16.8577V11.6891ZM18.0006 11.6891C18.0791 11.6891 18.1434 11.7567 18.1434 11.8393V11.9896H17.8577V11.8393C17.8577 11.7567 17.922 11.6891 18.0006 11.6891ZM19.1434 11.6891C19.222 11.6891 19.2863 11.7567 19.2863 11.8393V11.9896H19.0006V11.8393C19.0006 11.7567 19.0648 11.6891 19.1434 11.6891ZM20.2863 11.6891C20.3648 11.6891 20.4291 11.7567 20.4291 11.8393V11.9896H20.1434V11.8393C20.1434 11.7567 20.2077 11.6891 20.2863 11.6891ZM21.4291 11.6891V11.9896H21.2863V11.8393C21.2863 11.7567 21.3506 11.6891 21.4291 11.6891ZM8.00055 11.6915C8.07912 11.6915 8.14341 11.7591 8.14341 11.8417V11.992H8.00055V11.6915ZM9.14341 11.6915C9.1813 11.6915 9.21764 11.7073 9.24443 11.7355C9.27122 11.7637 9.28627 11.8019 9.28627 11.8417V11.992H9.00055V11.8417C9.00055 11.7591 9.06484 11.6915 9.14341 11.6915ZM10.2863 11.6915C10.3242 11.6915 10.3605 11.7073 10.3873 11.7355C10.4141 11.7637 10.4291 11.8019 10.4291 11.8417V11.992H10.1434V11.8417C10.1434 11.7591 10.2077 11.6915 10.2863 11.6915ZM11.4291 11.6915C11.467 11.6915 11.5033 11.7073 11.5301 11.7355C11.5569 11.7637 11.572 11.8019 11.572 11.8417V11.992H11.2863V11.8417C11.2863 11.7591 11.3506 11.6915 11.4291 11.6915ZM12.572 11.6915C12.6099 11.6915 12.6462 11.7073 12.673 11.7355C12.6998 11.7637 12.7148 11.8019 12.7148 11.8417V11.992H12.4291V11.8417C12.4291 11.7591 12.4934 11.6915 12.572 11.6915ZM13.7148 11.6915C13.7527 11.6915 13.7891 11.7073 13.8159 11.7355C13.8426 11.7637 13.8577 11.8019 13.8577 11.8417V11.992H13.572V11.8417C13.572 11.7591 13.6363 11.6915 13.7148 11.6915ZM14.8577 11.6915C14.8956 11.6915 14.9319 11.7073 14.9587 11.7355C14.9855 11.7637 15.0006 11.8019 15.0006 11.8417V11.992H14.7148V11.8417C14.7148 11.7591 14.7791 11.6915 14.8577 11.6915ZM16.0006 11.6915V11.992H15.8577V11.8417C15.8577 11.7591 15.922 11.6915 16.0006 11.6915ZM2.00055 12.3022H2.28627V13.2038H2.00055V12.3022ZM2.57198 12.3022H7.14341V13.2038H2.57198V12.3022ZM7.42912 12.3022H7.71484V13.2038H7.42912V12.3022ZM8.00055 12.3022H16.0006V13.2038H8.00055V12.3022ZM16.2863 12.3022H16.572V13.2038H16.2863V12.3022ZM16.8577 12.3022H21.4291V13.2038H16.8577V12.3022ZM21.7148 12.3022H22.0006V13.2038H21.7148V12.3022ZM2.98113 12.6003C2.945 12.603 2.91118 12.62 2.88651 12.6479C2.86185 12.6758 2.84818 12.7125 2.84827 12.7506C2.84827 12.7904 2.86332 12.8287 2.89011 12.8568C2.9169 12.885 2.95324 12.9009 2.99113 12.9009C3.02901 12.9009 3.06535 12.885 3.09214 12.8568C3.11893 12.8287 3.13398 12.7904 3.13398 12.7506C3.13398 12.7107 3.11893 12.6725 3.09214 12.6443C3.06535 12.6161 3.02901 12.6003 2.99113 12.6003C2.98779 12.6002 2.98446 12.6002 2.98113 12.6003ZM4.83827 12.6003C4.80214 12.603 4.76832 12.62 4.74366 12.6479C4.71899 12.6758 4.70532 12.7125 4.70541 12.7506C4.70541 12.7904 4.72046 12.8287 4.74725 12.8568C4.77404 12.885 4.81038 12.9009 4.84827 12.9009C4.88616 12.9009 4.92249 12.885 4.94928 12.8568C4.97607 12.8287 4.99113 12.7904 4.99113 12.7506C4.99113 12.7107 4.97607 12.6725 4.94928 12.6443C4.92249 12.6161 4.88616 12.6003 4.84827 12.6003C4.84494 12.6002 4.8416 12.6002 4.83827 12.6003ZM6.69541 12.6003C6.65928 12.603 6.62546 12.62 6.6008 12.6479C6.57614 12.6758 6.56246 12.7125 6.56255 12.7506C6.56255 12.7904 6.5776 12.8287 6.6044 12.8568C6.63119 12.885 6.66752 12.9009 6.70541 12.9009C6.7433 12.9009 6.77963 12.885 6.80643 12.8568C6.83322 12.8287 6.84827 12.7904 6.84827 12.7506C6.84827 12.7107 6.83322 12.6725 6.80643 12.6443C6.77963 12.6161 6.7433 12.6003 6.70541 12.6003C6.70208 12.6002 6.69874 12.6002 6.69541 12.6003ZM8.41827 12.6003C8.38229 12.6032 8.34869 12.6203 8.3242 12.6482C8.29972 12.676 8.28616 12.7126 8.28627 12.7506C8.28627 12.7904 8.30132 12.8287 8.32811 12.8568C8.3549 12.885 8.39124 12.9009 8.42912 12.9009C8.46701 12.9009 8.50335 12.885 8.53014 12.8568C8.55693 12.8287 8.57198 12.7904 8.57198 12.7506C8.57198 12.7107 8.55693 12.6725 8.53014 12.6443C8.50335 12.6161 8.46701 12.6003 8.42912 12.6003C8.4256 12.6002 8.42179 12.6002 8.41827 12.6003ZM10.704 12.6003C10.668 12.6032 10.6344 12.6203 10.6099 12.6482C10.5854 12.676 10.5719 12.7126 10.572 12.7506C10.572 12.7904 10.587 12.8287 10.6138 12.8568C10.6406 12.885 10.677 12.9009 10.7148 12.9009C10.7527 12.9009 10.7891 12.885 10.8159 12.8568C10.8426 12.8287 10.8577 12.7904 10.8577 12.7506C10.8577 12.7107 10.8426 12.6725 10.8159 12.6443C10.7891 12.6161 10.7527 12.6003 10.7148 12.6003C10.7113 12.6002 10.7075 12.6002 10.704 12.6003ZM13.2754 12.6003C13.2394 12.6032 13.2058 12.6203 13.1813 12.6482C13.1569 12.676 13.1433 12.7126 13.1434 12.7506C13.1434 12.7904 13.1585 12.8287 13.1853 12.8568C13.212 12.885 13.2484 12.9009 13.2863 12.9009C13.3242 12.9009 13.3605 12.885 13.3873 12.8568C13.4141 12.8287 13.4291 12.7904 13.4291 12.7506C13.4291 12.7107 13.4141 12.6725 13.3873 12.6443C13.3605 12.6161 13.3242 12.6003 13.2863 12.6003C13.2827 12.6002 13.2789 12.6002 13.2754 12.6003ZM15.5611 12.6003C15.5251 12.6032 15.4915 12.6203 15.4671 12.6482C15.4426 12.676 15.429 12.7126 15.4291 12.7506C15.4291 12.7904 15.4442 12.8287 15.471 12.8568C15.4978 12.885 15.5341 12.9009 15.572 12.9009C15.6099 12.9009 15.6462 12.885 15.673 12.8568C15.6998 12.8287 15.7148 12.7904 15.7148 12.7506C15.7148 12.7107 15.6998 12.6725 15.673 12.6443C15.6462 12.6161 15.6099 12.6003 15.572 12.6003C15.5685 12.6002 15.5646 12.6002 15.5611 12.6003ZM17.2754 12.6003C17.2394 12.6032 17.2058 12.6203 17.1813 12.6482C17.1569 12.676 17.1433 12.7126 17.1434 12.7506C17.1434 12.7904 17.1585 12.8287 17.1853 12.8568C17.212 12.885 17.2484 12.9009 17.2863 12.9009C17.3242 12.9009 17.3605 12.885 17.3873 12.8568C17.4141 12.8287 17.4291 12.7904 17.4291 12.7506C17.4291 12.7107 17.4141 12.6725 17.3873 12.6443C17.3605 12.6161 17.3242 12.6003 17.2863 12.6003C17.2827 12.6002 17.2789 12.6002 17.2754 12.6003ZM19.124 12.6003C19.0879 12.603 19.054 12.62 19.0294 12.6479C19.0047 12.6758 18.991 12.7125 18.9911 12.7506C18.9911 12.7904 19.0062 12.8287 19.033 12.8568C19.0598 12.885 19.0961 12.9009 19.134 12.9009C19.1719 12.9009 19.2082 12.885 19.235 12.8568C19.2618 12.8287 19.2768 12.7904 19.2768 12.7506C19.2768 12.7107 19.2618 12.6725 19.235 12.6443C19.2082 12.6161 19.1719 12.6003 19.134 12.6003C19.1306 12.6002 19.1273 12.6002 19.124 12.6003ZM20.9897 12.6003C20.9537 12.6032 20.9201 12.6203 20.8956 12.6482C20.8711 12.676 20.8576 12.7126 20.8577 12.7506C20.8577 12.7904 20.8727 12.8287 20.8995 12.8568C20.9263 12.885 20.9627 12.9009 21.0006 12.9009C21.0384 12.9009 21.0748 12.885 21.1016 12.8568C21.1284 12.8287 21.1434 12.7904 21.1434 12.7506C21.1434 12.7107 21.1284 12.6725 21.1016 12.6443C21.0748 12.6161 21.0384 12.6003 21.0006 12.6003C20.997 12.6002 20.9932 12.6002 20.9897 12.6003ZM3.56255 12.6027C3.52467 12.6027 3.48833 12.6186 3.46154 12.6467C3.43475 12.6749 3.4197 12.7131 3.4197 12.753C3.4197 12.7928 3.43475 12.8311 3.46154 12.8592C3.48833 12.8874 3.52467 12.9033 3.56255 12.9033H4.27684C4.31473 12.9033 4.35106 12.8874 4.37785 12.8592C4.40465 12.8311 4.4197 12.7928 4.4197 12.753C4.4197 12.7131 4.40465 12.6749 4.37785 12.6467C4.35106 12.6186 4.31473 12.6027 4.27684 12.6027H3.56255ZM5.4197 12.6027C5.38181 12.6027 5.34547 12.6186 5.31868 12.6467C5.29189 12.6749 5.27684 12.7131 5.27684 12.753C5.27684 12.7928 5.29189 12.8311 5.31868 12.8592C5.34547 12.8874 5.38181 12.9033 5.4197 12.9033H6.13398C6.17187 12.9033 6.20821 12.8874 6.235 12.8592C6.26179 12.8311 6.27684 12.7928 6.27684 12.753C6.27684 12.7131 6.26179 12.6749 6.235 12.6467C6.20821 12.6186 6.17187 12.6027 6.13398 12.6027H5.4197ZM9.00055 12.6027C8.96267 12.6027 8.92633 12.6186 8.89954 12.6467C8.87275 12.6749 8.8577 12.7131 8.8577 12.753C8.8577 12.7928 8.87275 12.8311 8.89954 12.8592C8.92633 12.8874 8.96267 12.9033 9.00055 12.9033H10.1434C10.1813 12.9033 10.2176 12.8874 10.2444 12.8592C10.2712 12.8311 10.2863 12.7928 10.2863 12.753C10.2863 12.7131 10.2712 12.6749 10.2444 12.6467C10.2176 12.6186 10.1813 12.6027 10.1434 12.6027H9.00055ZM11.2863 12.6027C11.2484 12.6027 11.212 12.6186 11.1853 12.6467C11.1585 12.6749 11.1434 12.7131 11.1434 12.753C11.1434 12.7928 11.1585 12.8311 11.1853 12.8592C11.212 12.8874 11.2484 12.9033 11.2863 12.9033H12.7148C12.7527 12.9033 12.7891 12.8874 12.8159 12.8592C12.8426 12.8311 12.8577 12.7928 12.8577 12.753C12.8577 12.7131 12.8426 12.6749 12.8159 12.6467C12.7891 12.6186 12.7527 12.6027 12.7148 12.6027H11.2863ZM13.8577 12.6027C13.8198 12.6027 13.7835 12.6186 13.7567 12.6467C13.7299 12.6749 13.7148 12.7131 13.7148 12.753C13.7148 12.7928 13.7299 12.8311 13.7567 12.8592C13.7835 12.8874 13.8198 12.9033 13.8577 12.9033H15.0006C15.0384 12.9033 15.0748 12.8874 15.1016 12.8592C15.1284 12.8311 15.1434 12.7928 15.1434 12.753C15.1434 12.7131 15.1284 12.6749 15.1016 12.6467C15.0748 12.6186 15.0384 12.6027 15.0006 12.6027H13.8577ZM17.8577 12.6027C17.8198 12.6027 17.7835 12.6186 17.7567 12.6467C17.7299 12.6749 17.7148 12.7131 17.7148 12.753C17.7148 12.7928 17.7299 12.8311 17.7567 12.8592C17.7835 12.8874 17.8198 12.9033 17.8577 12.9033H18.572C18.6099 12.9033 18.6462 12.8874 18.673 12.8592C18.6998 12.8311 18.7148 12.7928 18.7148 12.753C18.7148 12.7131 18.6998 12.6749 18.673 12.6467C18.6462 12.6186 18.6099 12.6027 18.572 12.6027H17.8577ZM19.7148 12.6027C19.677 12.6027 19.6406 12.6186 19.6138 12.6467C19.587 12.6749 19.572 12.7131 19.572 12.753C19.572 12.7928 19.587 12.8311 19.6138 12.8592C19.6406 12.8874 19.677 12.9033 19.7148 12.9033H20.4291C20.467 12.9033 20.5033 12.8874 20.5301 12.8592C20.5569 12.8311 20.572 12.7928 20.572 12.753C20.572 12.7131 20.5569 12.6749 20.5301 12.6467C20.5033 12.6186 20.467 12.6027 20.4291 12.6027H19.7148ZM2.00055 13.5043H2.28627V15.9087H2.00055V13.5043ZM2.57198 13.5043H7.14341V15.3097C7.03009 15.3097 6.92139 15.3569 6.84107 15.441C6.76075 15.5251 6.71537 15.6392 6.71484 15.7584V15.9063H6.42913V15.7584C6.42913 15.5099 6.23684 15.3076 6.00055 15.3076C5.76427 15.3076 5.57198 15.5099 5.57198 15.7584V15.9063H5.28627V15.7584C5.28627 15.5099 5.09398 15.3076 4.8577 15.3076C4.62141 15.3076 4.42913 15.5099 4.42913 15.7584V15.9063H4.14341V15.7584C4.14341 15.5099 3.95113 15.3076 3.71484 15.3076C3.47855 15.3076 3.28627 15.5099 3.28627 15.7584V15.9063H3.00055V15.7584C3.00055 15.5096 2.80198 15.3064 2.57198 15.3097V13.5043ZM7.42912 13.5043H7.71484V15.9087H7.42912V13.5043ZM8.00055 13.5043H11.2583L9.62884 14.1896C9.44293 14.2671 9.28356 14.4018 9.17148 14.576C9.05941 14.7503 8.99985 14.956 9.00055 15.1663V15.3349C8.83455 15.3972 8.71484 15.5628 8.71484 15.7584V15.9087H8.42912V15.7584C8.42912 15.5096 8.23055 15.3064 8.00055 15.3097V13.5043ZM12.7423 13.5043H16.0006V15.3097C15.8872 15.3097 15.7785 15.3569 15.6982 15.441C15.6179 15.5251 15.5725 15.6392 15.572 15.7584V15.9087H15.2863V15.7584C15.2863 15.5628 15.1666 15.3972 15.0006 15.3349V15.1666C15.0011 14.9562 14.9415 14.7505 14.8293 14.5763C14.7171 14.4021 14.5577 14.2674 14.3717 14.1899L12.7423 13.5043ZM16.2863 13.5043H16.572V15.9087H16.2863V13.5043ZM16.8577 13.5043H18.6734L18.158 13.868C18.0215 13.9642 17.9096 14.0942 17.8323 14.2467C17.755 14.3993 17.7147 14.5695 17.7148 14.7423V15.4125C17.6277 15.4951 17.572 15.6139 17.572 15.7464V15.9063H17.2863V15.756C17.2863 15.5072 17.0877 15.3043 16.8577 15.3076V13.5043ZM19.6128 13.5043H21.4291V15.298C21.3159 15.298 21.2072 15.3451 21.1269 15.4292C21.0466 15.5132 21.0012 15.6272 21.0006 15.7464V15.9063H20.7148V15.7464C20.7148 15.6136 20.6591 15.4951 20.572 15.4128V14.7423C20.5721 14.5694 20.5316 14.3992 20.4542 14.2467C20.3768 14.0942 20.2649 13.9641 20.1283 13.868L19.6128 13.5043ZM21.7148 13.5043H22.0006V15.9087H21.7148V13.5043ZM12.0006 13.5161L14.2657 14.4688C14.3985 14.5243 14.5123 14.6205 14.5924 14.745C14.6725 14.8694 14.7152 15.0163 14.7148 15.1666V15.3349C14.5488 15.3972 14.4291 15.5628 14.4291 15.7584V15.9087H14.1434V15.7584C14.1434 15.5099 13.9511 15.3076 13.7148 15.3076C13.4786 15.3076 13.2863 15.5099 13.2863 15.7584V15.9087H13.0006V15.7584C13.0006 15.5099 12.8083 15.3076 12.572 15.3076C12.3357 15.3076 12.1434 15.5099 12.1434 15.7584V15.9087H11.8577V15.7584C11.8577 15.5099 11.6654 15.3076 11.4291 15.3076C11.1928 15.3076 11.0006 15.5099 11.0006 15.7584V15.9087H10.7148V15.7584C10.7148 15.5099 10.5226 15.3076 10.2863 15.3076C10.05 15.3076 9.8577 15.5099 9.8577 15.7584V15.9087H9.57198V15.7584C9.57198 15.5628 9.45227 15.3972 9.28627 15.3349V15.1666C9.2858 15.0164 9.32833 14.8695 9.40834 14.745C9.48834 14.6206 9.60211 14.5243 9.73484 14.4688L12.0006 13.5161ZM19.1434 13.5347L19.97 14.1178C20.0674 14.1865 20.1472 14.2795 20.2024 14.3884C20.2575 14.4973 20.2863 14.6189 20.2863 14.7423V15.2956C20.05 15.2956 19.8577 15.4978 19.8577 15.7464V15.9063H19.572V15.7464C19.572 15.4978 19.3797 15.2956 19.1434 15.2956C18.9071 15.2956 18.7148 15.4978 18.7148 15.7464V15.9063H18.4291V15.7464C18.4291 15.4978 18.2368 15.2956 18.0006 15.2956V14.7423C18.0004 14.6189 18.0291 14.4974 18.0842 14.3885C18.1392 14.2796 18.2189 14.1866 18.3163 14.1178L19.1434 13.5347ZM18.0006 15.5964C18.0791 15.5964 18.1434 15.6637 18.1434 15.7467V15.897H17.8577V15.7467C17.8577 15.6637 17.922 15.5964 18.0006 15.5964ZM19.1434 15.5964C19.222 15.5964 19.2863 15.6637 19.2863 15.7467V15.897H19.0006V15.7467C19.0006 15.6637 19.0648 15.5964 19.1434 15.5964ZM20.2863 15.5964C20.3648 15.5964 20.4291 15.6637 20.4291 15.7467V15.897H20.1434V15.7467C20.1434 15.6637 20.2077 15.5964 20.2863 15.5964ZM21.4291 15.5964V15.897H21.2863V15.7467C21.2863 15.6637 21.3506 15.5964 21.4291 15.5964ZM16.8577 15.6054C16.9363 15.6054 17.0006 15.6734 17.0006 15.7557V15.906H16.8577V15.6054ZM2.57198 15.6081C2.65055 15.6081 2.71484 15.6758 2.71484 15.7584V15.9063H2.57198V15.6081ZM3.71484 15.6081C3.79341 15.6081 3.8577 15.6758 3.8577 15.7584V15.9063H3.57198V15.7584C3.57198 15.6758 3.63627 15.6081 3.71484 15.6081ZM4.8577 15.6081C4.93627 15.6081 5.00055 15.6758 5.00055 15.7584V15.9063H4.71484V15.7584C4.71484 15.6758 4.77913 15.6081 4.8577 15.6081ZM6.00055 15.6081C6.07913 15.6081 6.14341 15.6758 6.14341 15.7584V15.9063H5.8577V15.7584C5.8577 15.6758 5.92198 15.6081 6.00055 15.6081ZM7.14341 15.6081V15.9063H7.00055V15.7584C7.00055 15.6758 7.06484 15.6081 7.14341 15.6081ZM8.00055 15.6081C8.03844 15.6081 8.07478 15.624 8.10157 15.6522C8.12836 15.6803 8.14341 15.7186 8.14341 15.7584V15.9087H8.00055V15.6081ZM9.14341 15.6081C9.22198 15.6081 9.28627 15.6758 9.28627 15.7584V15.9087H9.00055V15.7584C9.00055 15.6758 9.06484 15.6081 9.14341 15.6081ZM10.2863 15.6081C10.3648 15.6081 10.4291 15.6758 10.4291 15.7584V15.9087H10.1434V15.7584C10.1434 15.6758 10.2077 15.6081 10.2863 15.6081ZM11.4291 15.6081C11.5077 15.6081 11.572 15.6758 11.572 15.7584V15.9087H11.2863V15.7584C11.2863 15.6758 11.3506 15.6081 11.4291 15.6081ZM12.572 15.6081C12.6506 15.6081 12.7148 15.6758 12.7148 15.7584V15.9087H12.4291V15.7584C12.4291 15.6758 12.4934 15.6081 12.572 15.6081ZM13.7148 15.6081C13.7934 15.6081 13.8577 15.6758 13.8577 15.7584V15.9087H13.572V15.7584C13.572 15.6758 13.6363 15.6081 13.7148 15.6081ZM14.8577 15.6081C14.9363 15.6081 15.0006 15.6758 15.0006 15.7584V15.9087H14.7148V15.7584C14.7148 15.6758 14.7791 15.6081 14.8577 15.6081ZM16.0006 15.6081V15.9087H15.8577V15.7584C15.8577 15.6758 15.922 15.6081 16.0006 15.6081ZM2.00055 16.2092H2.28627V23.1217H2.00055V16.2092ZM2.57198 16.2092H3.42913V23.1217H2.57198V16.2092ZM3.71484 16.2092H6.00055V17.207C5.93334 17.1341 5.85644 17.0719 5.77227 17.0222L4.92684 16.5266C4.9056 16.5142 4.88171 16.5077 4.85741 16.5077C4.83311 16.5077 4.80922 16.5142 4.78798 16.5266L3.94227 17.0222C3.85843 17.072 3.78184 17.1343 3.71484 17.207V16.2092ZM6.28627 16.2092H7.14341V23.1217H6.28627V16.2092ZM7.42912 16.2092H7.71484V23.1151H7.42912V16.2092ZM8.00055 16.2092H16.0006V23.1151H15.1434V17.2611C15.1434 17.2213 15.1284 17.1831 15.1016 17.1549C15.0748 17.1267 15.0384 17.1109 15.0006 17.1109H9.00055C8.96267 17.1109 8.92633 17.1267 8.89954 17.1549C8.87275 17.1831 8.8577 17.2213 8.8577 17.2611V23.1151H8.00055V16.2092ZM16.2863 16.2092H16.572V23.1151H16.2863V16.2092ZM16.8577 16.2092H17.7148V23.119H16.9086C16.9023 23.1181 16.8963 23.1148 16.89 23.1148H16.8577V16.2092ZM18.0006 16.2092H20.2863V17.207C20.2191 17.1341 20.1422 17.0719 20.058 17.0222L19.2126 16.5266C19.1913 16.5142 19.1674 16.5077 19.1431 16.5077C19.1188 16.5077 19.0949 16.5142 19.0737 16.5266L18.228 17.0222C18.1441 17.072 18.0676 17.1343 18.0006 17.207V16.2092ZM20.572 16.2092H21.4291V23.119H20.572V16.2092ZM21.7148 16.2092H22.0006V23.116H21.7148V16.2092ZM18.4186 16.5074C18.3825 16.5102 18.3489 16.5272 18.3243 16.5551C18.2998 16.583 18.2862 16.6196 18.2863 16.6576C18.2863 16.6975 18.3013 16.7357 18.3281 16.7639C18.3549 16.7921 18.3912 16.8079 18.4291 16.8079C18.467 16.8079 18.5033 16.7921 18.5301 16.7639C18.5569 16.7357 18.572 16.6975 18.572 16.6576C18.572 16.6178 18.5569 16.5796 18.5301 16.5514C18.5033 16.5232 18.467 16.5074 18.4291 16.5074C18.4256 16.5072 18.4221 16.5072 18.4186 16.5074ZM19.8471 16.5074C19.8111 16.5102 19.7774 16.5272 19.7529 16.5551C19.7283 16.583 19.7147 16.6196 19.7148 16.6576C19.7148 16.6975 19.7299 16.7357 19.7567 16.7639C19.7835 16.7921 19.8198 16.8079 19.8577 16.8079C19.8956 16.8079 19.9319 16.7921 19.9587 16.7639C19.9855 16.7357 20.0006 16.6975 20.0006 16.6576C20.0006 16.6178 19.9855 16.5796 19.9587 16.5514C19.9319 16.5232 19.8956 16.5074 19.8577 16.5074C19.8542 16.5072 19.8506 16.5072 19.8471 16.5074ZM3.00055 16.5098C2.96267 16.5098 2.92633 16.5256 2.89954 16.5538C2.87275 16.582 2.8577 16.6202 2.8577 16.66C2.8577 16.6999 2.87275 16.7381 2.89954 16.7663C2.92633 16.7945 2.96267 16.8103 3.00055 16.8103C3.03844 16.8103 3.07478 16.7945 3.10157 16.7663C3.12836 16.7381 3.14341 16.6999 3.14341 16.66C3.14341 16.6202 3.12836 16.582 3.10157 16.5538C3.07478 16.5256 3.03844 16.5098 3.00055 16.5098ZM17.2863 16.5098C17.2484 16.5098 17.212 16.5256 17.1853 16.5538C17.1585 16.582 17.1434 16.6202 17.1434 16.66C17.1434 16.6999 17.1585 16.7381 17.1853 16.7663C17.212 16.7945 17.2484 16.8103 17.2863 16.8103C17.3242 16.8103 17.3605 16.7945 17.3873 16.7663C17.4141 16.7381 17.4291 16.6999 17.4291 16.66C17.4291 16.6202 17.4141 16.582 17.3873 16.5538C17.3605 16.5256 17.3242 16.5098 17.2863 16.5098ZM21.0006 16.5098C20.9627 16.5098 20.9263 16.5256 20.8995 16.5538C20.8727 16.582 20.8577 16.6202 20.8577 16.66C20.8577 16.6999 20.8727 16.7381 20.8995 16.7663C20.9263 16.7945 20.9627 16.8103 21.0006 16.8103C21.0384 16.8103 21.0748 16.7945 21.1016 16.7663C21.1284 16.7381 21.1434 16.6999 21.1434 16.66C21.1434 16.6202 21.1284 16.582 21.1016 16.5538C21.0748 16.5256 21.0384 16.5098 21.0006 16.5098ZM4.13284 16.5173C4.09681 16.5201 4.06314 16.5372 4.03859 16.565C4.01405 16.5929 4.00045 16.6296 4.00055 16.6676C4.00055 16.7074 4.0156 16.7456 4.0424 16.7738C4.06919 16.802 4.10552 16.8178 4.14341 16.8178C4.1813 16.8178 4.21764 16.802 4.24443 16.7738C4.27122 16.7456 4.28627 16.7074 4.28627 16.6676C4.28627 16.6277 4.27122 16.5895 4.24443 16.5613C4.21764 16.5331 4.1813 16.5173 4.14341 16.5173C4.13989 16.5171 4.13636 16.5171 4.13284 16.5173ZM5.56141 16.5173C5.52538 16.5201 5.49171 16.5372 5.46716 16.565C5.44262 16.5929 5.42903 16.6296 5.42913 16.6676C5.42913 16.7074 5.44418 16.7456 5.47097 16.7738C5.49776 16.802 5.53409 16.8178 5.57198 16.8178C5.60987 16.8178 5.64621 16.802 5.673 16.7738C5.69979 16.7456 5.71484 16.7074 5.71484 16.6676C5.71484 16.6277 5.69979 16.5895 5.673 16.5613C5.64621 16.5331 5.60987 16.5173 5.57198 16.5173C5.56846 16.5171 5.56493 16.5171 5.56141 16.5173ZM8.41855 16.5173C8.38253 16.5201 8.34885 16.5372 8.32431 16.565C8.29976 16.5929 8.28617 16.6296 8.28627 16.6676C8.28627 16.7074 8.30132 16.7456 8.32811 16.7738C8.3549 16.802 8.39124 16.8178 8.42912 16.8178C8.46701 16.8178 8.50335 16.802 8.53014 16.7738C8.55693 16.7456 8.57198 16.7074 8.57198 16.6676C8.57198 16.6277 8.55693 16.5895 8.53014 16.5613C8.50335 16.5331 8.46701 16.5173 8.42912 16.5173C8.4256 16.5171 8.42208 16.5171 8.41855 16.5173ZM10.7043 16.5173C10.6682 16.5201 10.6346 16.5372 10.61 16.565C10.5855 16.5929 10.5719 16.6296 10.572 16.6676C10.572 16.7074 10.587 16.7456 10.6138 16.7738C10.6406 16.802 10.677 16.8178 10.7148 16.8178C10.7527 16.8178 10.7891 16.802 10.8159 16.7738C10.8426 16.7456 10.8577 16.7074 10.8577 16.6676C10.8577 16.6277 10.8426 16.5895 10.8159 16.5613C10.7891 16.5331 10.7527 16.5173 10.7148 16.5173C10.7113 16.5171 10.7078 16.5171 10.7043 16.5173ZM13.2757 16.5173C13.2397 16.5201 13.206 16.5372 13.1814 16.565C13.1569 16.5929 13.1433 16.6296 13.1434 16.6676C13.1434 16.7074 13.1585 16.7456 13.1853 16.7738C13.212 16.802 13.2484 16.8178 13.2863 16.8178C13.3242 16.8178 13.3605 16.802 13.3873 16.7738C13.4141 16.7456 13.4291 16.7074 13.4291 16.6676C13.4291 16.6277 13.4141 16.5895 13.3873 16.5613C13.3605 16.5331 13.3242 16.5173 13.2863 16.5173C13.2827 16.5171 13.2792 16.5171 13.2757 16.5173ZM15.5614 16.5173C15.5254 16.5201 15.4917 16.5372 15.4672 16.565C15.4426 16.5929 15.429 16.6296 15.4291 16.6676C15.4291 16.7074 15.4442 16.7456 15.471 16.7738C15.4978 16.802 15.5341 16.8178 15.572 16.8178C15.6099 16.8178 15.6462 16.802 15.673 16.7738C15.6998 16.7456 15.7148 16.7074 15.7148 16.6676C15.7148 16.6277 15.6998 16.5895 15.673 16.5613C15.6462 16.5331 15.6099 16.5173 15.572 16.5173C15.5685 16.5171 15.5649 16.5171 15.5614 16.5173ZM9.00055 16.5197C8.96267 16.5197 8.92633 16.5355 8.89954 16.5637C8.87275 16.5919 8.8577 16.6301 8.8577 16.67C8.8577 16.7098 8.87275 16.748 8.89954 16.7762C8.92633 16.8044 8.96267 16.8202 9.00055 16.8202H10.1434C10.1813 16.8202 10.2176 16.8044 10.2444 16.7762C10.2712 16.748 10.2863 16.7098 10.2863 16.67C10.2863 16.6301 10.2712 16.5919 10.2444 16.5637C10.2176 16.5355 10.1813 16.5197 10.1434 16.5197H9.00055ZM11.2863 16.5197C11.2484 16.5197 11.212 16.5355 11.1853 16.5637C11.1585 16.5919 11.1434 16.6301 11.1434 16.67C11.1434 16.7098 11.1585 16.748 11.1853 16.7762C11.212 16.8044 11.2484 16.8202 11.2863 16.8202H12.7148C12.7527 16.8202 12.7891 16.8044 12.8159 16.7762C12.8426 16.748 12.8577 16.7098 12.8577 16.67C12.8577 16.6301 12.8426 16.5919 12.8159 16.5637C12.7891 16.5355 12.7527 16.5197 12.7148 16.5197H11.2863ZM13.8577 16.5197C13.8198 16.5197 13.7835 16.5355 13.7567 16.5637C13.7299 16.5919 13.7148 16.6301 13.7148 16.67C13.7148 16.7098 13.7299 16.748 13.7567 16.7762C13.7835 16.8044 13.8198 16.8202 13.8577 16.8202H15.0006C15.0384 16.8202 15.0748 16.8044 15.1016 16.7762C15.1284 16.748 15.1434 16.7098 15.1434 16.67C15.1434 16.6301 15.1284 16.5919 15.1016 16.5637C15.0748 16.5355 15.0384 16.5197 15.0006 16.5197H13.8577ZM6.71198 16.5236C6.67409 16.5236 6.63776 16.5394 6.61097 16.5676C6.58418 16.5958 6.56913 16.634 6.56913 16.6739C6.56913 16.7137 6.58418 16.7519 6.61097 16.7801C6.63776 16.8083 6.67409 16.8241 6.71198 16.8241C6.74987 16.8241 6.78621 16.8083 6.813 16.7801C6.83979 16.7519 6.85484 16.7137 6.85484 16.6739C6.85484 16.634 6.83979 16.5958 6.813 16.5676C6.78621 16.5394 6.74987 16.5236 6.71198 16.5236ZM4.8577 16.8295L5.63398 17.2846C5.74508 17.3498 5.83762 17.4451 5.90206 17.5605C5.9665 17.676 6.0005 17.8074 6.00055 17.9412V18.3157H3.71484V17.9412C3.71484 17.669 3.85484 17.4174 4.08084 17.2846L4.8577 16.8295ZM19.1434 16.8295L19.9197 17.2846C20.0308 17.3498 20.1233 17.4451 20.1878 17.5605C20.2522 17.676 20.2862 17.8074 20.2863 17.9412V18.3157H18.0006V17.9412C18.0006 17.669 18.1406 17.4174 18.3666 17.2846L19.1434 16.8295ZM2.9977 17.1109C2.95981 17.1109 2.92347 17.1267 2.89668 17.1549C2.86989 17.1831 2.85484 17.2213 2.85484 17.2611V17.8622C2.85484 17.9021 2.86989 17.9403 2.89668 17.9685C2.92347 17.9966 2.95981 18.0125 2.9977 18.0125C3.03558 18.0125 3.07192 17.9966 3.09871 17.9685C3.1255 17.9403 3.14055 17.9021 3.14055 17.8622V17.2611C3.14055 17.2213 3.1255 17.1831 3.09871 17.1549C3.07192 17.1267 3.03558 17.1109 2.9977 17.1109ZM17.2834 17.1109C17.2455 17.1109 17.2092 17.1267 17.1824 17.1549C17.1556 17.1831 17.1406 17.2213 17.1406 17.2611V17.8622C17.1406 17.9021 17.1556 17.9403 17.1824 17.9685C17.2092 17.9966 17.2455 18.0125 17.2834 18.0125C17.3213 18.0125 17.3576 17.9966 17.3844 17.9685C17.4112 17.9403 17.4263 17.9021 17.4263 17.8622V17.2611C17.4263 17.2213 17.4112 17.1831 17.3844 17.1549C17.3576 17.1267 17.3213 17.1109 17.2834 17.1109ZM8.42627 17.1208C8.38838 17.1208 8.35204 17.1366 8.32525 17.1648C8.29846 17.193 8.28341 17.2312 8.28341 17.271V17.8721C8.28341 17.912 8.29846 17.9502 8.32525 17.9784C8.35204 18.0066 8.38838 18.0224 8.42627 18.0224C8.46416 18.0224 8.50049 18.0066 8.52728 17.9784C8.55407 17.9502 8.56913 17.912 8.56913 17.8721V17.271C8.56913 17.2312 8.55407 17.193 8.52728 17.1648C8.50049 17.1366 8.46416 17.1208 8.42627 17.1208ZM15.5691 17.1208C15.5312 17.1208 15.4949 17.1366 15.4681 17.1648C15.4413 17.193 15.4263 17.2312 15.4263 17.271V17.8721C15.4263 17.912 15.4413 17.9502 15.4681 17.9784C15.4949 18.0066 15.5312 18.0224 15.5691 18.0224C15.607 18.0224 15.6433 18.0066 15.6701 17.9784C15.6969 17.9502 15.712 17.912 15.712 17.8721V17.271C15.712 17.2312 15.6969 17.193 15.6701 17.1648C15.6433 17.1366 15.607 17.1208 15.5691 17.1208ZM21.0006 17.1238C20.9627 17.1238 20.9263 17.1396 20.8995 17.1678C20.8727 17.196 20.8577 17.2342 20.8577 17.274V17.8751C20.8577 17.915 20.8727 17.9532 20.8995 17.9814C20.9263 18.0096 20.9627 18.0254 21.0006 18.0254C21.0384 18.0254 21.0748 18.0096 21.1016 17.9814C21.1284 17.9532 21.1434 17.915 21.1434 17.8751V17.274C21.1434 17.2342 21.1284 17.196 21.1016 17.1678C21.0748 17.1396 21.0384 17.1238 21.0006 17.1238ZM6.71198 17.1247C6.67409 17.1247 6.63776 17.1405 6.61097 17.1687C6.58418 17.1969 6.56913 17.2351 6.56913 17.275V17.876C6.56913 17.9159 6.58418 17.9541 6.61097 17.9823C6.63776 18.0105 6.67409 18.0263 6.71198 18.0263C6.74987 18.0263 6.78621 18.0105 6.813 17.9823C6.83979 17.9541 6.85484 17.9159 6.85484 17.876V17.275C6.85484 17.2351 6.83979 17.1969 6.813 17.1687C6.78621 17.1405 6.74987 17.1247 6.71198 17.1247ZM9.14341 17.4114H14.8577V23.1151H14.572V20.1577C14.5724 19.9305 14.5183 19.7068 14.4145 19.5075C14.3106 19.3082 14.1606 19.1397 13.9783 19.0178L12.0774 17.7411C12.0544 17.7258 12.0277 17.7177 12.0004 17.7177C11.9732 17.7177 11.9465 17.7258 11.9234 17.7411L10.0223 19.0184C9.84001 19.1402 9.69004 19.3086 9.58633 19.5078C9.48261 19.707 9.42853 19.9306 9.42912 20.1577V23.1151H9.14341V17.4114ZM10.1434 17.7119C9.90712 17.7119 9.71484 17.9142 9.71484 18.1628C9.71484 18.4113 9.90712 18.6136 10.1434 18.6136C10.3797 18.6136 10.572 18.4113 10.572 18.1628C10.572 17.9142 10.3797 17.7119 10.1434 17.7119ZM13.8577 17.7119C13.6214 17.7119 13.4291 17.9142 13.4291 18.1628C13.4291 18.4113 13.6214 18.6136 13.8577 18.6136C14.094 18.6136 14.2863 18.4113 14.2863 18.1628C14.2863 17.9142 14.094 17.7119 13.8577 17.7119ZM10.1434 18.0125C10.222 18.0125 10.2863 18.0801 10.2863 18.1628C10.2863 18.2454 10.222 18.313 10.1434 18.313C10.1055 18.3129 10.0693 18.2971 10.0425 18.2689C10.0157 18.2408 10.0006 18.2026 10.0006 18.1628C10.0006 18.0801 10.0648 18.0125 10.1434 18.0125ZM13.8577 18.0125C13.9363 18.0125 14.0006 18.0801 14.0006 18.1628C14.0006 18.2454 13.9363 18.313 13.8577 18.313C13.8198 18.3129 13.7835 18.2971 13.7568 18.2689C13.73 18.2408 13.7149 18.2026 13.7148 18.1628C13.7148 18.0801 13.7791 18.0125 13.8577 18.0125ZM11.9994 18.0464L13.8237 19.2715C13.9655 19.3663 14.0822 19.4973 14.1628 19.6523C14.2435 19.8073 14.2856 19.9813 14.2851 20.1581V23.1151H13.7471V21.2337L13.7466 21.2304L13.7471 21.2268C13.7471 21.0882 13.6943 20.9533 13.6011 20.855L13.5966 20.8511L13.6011 20.8469C13.6926 20.751 13.7426 20.6245 13.746 20.4893C13.746 20.4871 13.7471 20.4847 13.7471 20.4823V20.3252C13.7475 20.1737 13.7115 20.0247 13.6424 19.8918C13.5733 19.759 13.4734 19.6467 13.352 19.5654L12.11 18.7302C12.087 18.7146 12.0602 18.7064 12.0328 18.7064C12.0055 18.7064 11.9787 18.7146 11.9557 18.7302L10.7137 19.5657C10.5923 19.647 10.4925 19.7593 10.4234 19.892C10.3543 20.0248 10.3183 20.1738 10.3186 20.3252V20.4823C10.3186 20.4886 10.3214 20.4944 10.322 20.5004C10.328 20.6314 10.3774 20.754 10.466 20.8469L10.4703 20.8511L10.466 20.8547C10.3724 20.9536 10.3196 21.0873 10.3191 21.2268V21.2274C10.3191 21.2298 10.318 21.2313 10.318 21.2337V23.1145H9.7137V20.1577C9.7137 19.7971 9.88655 19.4656 10.1757 19.2715L11.9994 18.0464ZM17.2757 18.3181C17.2397 18.3209 17.206 18.338 17.1814 18.3659C17.1569 18.3938 17.1433 18.4304 17.1434 18.4684C17.1434 18.5083 17.1585 18.5465 17.1853 18.5747C17.212 18.6028 17.2484 18.6187 17.2863 18.6187C17.3242 18.6187 17.3605 18.6028 17.3873 18.5747C17.4141 18.5465 17.4291 18.5083 17.4291 18.4684C17.4291 18.4285 17.4141 18.3903 17.3873 18.3621C17.3605 18.334 17.3242 18.3181 17.2863 18.3181C17.2827 18.318 17.2792 18.318 17.2757 18.3181ZM8.42912 18.3193C8.39124 18.3193 8.3549 18.3352 8.32811 18.3633C8.30132 18.3915 8.28627 18.4298 8.28627 18.4696C8.28627 18.5095 8.30132 18.5477 8.32811 18.5759C8.3549 18.604 8.39124 18.6199 8.42912 18.6199C8.46701 18.6199 8.50335 18.604 8.53014 18.5759C8.55693 18.5477 8.57198 18.5095 8.57198 18.4696C8.57198 18.4298 8.55693 18.3915 8.53014 18.3633C8.50335 18.3352 8.46701 18.3193 8.42912 18.3193ZM2.98827 18.3217C2.95214 18.3244 2.91832 18.3414 2.89366 18.3693C2.86899 18.3972 2.85532 18.4339 2.85541 18.472C2.85541 18.5119 2.87046 18.5501 2.89725 18.5783C2.92404 18.6064 2.96038 18.6223 2.99827 18.6223C3.03616 18.6223 3.07249 18.6064 3.09928 18.5783C3.12607 18.5501 3.14113 18.5119 3.14113 18.472C3.14113 18.4322 3.12607 18.3939 3.09928 18.3658C3.07249 18.3376 3.03616 18.3217 2.99827 18.3217C2.99494 18.3216 2.9916 18.3216 2.98827 18.3217ZM15.572 18.3229C15.5341 18.3229 15.4978 18.3388 15.471 18.367C15.4442 18.3951 15.4291 18.4334 15.4291 18.4732C15.4291 18.5131 15.4442 18.5513 15.471 18.5795C15.4978 18.6077 15.5341 18.6235 15.572 18.6235C15.6099 18.6235 15.6462 18.6077 15.673 18.5795C15.6998 18.5513 15.7148 18.5131 15.7148 18.4732C15.7148 18.4334 15.6998 18.3951 15.673 18.367C15.6462 18.3388 15.6099 18.3229 15.572 18.3229ZM21.0006 18.3259C20.9627 18.3259 20.9263 18.3418 20.8995 18.37C20.8727 18.3981 20.8577 18.4364 20.8577 18.4762C20.8577 18.5161 20.8727 18.5543 20.8995 18.5825C20.9263 18.6107 20.9627 18.6265 21.0006 18.6265C21.0384 18.6265 21.0748 18.6107 21.1016 18.5825C21.1284 18.5543 21.1434 18.5161 21.1434 18.4762C21.1434 18.4364 21.1284 18.3981 21.1016 18.37C21.0748 18.3418 21.0384 18.3259 21.0006 18.3259ZM6.71198 18.3268C6.67409 18.3268 6.63776 18.3427 6.61097 18.3709C6.58418 18.399 6.56913 18.4373 6.56913 18.4771C6.56913 18.517 6.58418 18.5552 6.61097 18.5834C6.63776 18.6116 6.67409 18.6274 6.71198 18.6274C6.74987 18.6274 6.78621 18.6116 6.813 18.5834C6.83979 18.5552 6.85484 18.517 6.85484 18.4771C6.85484 18.4373 6.83979 18.399 6.813 18.3709C6.78621 18.3427 6.74987 18.3268 6.71198 18.3268ZM3.71484 18.6163H4.00055V18.9162H3.71484V18.6163ZM4.28627 18.6163H4.71484V18.9162H4.28627V18.6163ZM5.00055 18.6163H5.42913V18.9162H5.00055V18.6163ZM5.71484 18.6163H6.00055V18.9162H5.71427L5.71484 18.915V18.6163ZM18.0006 18.6163H18.2863V18.9162H18.0006V18.6163ZM18.572 18.6163H19.0006V18.9162H18.572V18.6163ZM19.2863 18.6163H19.7148V18.9162H19.2863V18.6163ZM20.0006 18.6163H20.2863V18.9162H20L20.0006 18.915V18.6163ZM8.42912 18.9138C8.39124 18.9138 8.3549 18.9296 8.32811 18.9578C8.30132 18.986 8.28627 19.0242 8.28627 19.0641V20.2662C8.28627 20.3061 8.30132 20.3443 8.32811 20.3725C8.3549 20.4007 8.39124 20.4165 8.42912 20.4165C8.46701 20.4165 8.50335 20.4007 8.53014 20.3725C8.55693 20.3443 8.57198 20.3061 8.57198 20.2662V19.0641C8.57198 19.0242 8.55693 18.986 8.53014 18.9578C8.50335 18.9296 8.46701 18.9138 8.42912 18.9138ZM2.99827 18.9156C2.96038 18.9156 2.92404 18.9314 2.89725 18.9596C2.87046 18.9878 2.85541 19.026 2.85541 19.0659V20.2681C2.85541 20.3079 2.87046 20.3461 2.89725 20.3743C2.92404 20.4025 2.96038 20.4183 2.99827 20.4183C3.03616 20.4183 3.07249 20.4025 3.09928 20.3743C3.12607 20.3461 3.14113 20.3079 3.14113 20.2681V19.0659C3.14113 19.026 3.12607 18.9878 3.09928 18.9596C3.07249 18.9314 3.03616 18.9156 2.99827 18.9156ZM15.5708 18.9174C15.533 18.9174 15.4966 18.9332 15.4698 18.9614C15.443 18.9896 15.428 19.0278 15.428 19.0677V20.2699C15.428 20.3097 15.443 20.3479 15.4698 20.3761C15.4966 20.4043 15.533 20.4201 15.5708 20.4201C15.6087 20.4201 15.6451 20.4043 15.6719 20.3761C15.6986 20.3479 15.7137 20.3097 15.7137 20.2699V19.0677C15.7137 19.0278 15.6986 18.9896 15.6719 18.9614C15.6451 18.9332 15.6087 18.9174 15.5708 18.9174ZM17.2863 18.9192C17.2484 18.9192 17.212 18.935 17.1853 18.9632C17.1585 18.9914 17.1434 19.0296 17.1434 19.0695V20.2717C17.1434 20.3115 17.1585 20.3497 17.1853 20.3779C17.212 20.4061 17.2484 20.4219 17.2863 20.4219C17.3242 20.4219 17.3605 20.4061 17.3873 20.3779C17.4141 20.3497 17.4291 20.3115 17.4291 20.2717V19.0695C17.4291 19.0296 17.4141 18.9914 17.3873 18.9632C17.3605 18.935 17.3242 18.9192 17.2863 18.9192ZM21.0006 18.9204C20.9627 18.9204 20.9263 18.9363 20.8995 18.9644C20.8727 18.9926 20.8577 19.0308 20.8577 19.0707V20.2729C20.8577 20.3127 20.8727 20.3509 20.8995 20.3791C20.9263 20.4073 20.9627 20.4231 21.0006 20.4231C21.0384 20.4231 21.0748 20.4073 21.1016 20.3791C21.1284 20.3509 21.1434 20.3127 21.1434 20.2729V19.0707C21.1434 19.0308 21.1284 18.9926 21.1016 18.9644C21.0748 18.9363 21.0384 18.9204 21.0006 18.9204ZM6.71198 18.9216C6.67409 18.9216 6.63776 18.9375 6.61097 18.9656C6.58418 18.9938 6.56913 19.032 6.56913 19.0719V20.2741C6.56913 20.3139 6.58418 20.3521 6.61097 20.3803C6.63776 20.4085 6.67409 20.4243 6.71198 20.4243C6.74987 20.4243 6.78621 20.4085 6.813 20.3803C6.83979 20.3521 6.85484 20.3139 6.85484 20.2741V19.0719C6.85484 19.032 6.83979 18.9938 6.813 18.9656C6.78621 18.9375 6.74987 18.9216 6.71198 18.9216ZM12.0328 19.0355L13.198 19.8184C13.3631 19.9296 13.4614 20.1196 13.4614 20.3258V20.476C13.4616 20.5056 13.4561 20.535 13.4454 20.5623C13.4346 20.5897 13.4188 20.6145 13.3988 20.6353C13.3586 20.6774 13.3042 20.7011 13.2474 20.7014C13.2095 20.7014 13.1732 20.7173 13.1464 20.7454C13.1196 20.7736 13.1046 20.8118 13.1046 20.8517C13.1046 20.8916 13.1196 20.9298 13.1464 20.958C13.1732 20.9861 13.2095 21.002 13.2474 21.002C13.3034 21.002 13.3591 21.0257 13.3988 21.0678C13.4388 21.1102 13.4613 21.1674 13.4617 21.2271L13.462 21.231C13.4623 21.2322 13.4614 21.2328 13.4614 21.2343V23.1127H10.6043V21.2337C10.6043 21.2313 10.6054 21.2298 10.6054 21.2274C10.6054 21.1682 10.6283 21.1096 10.6683 21.0678C10.7085 21.0257 10.7629 21.0019 10.8197 21.0017C10.8576 21.0017 10.8939 20.9858 10.9207 20.9577C10.9475 20.9295 10.9626 20.8913 10.9626 20.8514C10.9626 20.8115 10.9475 20.7733 10.9207 20.7451C10.8939 20.717 10.8576 20.7011 10.8197 20.7011C10.7629 20.701 10.7085 20.6772 10.6683 20.6349C10.6282 20.5927 10.6056 20.5355 10.6054 20.4757C10.6054 20.4739 10.6043 20.4718 10.6043 20.47V20.3258C10.6043 20.1196 10.7031 19.9299 10.8683 19.8184L12.0328 19.0355ZM3.71484 19.2162H6.00055V19.5086H5.46141C5.42352 19.5086 5.38719 19.5244 5.3604 19.5526C5.3336 19.5808 5.31855 19.619 5.31855 19.6589C5.31855 19.6987 5.3336 19.7369 5.3604 19.7651C5.38719 19.7933 5.42352 19.8091 5.46141 19.8091H6.00055V20.1127H3.71484V19.8091H4.31855C4.35644 19.8091 4.39278 19.7933 4.41957 19.7651C4.44636 19.7369 4.46141 19.6987 4.46141 19.6589C4.46141 19.619 4.44636 19.5808 4.41957 19.5526C4.39278 19.5244 4.35644 19.5086 4.31855 19.5086H3.71484V19.2162ZM18.0006 19.2162H20.2863V19.5086H19.7471C19.7092 19.5086 19.6729 19.5244 19.6461 19.5526C19.6193 19.5808 19.6043 19.619 19.6043 19.6589C19.6043 19.6987 19.6193 19.7369 19.6461 19.7651C19.6729 19.7933 19.7092 19.8091 19.7471 19.8091H20.2863V20.1127H18.0006V19.8085H18.6043C18.6422 19.8085 18.6785 19.7927 18.7053 19.7645C18.7321 19.7363 18.7471 19.6981 18.7471 19.6583C18.7471 19.6184 18.7321 19.5802 18.7053 19.552C18.6785 19.5238 18.6422 19.508 18.6043 19.508H18.0006V19.2162ZM4.88998 19.5062C4.85209 19.5062 4.81576 19.522 4.78897 19.5502C4.76218 19.5784 4.74713 19.6166 4.74713 19.6564C4.74713 19.6963 4.76218 19.7345 4.78897 19.7627C4.81576 19.7909 4.85209 19.8067 4.88998 19.8067C4.92787 19.8067 4.96421 19.7909 4.991 19.7627C5.01779 19.7345 5.03284 19.6963 5.03284 19.6564C5.03284 19.6166 5.01779 19.5784 4.991 19.5502C4.96421 19.522 4.92787 19.5062 4.88998 19.5062ZM19.1757 19.5062C19.1378 19.5062 19.1015 19.522 19.0747 19.5502C19.0479 19.5784 19.0328 19.6166 19.0328 19.6564C19.0328 19.6963 19.0479 19.7345 19.0747 19.7627C19.1015 19.7909 19.1378 19.8067 19.1757 19.8067C19.2136 19.8067 19.2499 19.7909 19.2767 19.7627C19.3035 19.7345 19.3186 19.6963 19.3186 19.6564C19.3186 19.6166 19.3035 19.5784 19.2767 19.5502C19.2499 19.522 19.2136 19.5062 19.1757 19.5062ZM3.71484 20.4132H6.00055V21.408C5.93326 21.3352 5.85638 21.273 5.77227 21.2232L4.92684 20.7279C4.9056 20.7155 4.88171 20.7089 4.85741 20.7089C4.83311 20.7089 4.80922 20.7155 4.78798 20.7279L3.94227 21.2232C3.85831 21.2728 3.78169 21.3351 3.71484 21.408V20.4132ZM18.0006 20.4132H20.2863V21.4005C20.219 21.3277 20.1421 21.2655 20.058 21.2157L19.2126 20.7198C19.1913 20.7073 19.1674 20.7008 19.1431 20.7008C19.1188 20.7008 19.0949 20.7073 19.0737 20.7198L18.228 21.2157C18.1442 21.2653 18.0676 21.3273 18.0006 21.3999V20.4132ZM8.42912 20.7174C8.39124 20.7174 8.3549 20.7332 8.32811 20.7614C8.30132 20.7896 8.28627 20.8278 8.28627 20.8676C8.28627 20.9075 8.30132 20.9457 8.32811 20.9739C8.3549 21.0021 8.39124 21.0179 8.42912 21.0179C8.46701 21.0179 8.50335 21.0021 8.53014 20.9739C8.55693 20.9457 8.57198 20.9075 8.57198 20.8676C8.57198 20.8278 8.55693 20.7896 8.53014 20.7614C8.50335 20.7332 8.46701 20.7174 8.42912 20.7174ZM2.99827 20.7195C2.96038 20.7195 2.92404 20.7353 2.89725 20.7635C2.87046 20.7917 2.85541 20.8299 2.85541 20.8697C2.85541 20.9096 2.87046 20.9478 2.89725 20.976C2.92404 21.0042 2.96038 21.02 2.99827 21.02C3.03616 21.02 3.07249 21.0042 3.09928 20.976C3.12607 20.9478 3.14113 20.9096 3.14113 20.8697C3.14113 20.8299 3.12607 20.7917 3.09928 20.7635C3.07249 20.7353 3.03616 20.7195 2.99827 20.7195ZM15.5708 20.7207C15.533 20.7207 15.4966 20.7365 15.4698 20.7647C15.443 20.7929 15.428 20.8311 15.428 20.8709C15.428 20.9108 15.443 20.949 15.4698 20.9772C15.4966 21.0054 15.533 21.0212 15.5708 21.0212C15.6087 21.0212 15.6451 21.0054 15.6719 20.9772C15.6986 20.949 15.7137 20.9108 15.7137 20.8709C15.7137 20.8311 15.6986 20.7929 15.6719 20.7647C15.6451 20.7365 15.6087 20.7207 15.5708 20.7207ZM17.2863 20.7225C17.2484 20.7225 17.212 20.7383 17.1853 20.7665C17.1585 20.7947 17.1434 20.8329 17.1434 20.8727C17.1434 20.9126 17.1585 20.9508 17.1853 20.979C17.212 21.0072 17.2484 21.023 17.2863 21.023C17.3242 21.023 17.3605 21.0072 17.3873 20.979C17.4141 20.9508 17.4291 20.9126 17.4291 20.8727C17.4291 20.8329 17.4141 20.7947 17.3873 20.7665C17.3605 20.7383 17.3242 20.7225 17.2863 20.7225ZM21.0006 20.7237C20.9627 20.7237 20.9263 20.7395 20.8995 20.7677C20.8727 20.7959 20.8577 20.8341 20.8577 20.8739C20.8577 20.9138 20.8727 20.952 20.8995 20.9802C20.9263 21.0084 20.9627 21.0242 21.0006 21.0242C21.0384 21.0242 21.0748 21.0084 21.1016 20.9802C21.1284 20.952 21.1434 20.9138 21.1434 20.8739C21.1434 20.8341 21.1284 20.7959 21.1016 20.7677C21.0748 20.7395 21.0384 20.7237 21.0006 20.7237ZM6.71198 20.7249C6.67409 20.7249 6.63776 20.7407 6.61097 20.7689C6.58418 20.7971 6.56913 20.8353 6.56913 20.8751C6.56913 20.915 6.58418 20.9532 6.61097 20.9814C6.63776 21.0096 6.67409 21.0254 6.71198 21.0254C6.74987 21.0254 6.78621 21.0096 6.813 20.9814C6.83979 20.9532 6.85484 20.915 6.85484 20.8751C6.85484 20.8353 6.83979 20.7971 6.813 20.7689C6.78621 20.7407 6.74987 20.7249 6.71198 20.7249ZM19.1434 21.023L19.9191 21.478C20.0303 21.5433 20.1229 21.6385 20.1874 21.7539C20.252 21.8694 20.2861 22.0008 20.2863 22.1347V22.517H18.0006V22.1347C18.0006 21.8624 18.1406 21.6109 18.3666 21.478L19.1434 21.023ZM4.8577 21.0305L5.63398 21.4855C5.74519 21.5508 5.8378 21.6461 5.90225 21.7616C5.9667 21.8771 6.00064 22.0086 6.00055 22.1425V22.517H3.71484V22.1422C3.71484 21.8699 3.85484 21.6178 4.08084 21.4852L4.8577 21.0302V21.0305ZM8.42912 21.3184C8.39124 21.3184 8.3549 21.3343 8.32811 21.3625C8.30132 21.3906 8.28627 21.4289 8.28627 21.4687V22.0698C8.28627 22.1097 8.30132 22.1479 8.32811 22.1761C8.3549 22.2042 8.39124 22.2201 8.42912 22.2201C8.46701 22.2201 8.50335 22.2042 8.53014 22.1761C8.55693 22.1479 8.57198 22.1097 8.57198 22.0698V21.4687C8.57198 21.4289 8.55693 21.3906 8.53014 21.3625C8.50335 21.3343 8.46701 21.3184 8.42912 21.3184ZM2.99827 21.3199C2.96038 21.3199 2.92404 21.3358 2.89725 21.364C2.87046 21.3921 2.85541 21.4304 2.85541 21.4702V22.0713C2.85541 22.1112 2.87046 22.1494 2.89725 22.1776C2.92404 22.2057 2.96038 22.2216 2.99827 22.2216C3.03616 22.2216 3.07249 22.2057 3.09928 22.1776C3.12607 22.1494 3.14113 22.1112 3.14113 22.0713V21.4702C3.14113 21.4304 3.12607 21.3921 3.09928 21.364C3.07249 21.3358 3.03616 21.3199 2.99827 21.3199ZM15.5708 21.3218C15.533 21.3218 15.4966 21.3376 15.4698 21.3658C15.443 21.3939 15.428 21.4322 15.428 21.472V22.0731C15.428 22.113 15.443 22.1512 15.4698 22.1794C15.4966 22.2075 15.533 22.2234 15.5708 22.2234C15.6087 22.2234 15.6451 22.2075 15.6719 22.1794C15.6986 22.1512 15.7137 22.113 15.7137 22.0731V21.472C15.7137 21.4322 15.6986 21.3939 15.6719 21.3658C15.6451 21.3376 15.6087 21.3218 15.5708 21.3218ZM21.0006 21.3248C20.9627 21.3248 20.9263 21.3406 20.8995 21.3688C20.8727 21.397 20.8577 21.4352 20.8577 21.475V22.0761C20.8577 22.116 20.8727 22.1542 20.8995 22.1824C20.9263 22.2106 20.9627 22.2264 21.0006 22.2264C21.0384 22.2264 21.0748 22.2106 21.1016 22.1824C21.1284 22.1542 21.1434 22.116 21.1434 22.0761V21.475C21.1434 21.4352 21.1284 21.397 21.1016 21.3688C21.0748 21.3406 21.0384 21.3248 21.0006 21.3248ZM6.71198 21.326C6.67409 21.326 6.63776 21.3418 6.61097 21.37C6.58418 21.3982 6.56913 21.4364 6.56913 21.4762V22.0773C6.56913 22.1172 6.58418 22.1554 6.61097 22.1836C6.63776 22.2118 6.67409 22.2276 6.71198 22.2276C6.74987 22.2276 6.78621 22.2118 6.813 22.1836C6.83979 22.1554 6.85484 22.1172 6.85484 22.0773V21.4762C6.85484 21.4364 6.83979 21.3982 6.813 21.37C6.78621 21.3418 6.74987 21.326 6.71198 21.326ZM17.2863 21.3266C17.2484 21.3266 17.212 21.3424 17.1853 21.3706C17.1585 21.3988 17.1434 21.437 17.1434 21.4768V22.0779C17.1434 22.1178 17.1585 22.156 17.1853 22.1842C17.212 22.2124 17.2484 22.2282 17.2863 22.2282C17.3242 22.2282 17.3605 22.2124 17.3873 22.1842C17.4141 22.156 17.4291 22.1178 17.4291 22.0779V21.4768C17.4291 21.437 17.4141 21.3988 17.3873 21.3706C17.3605 21.3424 17.3242 21.3266 17.2863 21.3266ZM8.42912 22.5206C8.39124 22.5206 8.3549 22.5364 8.32811 22.5646C8.30132 22.5928 8.28627 22.631 8.28627 22.6709C8.28627 22.7107 8.30132 22.749 8.32811 22.7771C8.3549 22.8053 8.39124 22.8212 8.42912 22.8212C8.46701 22.8212 8.50335 22.8053 8.53014 22.7771C8.55693 22.749 8.57198 22.7107 8.57198 22.6709C8.57198 22.631 8.55693 22.5928 8.53014 22.5646C8.50335 22.5364 8.46701 22.5206 8.42912 22.5206ZM2.99827 22.5227C2.96038 22.5227 2.92404 22.5385 2.89725 22.5667C2.87046 22.5949 2.85541 22.6331 2.85541 22.673C2.85541 22.7128 2.87046 22.7511 2.89725 22.7792C2.92404 22.8074 2.96038 22.8233 2.99827 22.8233C3.03616 22.8233 3.07249 22.8074 3.09928 22.7792C3.12607 22.7511 3.14113 22.7128 3.14113 22.673C3.14113 22.6331 3.12607 22.5949 3.09928 22.5667C3.07249 22.5385 3.03616 22.5227 2.99827 22.5227ZM15.5708 22.5239C15.533 22.5239 15.4966 22.5398 15.4698 22.5679C15.443 22.5961 15.428 22.6343 15.428 22.6742C15.428 22.714 15.443 22.7523 15.4698 22.7804C15.4966 22.8086 15.533 22.8245 15.5708 22.8245C15.6087 22.8245 15.6451 22.8086 15.6719 22.7804C15.6986 22.7523 15.7137 22.714 15.7137 22.6742C15.7137 22.6343 15.6986 22.5961 15.6719 22.5679C15.6451 22.5398 15.6087 22.5239 15.5708 22.5239ZM21.0006 22.5269C20.9627 22.5269 20.9263 22.5428 20.8995 22.5709C20.8727 22.5991 20.8577 22.6373 20.8577 22.6772C20.8577 22.7171 20.8727 22.7553 20.8995 22.7835C20.9263 22.8116 20.9627 22.8275 21.0006 22.8275C21.0384 22.8275 21.0748 22.8116 21.1016 22.7835C21.1284 22.7553 21.1434 22.7171 21.1434 22.6772C21.1434 22.6373 21.1284 22.5991 21.1016 22.5709C21.0748 22.5428 21.0384 22.5269 21.0006 22.5269ZM6.71198 22.5281C6.67409 22.5281 6.63776 22.544 6.61097 22.5721C6.58418 22.6003 6.56913 22.6385 6.56913 22.6784C6.56913 22.7183 6.58418 22.7565 6.61097 22.7847C6.63776 22.8128 6.67409 22.8287 6.71198 22.8287C6.74987 22.8287 6.78621 22.8128 6.813 22.7847C6.83979 22.7565 6.85484 22.7183 6.85484 22.6784C6.85484 22.6385 6.83979 22.6003 6.813 22.5721C6.78621 22.544 6.74987 22.5281 6.71198 22.5281ZM17.2863 22.5293C17.2484 22.5293 17.212 22.5452 17.1853 22.5733C17.1585 22.6015 17.1434 22.6397 17.1434 22.6796C17.1434 22.7195 17.1585 22.7577 17.1853 22.7859C17.212 22.814 17.2484 22.8299 17.2863 22.8299C17.3242 22.8299 17.3605 22.814 17.3873 22.7859C17.4141 22.7577 17.4291 22.7195 17.4291 22.6796C17.4291 22.6397 17.4141 22.6015 17.3873 22.5733C17.3605 22.5452 17.3242 22.5293 17.2863 22.5293ZM3.71484 22.8176H4.03284V23.1175H3.71484V22.8176ZM4.31855 22.8176H4.74713V23.1175H4.31855V22.8176ZM5.03284 22.8176H5.46141V23.1175H5.03284V22.8176ZM5.74713 22.8176H6.00055V23.1175H5.74713V22.8176ZM18.0006 22.8176H18.3186V23.1097H18.0006V22.8176ZM18.6043 22.8176H19.0328V23.1097H18.6043V22.8176ZM19.3186 22.8176H19.7471V23.1097H19.3186V22.8176ZM20.0328 22.8176H20.2863V23.1097H20.0328V22.8176Z" fill="white"/>
<path d="M6.13396 15.6078C6.09608 15.6078 6.05974 15.5919 6.03295 15.5637C6.00616 15.5356 5.99111 15.4973 5.99111 15.4575V14.7416C5.99111 14.4906 5.87282 14.2574 5.67482 14.1174L4.84825 13.5346L4.02168 14.1174C3.92427 14.1861 3.84446 14.279 3.7893 14.3879C3.73414 14.4967 3.70532 14.6182 3.70539 14.7416V15.4575C3.70539 15.4973 3.69034 15.5356 3.66355 15.5637C3.63676 15.5919 3.60042 15.6078 3.56253 15.6078C3.52465 15.6078 3.48831 15.5919 3.46152 15.5637C3.43473 15.5356 3.41968 15.4973 3.41968 15.4575V14.7416C3.41968 14.3903 3.58539 14.0636 3.86282 13.8679L4.76882 13.229C4.79236 13.2124 4.82005 13.2035 4.84839 13.2035C4.87673 13.2035 4.90443 13.2124 4.92796 13.229L5.83396 13.8679C5.97035 13.964 6.08211 14.0941 6.15936 14.2464C6.2366 14.3988 6.27695 14.5689 6.27682 14.7416V15.4575C6.27682 15.4973 6.26177 15.5356 6.23498 15.5637C6.20819 15.5919 6.17185 15.6078 6.13396 15.6078Z" fill="#594454"/>
<path d="M5.27673 15.019H4.41959C4.3817 15.019 4.34537 15.0032 4.31858 14.975C4.29178 14.9468 4.27673 14.9086 4.27673 14.8688V14.2554C4.27673 14.2155 4.29178 14.1773 4.31858 14.1491C4.34537 14.1209 4.3817 14.1051 4.41959 14.1051H5.27673C5.31462 14.1051 5.35096 14.1209 5.37775 14.1491C5.40454 14.1773 5.41959 14.2155 5.41959 14.2554V14.8688C5.41959 14.9086 5.40454 14.9468 5.37775 14.975C5.35096 15.0032 5.31462 15.019 5.27673 15.019ZM4.56245 14.7185H5.13388V14.4056H4.56245V14.7185ZM19.5624 15.019H18.7053C18.6674 15.019 18.6311 15.0032 18.6043 14.975C18.5775 14.9468 18.5624 14.9086 18.5624 14.8688V14.2554C18.5624 14.2155 18.5775 14.1773 18.6043 14.1491C18.6311 14.1209 18.6674 14.1051 18.7053 14.1051H19.5624C19.6003 14.1051 19.6367 14.1209 19.6635 14.1491C19.6903 14.1773 19.7053 14.2155 19.7053 14.2554V14.8688C19.7053 14.9086 19.6903 14.9468 19.6635 14.975C19.6367 15.0032 19.6003 15.019 19.5624 15.019ZM18.8482 14.7185H19.4196V14.4056H18.8482V14.7185ZM9.7053 5.98113C9.46902 5.98113 9.27673 6.1834 9.27673 6.43194V7.63411C9.27673 7.67397 9.29178 7.71219 9.31857 7.74037C9.34537 7.76855 9.3817 7.78438 9.41959 7.78438H9.99102C10.0289 7.78438 10.0652 7.76855 10.092 7.74037C10.1188 7.71219 10.1339 7.67397 10.1339 7.63411V6.43194C10.1339 6.1834 9.94159 5.98113 9.7053 5.98113ZM9.84816 7.48384H9.56245V6.43194C9.56245 6.3493 9.62673 6.28167 9.7053 6.28167C9.78388 6.28167 9.84816 6.3493 9.84816 6.43194V7.48384ZM14.2767 5.98113C14.0404 5.98113 13.8482 6.1834 13.8482 6.43194V7.63411C13.8482 7.67397 13.8632 7.71219 13.89 7.74037C13.9168 7.76855 13.9531 7.78438 13.991 7.78438H14.5624C14.6003 7.78438 14.6367 7.76855 14.6635 7.74037C14.6903 7.71219 14.7053 7.67397 14.7053 7.63411V6.43194C14.7053 6.1834 14.513 5.98113 14.2767 5.98113ZM14.4196 7.48384H14.1339V6.43194C14.1339 6.3493 14.1982 6.28167 14.2767 6.28167C14.3553 6.28167 14.4196 6.3493 14.4196 6.43194V7.48384ZM9.99102 3.87733C10.0289 3.87733 10.0652 3.8615 10.092 3.83332C10.1188 3.80514 10.1339 3.76692 10.1339 3.72706V3.42652C10.1339 3.17797 9.94159 2.97571 9.7053 2.97571C9.46902 2.97571 9.27673 3.17797 9.27673 3.42652V3.72706C9.27673 3.76692 9.29178 3.80514 9.31857 3.83332C9.34537 3.8615 9.3817 3.87733 9.41959 3.87733H9.99102ZM9.56245 3.42652C9.56245 3.34387 9.62673 3.27625 9.7053 3.27625C9.78388 3.27625 9.84816 3.34387 9.84816 3.42652V3.57679H9.56245V3.42652ZM11.7053 3.87733H12.2767C12.3146 3.87733 12.351 3.8615 12.3777 3.83332C12.4045 3.80514 12.4196 3.76692 12.4196 3.72706V3.42652C12.4196 3.17797 12.2273 2.97571 11.991 2.97571C11.7547 2.97571 11.5624 3.17797 11.5624 3.42652V3.72706C11.5624 3.76692 11.5775 3.80514 11.6043 3.83332C11.6311 3.8615 11.6674 3.87733 11.7053 3.87733ZM11.8482 3.42652C11.8482 3.34387 11.9124 3.27625 11.991 3.27625C12.0696 3.27625 12.1339 3.34387 12.1339 3.42652V3.57679H11.8482V3.42652ZM13.991 3.87733H14.5624C14.6003 3.87733 14.6367 3.8615 14.6635 3.83332C14.6903 3.80514 14.7053 3.76692 14.7053 3.72706V3.42652C14.7053 3.17797 14.513 2.97571 14.2767 2.97571C14.0404 2.97571 13.8482 3.17797 13.8482 3.42652V3.72706C13.8482 3.76692 13.8632 3.80514 13.89 3.83332C13.9168 3.8615 13.9531 3.87733 13.991 3.87733ZM14.1339 3.42652C14.1339 3.34387 14.1982 3.27625 14.2767 3.27625C14.3553 3.27625 14.4196 3.34387 14.4196 3.42652V3.57679H14.1339V3.42652ZM11.991 5.98113C11.4396 5.98113 10.991 6.45298 10.991 7.03303C10.991 7.61308 11.4396 8.08493 11.991 8.08493C12.5424 8.08493 12.991 7.61308 12.991 7.03303C12.991 6.45298 12.5424 5.98113 11.991 5.98113ZM11.991 7.78438C11.8016 7.78423 11.62 7.70501 11.4861 7.56414C11.3522 7.42327 11.2769 7.23225 11.2767 7.03303C11.2767 6.61858 11.597 6.28167 11.991 6.28167C12.385 6.28167 12.7053 6.61858 12.7053 7.03303C12.7053 7.44748 12.385 7.78438 11.991 7.78438Z" fill="#594454"/>
<path d="M12.1335 6.88282V6.58228C12.1335 6.54242 12.1184 6.5042 12.0916 6.47602C12.0648 6.44784 12.0285 6.43201 11.9906 6.43201C11.9527 6.43201 11.9164 6.44784 11.8896 6.47602C11.8628 6.5042 11.8477 6.54242 11.8477 6.58228V7.03309C11.8477 7.07295 11.8628 7.11117 11.8896 7.13935C11.9164 7.16753 11.9527 7.18336 11.9906 7.18336H12.4192C12.4571 7.18336 12.4934 7.16753 12.5202 7.13935C12.547 7.11117 12.562 7.07295 12.562 7.03309C12.562 6.99324 12.547 6.95501 12.5202 6.92683C12.4934 6.89865 12.4571 6.88282 12.4192 6.88282H12.1335ZM13 14.1145H11C10.9621 14.1145 10.9258 14.1303 10.899 14.1585C10.8722 14.1867 10.8572 14.2249 10.8572 14.2647V14.8658C10.8572 14.9057 10.8722 14.9439 10.899 14.9721C10.9258 15.0003 10.9621 15.0161 11 15.0161H13C13.0379 15.0161 13.0743 15.0003 13.1011 14.9721C13.1278 14.9439 13.1429 14.9057 13.1429 14.8658V14.2647C13.1429 14.2249 13.1278 14.1867 13.1011 14.1585C13.0743 14.1303 13.0379 14.1145 13 14.1145ZM12.8572 14.7156H11.1429V14.415H12.8572V14.7156Z" fill="#594454"/>
</svg>
