<svg width="33" height="33" viewBox="0 0 33 33" fill="none" xmlns="http://www.w3.org/2000/svg">
<path d="M14.0876 0.5C14.0346 0.5 13.9837 0.522165 13.9462 0.561619C13.9087 0.601073 13.8876 0.654583 13.8876 0.71038V1.76228H13.2876C12.5156 1.76228 11.8876 2.42287 11.8876 3.23494V5.55584H11.492C11.439 5.55584 11.3881 5.57801 11.3506 5.61746C11.3131 5.65692 11.292 5.71043 11.292 5.76622C11.292 5.82202 11.3131 5.87553 11.3506 5.91498C11.3881 5.95444 11.439 5.9766 11.492 5.9766H11.8876V6.82401H11.7376C11.6846 6.82401 11.6337 6.84618 11.5962 6.88563C11.5587 6.92508 11.5376 6.97859 11.5376 7.03439C11.5376 7.09019 11.5587 7.1437 11.5962 7.18315C11.6337 7.22261 11.6846 7.24477 11.7376 7.24477H11.9008V16.4985H11.5008V16.278C11.5008 15.9297 11.2228 15.6456 10.9008 15.6503V15.1172L10.9584 15.0553C11.0716 14.9362 11.1344 14.7772 11.1344 14.6085C11.1344 14.4398 11.0716 14.282 10.9584 14.1625L10.4416 13.6189C10.423 13.5993 10.401 13.5837 10.3767 13.5731C10.3524 13.5625 10.3263 13.557 10.3 13.557C10.2737 13.557 10.2476 13.5625 10.2233 13.5731C10.199 13.5837 10.177 13.5993 10.1584 13.6189L9.6416 14.1629C9.58581 14.2214 9.54154 14.291 9.51134 14.3676C9.48114 14.4441 9.4656 14.5262 9.4656 14.6091C9.4656 14.692 9.48114 14.7741 9.51134 14.8507C9.54154 14.9272 9.58581 14.9968 9.6416 15.0553L9.7 15.1172V15.6473C9.54149 15.6473 9.38942 15.7133 9.277 15.8308C9.16459 15.9484 9.10095 16.108 9.1 16.2747V16.4985H8.7V16.2747C8.7 15.9267 8.4308 15.6435 8.1 15.6435C7.7692 15.6435 7.5 15.9267 7.5 16.2747V16.4985H7.1V16.2747C7.1 15.9267 6.8308 15.6435 6.5 15.6435C6.1692 15.6435 5.9 15.9267 5.9 16.2747V16.4985H5.5V16.2747C5.5 15.9267 5.2308 15.6435 4.9 15.6435C4.5692 15.6435 4.3 15.9267 4.3 16.2747V16.4985H3.9V16.2747C3.9 15.9263 3.622 15.6423 3.3 15.6469V15.1168L3.3584 15.0562C3.4716 14.9371 3.5344 14.7776 3.5344 14.6089C3.53455 14.526 3.51907 14.4439 3.48886 14.3674C3.45865 14.2908 3.41431 14.2213 3.3584 14.1629L2.8416 13.6189C2.82302 13.5993 2.80095 13.5837 2.77665 13.5731C2.75236 13.5625 2.72631 13.557 2.7 13.557C2.67369 13.557 2.64764 13.5625 2.62335 13.5731C2.59905 13.5837 2.57698 13.5993 2.5584 13.6189L2.0416 14.1629C1.98569 14.2215 1.94132 14.2911 1.91105 14.3677C1.88078 14.4444 1.86519 14.5265 1.86519 14.6095C1.86519 14.6925 1.88078 14.7747 1.91105 14.8514C1.94132 14.928 1.98569 14.9976 2.0416 15.0562L2.0992 15.1172V22.1136L2.1008 22.252V32.0792H0.7C0.58 32.0792 0.5 32.1634 0.5 32.2896C0.5 32.4158 0.58 32.5 0.7 32.5H32.3C32.42 32.5 32.5 32.4158 32.5 32.2896C32.5 32.1634 32.42 32.0792 32.3 32.0792H30.9008V15.1168L30.9584 15.0549C31.0716 14.9358 31.1344 14.7772 31.1344 14.6089C31.1348 14.526 31.1196 14.4438 31.0895 14.3671C31.0594 14.2905 31.0151 14.2209 30.9592 14.1625L30.442 13.6184C30.4045 13.579 30.3536 13.5568 30.3006 13.5568C30.2476 13.5568 30.1967 13.579 30.1592 13.6184L29.642 14.1625C29.5288 14.2811 29.4664 14.4398 29.4664 14.6085C29.4664 14.7768 29.5288 14.9354 29.6424 15.0549L29.7008 15.1168V15.6473C29.5422 15.6473 29.3901 15.7134 29.2777 15.831C29.1652 15.9486 29.1016 16.1083 29.1008 16.2751V16.4989H28.7008V16.2751C28.7008 15.9271 28.4316 15.644 28.1008 15.644C27.77 15.644 27.5008 15.9271 27.5008 16.2751V16.4989H27.1008V16.2751C27.1008 15.9271 26.8316 15.644 26.5008 15.644C26.17 15.644 25.9008 15.9271 25.9008 16.2751V16.4989H25.5008V16.2751C25.5008 15.9271 25.2316 15.644 24.9008 15.644C24.57 15.644 24.3008 15.9271 24.3008 16.2751V16.4989H23.9008V16.2751C23.9008 15.9267 23.6228 15.6427 23.3008 15.6473V15.1172L23.3584 15.0557C23.4716 14.9367 23.5344 14.7776 23.5344 14.6089C23.5344 14.4402 23.4716 14.2824 23.3584 14.1629L22.8416 13.6193C22.823 13.5997 22.801 13.5841 22.7767 13.5735C22.7524 13.5629 22.7263 13.5575 22.7 13.5575C22.6737 13.5575 22.6476 13.5629 22.6233 13.5735C22.599 13.5841 22.577 13.5997 22.5584 13.6193L22.0416 14.1633C21.9858 14.2219 21.9415 14.2914 21.9113 14.368C21.8811 14.4445 21.8656 14.5266 21.8656 14.6095C21.8656 14.6924 21.8811 14.7745 21.9113 14.8511C21.9415 14.9276 21.9858 14.9972 22.0416 15.0557L22.1 15.1176V15.6507C21.9414 15.6507 21.7893 15.7167 21.6769 15.8344C21.5644 15.952 21.5008 16.1117 21.5 16.2785V16.4989H21.1V7.14926C21.1229 7.11571 21.1358 7.07569 21.1368 7.03439C21.1362 6.98424 21.1185 6.936 21.0868 6.89849V5.9766H21.4748C21.5278 5.9766 21.5787 5.95444 21.6162 5.91498C21.6537 5.87553 21.6748 5.82202 21.6748 5.76622C21.6748 5.71043 21.6537 5.65692 21.6162 5.61746C21.5787 5.57801 21.5278 5.55584 21.4748 5.55584H21.0876V3.23494C21.0876 2.42287 20.4596 1.76228 19.6876 1.76228H19.4876V0.71038C19.4876 0.654583 19.4665 0.601073 19.429 0.561619C19.3915 0.522165 19.3406 0.5 19.2876 0.5C19.2346 0.5 19.1837 0.522165 19.1462 0.561619C19.1087 0.601073 19.0876 0.654583 19.0876 0.71038V1.76228H14.2876V0.71038C14.2876 0.654583 14.2665 0.601073 14.229 0.561619C14.1915 0.522165 14.1406 0.5 14.0876 0.5ZM13.2876 2.18304H19.6876C20.1708 2.18304 20.5744 2.54489 20.6672 3.02456H12.308C12.4008 2.54489 12.804 2.18304 13.2876 2.18304ZM12.2876 3.45878H20.6876V5.55668H12.2876V3.45878ZM12.2876 5.9766H12.6736V6.8156H12.2876V5.9766ZM13.0736 5.9766H13.872V6.8156H13.0736V5.9766ZM14.272 5.9766H15.0696V6.8156H14.272V5.9766ZM15.4696 5.9766H16.268V6.8156H15.4696V5.9766ZM16.668 5.9766H17.4648V6.8156H16.668V5.9766ZM17.8648 5.9766H18.6632V6.8156H17.8648V5.9766ZM19.0632 5.9766H19.8616V6.8156H19.0632V5.9766ZM20.2616 5.9766H20.6876V6.8156H20.2616V5.9766ZM12.3008 7.24561H14.3008V15.686C14.2367 15.6611 14.1691 15.648 14.1008 15.6473C13.77 15.6473 13.5008 15.9305 13.5008 16.2785V16.4989H13.1008V16.2785C13.1008 15.9305 12.8316 15.6473 12.5008 15.6473C12.4304 15.6473 12.3636 15.6625 12.3008 15.686V7.24561ZM14.7008 7.24561H18.3008V16.4985H17.9008V16.278C17.9008 15.9301 17.6316 15.6469 17.3008 15.6469C16.97 15.6469 16.7008 15.9301 16.7008 16.278V16.4985H16.3008V16.278C16.3008 15.9301 16.0316 15.6469 15.7008 15.6469C15.37 15.6469 15.1008 15.9301 15.1008 16.278V16.4985H14.7008V7.24561ZM18.7008 7.24561H20.7008V15.686C20.6367 15.6611 20.5691 15.648 20.5008 15.6473C20.17 15.6473 19.9008 15.9305 19.9008 16.2785V16.4989H19.5008V16.2785C19.5008 15.9305 19.2316 15.6473 18.9008 15.6473C18.8304 15.6473 18.7636 15.6625 18.7008 15.686V7.24561ZM2.7008 14.0649L3.0756 14.4599C3.1136 14.4999 3.1344 14.5525 3.1344 14.6089C3.13465 14.6365 3.12964 14.6638 3.11968 14.6893C3.10972 14.7148 3.095 14.738 3.0764 14.7574L3.018 14.8193H2.3828L2.3248 14.7574C2.30604 14.738 2.29115 14.7149 2.28098 14.6893C2.27081 14.6638 2.26557 14.6364 2.26557 14.6087C2.26557 14.581 2.27081 14.5536 2.28098 14.5281C2.29115 14.5025 2.30604 14.4794 2.3248 14.4599L2.7008 14.0649ZM10.3008 14.0649L10.6756 14.4599C10.7136 14.4999 10.7344 14.5525 10.7344 14.6089C10.7346 14.6365 10.7296 14.6638 10.7197 14.6893C10.7097 14.7148 10.695 14.738 10.6764 14.7574L10.618 14.8193H9.9828L9.9248 14.7574C9.90604 14.738 9.89115 14.7149 9.88098 14.6893C9.87081 14.6638 9.86557 14.6364 9.86557 14.6087C9.86557 14.581 9.87081 14.5536 9.88098 14.5281C9.89115 14.5025 9.90604 14.4794 9.9248 14.4599L10.3008 14.0649ZM22.7008 14.0649L23.0756 14.4599C23.1136 14.4999 23.1344 14.5525 23.1344 14.6089C23.1346 14.6365 23.1296 14.6638 23.1197 14.6893C23.1097 14.7148 23.095 14.738 23.0764 14.7574L23.018 14.8193H22.3828L22.3252 14.7574C22.3064 14.738 22.2915 14.7149 22.2814 14.6893C22.2712 14.6638 22.266 14.6364 22.266 14.6087C22.266 14.581 22.2712 14.5536 22.2814 14.5281C22.2915 14.5025 22.3064 14.4794 22.3252 14.4599L22.7008 14.0649ZM30.3008 14.0649L30.6756 14.4599C30.7136 14.4999 30.7344 14.5525 30.7344 14.6089C30.7346 14.6365 30.7296 14.6638 30.7197 14.6893C30.7097 14.7148 30.695 14.738 30.6764 14.7574L30.618 14.8193H29.9828L29.9252 14.7574C29.9064 14.738 29.8915 14.7149 29.8814 14.6893C29.8712 14.6638 29.866 14.6364 29.866 14.6087C29.866 14.581 29.8712 14.5536 29.8814 14.5281C29.8915 14.5025 29.9064 14.4794 29.9252 14.4599L30.3008 14.0649ZM2.5008 15.24H2.9008V16.5023H2.5008V15.24ZM10.1008 15.24H10.5008V16.5023H10.1008V15.24ZM22.5008 15.24H22.9008V16.5023H22.5008V15.24ZM30.1008 15.24H30.5008V16.5023H30.1008V15.24ZM3.3008 16.0647C3.4108 16.0647 3.5008 16.1594 3.5008 16.2751V16.4855H3.3008V16.0647ZM4.9008 16.0647C5.0108 16.0647 5.1008 16.1594 5.1008 16.2751V16.4855H4.7008V16.2751C4.7008 16.1594 4.7908 16.0647 4.9008 16.0647ZM6.5008 16.0647C6.6108 16.0647 6.7008 16.1594 6.7008 16.2751V16.4855H6.3008V16.2751C6.3008 16.1594 6.3908 16.0647 6.5008 16.0647ZM8.1008 16.0647C8.2108 16.0647 8.3008 16.1594 8.3008 16.2751V16.4855H7.9008V16.2751C7.9008 16.1594 7.9908 16.0647 8.1008 16.0647ZM9.7008 16.0647V16.4855H9.5008V16.2751C9.5008 16.1594 9.5908 16.0647 9.7008 16.0647ZM23.3008 16.0647C23.4108 16.0647 23.5008 16.1594 23.5008 16.2751V16.4855H23.3008V16.0647ZM24.9008 16.0647C25.0108 16.0647 25.1008 16.1594 25.1008 16.2751V16.4855H24.7008V16.2751C24.7008 16.1594 24.7908 16.0647 24.9008 16.0647ZM26.5008 16.0647C26.6108 16.0647 26.7008 16.1594 26.7008 16.2751V16.4855H26.3008V16.2751C26.3008 16.1594 26.3908 16.0647 26.5008 16.0647ZM28.1008 16.0647C28.2108 16.0647 28.3008 16.1594 28.3008 16.2751V16.4855H27.9008V16.2751C27.9008 16.1594 27.9908 16.0647 28.1008 16.0647ZM29.7008 16.0647V16.4855H29.5008V16.2751C29.5008 16.1594 29.5908 16.0647 29.7008 16.0647ZM10.9008 16.0681C11.0108 16.0681 11.1008 16.1628 11.1008 16.2785V16.4888H10.9008V16.0681ZM12.5008 16.0681C12.5538 16.0681 12.6047 16.0903 12.6422 16.1297C12.6797 16.1692 12.7008 16.2227 12.7008 16.2785V16.4888H12.3008V16.2785C12.3008 16.1628 12.3908 16.0681 12.5008 16.0681ZM14.1008 16.0681C14.1538 16.0681 14.2047 16.0903 14.2422 16.1297C14.2797 16.1692 14.3008 16.2227 14.3008 16.2785V16.4888H13.9008V16.2785C13.9008 16.1628 13.9908 16.0681 14.1008 16.0681ZM15.7008 16.0681C15.7538 16.0681 15.8047 16.0903 15.8422 16.1297C15.8797 16.1692 15.9008 16.2227 15.9008 16.2785V16.4888H15.5008V16.2785C15.5008 16.1628 15.5908 16.0681 15.7008 16.0681ZM17.3008 16.0681C17.3538 16.0681 17.4047 16.0903 17.4422 16.1297C17.4797 16.1692 17.5008 16.2227 17.5008 16.2785V16.4888H17.1008V16.2785C17.1008 16.1628 17.1908 16.0681 17.3008 16.0681ZM18.9008 16.0681C18.9538 16.0681 19.0047 16.0903 19.0422 16.1297C19.0797 16.1692 19.1008 16.2227 19.1008 16.2785V16.4888H18.7008V16.2785C18.7008 16.1628 18.7908 16.0681 18.9008 16.0681ZM20.5008 16.0681C20.5538 16.0681 20.6047 16.0903 20.6422 16.1297C20.6797 16.1692 20.7008 16.2227 20.7008 16.2785V16.4888H20.3008V16.2785C20.3008 16.1628 20.3908 16.0681 20.5008 16.0681ZM22.1008 16.0681V16.4888H21.9008V16.2785C21.9008 16.1628 21.9908 16.0681 22.1008 16.0681ZM2.5008 16.9231H2.9008V18.1854H2.5008V16.9231ZM3.3008 16.9231H9.7008V18.1854H3.3008V16.9231ZM10.1008 16.9231H10.5008V18.1854H10.1008V16.9231ZM10.9008 16.9231H22.1008V18.1854H10.9008V16.9231ZM22.5008 16.9231H22.9008V18.1854H22.5008V16.9231ZM23.3008 16.9231H29.7008V18.1854H23.3008V16.9231ZM30.1008 16.9231H30.5008V18.1854H30.1008V16.9231ZM3.8736 17.3405C3.82302 17.3442 3.77568 17.368 3.74115 17.4071C3.70661 17.4461 3.68748 17.4975 3.6876 17.5508C3.6876 17.6066 3.70867 17.6602 3.74618 17.6996C3.78369 17.7391 3.83456 17.7612 3.8876 17.7612C3.94064 17.7612 3.99151 17.7391 4.02902 17.6996C4.06653 17.6602 4.0876 17.6066 4.0876 17.5508C4.0876 17.4951 4.06653 17.4415 4.02902 17.4021C3.99151 17.3626 3.94064 17.3405 3.8876 17.3405C3.88293 17.3403 3.87827 17.3403 3.8736 17.3405ZM6.4736 17.3405C6.42302 17.3442 6.37568 17.368 6.34115 17.4071C6.30661 17.4461 6.28748 17.4975 6.2876 17.5508C6.2876 17.6066 6.30867 17.6602 6.34618 17.6996C6.38369 17.7391 6.43456 17.7612 6.4876 17.7612C6.54064 17.7612 6.59151 17.7391 6.62902 17.6996C6.66653 17.6602 6.6876 17.6066 6.6876 17.5508C6.6876 17.4951 6.66653 17.4415 6.62902 17.4021C6.59151 17.3626 6.54064 17.3405 6.4876 17.3405C6.48293 17.3403 6.47827 17.3403 6.4736 17.3405ZM9.0736 17.3405C9.02302 17.3442 8.97568 17.368 8.94115 17.4071C8.90662 17.4461 8.88748 17.4975 8.8876 17.5508C8.8876 17.6066 8.90867 17.6602 8.94618 17.6996C8.98369 17.7391 9.03456 17.7612 9.0876 17.7612C9.14064 17.7612 9.19151 17.7391 9.22902 17.6996C9.26653 17.6602 9.2876 17.6066 9.2876 17.5508C9.2876 17.4951 9.26653 17.4415 9.22902 17.4021C9.19151 17.3626 9.14064 17.3405 9.0876 17.3405C9.08293 17.3403 9.07827 17.3403 9.0736 17.3405ZM11.4856 17.3405C11.4352 17.3445 11.3882 17.3684 11.3539 17.4075C11.3196 17.4465 11.3007 17.4977 11.3008 17.5508C11.3008 17.6066 11.3219 17.6602 11.3594 17.6996C11.3969 17.7391 11.4478 17.7612 11.5008 17.7612C11.5538 17.7612 11.6047 17.7391 11.6422 17.6996C11.6797 17.6602 11.7008 17.6066 11.7008 17.5508C11.7008 17.4951 11.6797 17.4415 11.6422 17.4021C11.6047 17.3626 11.5538 17.3405 11.5008 17.3405C11.4959 17.3403 11.4905 17.3403 11.4856 17.3405ZM14.6856 17.3405C14.6352 17.3445 14.5882 17.3684 14.5539 17.4075C14.5196 17.4465 14.5007 17.4977 14.5008 17.5508C14.5008 17.6066 14.5219 17.6602 14.5594 17.6996C14.5969 17.7391 14.6478 17.7612 14.7008 17.7612C14.7538 17.7612 14.8047 17.7391 14.8422 17.6996C14.8797 17.6602 14.9008 17.6066 14.9008 17.5508C14.9008 17.4951 14.8797 17.4415 14.8422 17.4021C14.8047 17.3626 14.7538 17.3405 14.7008 17.3405C14.6959 17.3403 14.6905 17.3403 14.6856 17.3405ZM18.2856 17.3405C18.2352 17.3445 18.1882 17.3684 18.1539 17.4075C18.1196 17.4465 18.1007 17.4977 18.1008 17.5508C18.1008 17.6066 18.1219 17.6602 18.1594 17.6996C18.1969 17.7391 18.2478 17.7612 18.3008 17.7612C18.3538 17.7612 18.4047 17.7391 18.4422 17.6996C18.4797 17.6602 18.5008 17.6066 18.5008 17.5508C18.5008 17.4951 18.4797 17.4415 18.4422 17.4021C18.4047 17.3626 18.3538 17.3405 18.3008 17.3405C18.2959 17.3403 18.2905 17.3403 18.2856 17.3405ZM21.4856 17.3405C21.4352 17.3445 21.3882 17.3684 21.3539 17.4075C21.3196 17.4465 21.3007 17.4977 21.3008 17.5508C21.3008 17.6066 21.3219 17.6602 21.3594 17.6996C21.3969 17.7391 21.4478 17.7612 21.5008 17.7612C21.5538 17.7612 21.6047 17.7391 21.6422 17.6996C21.6797 17.6602 21.7008 17.6066 21.7008 17.5508C21.7008 17.4951 21.6797 17.4415 21.6422 17.4021C21.6047 17.3626 21.5538 17.3405 21.5008 17.3405C21.4959 17.3403 21.4905 17.3403 21.4856 17.3405ZM23.8856 17.3405C23.8352 17.3445 23.7882 17.3684 23.7539 17.4075C23.7196 17.4465 23.7007 17.4977 23.7008 17.5508C23.7008 17.6066 23.7219 17.6602 23.7594 17.6996C23.7969 17.7391 23.8478 17.7612 23.9008 17.7612C23.9538 17.7612 24.0047 17.7391 24.0422 17.6996C24.0797 17.6602 24.1008 17.6066 24.1008 17.5508C24.1008 17.4951 24.0797 17.4415 24.0422 17.4021C24.0047 17.3626 23.9538 17.3405 23.9008 17.3405C23.8959 17.3403 23.8905 17.3403 23.8856 17.3405ZM26.4736 17.3405C26.423 17.3442 26.3757 17.368 26.3411 17.4071C26.3066 17.4461 26.2875 17.4975 26.2876 17.5508C26.2876 17.6066 26.3087 17.6602 26.3462 17.6996C26.3837 17.7391 26.4346 17.7612 26.4876 17.7612C26.5406 17.7612 26.5915 17.7391 26.629 17.6996C26.6665 17.6602 26.6876 17.6066 26.6876 17.5508C26.6876 17.4951 26.6665 17.4415 26.629 17.4021C26.5915 17.3626 26.5406 17.3405 26.4876 17.3405C26.4829 17.3403 26.4783 17.3403 26.4736 17.3405ZM29.0856 17.3405C29.0352 17.3445 28.9882 17.3684 28.9539 17.4075C28.9196 17.4465 28.9007 17.4977 28.9008 17.5508C28.9008 17.6066 28.9219 17.6602 28.9594 17.6996C28.9969 17.7391 29.0478 17.7612 29.1008 17.7612C29.1538 17.7612 29.2047 17.7391 29.2422 17.6996C29.2797 17.6602 29.3008 17.6066 29.3008 17.5508C29.3008 17.4951 29.2797 17.4415 29.2422 17.4021C29.2047 17.3626 29.1538 17.3405 29.1008 17.3405C29.0959 17.3403 29.0905 17.3403 29.0856 17.3405ZM4.6876 17.3438C4.63456 17.3438 4.58369 17.366 4.54618 17.4055C4.50867 17.4449 4.4876 17.4984 4.4876 17.5542C4.4876 17.61 4.50867 17.6635 4.54618 17.703C4.58369 17.7424 4.63456 17.7646 4.6876 17.7646H5.6876C5.74064 17.7646 5.79151 17.7424 5.82902 17.703C5.86653 17.6635 5.8876 17.61 5.8876 17.5542C5.8876 17.4984 5.86653 17.4449 5.82902 17.4055C5.79151 17.366 5.74064 17.3438 5.6876 17.3438H4.6876ZM7.2876 17.3438C7.23456 17.3438 7.18369 17.366 7.14618 17.4055C7.10867 17.4449 7.0876 17.4984 7.0876 17.5542C7.0876 17.61 7.10867 17.6635 7.14618 17.703C7.18369 17.7424 7.23456 17.7646 7.2876 17.7646H8.2876C8.34064 17.7646 8.39151 17.7424 8.42902 17.703C8.46653 17.6635 8.4876 17.61 8.4876 17.5542C8.4876 17.4984 8.46653 17.4449 8.42902 17.4055C8.39151 17.366 8.34064 17.3438 8.2876 17.3438H7.2876ZM12.3008 17.3438C12.2478 17.3438 12.1969 17.366 12.1594 17.4055C12.1219 17.4449 12.1008 17.4984 12.1008 17.5542C12.1008 17.61 12.1219 17.6635 12.1594 17.703C12.1969 17.7424 12.2478 17.7646 12.3008 17.7646H13.9008C13.9538 17.7646 14.0047 17.7424 14.0422 17.703C14.0797 17.6635 14.1008 17.61 14.1008 17.5542C14.1008 17.4984 14.0797 17.4449 14.0422 17.4055C14.0047 17.366 13.9538 17.3438 13.9008 17.3438H12.3008ZM15.5008 17.3438C15.4478 17.3438 15.3969 17.366 15.3594 17.4055C15.3219 17.4449 15.3008 17.4984 15.3008 17.5542C15.3008 17.61 15.3219 17.6635 15.3594 17.703C15.3969 17.7424 15.4478 17.7646 15.5008 17.7646H17.5008C17.5538 17.7646 17.6047 17.7424 17.6422 17.703C17.6797 17.6635 17.7008 17.61 17.7008 17.5542C17.7008 17.4984 17.6797 17.4449 17.6422 17.4055C17.6047 17.366 17.5538 17.3438 17.5008 17.3438H15.5008ZM19.1008 17.3438C19.0478 17.3438 18.9969 17.366 18.9594 17.4055C18.9219 17.4449 18.9008 17.4984 18.9008 17.5542C18.9008 17.61 18.9219 17.6635 18.9594 17.703C18.9969 17.7424 19.0478 17.7646 19.1008 17.7646H20.7008C20.7538 17.7646 20.8047 17.7424 20.8422 17.703C20.8797 17.6635 20.9008 17.61 20.9008 17.5542C20.9008 17.4984 20.8797 17.4449 20.8422 17.4055C20.8047 17.366 20.7538 17.3438 20.7008 17.3438H19.1008ZM24.7008 17.3438C24.6478 17.3438 24.5969 17.366 24.5594 17.4055C24.5219 17.4449 24.5008 17.4984 24.5008 17.5542C24.5008 17.61 24.5219 17.6635 24.5594 17.703C24.5969 17.7424 24.6478 17.7646 24.7008 17.7646H25.7008C25.7538 17.7646 25.8047 17.7424 25.8422 17.703C25.8797 17.6635 25.9008 17.61 25.9008 17.5542C25.9008 17.4984 25.8797 17.4449 25.8422 17.4055C25.8047 17.366 25.7538 17.3438 25.7008 17.3438H24.7008ZM27.3008 17.3438C27.2478 17.3438 27.1969 17.366 27.1594 17.4055C27.1219 17.4449 27.1008 17.4984 27.1008 17.5542C27.1008 17.61 27.1219 17.6635 27.1594 17.703C27.1969 17.7424 27.2478 17.7646 27.3008 17.7646H28.3008C28.3538 17.7646 28.4047 17.7424 28.4422 17.703C28.4797 17.6635 28.5008 17.61 28.5008 17.5542C28.5008 17.4984 28.4797 17.4449 28.4422 17.4055C28.4047 17.366 28.3538 17.3438 28.3008 17.3438H27.3008ZM2.5008 18.6061H2.9008V21.9722H2.5008V18.6061ZM3.3008 18.6061H9.7008V21.1336C9.54215 21.1336 9.38997 21.1997 9.27752 21.3174C9.16508 21.4351 9.10154 21.5949 9.1008 21.7618V21.9688H8.7008V21.7618C8.7008 21.4138 8.4316 21.1307 8.1008 21.1307C7.77 21.1307 7.5008 21.4138 7.5008 21.7618V21.9688H7.1008V21.7618C7.1008 21.4138 6.8316 21.1307 6.5008 21.1307C6.17 21.1307 5.9008 21.4138 5.9008 21.7618V21.9688H5.5008V21.7618C5.5008 21.4138 5.2316 21.1307 4.9008 21.1307C4.57 21.1307 4.3008 21.4138 4.3008 21.7618V21.9688H3.9008V21.7618C3.9008 21.4134 3.6228 21.129 3.3008 21.1336V18.6061ZM10.1008 18.6061H10.5008V21.9722H10.1008V18.6061ZM10.9008 18.6061H15.4616L13.1804 19.5654C12.9201 19.674 12.697 19.8626 12.5401 20.1065C12.3832 20.3504 12.2998 20.6384 12.3008 20.9329V21.169C12.0684 21.2561 11.9008 21.4879 11.9008 21.7618V21.9722H11.5008V21.7618C11.5008 21.4134 11.2228 21.129 10.9008 21.1336V18.6061ZM17.5392 18.6061H22.1008V21.1336C21.9422 21.1336 21.79 21.1997 21.6775 21.3174C21.5651 21.4351 21.5015 21.5949 21.5008 21.7618V21.9722H21.1008V21.7618C21.1008 21.4879 20.9332 21.2561 20.7008 21.169V20.9333C20.7016 20.6387 20.6181 20.3507 20.461 20.1068C20.304 19.8629 20.0808 19.6744 19.8204 19.5659L17.5392 18.6061ZM22.5008 18.6061H22.9008V21.9722H22.5008V18.6061ZM23.3008 18.6061H25.8428L25.1212 19.1152C24.9301 19.2498 24.7735 19.432 24.6652 19.6455C24.557 19.859 24.5005 20.0973 24.5008 20.3392V21.2775C24.3788 21.3932 24.3008 21.5594 24.3008 21.745V21.9688H23.9008V21.7584C23.9008 21.41 23.6228 21.126 23.3008 21.1307V18.6061ZM27.158 18.6061H29.7008V21.1172C29.5422 21.1172 29.3901 21.1832 29.2777 21.3009C29.1652 21.4185 29.1016 21.5782 29.1008 21.745V21.9688H28.7008V21.745C28.7008 21.559 28.6228 21.3932 28.5008 21.2779V20.3392C28.5009 20.0972 28.4443 19.8589 28.3359 19.6454C28.2276 19.4319 28.0708 19.2498 27.8796 19.1152L27.158 18.6061ZM30.1008 18.6061H30.5008V21.9722H30.1008V18.6061ZM16.5008 18.6225L19.672 19.9563C19.8579 20.034 20.0173 20.1687 20.1294 20.343C20.2416 20.5172 20.3013 20.7229 20.3008 20.9333V21.169C20.0684 21.2561 19.9008 21.4879 19.9008 21.7618V21.9722H19.5008V21.7618C19.5008 21.4138 19.2316 21.1307 18.9008 21.1307C18.57 21.1307 18.3008 21.4138 18.3008 21.7618V21.9722H17.9008V21.7618C17.9008 21.4138 17.6316 21.1307 17.3008 21.1307C16.97 21.1307 16.7008 21.4138 16.7008 21.7618V21.9722H16.3008V21.7618C16.3008 21.4138 16.0316 21.1307 15.7008 21.1307C15.37 21.1307 15.1008 21.4138 15.1008 21.7618V21.9722H14.7008V21.7618C14.7008 21.4138 14.4316 21.1307 14.1008 21.1307C13.77 21.1307 13.5008 21.4138 13.5008 21.7618V21.9722H13.1008V21.7618C13.1008 21.4879 12.9332 21.2561 12.7008 21.169V20.9333C12.7001 20.723 12.7597 20.5173 12.8717 20.3431C12.9837 20.1688 13.143 20.034 13.3288 19.9563L16.5008 18.6225ZM26.5008 18.6486L27.658 19.4649C27.7944 19.5612 27.9061 19.6913 27.9833 19.8438C28.0606 19.9963 28.1009 20.1664 28.1008 20.3392V21.1138C27.77 21.1138 27.5008 21.397 27.5008 21.745V21.9688H27.1008V21.745C27.1008 21.397 26.8316 21.1138 26.5008 21.1138C26.17 21.1138 25.9008 21.397 25.9008 21.745V21.9688H25.5008V21.745C25.5008 21.397 25.2316 21.1138 24.9008 21.1138V20.3392C24.9006 20.1665 24.9408 19.9964 25.0179 19.8439C25.095 19.6914 25.2066 19.5613 25.3428 19.4649L26.5008 18.6486ZM24.9008 21.535C25.0108 21.535 25.1008 21.6293 25.1008 21.7454V21.9558H24.7008V21.7454C24.7008 21.6293 24.7908 21.535 24.9008 21.535ZM26.5008 21.535C26.6108 21.535 26.7008 21.6293 26.7008 21.7454V21.9558H26.3008V21.7454C26.3008 21.6293 26.3908 21.535 26.5008 21.535ZM28.1008 21.535C28.2108 21.535 28.3008 21.6293 28.3008 21.7454V21.9558H27.9008V21.7454C27.9008 21.6293 27.9908 21.535 28.1008 21.535ZM29.7008 21.535V21.9558H29.5008V21.7454C29.5008 21.6293 29.5908 21.535 29.7008 21.535ZM23.3008 21.5476C23.4108 21.5476 23.5008 21.6427 23.5008 21.758V21.9684H23.3008V21.5476ZM3.3008 21.5514C3.4108 21.5514 3.5008 21.6461 3.5008 21.7618V21.9688H3.3008V21.5514ZM4.9008 21.5514C5.0108 21.5514 5.1008 21.6461 5.1008 21.7618V21.9688H4.7008V21.7618C4.7008 21.6461 4.7908 21.5514 4.9008 21.5514ZM6.5008 21.5514C6.6108 21.5514 6.7008 21.6461 6.7008 21.7618V21.9688H6.3008V21.7618C6.3008 21.6461 6.3908 21.5514 6.5008 21.5514ZM8.1008 21.5514C8.2108 21.5514 8.3008 21.6461 8.3008 21.7618V21.9688H7.9008V21.7618C7.9008 21.6461 7.9908 21.5514 8.1008 21.5514ZM9.7008 21.5514V21.9688H9.5008V21.7618C9.5008 21.6461 9.5908 21.5514 9.7008 21.5514ZM10.9008 21.5514C10.9538 21.5514 11.0047 21.5736 11.0422 21.613C11.0797 21.6525 11.1008 21.706 11.1008 21.7618V21.9722H10.9008V21.5514ZM12.5008 21.5514C12.6108 21.5514 12.7008 21.6461 12.7008 21.7618V21.9722H12.3008V21.7618C12.3008 21.6461 12.3908 21.5514 12.5008 21.5514ZM14.1008 21.5514C14.2108 21.5514 14.3008 21.6461 14.3008 21.7618V21.9722H13.9008V21.7618C13.9008 21.6461 13.9908 21.5514 14.1008 21.5514ZM15.7008 21.5514C15.8108 21.5514 15.9008 21.6461 15.9008 21.7618V21.9722H15.5008V21.7618C15.5008 21.6461 15.5908 21.5514 15.7008 21.5514ZM17.3008 21.5514C17.4108 21.5514 17.5008 21.6461 17.5008 21.7618V21.9722H17.1008V21.7618C17.1008 21.6461 17.1908 21.5514 17.3008 21.5514ZM18.9008 21.5514C19.0108 21.5514 19.1008 21.6461 19.1008 21.7618V21.9722H18.7008V21.7618C18.7008 21.6461 18.7908 21.5514 18.9008 21.5514ZM20.5008 21.5514C20.6108 21.5514 20.7008 21.6461 20.7008 21.7618V21.9722H20.3008V21.7618C20.3008 21.6461 20.3908 21.5514 20.5008 21.5514ZM22.1008 21.5514V21.9722H21.9008V21.7618C21.9008 21.6461 21.9908 21.5514 22.1008 21.5514ZM2.5008 22.3929H2.9008V32.0704H2.5008V22.3929ZM3.3008 22.3929H4.5008V32.0704H3.3008V22.3929ZM4.9008 22.3929H8.1008V23.7899C8.0067 23.6878 7.89905 23.6007 7.7812 23.5311L6.5976 22.8373C6.56787 22.8199 6.53442 22.8107 6.5004 22.8107C6.46638 22.8107 6.43293 22.8199 6.4032 22.8373L5.2192 23.5311C5.10183 23.6009 4.9946 23.688 4.9008 23.7899V22.3929ZM8.5008 22.3929H9.7008V32.0704H8.5008V22.3929ZM10.1008 22.3929H10.5008V32.0611H10.1008V22.3929ZM10.9008 22.3929H22.1008V32.0611H20.9008V23.8656C20.9008 23.8098 20.8797 23.7563 20.8422 23.7168C20.8047 23.6774 20.7538 23.6552 20.7008 23.6552H12.3008C12.2478 23.6552 12.1969 23.6774 12.1594 23.7168C12.1219 23.7563 12.1008 23.8098 12.1008 23.8656V32.0611H10.9008V22.3929ZM22.5008 22.3929H22.9008V32.0611H22.5008V22.3929ZM23.3008 22.3929H24.5008V32.0666H23.372C23.3632 32.0654 23.3548 32.0607 23.346 32.0607H23.3008V22.3929ZM24.9008 22.3929H28.1008V23.7899C28.0067 23.6878 27.899 23.6007 27.7812 23.5311L26.5976 22.8373C26.5679 22.8199 26.5344 22.8107 26.5004 22.8107C26.4664 22.8107 26.4329 22.8199 26.4032 22.8373L25.2192 23.5311C25.1018 23.6009 24.9946 23.688 24.9008 23.7899V22.3929ZM28.5008 22.3929H29.7008V32.0666H28.5008V22.3929ZM30.1008 22.3929H30.5008V32.0624H30.1008V22.3929ZM25.486 22.8103C25.4356 22.8143 25.3884 22.8382 25.3541 22.8772C25.3197 22.9162 25.3007 22.9675 25.3008 23.0207C25.3008 23.0765 25.3219 23.13 25.3594 23.1695C25.3969 23.2089 25.4478 23.2311 25.5008 23.2311C25.5538 23.2311 25.6047 23.2089 25.6422 23.1695C25.6797 23.13 25.7008 23.0765 25.7008 23.0207C25.7008 22.9649 25.6797 22.9114 25.6422 22.872C25.6047 22.8325 25.5538 22.8103 25.5008 22.8103C25.4959 22.8101 25.4909 22.8101 25.486 22.8103ZM27.486 22.8103C27.4356 22.8143 27.3884 22.8382 27.3541 22.8772C27.3197 22.9162 27.3007 22.9675 27.3008 23.0207C27.3008 23.0765 27.3219 23.13 27.3594 23.1695C27.3969 23.2089 27.4478 23.2311 27.5008 23.2311C27.5538 23.2311 27.6047 23.2089 27.6422 23.1695C27.6797 23.13 27.7008 23.0765 27.7008 23.0207C27.7008 22.9649 27.6797 22.9114 27.6422 22.872C27.6047 22.8325 27.5538 22.8103 27.5008 22.8103C27.4959 22.8101 27.4909 22.8101 27.486 22.8103ZM3.9008 22.8137C3.84776 22.8137 3.79689 22.8359 3.75938 22.8753C3.72187 22.9148 3.7008 22.9683 3.7008 23.0241C3.7008 23.0799 3.72187 23.1334 3.75938 23.1728C3.79689 23.2123 3.84776 23.2345 3.9008 23.2345C3.95384 23.2345 4.00471 23.2123 4.04222 23.1728C4.07973 23.1334 4.1008 23.0799 4.1008 23.0241C4.1008 22.9683 4.07973 22.9148 4.04222 22.8753C4.00471 22.8359 3.95384 22.8137 3.9008 22.8137ZM23.9008 22.8137C23.8478 22.8137 23.7969 22.8359 23.7594 22.8753C23.7219 22.9148 23.7008 22.9683 23.7008 23.0241C23.7008 23.0799 23.7219 23.1334 23.7594 23.1728C23.7969 23.2123 23.8478 23.2345 23.9008 23.2345C23.9538 23.2345 24.0047 23.2123 24.0422 23.1728C24.0797 23.1334 24.1008 23.0799 24.1008 23.0241C24.1008 22.9683 24.0797 22.9148 24.0422 22.8753C24.0047 22.8359 23.9538 22.8137 23.9008 22.8137ZM29.1008 22.8137C29.0478 22.8137 28.9969 22.8359 28.9594 22.8753C28.9219 22.9148 28.9008 22.9683 28.9008 23.0241C28.9008 23.0799 28.9219 23.1334 28.9594 23.1728C28.9969 23.2123 29.0478 23.2345 29.1008 23.2345C29.1538 23.2345 29.2047 23.2123 29.2422 23.1728C29.2797 23.1334 29.3008 23.0799 29.3008 23.0241C29.3008 22.9683 29.2797 22.9148 29.2422 22.8753C29.2047 22.8359 29.1538 22.8137 29.1008 22.8137ZM5.486 22.8242C5.43556 22.8282 5.38842 22.852 5.35405 22.8911C5.31969 22.9301 5.30066 22.9814 5.3008 23.0346C5.3008 23.0904 5.32187 23.1439 5.35938 23.1834C5.39689 23.2228 5.44776 23.245 5.5008 23.245C5.55384 23.245 5.60471 23.2228 5.64222 23.1834C5.67973 23.1439 5.7008 23.0904 5.7008 23.0346C5.7008 22.9788 5.67973 22.9253 5.64222 22.8858C5.60471 22.8464 5.55384 22.8242 5.5008 22.8242C5.49587 22.824 5.49093 22.824 5.486 22.8242ZM7.486 22.8242C7.43556 22.8282 7.38842 22.852 7.35405 22.8911C7.31969 22.9301 7.30066 22.9814 7.3008 23.0346C7.3008 23.0904 7.32187 23.1439 7.35938 23.1834C7.39689 23.2228 7.44776 23.245 7.5008 23.245C7.55384 23.245 7.60471 23.2228 7.64222 23.1834C7.67973 23.1439 7.7008 23.0904 7.7008 23.0346C7.7008 22.9788 7.67973 22.9253 7.64222 22.8858C7.60471 22.8464 7.55384 22.8242 7.5008 22.8242C7.49587 22.824 7.49093 22.824 7.486 22.8242ZM11.486 22.8242C11.4356 22.8282 11.3884 22.852 11.3541 22.8911C11.3197 22.9301 11.3007 22.9814 11.3008 23.0346C11.3008 23.0904 11.3219 23.1439 11.3594 23.1834C11.3969 23.2228 11.4478 23.245 11.5008 23.245C11.5538 23.245 11.6047 23.2228 11.6422 23.1834C11.6797 23.1439 11.7008 23.0904 11.7008 23.0346C11.7008 22.9788 11.6797 22.9253 11.6422 22.8858C11.6047 22.8464 11.5538 22.8242 11.5008 22.8242C11.4959 22.824 11.4909 22.824 11.486 22.8242ZM14.686 22.8242C14.6356 22.8282 14.5884 22.852 14.5541 22.8911C14.5197 22.9301 14.5007 22.9814 14.5008 23.0346C14.5008 23.0904 14.5219 23.1439 14.5594 23.1834C14.5969 23.2228 14.6478 23.245 14.7008 23.245C14.7538 23.245 14.8047 23.2228 14.8422 23.1834C14.8797 23.1439 14.9008 23.0904 14.9008 23.0346C14.9008 22.9788 14.8797 22.9253 14.8422 22.8858C14.8047 22.8464 14.7538 22.8242 14.7008 22.8242C14.6959 22.824 14.6909 22.824 14.686 22.8242ZM18.286 22.8242C18.2356 22.8282 18.1884 22.852 18.1541 22.8911C18.1197 22.9301 18.1007 22.9814 18.1008 23.0346C18.1008 23.0904 18.1219 23.1439 18.1594 23.1834C18.1969 23.2228 18.2478 23.245 18.3008 23.245C18.3538 23.245 18.4047 23.2228 18.4422 23.1834C18.4797 23.1439 18.5008 23.0904 18.5008 23.0346C18.5008 22.9788 18.4797 22.9253 18.4422 22.8858C18.4047 22.8464 18.3538 22.8242 18.3008 22.8242C18.2959 22.824 18.2909 22.824 18.286 22.8242ZM21.486 22.8242C21.4356 22.8282 21.3884 22.852 21.3541 22.8911C21.3197 22.9301 21.3007 22.9814 21.3008 23.0346C21.3008 23.0904 21.3219 23.1439 21.3594 23.1834C21.3969 23.2228 21.4478 23.245 21.5008 23.245C21.5538 23.245 21.6047 23.2228 21.6422 23.1834C21.6797 23.1439 21.7008 23.0904 21.7008 23.0346C21.7008 22.9788 21.6797 22.9253 21.6422 22.8858C21.6047 22.8464 21.5538 22.8242 21.5008 22.8242C21.4959 22.824 21.4909 22.824 21.486 22.8242ZM12.3008 22.8276C12.2478 22.8276 12.1969 22.8498 12.1594 22.8892C12.1219 22.9287 12.1008 22.9822 12.1008 23.038C12.1008 23.0938 12.1219 23.1473 12.1594 23.1867C12.1969 23.2262 12.2478 23.2483 12.3008 23.2483H13.9008C13.9538 23.2483 14.0047 23.2262 14.0422 23.1867C14.0797 23.1473 14.1008 23.0938 14.1008 23.038C14.1008 22.9822 14.0797 22.9287 14.0422 22.8892C14.0047 22.8498 13.9538 22.8276 13.9008 22.8276H12.3008ZM15.5008 22.8276C15.4478 22.8276 15.3969 22.8498 15.3594 22.8892C15.3219 22.9287 15.3008 22.9822 15.3008 23.038C15.3008 23.0938 15.3219 23.1473 15.3594 23.1867C15.3969 23.2262 15.4478 23.2483 15.5008 23.2483H17.5008C17.5538 23.2483 17.6047 23.2262 17.6422 23.1867C17.6797 23.1473 17.7008 23.0938 17.7008 23.038C17.7008 22.9822 17.6797 22.9287 17.6422 22.8892C17.6047 22.8498 17.5538 22.8276 17.5008 22.8276H15.5008ZM19.1008 22.8276C19.0478 22.8276 18.9969 22.8498 18.9594 22.8892C18.9219 22.9287 18.9008 22.9822 18.9008 23.038C18.9008 23.0938 18.9219 23.1473 18.9594 23.1867C18.9969 23.2262 19.0478 23.2483 19.1008 23.2483H20.7008C20.7538 23.2483 20.8047 23.2262 20.8422 23.1867C20.8797 23.1473 20.9008 23.0938 20.9008 23.038C20.9008 22.9822 20.8797 22.9287 20.8422 22.8892C20.8047 22.8498 20.7538 22.8276 20.7008 22.8276H19.1008ZM9.0968 22.8331C9.04376 22.8331 8.99289 22.8552 8.95538 22.8947C8.91787 22.9341 8.8968 22.9876 8.8968 23.0434C8.8968 23.0992 8.91787 23.1527 8.95538 23.1922C8.99289 23.2317 9.04376 23.2538 9.0968 23.2538C9.14984 23.2538 9.20071 23.2317 9.23822 23.1922C9.27573 23.1527 9.2968 23.0992 9.2968 23.0434C9.2968 22.9876 9.27573 22.9341 9.23822 22.8947C9.20071 22.8552 9.14984 22.8331 9.0968 22.8331ZM6.5008 23.2614L7.5876 23.8984C7.74314 23.9898 7.8727 24.1232 7.96291 24.2848C8.05312 24.4464 8.10072 24.6304 8.1008 24.8178V25.342H4.9008V24.8178C4.9008 24.4366 5.0968 24.0844 5.4132 23.8984L6.5008 23.2614ZM26.5008 23.2614L27.5876 23.8984C27.7431 23.9898 27.8727 24.1232 27.9629 24.2848C28.0531 24.4464 28.1007 24.6304 28.1008 24.8178V25.342H24.9008V24.8178C24.9008 24.4366 25.0968 24.0844 25.4132 23.8984L26.5008 23.2614ZM3.8968 23.6552C3.84376 23.6552 3.79289 23.6774 3.75538 23.7168C3.71787 23.7563 3.6968 23.8098 3.6968 23.8656V24.7071C3.6968 24.7629 3.71787 24.8164 3.75538 24.8559C3.79289 24.8953 3.84376 24.9175 3.8968 24.9175C3.94984 24.9175 4.00071 24.8953 4.03822 24.8559C4.07573 24.8164 4.0968 24.7629 4.0968 24.7071V23.8656C4.0968 23.8098 4.07573 23.7563 4.03822 23.7168C4.00071 23.6774 3.94984 23.6552 3.8968 23.6552ZM23.8968 23.6552C23.8438 23.6552 23.7929 23.6774 23.7554 23.7168C23.7179 23.7563 23.6968 23.8098 23.6968 23.8656V24.7071C23.6968 24.7629 23.7179 24.8164 23.7554 24.8559C23.7929 24.8953 23.8438 24.9175 23.8968 24.9175C23.9498 24.9175 24.0007 24.8953 24.0382 24.8559C24.0757 24.8164 24.0968 24.7629 24.0968 24.7071V23.8656C24.0968 23.8098 24.0757 23.7563 24.0382 23.7168C24.0007 23.6774 23.9498 23.6552 23.8968 23.6552ZM11.4968 23.6691C11.4438 23.6691 11.3929 23.6913 11.3554 23.7307C11.3179 23.7702 11.2968 23.8237 11.2968 23.8795V24.721C11.2968 24.7768 11.3179 24.8303 11.3554 24.8698C11.3929 24.9092 11.4438 24.9314 11.4968 24.9314C11.5498 24.9314 11.6007 24.9092 11.6382 24.8698C11.6757 24.8303 11.6968 24.7768 11.6968 24.721V23.8795C11.6968 23.8237 11.6757 23.7702 11.6382 23.7307C11.6007 23.6913 11.5498 23.6691 11.4968 23.6691ZM21.4968 23.6691C21.4438 23.6691 21.3929 23.6913 21.3554 23.7307C21.3179 23.7702 21.2968 23.8237 21.2968 23.8795V24.721C21.2968 24.7768 21.3179 24.8303 21.3554 24.8698C21.3929 24.9092 21.4438 24.9314 21.4968 24.9314C21.5498 24.9314 21.6007 24.9092 21.6382 24.8698C21.6757 24.8303 21.6968 24.7768 21.6968 24.721V23.8795C21.6968 23.8237 21.6757 23.7702 21.6382 23.7307C21.6007 23.6913 21.5498 23.6691 21.4968 23.6691ZM29.1008 23.6733C29.0478 23.6733 28.9969 23.6955 28.9594 23.7349C28.9219 23.7744 28.9008 23.8279 28.9008 23.8837V24.7252C28.9008 24.781 28.9219 24.8345 28.9594 24.874C28.9969 24.9134 29.0478 24.9356 29.1008 24.9356C29.1538 24.9356 29.2047 24.9134 29.2422 24.874C29.2797 24.8345 29.3008 24.781 29.3008 24.7252V23.8837C29.3008 23.8279 29.2797 23.7744 29.2422 23.7349C29.2047 23.6955 29.1538 23.6733 29.1008 23.6733ZM9.0968 23.6746C9.04376 23.6746 8.99289 23.6967 8.95538 23.7362C8.91787 23.7756 8.8968 23.8292 8.8968 23.885V24.7265C8.8968 24.7823 8.91787 24.8358 8.95538 24.8752C8.99289 24.9147 9.04376 24.9369 9.0968 24.9369C9.14984 24.9369 9.20071 24.9147 9.23822 24.8752C9.27573 24.8358 9.2968 24.7823 9.2968 24.7265V23.885C9.2968 23.8292 9.27573 23.7756 9.23822 23.7362C9.20071 23.6967 9.14984 23.6746 9.0968 23.6746ZM12.5008 24.076H20.5008V32.0611H20.1008V27.9209C20.1015 27.6027 20.0256 27.2895 19.8803 27.0105C19.7349 26.7315 19.5249 26.4956 19.2696 26.3249L16.6084 24.5376C16.5761 24.5161 16.5388 24.5048 16.5006 24.5048C16.4624 24.5048 16.4251 24.5161 16.3928 24.5376L13.7312 26.3258C13.476 26.4963 13.2661 26.732 13.1209 27.0109C12.9757 27.2898 12.9 27.6029 12.9008 27.9209V32.0611H12.5008V24.076ZM13.9008 24.4967C13.57 24.4967 13.3008 24.7799 13.3008 25.1279C13.3008 25.4758 13.57 25.759 13.9008 25.759C14.2316 25.759 14.5008 25.4758 14.5008 25.1279C14.5008 24.7799 14.2316 24.4967 13.9008 24.4967ZM19.1008 24.4967C18.77 24.4967 18.5008 24.7799 18.5008 25.1279C18.5008 25.4758 18.77 25.759 19.1008 25.759C19.4316 25.759 19.7008 25.4758 19.7008 25.1279C19.7008 24.7799 19.4316 24.4967 19.1008 24.4967ZM13.9008 24.9175C14.0108 24.9175 14.1008 25.0122 14.1008 25.1279C14.1008 25.2436 14.0108 25.3383 13.9008 25.3383C13.8478 25.3381 13.797 25.3159 13.7595 25.2765C13.722 25.2371 13.7009 25.1836 13.7008 25.1279C13.7008 25.0122 13.7908 24.9175 13.9008 24.9175ZM19.1008 24.9175C19.2108 24.9175 19.3008 25.0122 19.3008 25.1279C19.3008 25.2436 19.2108 25.3383 19.1008 25.3383C19.0478 25.3381 18.997 25.3159 18.9595 25.2765C18.922 25.2371 18.9009 25.1836 18.9008 25.1279C18.9008 25.0122 18.9908 24.9175 19.1008 24.9175ZM16.4992 24.965L19.0532 26.6801C19.2517 26.8128 19.4151 26.9962 19.528 27.2133C19.641 27.4303 19.6999 27.6739 19.6992 27.9213V32.0611H18.946V29.4272L18.9452 29.4226L18.946 29.4175C18.946 29.2235 18.872 29.0346 18.7416 28.897L18.7352 28.8916L18.7416 28.8857C18.8696 28.7515 18.9396 28.5743 18.9444 28.385C18.9444 28.382 18.946 28.3787 18.946 28.3753V28.1552C18.9466 27.9433 18.8961 27.7346 18.7994 27.5486C18.7027 27.3626 18.5628 27.2054 18.3928 27.0916L16.654 25.9223C16.6218 25.9005 16.5843 25.889 16.546 25.889C16.5077 25.889 16.4702 25.9005 16.438 25.9223L14.6992 27.092C14.5293 27.2058 14.3895 27.363 14.2928 27.5489C14.1961 27.7348 14.1456 27.9433 14.146 28.1552V28.3753C14.146 28.3841 14.15 28.3921 14.1508 28.4005C14.1592 28.584 14.2284 28.7557 14.3524 28.8857L14.3584 28.8916L14.3524 28.8966C14.2214 29.035 14.1475 29.2222 14.1468 29.4175V29.4184C14.1468 29.4217 14.1452 29.4238 14.1452 29.4272V32.0603H13.2992V27.9209C13.2992 27.416 13.5412 26.9519 13.946 26.6801L16.4992 24.965ZM23.886 25.3454C23.8356 25.3493 23.7884 25.3732 23.7541 25.4123C23.7197 25.4513 23.7007 25.5026 23.7008 25.5558C23.7008 25.6116 23.7219 25.6651 23.7594 25.7046C23.7969 25.744 23.8478 25.7662 23.9008 25.7662C23.9538 25.7662 24.0047 25.744 24.0422 25.7046C24.0797 25.6651 24.1008 25.6116 24.1008 25.5558C24.1008 25.5 24.0797 25.4465 24.0422 25.407C24.0047 25.3676 23.9538 25.3454 23.9008 25.3454C23.8959 25.3452 23.8909 25.3452 23.886 25.3454ZM11.5008 25.3471C11.4478 25.3471 11.3969 25.3693 11.3594 25.4087C11.3219 25.4482 11.3008 25.5017 11.3008 25.5575C11.3008 25.6133 11.3219 25.6668 11.3594 25.7062C11.3969 25.7457 11.4478 25.7679 11.5008 25.7679C11.5538 25.7679 11.6047 25.7457 11.6422 25.7062C11.6797 25.6668 11.7008 25.6133 11.7008 25.5575C11.7008 25.5017 11.6797 25.4482 11.6422 25.4087C11.6047 25.3693 11.5538 25.3471 11.5008 25.3471ZM3.8836 25.3505C3.83302 25.3542 3.78568 25.378 3.75115 25.4171C3.71661 25.4561 3.69748 25.5075 3.6976 25.5608C3.6976 25.6166 3.71867 25.6701 3.75618 25.7096C3.79369 25.7491 3.84456 25.7712 3.8976 25.7712C3.95064 25.7712 4.00151 25.7491 4.03902 25.7096C4.07653 25.6701 4.0976 25.6166 4.0976 25.5608C4.0976 25.505 4.07653 25.4515 4.03902 25.4121C4.00151 25.3726 3.95064 25.3505 3.8976 25.3505C3.89293 25.3503 3.88827 25.3503 3.8836 25.3505ZM21.5008 25.3521C21.4478 25.3521 21.3969 25.3743 21.3594 25.4138C21.3219 25.4532 21.3008 25.5067 21.3008 25.5625C21.3008 25.6183 21.3219 25.6718 21.3594 25.7113C21.3969 25.7507 21.4478 25.7729 21.5008 25.7729C21.5538 25.7729 21.6047 25.7507 21.6422 25.7113C21.6797 25.6718 21.7008 25.6183 21.7008 25.5625C21.7008 25.5067 21.6797 25.4532 21.6422 25.4138C21.6047 25.3743 21.5538 25.3521 21.5008 25.3521ZM29.1008 25.3564C29.0478 25.3564 28.9969 25.3785 28.9594 25.418C28.9219 25.4574 28.9008 25.5109 28.9008 25.5667C28.9008 25.6225 28.9219 25.676 28.9594 25.7155C28.9969 25.7549 29.0478 25.7771 29.1008 25.7771C29.1538 25.7771 29.2047 25.7549 29.2422 25.7155C29.2797 25.676 29.3008 25.6225 29.3008 25.5667C29.3008 25.5109 29.2797 25.4574 29.2422 25.418C29.2047 25.3785 29.1538 25.3564 29.1008 25.3564ZM9.0968 25.3576C9.04376 25.3576 8.99289 25.3798 8.95538 25.4192C8.91787 25.4587 8.8968 25.5122 8.8968 25.568C8.8968 25.6238 8.91787 25.6773 8.95538 25.7168C8.99289 25.7562 9.04376 25.7784 9.0968 25.7784C9.14984 25.7784 9.20071 25.7562 9.23822 25.7168C9.27573 25.6773 9.2968 25.6238 9.2968 25.568C9.2968 25.5122 9.27573 25.4587 9.23822 25.4192C9.20071 25.3798 9.14984 25.3576 9.0968 25.3576ZM4.9008 25.7628H5.3008V26.1827H4.9008V25.7628ZM5.7008 25.7628H6.3008V26.1827H5.7008V25.7628ZM6.7008 25.7628H7.3008V26.1827H6.7008V25.7628ZM7.7008 25.7628H8.1008V26.1827H7.7L7.7008 26.181V25.7628ZM24.9008 25.7628H25.3008V26.1827H24.9008V25.7628ZM25.7008 25.7628H26.3008V26.1827H25.7008V25.7628ZM26.7008 25.7628H27.3008V26.1827H26.7008V25.7628ZM27.7008 25.7628H28.1008V26.1827H27.7L27.7008 26.181V25.7628ZM11.5008 26.1794C11.4478 26.1794 11.3969 26.2015 11.3594 26.241C11.3219 26.2804 11.3008 26.3339 11.3008 26.3897V28.0728C11.3008 28.1286 11.3219 28.1821 11.3594 28.2215C11.3969 28.261 11.4478 28.2831 11.5008 28.2831C11.5538 28.2831 11.6047 28.261 11.6422 28.2215C11.6797 28.1821 11.7008 28.1286 11.7008 28.0728V26.3897C11.7008 26.3339 11.6797 26.2804 11.6422 26.241C11.6047 26.2015 11.5538 26.1794 11.5008 26.1794ZM3.8976 26.1819C3.84456 26.1819 3.79369 26.204 3.75618 26.2435C3.71867 26.283 3.6976 26.3365 3.6976 26.3923V28.0753C3.6976 28.1311 3.71867 28.1846 3.75618 28.2241C3.79369 28.2635 3.84456 28.2857 3.8976 28.2857C3.95064 28.2857 4.00151 28.2635 4.03902 28.2241C4.07653 28.1846 4.0976 28.1311 4.0976 28.0753V26.3923C4.0976 26.3365 4.07653 26.283 4.03902 26.2435C4.00151 26.204 3.95064 26.1819 3.8976 26.1819ZM21.4992 26.1844C21.4462 26.1844 21.3953 26.2066 21.3578 26.246C21.3203 26.2855 21.2992 26.339 21.2992 26.3948V28.0778C21.2992 28.1336 21.3203 28.1871 21.3578 28.2266C21.3953 28.266 21.4462 28.2882 21.4992 28.2882C21.5522 28.2882 21.6031 28.266 21.6406 28.2266C21.6781 28.1871 21.6992 28.1336 21.6992 28.0778V26.3948C21.6992 26.339 21.6781 26.2855 21.6406 26.246C21.6031 26.2066 21.5522 26.1844 21.4992 26.1844ZM23.9008 26.1869C23.8478 26.1869 23.7969 26.2091 23.7594 26.2485C23.7219 26.288 23.7008 26.3415 23.7008 26.3973V28.0803C23.7008 28.1361 23.7219 28.1897 23.7594 28.2291C23.7969 28.2686 23.8478 28.2907 23.9008 28.2907C23.9538 28.2907 24.0047 28.2686 24.0422 28.2291C24.0797 28.1897 24.1008 28.1361 24.1008 28.0803V26.3973C24.1008 26.3415 24.0797 26.288 24.0422 26.2485C24.0047 26.2091 23.9538 26.1869 23.9008 26.1869ZM29.1008 26.1886C29.0478 26.1886 28.9969 26.2108 28.9594 26.2502C28.9219 26.2897 28.9008 26.3432 28.9008 26.399V28.082C28.9008 28.1378 28.9219 28.1913 28.9594 28.2308C28.9969 28.2702 29.0478 28.2924 29.1008 28.2924C29.1538 28.2924 29.2047 28.2702 29.2422 28.2308C29.2797 28.1913 29.3008 28.1378 29.3008 28.082V26.399C29.3008 26.3432 29.2797 26.2897 29.2422 26.2502C29.2047 26.2108 29.1538 26.1886 29.1008 26.1886ZM9.0968 26.1903C9.04376 26.1903 8.99289 26.2125 8.95538 26.2519C8.91787 26.2914 8.8968 26.3449 8.8968 26.4007V28.0837C8.8968 28.1395 8.91787 28.193 8.95538 28.2325C8.99289 28.2719 9.04376 28.2941 9.0968 28.2941C9.14984 28.2941 9.20071 28.2719 9.23822 28.2325C9.27573 28.193 9.2968 28.1395 9.2968 28.0837V26.4007C9.2968 26.3449 9.27573 26.2914 9.23822 26.2519C9.20071 26.2125 9.14984 26.1903 9.0968 26.1903ZM16.546 26.3498L18.1772 27.4458C18.4084 27.6015 18.546 27.8674 18.546 28.1561V28.3665C18.5462 28.4079 18.5386 28.449 18.5236 28.4873C18.5085 28.5255 18.4864 28.5603 18.4584 28.5895C18.402 28.6484 18.3259 28.6816 18.2464 28.682C18.1934 28.682 18.1425 28.7042 18.105 28.7437C18.0675 28.7831 18.0464 28.8366 18.0464 28.8924C18.0464 28.9482 18.0675 29.0017 18.105 29.0412C18.1425 29.0806 18.1934 29.1028 18.2464 29.1028C18.3248 29.1028 18.4028 29.136 18.4584 29.1949C18.5143 29.2543 18.5459 29.3344 18.5464 29.4179L18.5468 29.4234C18.5472 29.4251 18.546 29.4259 18.546 29.428V32.0578H14.546V29.4272C14.546 29.4238 14.5476 29.4217 14.5476 29.4184C14.5476 29.3355 14.5796 29.2534 14.6356 29.1949C14.692 29.136 14.7681 29.1027 14.8476 29.1024C14.9006 29.1024 14.9515 29.0802 14.989 29.0408C15.0265 29.0013 15.0476 28.9478 15.0476 28.892C15.0476 28.8362 15.0265 28.7827 14.989 28.7432C14.9515 28.7038 14.9006 28.6816 14.8476 28.6816C14.7681 28.6814 14.6919 28.6481 14.6357 28.5889C14.5795 28.5298 14.5478 28.4497 14.5476 28.366C14.5476 28.3635 14.546 28.3606 14.546 28.358V28.1561C14.546 27.8674 14.6844 27.6019 14.9156 27.4458L16.546 26.3498ZM4.9008 26.6026H8.1008V27.012H7.346C7.29296 27.012 7.24209 27.0342 7.20458 27.0737C7.16707 27.1131 7.146 27.1666 7.146 27.2224C7.146 27.2782 7.16707 27.3317 7.20458 27.3712C7.24209 27.4106 7.29296 27.4328 7.346 27.4328H8.1008V27.8578H4.9008V27.4328H5.746C5.79904 27.4328 5.84991 27.4106 5.88742 27.3712C5.92493 27.3317 5.946 27.2782 5.946 27.2224C5.946 27.1666 5.92493 27.1131 5.88742 27.0737C5.84991 27.0342 5.79904 27.012 5.746 27.012H4.9008V26.6026ZM24.9008 26.6026H28.1008V27.012H27.346C27.293 27.012 27.2421 27.0342 27.2046 27.0737C27.1671 27.1131 27.146 27.1666 27.146 27.2224C27.146 27.2782 27.1671 27.3317 27.2046 27.3712C27.2421 27.4106 27.293 27.4328 27.346 27.4328H28.1008V27.8578H24.9008V27.432H25.746C25.799 27.432 25.8499 27.4098 25.8874 27.3703C25.9249 27.3309 25.946 27.2774 25.946 27.2216C25.946 27.1658 25.9249 27.1123 25.8874 27.0728C25.8499 27.0334 25.799 27.0112 25.746 27.0112H24.9008V26.6026ZM6.546 27.0087C6.49296 27.0087 6.44209 27.0308 6.40458 27.0703C6.36707 27.1097 6.346 27.1633 6.346 27.219C6.346 27.2748 6.36707 27.3284 6.40458 27.3678C6.44209 27.4073 6.49296 27.4294 6.546 27.4294C6.59904 27.4294 6.64991 27.4073 6.68742 27.3678C6.72493 27.3284 6.746 27.2748 6.746 27.219C6.746 27.1633 6.72493 27.1097 6.68742 27.0703C6.64991 27.0308 6.59904 27.0087 6.546 27.0087ZM26.546 27.0087C26.493 27.0087 26.4421 27.0308 26.4046 27.0703C26.3671 27.1097 26.346 27.1633 26.346 27.219C26.346 27.2748 26.3671 27.3284 26.4046 27.3678C26.4421 27.4073 26.493 27.4294 26.546 27.4294C26.599 27.4294 26.6499 27.4073 26.6874 27.3678C26.7249 27.3284 26.746 27.2748 26.746 27.219C26.746 27.1633 26.7249 27.1097 26.6874 27.0703C26.6499 27.0308 26.599 27.0087 26.546 27.0087ZM4.9008 28.2785H8.1008V29.6712C8.00659 29.5693 7.89896 29.4822 7.7812 29.4125L6.5976 28.7191C6.56787 28.7017 6.53442 28.6925 6.5004 28.6925C6.46638 28.6925 6.43293 28.7017 6.4032 28.7191L5.2192 29.4125C5.10166 29.482 4.99439 29.5691 4.9008 29.6712V28.2785ZM24.9008 28.2785H28.1008V29.6607C28.0066 29.5588 27.899 29.4717 27.7812 29.402L26.5976 28.7077C26.5679 28.6903 26.5344 28.6812 26.5004 28.6812C26.4664 28.6812 26.4329 28.6903 26.4032 28.7077L25.2192 29.402C25.1019 29.4714 24.9946 29.5583 24.9008 29.6599V28.2785ZM11.5008 28.7043C11.4478 28.7043 11.3969 28.7265 11.3594 28.766C11.3219 28.8054 11.3008 28.8589 11.3008 28.9147C11.3008 28.9705 11.3219 29.024 11.3594 29.0635C11.3969 29.1029 11.4478 29.1251 11.5008 29.1251C11.5538 29.1251 11.6047 29.1029 11.6422 29.0635C11.6797 29.024 11.7008 28.9705 11.7008 28.9147C11.7008 28.8589 11.6797 28.8054 11.6422 28.766C11.6047 28.7265 11.5538 28.7043 11.5008 28.7043ZM3.8976 28.7073C3.84456 28.7073 3.79369 28.7294 3.75618 28.7689C3.71867 28.8083 3.6976 28.8619 3.6976 28.9177C3.6976 28.9735 3.71867 29.027 3.75618 29.0664C3.79369 29.1059 3.84456 29.128 3.8976 29.128C3.95064 29.128 4.00151 29.1059 4.03902 29.0664C4.07653 29.027 4.0976 28.9735 4.0976 28.9177C4.0976 28.8619 4.07653 28.8083 4.03902 28.7689C4.00151 28.7294 3.95064 28.7073 3.8976 28.7073ZM21.4992 28.709C21.4462 28.709 21.3953 28.7311 21.3578 28.7706C21.3203 28.81 21.2992 28.8635 21.2992 28.9193C21.2992 28.9751 21.3203 29.0286 21.3578 29.0681C21.3953 29.1076 21.4462 29.1297 21.4992 29.1297C21.5522 29.1297 21.6031 29.1076 21.6406 29.0681C21.6781 29.0286 21.6992 28.9751 21.6992 28.9193C21.6992 28.8635 21.6781 28.81 21.6406 28.7706C21.6031 28.7311 21.5522 28.709 21.4992 28.709ZM23.9008 28.7115C23.8478 28.7115 23.7969 28.7337 23.7594 28.7731C23.7219 28.8126 23.7008 28.8661 23.7008 28.9219C23.7008 28.9777 23.7219 29.0312 23.7594 29.0706C23.7969 29.1101 23.8478 29.1322 23.9008 29.1322C23.9538 29.1322 24.0047 29.1101 24.0422 29.0706C24.0797 29.0312 24.1008 28.9777 24.1008 28.9219C24.1008 28.8661 24.0797 28.8126 24.0422 28.7731C24.0047 28.7337 23.9538 28.7115 23.9008 28.7115ZM29.1008 28.7132C29.0478 28.7132 28.9969 28.7353 28.9594 28.7748C28.9219 28.8142 28.9008 28.8678 28.9008 28.9235C28.9008 28.9793 28.9219 29.0329 28.9594 29.0723C28.9969 29.1118 29.0478 29.1339 29.1008 29.1339C29.1538 29.1339 29.2047 29.1118 29.2422 29.0723C29.2797 29.0329 29.3008 28.9793 29.3008 28.9235C29.3008 28.8678 29.2797 28.8142 29.2422 28.7748C29.2047 28.7353 29.1538 28.7132 29.1008 28.7132ZM9.0968 28.7148C9.04376 28.7148 8.99289 28.737 8.95538 28.7765C8.91787 28.8159 8.8968 28.8694 8.8968 28.9252C8.8968 28.981 8.91787 29.0345 8.95538 29.074C8.99289 29.1134 9.04376 29.1356 9.0968 29.1356C9.14984 29.1356 9.20071 29.1134 9.23822 29.074C9.27573 29.0345 9.2968 28.981 9.2968 28.9252C9.2968 28.8694 9.27573 28.8159 9.23822 28.7765C9.20071 28.737 9.14984 28.7148 9.0968 28.7148ZM26.5008 29.1322L27.5868 29.7693C27.7424 29.8606 27.8721 29.994 27.9625 30.1556C28.0528 30.3171 28.1006 30.5012 28.1008 30.6886V31.2238H24.9008V30.6886C24.9008 30.3074 25.0968 29.9552 25.4132 29.7693L26.5008 29.1322ZM6.5008 29.1428L7.5876 29.7798C7.74329 29.8711 7.87295 30.0045 7.96318 30.1662C8.0534 30.3279 8.10092 30.5121 8.1008 30.6996V31.2238H4.9008V30.6992C4.9008 30.3179 5.0968 29.9649 5.4132 29.7794L6.5008 29.1423V29.1428ZM11.5008 29.5458C11.4478 29.5458 11.3969 29.568 11.3594 29.6075C11.3219 29.6469 11.3008 29.7004 11.3008 29.7562V30.5977C11.3008 30.6535 11.3219 30.7071 11.3594 30.7465C11.3969 30.786 11.4478 30.8081 11.5008 30.8081C11.5538 30.8081 11.6047 30.786 11.6422 30.7465C11.6797 30.7071 11.7008 30.6535 11.7008 30.5977V29.7562C11.7008 29.7004 11.6797 29.6469 11.6422 29.6075C11.6047 29.568 11.5538 29.5458 11.5008 29.5458ZM3.8976 29.548C3.84456 29.548 3.79369 29.5701 3.75618 29.6096C3.71867 29.649 3.6976 29.7025 3.6976 29.7583V30.5999C3.6976 30.6556 3.71867 30.7092 3.75618 30.7486C3.79369 30.7881 3.84456 30.8102 3.8976 30.8102C3.95064 30.8102 4.00151 30.7881 4.03902 30.7486C4.07653 30.7092 4.0976 30.6556 4.0976 30.5999V29.7583C4.0976 29.7025 4.07653 29.649 4.03902 29.6096C4.00151 29.5701 3.95064 29.548 3.8976 29.548ZM21.4992 29.5505C21.4462 29.5505 21.3953 29.5726 21.3578 29.6121C21.3203 29.6516 21.2992 29.7051 21.2992 29.7609V30.6024C21.2992 30.6582 21.3203 30.7117 21.3578 30.7511C21.3953 30.7906 21.4462 30.8128 21.4992 30.8128C21.5522 30.8128 21.6031 30.7906 21.6406 30.7511C21.6781 30.7117 21.6992 30.6582 21.6992 30.6024V29.7609C21.6992 29.7051 21.6781 29.6516 21.6406 29.6121C21.6031 29.5726 21.5522 29.5505 21.4992 29.5505ZM29.1008 29.5547C29.0478 29.5547 28.9969 29.5769 28.9594 29.6163C28.9219 29.6558 28.9008 29.7093 28.9008 29.7651V30.6066C28.9008 30.6624 28.9219 30.7159 28.9594 30.7553C28.9969 30.7948 29.0478 30.817 29.1008 30.817C29.1538 30.817 29.2047 30.7948 29.2422 30.7553C29.2797 30.7159 29.3008 30.6624 29.3008 30.6066V29.7651C29.3008 29.7093 29.2797 29.6558 29.2422 29.6163C29.2047 29.5769 29.1538 29.5547 29.1008 29.5547ZM9.0968 29.5564C9.04376 29.5564 8.99289 29.5785 8.95538 29.618C8.91787 29.6574 8.8968 29.711 8.8968 29.7667V30.6083C8.8968 30.6641 8.91787 30.7176 8.95538 30.757C8.99289 30.7965 9.04376 30.8186 9.0968 30.8186C9.14984 30.8186 9.20071 30.7965 9.23822 30.757C9.27573 30.7176 9.2968 30.6641 9.2968 30.6083V29.7667C9.2968 29.711 9.27573 29.6574 9.23822 29.618C9.20071 29.5785 9.14984 29.5564 9.0968 29.5564ZM23.9008 29.5572C23.8478 29.5572 23.7969 29.5794 23.7594 29.6188C23.7219 29.6583 23.7008 29.7118 23.7008 29.7676V30.6091C23.7008 30.6649 23.7219 30.7184 23.7594 30.7579C23.7969 30.7973 23.8478 30.8195 23.9008 30.8195C23.9538 30.8195 24.0047 30.7973 24.0422 30.7579C24.0797 30.7184 24.1008 30.6649 24.1008 30.6091V29.7676C24.1008 29.7118 24.0797 29.6583 24.0422 29.6188C24.0047 29.5794 23.9538 29.5572 23.9008 29.5572ZM11.5008 31.2289C11.4478 31.2289 11.3969 31.2511 11.3594 31.2905C11.3219 31.33 11.3008 31.3835 11.3008 31.4393C11.3008 31.4951 11.3219 31.5486 11.3594 31.588C11.3969 31.6275 11.4478 31.6496 11.5008 31.6496C11.5538 31.6496 11.6047 31.6275 11.6422 31.588C11.6797 31.5486 11.7008 31.4951 11.7008 31.4393C11.7008 31.3835 11.6797 31.33 11.6422 31.2905C11.6047 31.2511 11.5538 31.2289 11.5008 31.2289ZM3.8976 31.2318C3.84456 31.2318 3.79369 31.254 3.75618 31.2935C3.71867 31.3329 3.6976 31.3864 3.6976 31.4422C3.6976 31.498 3.71867 31.5515 3.75618 31.591C3.79369 31.6304 3.84456 31.6526 3.8976 31.6526C3.95064 31.6526 4.00151 31.6304 4.03902 31.591C4.07653 31.5515 4.0976 31.498 4.0976 31.4422C4.0976 31.3864 4.07653 31.3329 4.03902 31.2935C4.00151 31.254 3.95064 31.2318 3.8976 31.2318ZM21.4992 31.2335C21.4462 31.2335 21.3953 31.2557 21.3578 31.2951C21.3203 31.3346 21.2992 31.3881 21.2992 31.4439C21.2992 31.4997 21.3203 31.5532 21.3578 31.5927C21.3953 31.6321 21.4462 31.6543 21.4992 31.6543C21.5522 31.6543 21.6031 31.6321 21.6406 31.5927C21.6781 31.5532 21.6992 31.4997 21.6992 31.4439C21.6992 31.3881 21.6781 31.3346 21.6406 31.2951C21.6031 31.2557 21.5522 31.2335 21.4992 31.2335ZM29.1008 31.2377C29.0478 31.2377 28.9969 31.2599 28.9594 31.2993C28.9219 31.3388 28.9008 31.3923 28.9008 31.4481C28.9008 31.5039 28.9219 31.5574 28.9594 31.5969C28.9969 31.6363 29.0478 31.6585 29.1008 31.6585C29.1538 31.6585 29.2047 31.6363 29.2422 31.5969C29.2797 31.5574 29.3008 31.5039 29.3008 31.4481C29.3008 31.3923 29.2797 31.3388 29.2422 31.2993C29.2047 31.2599 29.1538 31.2377 29.1008 31.2377ZM9.0968 31.2394C9.04376 31.2394 8.99289 31.2616 8.95538 31.301C8.91787 31.3405 8.8968 31.394 8.8968 31.4498C8.8968 31.5056 8.91787 31.5591 8.95538 31.5985C8.99289 31.638 9.04376 31.6602 9.0968 31.6602C9.14984 31.6602 9.20071 31.638 9.23822 31.5985C9.27573 31.5591 9.2968 31.5056 9.2968 31.4498C9.2968 31.394 9.27573 31.3405 9.23822 31.301C9.20071 31.2616 9.14984 31.2394 9.0968 31.2394ZM23.9008 31.2411C23.8478 31.2411 23.7969 31.2633 23.7594 31.3027C23.7219 31.3422 23.7008 31.3957 23.7008 31.4515C23.7008 31.5073 23.7219 31.5608 23.7594 31.6002C23.7969 31.6397 23.8478 31.6618 23.9008 31.6618C23.9538 31.6618 24.0047 31.6397 24.0422 31.6002C24.0797 31.5608 24.1008 31.5073 24.1008 31.4515C24.1008 31.3957 24.0797 31.3422 24.0422 31.3027C24.0047 31.2633 23.9538 31.2411 23.9008 31.2411ZM4.9008 31.6446H5.346V32.0645H4.9008V31.6446ZM5.746 31.6446H6.346V32.0645H5.746V31.6446ZM6.746 31.6446H7.346V32.0645H6.746V31.6446ZM7.746 31.6446H8.1008V32.0645H7.746V31.6446ZM24.9008 31.6446H25.346V32.0536H24.9008V31.6446ZM25.746 31.6446H26.346V32.0536H25.746V31.6446ZM26.746 31.6446H27.346V32.0536H26.746V31.6446ZM27.746 31.6446H28.1008V32.0536H27.746V31.6446Z" fill="white"/>
<path d="M8.28828 21.5505C8.23524 21.5505 8.18437 21.5284 8.14686 21.4889C8.10935 21.4495 8.08828 21.396 8.08828 21.3402V20.3379C8.08828 19.9866 7.92268 19.6601 7.64548 19.464L6.48828 18.6481L5.33108 19.464C5.19472 19.5602 5.08298 19.6903 5.00575 19.8427C4.92852 19.9951 4.88818 20.1652 4.88828 20.3379V21.3402C4.88828 21.396 4.86721 21.4495 4.8297 21.4889C4.7922 21.5284 4.74132 21.5505 4.68828 21.5505C4.63524 21.5505 4.58437 21.5284 4.54686 21.4889C4.50935 21.4495 4.48828 21.396 4.48828 21.3402V20.3379C4.48828 19.846 4.72028 19.3887 5.10868 19.1148L6.37708 18.2202C6.41003 18.197 6.44881 18.1846 6.48848 18.1846C6.52815 18.1846 6.56693 18.197 6.59988 18.2202L7.86828 19.1148C8.05923 19.2493 8.21569 19.4314 8.32383 19.6447C8.43198 19.858 8.48846 20.0961 8.48828 20.3379V21.3402C8.48828 21.396 8.46721 21.4495 8.4297 21.4889C8.3922 21.5284 8.34132 21.5505 8.28828 21.5505Z" fill="#594454"/>
<path d="M7.0875 20.7259H5.8875C5.83446 20.7259 5.78359 20.7037 5.74608 20.6643C5.70857 20.6248 5.6875 20.5713 5.6875 20.5155V19.6567C5.6875 19.601 5.70857 19.5474 5.74608 19.508C5.78359 19.4685 5.83446 19.4464 5.8875 19.4464H7.0875C7.14054 19.4464 7.19141 19.4685 7.22892 19.508C7.26643 19.5474 7.2875 19.601 7.2875 19.6567V20.5155C7.2875 20.5713 7.26643 20.6248 7.22892 20.6643C7.19141 20.7037 7.14054 20.7259 7.0875 20.7259ZM6.0875 20.3051H6.8875V19.8671H6.0875V20.3051ZM27.0875 20.7259H25.8875C25.8345 20.7259 25.7836 20.7037 25.7461 20.6643C25.7086 20.6248 25.6875 20.5713 25.6875 20.5155V19.6567C25.6875 19.601 25.7086 19.5474 25.7461 19.508C25.7836 19.4685 25.8345 19.4464 25.8875 19.4464H27.0875C27.1405 19.4464 27.1914 19.4685 27.2289 19.508C27.2664 19.5474 27.2875 19.601 27.2875 19.6567V20.5155C27.2875 20.5713 27.2664 20.6248 27.2289 20.6643C27.1914 20.7037 27.1405 20.7259 27.0875 20.7259ZM26.0875 20.3051H26.8875V19.8671H26.0875V20.3051ZM13.2875 8.07283C12.9567 8.07283 12.6875 8.356 12.6875 8.70397V10.387C12.6875 10.4428 12.7086 10.4963 12.7461 10.5358C12.7836 10.5752 12.8345 10.5974 12.8875 10.5974H13.6875C13.7405 10.5974 13.7914 10.5752 13.8289 10.5358C13.8664 10.4963 13.8875 10.4428 13.8875 10.387V8.70397C13.8875 8.356 13.6183 8.07283 13.2875 8.07283ZM13.4875 10.1766H13.0875V8.70397C13.0875 8.58826 13.1775 8.49359 13.2875 8.49359C13.3975 8.49359 13.4875 8.58826 13.4875 8.70397V10.1766ZM19.6875 8.07283C19.3567 8.07283 19.0875 8.356 19.0875 8.70397V10.387C19.0875 10.4428 19.1086 10.4963 19.1461 10.5358C19.1836 10.5752 19.2345 10.5974 19.2875 10.5974H20.0875C20.1405 10.5974 20.1914 10.5752 20.2289 10.5358C20.2664 10.4963 20.2875 10.4428 20.2875 10.387V8.70397C20.2875 8.356 20.0183 8.07283 19.6875 8.07283ZM19.8875 10.1766H19.4875V8.70397C19.4875 8.58826 19.5775 8.49359 19.6875 8.49359C19.7975 8.49359 19.8875 8.58826 19.8875 8.70397V10.1766ZM13.6875 5.12751C13.7405 5.12751 13.7914 5.10535 13.8289 5.06589C13.8664 5.02644 13.8875 4.97293 13.8875 4.91713V4.49637C13.8875 4.14841 13.6183 3.86523 13.2875 3.86523C12.9567 3.86523 12.6875 4.14841 12.6875 4.49637V4.91713C12.6875 4.97293 12.7086 5.02644 12.7461 5.06589C12.7836 5.10535 12.8345 5.12751 12.8875 5.12751H13.6875ZM13.0875 4.49637C13.0875 4.38066 13.1775 4.28599 13.2875 4.28599C13.3975 4.28599 13.4875 4.38066 13.4875 4.49637V4.70675H13.0875V4.49637ZM16.0875 5.12751H16.8875C16.9405 5.12751 16.9914 5.10535 17.0289 5.06589C17.0664 5.02644 17.0875 4.97293 17.0875 4.91713V4.49637C17.0875 4.14841 16.8183 3.86523 16.4875 3.86523C16.1567 3.86523 15.8875 4.14841 15.8875 4.49637V4.91713C15.8875 4.97293 15.9086 5.02644 15.9461 5.06589C15.9836 5.10535 16.0345 5.12751 16.0875 5.12751ZM16.2875 4.49637C16.2875 4.38066 16.3775 4.28599 16.4875 4.28599C16.5975 4.28599 16.6875 4.38066 16.6875 4.49637V4.70675H16.2875V4.49637ZM19.2875 5.12751H20.0875C20.1405 5.12751 20.1914 5.10535 20.2289 5.06589C20.2664 5.02644 20.2875 4.97293 20.2875 4.91713V4.49637C20.2875 4.14841 20.0183 3.86523 19.6875 3.86523C19.3567 3.86523 19.0875 4.14841 19.0875 4.49637V4.91713C19.0875 4.97293 19.1086 5.02644 19.1461 5.06589C19.1836 5.10535 19.2345 5.12751 19.2875 5.12751ZM19.4875 4.49637C19.4875 4.38066 19.5775 4.28599 19.6875 4.28599C19.7975 4.28599 19.8875 4.38066 19.8875 4.49637V4.70675H19.4875V4.49637ZM16.4875 8.07283C15.7155 8.07283 15.0875 8.73342 15.0875 9.54548C15.0875 10.3575 15.7155 11.0181 16.4875 11.0181C17.2595 11.0181 17.8875 10.3575 17.8875 9.54548C17.8875 8.73342 17.2595 8.07283 16.4875 8.07283ZM16.4875 10.5974C16.2223 10.5972 15.9681 10.4863 15.7806 10.289C15.5931 10.0918 15.4877 9.8244 15.4875 9.54548C15.4875 8.96526 15.9359 8.49359 16.4875 8.49359C17.0391 8.49359 17.4875 8.96526 17.4875 9.54548C17.4875 10.1257 17.0391 10.5974 16.4875 10.5974Z" fill="#594454"/>
<path d="M16.6872 9.33622V8.91546C16.6872 8.85966 16.6661 8.80615 16.6286 8.7667C16.5911 8.72724 16.5402 8.70508 16.4872 8.70508C16.4341 8.70508 16.3833 8.72724 16.3458 8.7667C16.3083 8.80615 16.2872 8.85966 16.2872 8.91546V9.5466C16.2872 9.60239 16.3083 9.6559 16.3458 9.69536C16.3833 9.73481 16.4341 9.75698 16.4872 9.75698H17.0872C17.1402 9.75698 17.1911 9.73481 17.2286 9.69536C17.2661 9.6559 17.2872 9.60239 17.2872 9.5466C17.2872 9.4908 17.2661 9.43729 17.2286 9.39784C17.1911 9.35838 17.1402 9.33622 17.0872 9.33622H16.6872ZM17.9004 19.4605H15.1004C15.0473 19.4605 14.9965 19.4827 14.959 19.5221C14.9215 19.5616 14.9004 19.6151 14.9004 19.6709V20.5124C14.9004 20.5682 14.9215 20.6217 14.959 20.6612C14.9965 20.7006 15.0473 20.7228 15.1004 20.7228H17.9004C17.9534 20.7228 18.0043 20.7006 18.0418 20.6612C18.0793 20.6217 18.1004 20.5682 18.1004 20.5124V19.6709C18.1004 19.6151 18.0793 19.5616 18.0418 19.5221C18.0043 19.4827 17.9534 19.4605 17.9004 19.4605ZM17.7004 20.302H15.3004V19.8813H17.7004V20.302Z" fill="#594454"/>
</svg>
