<svg width="33" height="31" viewBox="0 0 33 31" fill="none" xmlns="http://www.w3.org/2000/svg">
<path d="M28.979 21.6878C29.5485 21.6878 30.0146 21.2218 30.0146 20.6522C30.0146 20.0826 29.5485 19.6166 28.979 19.6166C28.4094 19.6166 27.9434 20.0826 27.9434 20.6522C27.9434 21.2218 28.4094 21.6878 28.979 21.6878ZM28.979 20.1344C29.2896 20.1344 29.4968 20.3415 29.4968 20.6522C29.4968 20.9629 29.2896 21.17 28.979 21.17C28.6683 21.17 28.4612 20.9629 28.4612 20.6522C28.4612 20.3415 28.6683 20.1344 28.979 20.1344ZM4.1246 21.6878C4.69417 21.6878 5.16019 21.2218 5.16019 20.6522C5.16019 20.0826 4.69417 19.6166 4.1246 19.6166C3.55502 19.6166 3.089 20.0826 3.089 20.6522C3.089 21.2218 3.55502 21.6878 4.1246 21.6878ZM4.1246 20.1344C4.43528 20.1344 4.6424 20.3415 4.6424 20.6522C4.6424 20.9629 4.43528 21.17 4.1246 21.17C3.81392 21.17 3.6068 20.9629 3.6068 20.6522C3.6068 20.3415 3.81392 20.1344 4.1246 20.1344ZM4.84951 27.3836H3.29612C3.14078 27.3836 3.03722 27.4871 3.03722 27.6425V28.6781C3.03722 28.8334 3.14078 28.937 3.29612 28.937H4.84951C5.00485 28.937 5.10841 28.8334 5.10841 28.6781V27.6425C5.10841 27.5389 5.00485 27.3836 4.84951 27.3836ZM4.59061 28.4192H3.55502V27.9014H4.59061V28.4192ZM5.36731 22.7234H2.77832C2.62298 22.7234 2.51942 22.8269 2.51942 22.9823C2.51942 23.1376 2.62298 23.2412 2.77832 23.2412H3.03722V26.0891C3.03722 26.2444 3.14078 26.348 3.29612 26.348H4.84951C5.00485 26.348 5.10841 26.2444 5.10841 26.0891V23.2412H5.36731C5.52265 23.2412 5.62621 23.1376 5.62621 22.9823C5.62621 22.8269 5.52265 22.7234 5.36731 22.7234ZM4.59061 25.8302H3.55502V23.2412H4.59061V25.8302ZM29.7039 27.3836H28.1505C27.9951 27.3836 27.8916 27.4871 27.8916 27.6425V28.6781C27.8916 28.8334 27.9951 28.937 28.1505 28.937H29.7039C29.8592 28.937 29.9628 28.8334 29.9628 28.6781V27.6425C29.9628 27.5389 29.8592 27.3836 29.7039 27.3836ZM29.445 28.4192H28.4094V27.9014H29.445V28.4192ZM30.2217 22.7234H27.6327C27.4773 22.7234 27.3738 22.8269 27.3738 22.9823C27.3738 23.1376 27.4773 23.2412 27.6327 23.2412H27.8916V26.0891C27.8916 26.2444 27.9951 26.348 28.1505 26.348H29.7039C29.8592 26.348 29.9628 26.2444 29.9628 26.0891V23.2412H30.2217C30.377 23.2412 30.4806 23.1376 30.4806 22.9823C30.4806 22.8269 30.377 22.7234 30.2217 22.7234ZM29.445 25.8302H28.4094V23.2412H29.445V25.8302Z" fill="#FAFAFA"/>
<path d="M32.2411 29.9726H31.5162V14.1797C31.5162 14.0244 31.4126 13.9208 31.2573 13.9208H30.9984V12.2638L31.0502 12.2121C31.3608 11.8496 31.4644 11.3318 31.4126 10.8658C31.3608 10.3998 31.1019 9.93374 30.7395 9.67484L28.4612 7.86254V7.7072C28.6165 7.60364 28.7718 7.4483 28.7718 7.24118C28.7718 6.9305 28.5129 6.6716 28.2023 6.6716C27.8916 6.6716 27.6327 6.9305 27.6327 7.24118C27.6327 7.4483 27.7362 7.65542 27.9434 7.7072V7.86254L25.665 9.67484C25.3026 9.98552 25.0437 10.3998 24.9919 10.8658C24.9401 11.3318 25.0437 11.7978 25.3544 12.1603V13.4548H25.0955C24.9401 13.4548 24.8366 13.5583 24.8366 13.7137V13.9726H21.6262L20.6942 12.5745V10.7104L21.7298 9.15704C21.7816 9.05348 21.7816 8.94992 21.7298 8.89814C21.678 8.79458 21.5744 8.7428 21.5227 8.7428H20.6942V8.12144L20.746 8.06966C21.212 7.4483 21.3673 6.6716 21.212 5.94668C21.0566 5.22176 20.5906 4.6004 19.9175 4.23794L18.157 3.3059V2.27031C18.157 2.11497 18.0534 2.01141 17.8981 2.01141H17.6392V1.49361C17.6392 0.924027 17.1731 0.458008 16.6036 0.458008C16.034 0.458008 15.568 0.924027 15.568 1.49361V2.01141H15.3091C15.1537 2.01141 15.0502 2.11497 15.0502 2.27031V3.35768L13.2379 4.23794C12.5129 4.65218 12.0469 5.3771 11.8916 6.10202C11.788 6.77516 11.9434 7.39652 12.3576 7.9661V8.7428H11.6327C11.5291 8.7428 11.4256 8.79458 11.4256 8.89814C11.3738 9.0017 11.3738 9.10526 11.4256 9.15704L12.3576 10.5551V12.5227L11.4773 13.869H8.21521V13.6101C8.21521 13.4548 8.11165 13.3512 7.95631 13.3512H7.69741V12.2121L7.74919 12.1603C8.05987 11.7978 8.16343 11.28 8.11165 10.814C8.05987 10.348 7.80097 9.88196 7.43851 9.62306L5.16019 7.81076V7.65542C5.31553 7.55186 5.47087 7.39652 5.47087 7.1894C5.47087 6.87872 5.21197 6.61982 4.90129 6.61982C4.59062 6.61982 4.33172 6.87872 4.33172 7.1894C4.33172 7.39652 4.43528 7.60364 4.6424 7.65542V7.81076L2.36408 9.67484C2.00162 9.98552 1.74272 10.3998 1.69094 10.8658C1.63916 11.3318 1.74272 11.7978 2.0534 12.1603V13.9726H1.7945C1.63916 13.9726 1.5356 14.0761 1.5356 14.2315V30.0244H0.7589C0.60356 30.0244 0.5 30.1279 0.5 30.2833C0.5 30.4386 0.60356 30.5422 0.7589 30.5422H32.2411C32.3964 30.5422 32.5 30.4386 32.5 30.2833C32.5 30.1279 32.3964 29.9726 32.2411 29.9726ZM25.4579 10.9176C25.5097 10.5551 25.665 10.2444 25.9239 10.0373L28.1505 8.27678L30.377 10.0373C30.6359 10.2444 30.843 10.5551 30.843 10.9176C30.8948 11.28 30.7913 11.5907 30.5841 11.8496H25.665C25.5097 11.5907 25.4579 11.28 25.4579 10.9176ZM25.8204 12.3674H30.4806V13.9208H26.856V13.6619C26.856 13.5066 26.7524 13.403 26.5971 13.403H25.8204V12.3674ZM24.7848 23.2412H23.5421V21.17H24.7848V23.2412ZM23.5421 23.759H24.7848V25.3124H23.5421V23.759ZM24.7848 20.6522H23.5421V19.0988H24.7848V20.6522ZM5.67799 18.581V17.5454H27.4256V18.581H5.67799ZM20.1764 21.17H21.4191V23.2412H20.1764V21.17ZM21.4191 20.6522H20.1764V19.0988H21.4191V20.6522ZM20.1764 23.759H21.4191V25.3124H20.1764V23.759ZM14.9466 21.17H18.0534V23.2412H14.9466V21.17ZM18.0534 20.6522H14.9466V19.0988H18.0534V20.6522ZM14.9466 23.759H18.0534V25.3124H14.9466V23.759ZM11.5809 21.17H12.7718V23.2412H11.5809V21.17ZM12.8236 20.6522H11.6327V19.0988H12.8236V20.6522ZM11.5809 23.759H12.7718V25.3124H11.5809V23.759ZM9.45793 20.6522H8.26699V19.0988H9.45793V20.6522ZM8.26699 21.17H9.45793V23.2412H8.26699V21.17ZM8.26699 23.759H9.45793V25.3124H8.26699V23.759ZM5.00486 17.0276L6.04045 15.992H27.0631L28.0987 17.0276H5.00486ZM6.66181 13.9208H7.69741V15.4742H6.66181V13.9208ZM12.8754 10.814H13.9628L13.911 12.3674H12.8754V10.814ZM15.5162 12.4192H14.4288L14.4806 10.8658H18.6748L18.623 12.4192H17.4838L16.6036 11.9014C16.5 11.8496 16.4482 11.8496 16.3447 11.9014L15.5162 12.4192ZM18.5712 13.9208V13.1441C18.5712 13.0405 18.5194 12.9888 18.4159 12.937L18.3641 12.8852H18.7265L19.3997 13.9208H18.5712ZM19.1926 10.814H20.1246V12.3674H19.1408L19.1926 10.814ZM14.377 10.2962L13.7039 9.2606H19.4515L18.7783 10.2962H14.377ZM14.6359 12.8852L14.5841 12.937C14.4806 12.9888 14.4288 13.0923 14.4288 13.1441V13.9208H13.6521L14.3252 12.8852H14.6359ZM14.9466 13.2994L16.5 12.4192L18.0534 13.2994V15.4742H14.9466V13.2994ZM25.3026 13.9208H26.3382V15.4742H25.3026V13.9208ZM24.7848 15.4742H18.5712V14.4386H24.7848V15.4742ZM20.0728 13.9208L19.3997 12.8852H20.2799L21.0049 13.9208H20.0728ZM20.2799 10.2962H19.3997L20.0728 9.2606H21.0049L20.2799 10.2962ZM15.9822 1.49361C15.9822 1.23471 16.2411 0.975807 16.5 0.975807C16.7589 0.975807 17.0178 1.18293 17.0178 1.49361V2.01141H15.9822V1.49361ZM15.4644 2.52921H17.5356V3.047H15.4644V2.52921ZM12.4094 6.20558C12.5129 5.58422 12.9272 5.01464 13.4968 4.70396L15.6197 3.5648H17.432L19.555 4.70396C20.0728 5.01464 20.4871 5.48066 20.5906 6.05024C20.6942 6.61982 20.5906 7.1894 20.2282 7.7072H17.4838V7.13762C17.4838 6.6716 17.2767 6.30914 16.8625 6.05024L16.5518 5.84312C16.4482 5.79134 16.3447 5.79134 16.2929 5.84312L15.9822 6.05024C15.6197 6.30914 15.4126 6.6716 15.4126 7.13762V7.7072H12.7201C12.4612 7.24118 12.3058 6.72338 12.4094 6.20558ZM17.0178 7.7072H15.9822V7.13762C15.9822 6.87872 16.1375 6.61982 16.3447 6.46448L16.5 6.36092L16.6553 6.46448C16.8625 6.61982 17.0178 6.82694 17.0178 7.13762V7.7072ZM12.8754 8.225H20.1246V8.7428H12.8754V8.225ZM13.0307 9.2606L13.7039 10.2962H12.7718L12.0987 9.2606H13.0307ZM12.7718 12.8852H13.7039L13.0307 13.9208H12.0987L12.7718 12.8852ZM8.26699 14.4386H14.4288V15.4742H8.26699V14.4386ZM2.15696 10.9176C2.20874 10.5551 2.36408 10.2444 2.62298 10.0373L4.84951 8.27678L7.07605 10.0373C7.33495 10.2444 7.54207 10.5551 7.54207 10.9176C7.59385 11.28 7.49029 11.5907 7.28317 11.8496H2.36408C2.20874 11.5907 2.15696 11.28 2.15696 10.9176ZM2.51942 12.3674H7.17961V13.403H6.40291C6.24757 13.403 6.14401 13.5066 6.14401 13.6619V13.9208H2.51942V12.3674ZM5.88511 29.9726H2.00162V14.4386H6.14401V15.4742H5.93689C5.88511 15.4742 5.78155 15.526 5.72977 15.526L4.17638 17.0794C4.1246 17.1311 4.07282 17.2865 4.1246 17.3383C4.17638 17.39 4.27994 17.4936 4.3835 17.4936H5.10841V18.7881C5.10841 18.9434 5.21197 19.047 5.36731 19.047H6.14401V29.9208H5.88511V29.9726ZM6.66181 29.9726V19.0988H7.74919V29.9726H6.66181ZM8.26699 29.9726V25.8302H9.45793V29.9726H8.26699ZM9.97573 29.9726V19.0988H11.0631V29.9726H9.97573ZM11.5809 29.9726V25.8302H12.7718V29.9726H11.5809ZM13.3414 29.9726V19.0988H14.4288V29.9726H13.3414ZM14.9466 29.9726V25.8302H18.0534V29.9726H14.9466ZM18.5712 29.9726V19.0988H19.6586V29.9726H18.5712ZM20.1764 29.9726V25.8302H21.4191V29.9726H20.1764ZM21.9369 29.9726V19.0988H23.0243V29.9726H21.9369ZM23.5421 29.9726V25.8302H24.7848V29.9726H23.5421ZM25.3026 29.9726V19.0988H26.39V29.9726H25.3026ZM26.9078 19.0988H27.6327C27.788 19.0988 27.8916 18.9952 27.8916 18.8399V17.5454H28.7201C28.8236 17.5454 28.9272 17.4936 28.979 17.39C29.0307 17.2865 28.979 17.1829 28.9272 17.1311L27.3738 15.5778C27.322 15.526 27.2702 15.526 27.1667 15.526H26.856V14.4904H30.9984V30.0244H26.9078V19.0988Z" fill="#FAFAFA"/>
</svg>
