<svg width="33" height="33" viewBox="0 0 33 33" fill="none" xmlns="http://www.w3.org/2000/svg">
<path d="M10.1351 4.09937L12.4781 5.57587C12.7543 5.73568 13.0793 5.78919 13.3921 5.72637C13.2466 5.70019 13.1065 5.64929 12.9781 5.57587L10.6351 4.09937C10.4556 3.96737 10.2306 3.95537 10.0781 4.06787C10.0966 4.07837 10.1166 4.08587 10.1351 4.09937Z" fill="#9E919C"/>
<path d="M23.25 31.5H24.25V30.5C24.25 30.7652 24.1446 31.0196 23.9571 31.2071C23.7696 31.3946 23.5152 31.5 23.25 31.5Z" fill="#F0EEEF"/>
<path d="M18.4505 1.25C17.9815 1.25 17.6005 1.6305 17.6005 2.1V3C17.6061 3.06244 17.6348 3.12054 17.6811 3.16285C17.7274 3.20515 17.7878 3.22862 17.8505 3.22862C17.9132 3.22862 17.9736 3.20515 18.0199 3.16285C18.0662 3.12054 18.0949 3.06244 18.1005 3V2.1C18.1039 2.00953 18.1423 1.9239 18.2075 1.86111C18.2727 1.79831 18.3597 1.76323 18.4503 1.76323C18.5408 1.76323 18.6278 1.79831 18.693 1.86111C18.7582 1.9239 18.7966 2.00953 18.8 2.1L18.786 6.918C18.786 6.942 18.791 6.9605 18.792 6.983C18.423 6.91167 18.051 6.85744 17.677 6.8205C17.6371 6.80559 17.5941 6.80112 17.552 6.8075H17.551C16.9445 6.74855 16.3342 6.73785 15.726 6.7755C15.483 6.7915 15.241 6.8165 15 6.8475V6.5C15 6.4337 14.9737 6.37011 14.9268 6.32322C14.8799 6.27634 14.8163 6.25 14.75 6.25C14.6837 6.25 14.6201 6.27634 14.5732 6.32322C14.5263 6.37011 14.5 6.4337 14.5 6.5V6.925C13.2328 7.14582 12.01 7.57191 10.88 8.1865L10.174 4.6085C10.138 4.4365 10.159 4.3055 10.2295 4.2605C10.291 4.219 10.401 4.2375 10.502 4.3105L12.8535 5.793C13.1816 5.98041 13.5661 6.04362 13.9369 5.97111C14.3078 5.8986 14.6402 5.69519 14.8735 5.398C14.9755 5.2665 15.048 5.1105 15.085 4.95L15.6965 2.1525C15.7001 2.13506 15.7019 2.1173 15.702 2.0995C15.702 2.00687 15.7388 1.91804 15.8043 1.85254C15.8698 1.78705 15.9586 1.75025 16.0513 1.75025C16.1439 1.75025 16.2327 1.78705 16.2982 1.85254C16.3637 1.91804 16.4005 2.00687 16.4005 2.0995V3C16.4005 3.06617 16.4268 3.12963 16.4736 3.17642C16.5204 3.22321 16.5838 3.2495 16.65 3.2495C16.7162 3.2495 16.7796 3.22321 16.8264 3.17642C16.8732 3.12963 16.8995 3.06617 16.8995 3V2.1005C16.8994 1.87541 16.81 1.65957 16.6509 1.50031C16.4918 1.34106 16.2761 1.2514 16.051 1.251C15.592 1.251 15.216 1.617 15.201 2.0725L14.636 4.705L14.601 4.824C14.577 4.926 14.534 5.019 14.4775 5.092C14.3199 5.2931 14.0955 5.43116 13.845 5.48123C13.5945 5.53131 13.3343 5.49008 13.1115 5.365L10.783 3.8985C10.527 3.711 10.1965 3.688 9.96 3.841C9.839 3.9185 9.57 4.1575 9.6835 4.708L10.4465 8.573C10.9675 11.213 11.603 12.4065 14 12.537V16.25H9.25C9.1837 16.25 9.12011 16.2763 9.07322 16.3232C9.02634 16.3701 9 16.4337 9 16.5V31.25H7.75C7.6837 31.25 7.62011 31.2763 7.57322 31.3232C7.52634 31.3701 7.5 31.4337 7.5 31.5C7.5 31.5663 7.52634 31.6299 7.57322 31.6768C7.62011 31.7237 7.6837 31.75 7.75 31.75H26.75C26.8163 31.75 26.8799 31.7237 26.9268 31.6768C26.9737 31.6299 27 31.5663 27 31.5C27 31.4337 26.9737 31.3701 26.9268 31.3232C26.8799 31.2763 26.8163 31.25 26.75 31.25H25.5005V16.5C25.5005 16.4337 25.4742 16.3701 25.4273 16.3232C25.3804 16.2763 25.3168 16.25 25.2505 16.25H15.5005V12.5165L15.7855 12.498C15.888 12.49 15.988 12.471 16.0895 12.457C16.098 12.457 16.106 12.46 16.1145 12.46H16.1185C16.1535 12.46 16.1865 12.452 16.2165 12.4395C16.8665 12.3345 17.5065 12.117 18.1965 11.753C18.969 11.3455 19.7315 10.7875 20.4635 10.0935L20.858 9.7195C21.0287 9.55897 21.2296 9.43382 21.4489 9.35126C21.6683 9.26871 21.9018 9.23039 22.136 9.2385L23.387 9.3515C24.016 9.402 24.442 9.1625 24.641 8.63C24.727 8.37 24.706 8.091 24.5825 7.8465C24.5221 7.72609 24.4385 7.61887 24.3363 7.53106C24.2342 7.44325 24.1156 7.37661 23.9875 7.335L22.1225 6.72C21.9445 6.6615 21.6755 6.6 21.3835 6.735C21.3673 6.74259 21.3519 6.7518 21.3375 6.7625C20.7945 7.174 19.864 7.67 19.4915 7.4875C19.3545 7.419 19.2845 7.227 19.2845 6.9175L19.3005 2.1C19.3005 1.6315 18.919 1.2505 18.4505 1.2505V1.25ZM15.7505 3.875C15.7173 3.875 15.6856 3.88817 15.6621 3.91161C15.6387 3.93505 15.6255 3.96685 15.6255 4C15.6255 4.03315 15.6387 4.06495 15.6621 4.08839C15.6856 4.11183 15.7173 4.125 15.7505 4.125H16.2505C16.2837 4.125 16.3154 4.11183 16.3389 4.08839C16.3623 4.06495 16.3755 4.03315 16.3755 4C16.3755 3.96685 16.3623 3.93505 16.3389 3.91161C16.3154 3.88817 16.2837 3.875 16.2505 3.875H15.7505ZM17.7505 3.875C17.7173 3.875 17.6856 3.88817 17.6621 3.91161C17.6387 3.93505 17.6255 3.96685 17.6255 4C17.6255 4.03315 17.6387 4.06495 17.6621 4.08839C17.6856 4.11183 17.7173 4.125 17.7505 4.125H18.2505C18.2837 4.125 18.3154 4.11183 18.3389 4.08839C18.3623 4.06495 18.3755 4.03315 18.3755 4C18.3755 3.96685 18.3623 3.93505 18.3389 3.91161C18.3154 3.88817 18.2837 3.875 18.2505 3.875H17.7505ZM16.7505 4.875C16.7173 4.875 16.6856 4.88817 16.6621 4.91161C16.6387 4.93505 16.6255 4.96685 16.6255 5C16.6255 5.03315 16.6387 5.06495 16.6621 5.08839C16.6856 5.11183 16.7173 5.125 16.7505 5.125H17.2505C17.2837 5.125 17.3154 5.11183 17.3389 5.08839C17.3623 5.06495 17.3755 5.03315 17.3755 5C17.3755 4.96685 17.3623 4.93505 17.3389 4.91161C17.3154 4.88817 17.2837 4.875 17.2505 4.875H16.7505ZM15.7505 5.875C15.7173 5.875 15.6856 5.88817 15.6621 5.91161C15.6387 5.93505 15.6255 5.96685 15.6255 6C15.6255 6.03315 15.6387 6.06495 15.6621 6.08839C15.6856 6.11183 15.7173 6.125 15.7505 6.125H16.2505C16.2837 6.125 16.3154 6.11183 16.3389 6.08839C16.3623 6.06495 16.3755 6.03315 16.3755 6C16.3755 5.96685 16.3623 5.93505 16.3389 5.91161C16.3154 5.88817 16.2837 5.875 16.2505 5.875H15.7505ZM17.7505 5.875C17.7173 5.875 17.6856 5.88817 17.6621 5.91161C17.6387 5.93505 17.6255 5.96685 17.6255 6C17.6255 6.03315 17.6387 6.06495 17.6621 6.08839C17.6856 6.11183 17.7173 6.125 17.7505 6.125H18.2505C18.2837 6.125 18.3154 6.11183 18.3389 6.08839C18.3623 6.06495 18.3755 6.03315 18.3755 6C18.3755 5.96685 18.3623 5.93505 18.3389 5.91161C18.3154 5.88817 18.2837 5.875 18.2505 5.875H17.7505ZM21.7875 7.1535C21.8455 7.1575 21.905 7.1735 21.9695 7.1945L23.8345 7.8085C23.9675 7.852 24.0755 7.9465 24.1395 8.0715C24.202 8.1965 24.213 8.339 24.1725 8.463C24.091 8.678 23.9375 8.8955 23.4325 8.8535L22.1725 8.7395C21.5725 8.718 20.9585 8.9375 20.516 9.3565L20.1215 9.7305C19.422 10.3925 18.6975 10.9235 17.9655 11.3095C17.303 11.659 16.6945 11.8635 16.0795 11.955C15.8552 11.9392 15.6451 11.8393 15.4914 11.6752C15.3376 11.511 15.2516 11.2949 15.2505 11.07C15.2505 10.916 15.2905 10.765 15.3665 10.631C15.3992 10.5732 15.4078 10.5048 15.3903 10.4407C15.3727 10.3766 15.3306 10.3221 15.273 10.289C15.2149 10.2569 15.1465 10.2489 15.0826 10.2667C15.0187 10.2844 14.9642 10.3265 14.931 10.384C14.8121 10.5933 14.7496 10.8298 14.7495 11.0705C14.7495 11.4445 14.9015 11.787 15.146 12.038L15.062 12.043C14.9976 12.047 14.933 12.049 14.8685 12.049H14.4685C12.1215 12.049 11.5195 11.244 10.9975 8.75H14.7505C14.8168 8.75 14.8804 8.72366 14.9273 8.67678C14.9742 8.62989 15.0005 8.5663 15.0005 8.5V7.3545C15.192 7.3285 15.3835 7.3115 15.5755 7.2945L15.7855 8.2395C15.872 8.5415 16.149 8.7415 16.4915 8.75H16.513C16.849 8.75 17.129 8.5615 17.233 8.249L17.4275 7.4805L17.562 8.1805C17.645 8.514 17.932 8.7425 18.276 8.75H18.2915C18.6275 8.75 18.9155 8.5345 19.014 8.1945L19.098 7.8095C19.15 7.8585 19.206 7.902 19.272 7.9345C19.5295 8.062 19.8535 8.0315 20.178 7.9365C20.477 8.2125 20.8595 8.375 21.266 8.375C21.474 8.375 21.679 8.335 21.8755 8.256C21.8942 8.2479 21.9108 8.2354 21.9236 8.21955C21.9365 8.20371 21.9454 8.185 21.9495 8.165C21.9541 8.14515 21.9537 8.12447 21.9483 8.10482C21.9428 8.08518 21.9326 8.06719 21.9185 8.0525C21.7094 7.83383 21.5569 7.56747 21.474 7.2765C21.518 7.2455 21.5925 7.1965 21.6165 7.1785C21.6708 7.15699 21.7293 7.14843 21.7875 7.1535ZM16.5455 7.252C16.6855 7.253 16.8255 7.2635 16.9655 7.2695L16.7545 8.1085C16.718 8.217 16.6215 8.258 16.5035 8.251C16.413 8.249 16.2965 8.2075 16.27 8.116L16.0815 7.266C16.2365 7.26 16.3905 7.251 16.5455 7.252ZM17.9105 7.3485C18.1621 7.38047 18.4126 7.42082 18.6615 7.4695L18.53 8.0705C18.5174 8.12468 18.4858 8.17256 18.441 8.20548C18.3961 8.2384 18.341 8.25419 18.2855 8.25C18.2405 8.249 18.0905 8.2325 18.0505 8.073L17.9105 7.3485ZM21.263 7.421C21.3425 7.6595 21.454 7.8845 21.611 8.08C21.208 8.1855 20.7845 8.0865 20.456 7.84C20.759 7.7175 21.046 7.5595 21.263 7.421ZM14.5005 7.4315V8.25H11.8755C12.7141 7.87184 13.5956 7.59699 14.5005 7.4315ZM14.5005 12.55H15.0005V16.25H14.5005V12.55ZM9.5005 16.75H25.0005V31.25H24.5005V17.5C24.5005 17.4337 24.4742 17.3701 24.4273 17.3232C24.3804 17.2763 24.3168 17.25 24.2505 17.25H10.2505C10.1842 17.25 10.1206 17.2763 10.0737 17.3232C10.0268 17.3701 10.0005 17.4337 10.0005 17.5V31.25H9.5005V16.75ZM10.5005 17.75H14.0005V27.75H13.7505C13.6842 27.75 13.6206 27.7763 13.5737 27.8232C13.5268 27.8701 13.5005 27.9337 13.5005 28V31.25H10.5005V17.75ZM14.5005 17.75H15.0005V27.75H14.5005V17.75ZM15.5005 17.75H24.0005V24.507C23.7854 24.3414 23.5219 24.2511 23.2505 24.25H18.2505C17.9191 24.2503 17.6013 24.382 17.3669 24.6164C17.1325 24.8508 17.0008 25.1686 17.0005 25.5V30.5C17.0005 30.7825 17.0985 31.04 17.2575 31.25H16.0005V28C16.0005 27.9337 15.9742 27.8701 15.9273 27.8232C15.8804 27.7763 15.8168 27.75 15.7505 27.75H15.5005V17.75ZM18.2505 24.75H23.2505C23.664 24.75 24.0005 25.0865 24.0005 25.5V30.5C24.0005 30.9135 23.664 31.25 23.2505 31.25H18.2505C17.837 31.25 17.5005 30.9135 17.5005 30.5V25.5C17.5005 25.0865 17.837 24.75 18.2505 24.75ZM14.0005 28.25H15.5005V31.25H14.0005V28.25Z" fill="white"/>
<path d="M17.8504 3.25C17.7841 3.25 17.7205 3.22366 17.6736 3.17678C17.6267 3.12989 17.6004 3.0663 17.6004 3V2.1C17.6004 2.00717 17.5635 1.91815 17.4979 1.85251C17.4322 1.78687 17.3432 1.75 17.2504 1.75C17.1576 1.75 17.0685 1.78687 17.0029 1.85251C16.9373 1.91815 16.9004 2.00717 16.9004 2.1V3C16.9004 3.0663 16.8741 3.12989 16.8272 3.17678C16.7803 3.22366 16.7167 3.25 16.6504 3.25C16.5841 3.25 16.5205 3.22366 16.4736 3.17678C16.4267 3.12989 16.4004 3.0663 16.4004 3V2.1C16.4004 1.87457 16.4899 1.65837 16.6494 1.49896C16.8088 1.33955 17.025 1.25 17.2504 1.25C17.4758 1.25 17.692 1.33955 17.8514 1.49896C18.0108 1.65837 18.1004 1.87457 18.1004 2.1V3C18.1004 3.0663 18.0741 3.12989 18.0272 3.17678C17.9803 3.22366 17.9167 3.25 17.8504 3.25Z" fill="white"/>
</svg>
