<svg xmlns="http://www.w3.org/2000/svg" viewBox="0 0 64 64" id="open-hand-monument">
  <path fill="#8d7e8a" d="M33.501 2h.001zM31.102 2h.002zM35.901 2h.001zM33.501 2h.001zM31.102 2h.002zM35.901 2h.001zM33.501 2h.001zM31.102 2h.002zM35.901 2h.001zM34.65 2h.001zM32.251 2h.002zM37.05 2h.001z"></path>
  <path fill="#7b6876" d="M33.501 2h.001zM31.102 2h.002zM35.901 2h.001z"></path>
  <path fill="#9e919c" d="m19.271 7.199 4.686 2.953a2.62 2.62 0 0 0 1.828.301 2.593 2.593 0 0 1-.828-.301l-4.686-2.953c-.359-.264-.809-.288-1.114-.063.037.021.077.036.114.063z"></path>
  <path fill="#2e3192" d="M32.501 2h.001zM30.102 2h.002zM34.901 2h.001z"></path>
  <path fill="#f0eeef" d="M45.5 62h2v-2a2 2 0 0 1-2 2z"></path>
  <path fill="#594454" d="M35.9 1.5c-.938 0-1.7.761-1.7 1.7V5A.502.502 0 0 0 35.2 5V3.2a.7.7 0 0 1 1.399 0l-.028 9.636c0 .048.01.085.012.13a24.37 24.37 0 0 0-2.23-.325.5.5 0 0 0-.25-.026h-.002a23.026 23.026 0 0 0-3.65-.064c-.486.032-.97.082-1.452.144V12a.5.5 0 0 0-1 0v.85a23.651 23.651 0 0 0-7.24 2.523l-1.412-7.156c-.072-.344-.03-.606.111-.696.123-.083.343-.046.545.1l4.703 2.965a3.15 3.15 0 0 0 4.04-.79c.204-.263.349-.575.423-.896l1.223-5.595a.54.54 0 0 0 .011-.106.698.698 0 1 1 1.397 0V5a.499.499 0 1 0 .998 0V3.201a1.7 1.7 0 0 0-1.697-1.699c-.918 0-1.67.732-1.7 1.643l-1.13 5.265-.07.238c-.048.204-.134.39-.247.536a2.14 2.14 0 0 1-2.732.546l-4.657-2.933c-.512-.375-1.173-.421-1.646-.115-.242.155-.78.633-.553 1.734l1.526 7.73c1.042 5.28 2.313 7.667 7.107 7.928V31.5h-9.5a.5.5 0 0 0-.5.5v29.5h-2.5a.5.5 0 0 0 0 1h38a.5.5 0 0 0 0-1H50V32a.5.5 0 0 0-.5-.5H30v-7.467l.57-.037c.205-.016.405-.054.608-.082.017 0 .033.006.05.006h.008c.07 0 .136-.016.196-.041 1.3-.21 2.58-.645 3.96-1.373 1.545-.815 3.07-1.931 4.534-3.319l.789-.748a3.552 3.552 0 0 1 2.556-.962l2.502.226c1.258.101 2.11-.378 2.508-1.443.172-.52.13-1.078-.117-1.567a2.034 2.034 0 0 0-1.19-1.023l-3.73-1.23c-.356-.117-.894-.24-1.478.03a.53.53 0 0 0-.092.055c-1.086.823-2.947 1.815-3.692 1.45-.274-.137-.414-.521-.414-1.14L37.6 3.2c0-.937-.763-1.699-1.7-1.699zm-5.4 5.25a.25.25 0 0 0 0 .5h1a.25.25 0 0 0 0-.5h-1zm4 0a.25.25 0 0 0 0 .5h1a.25.25 0 0 0 0-.5h-1zm-2 2a.25.25 0 0 0 0 .5h1a.25.25 0 0 0 0-.5h-1zm-2 2a.25.25 0 0 0 0 .5h1a.25.25 0 0 0 0-.5h-1zm4 0a.25.25 0 0 0 0 .5h1a.25.25 0 0 0 0-.5h-1zm8.074 2.557c.116.008.235.04.364.082l3.73 1.228c.266.087.482.276.61.526.125.25.147.535.066.783-.163.43-.47.865-1.48.781l-2.52-.228c-1.2-.043-2.428.396-3.313 1.234l-.789.748c-1.399 1.324-2.848 2.386-4.312 3.158-1.325.699-2.542 1.108-3.772 1.291a1.783 1.783 0 0 1-1.658-1.77c0-.308.08-.61.232-.878a.503.503 0 0 0-.187-.684.507.507 0 0 0-.684.19 2.782 2.782 0 0 0-.363 1.373c0 .748.304 1.433.793 1.935l-.168.01a6.242 6.242 0 0 1-.387.012h-.8c-4.694 0-5.898-1.61-6.942-6.598H28.5a.5.5 0 0 0 .5-.5v-2.291c.383-.052.766-.086 1.15-.12l.42 1.89c.173.604.727 1.004 1.412 1.021h.043c.672 0 1.232-.377 1.44-1.002l.389-1.537.269 1.4c.166.667.74 1.124 1.428 1.139h.031c.672 0 1.248-.431 1.445-1.111l.168-.77c.104.098.216.185.348.25.515.255 1.163.194 1.812.004.598.552 1.363.877 2.176.877.416 0 .826-.08 1.219-.238a.254.254 0 0 0 .148-.182.245.245 0 0 0-.062-.225 3.72 3.72 0 0 1-.889-1.552c.088-.062.237-.16.285-.196a.751.751 0 0 1 .342-.05zm-10.484.197c.28.002.56.023.84.035l-.422 1.678c-.073.217-.266.299-.502.285-.181-.004-.414-.087-.467-.27l-.377-1.7c.31-.012.618-.03.928-.028zm2.73.193a22.8 22.8 0 0 1 1.502.242l-.263 1.202a.466.466 0 0 1-.489.359c-.09-.002-.39-.035-.47-.354l-.28-1.449zm6.705.145c.159.477.382.927.696 1.318-.806.211-1.653.013-2.31-.48.606-.245 1.18-.561 1.614-.838zM28 13.863V15.5h-5.25A22.709 22.709 0 0 1 28 13.863zM28 24.1h1v7.4h-1v-7.4zm-10 8.4h31v29h-1V34a.5.5 0 0 0-.5-.5h-28a.5.5 0 0 0-.5.5v27.5h-1v-29zm2 2h7v20h-.5a.5.5 0 0 0-.5.5v6.5h-6v-27zm8 0h1v20h-1v-20zm2 0h17v13.514a2.475 2.475 0 0 0-1.5-.514h-10A2.502 2.502 0 0 0 33 50v10c0 .565.196 1.08.514 1.5H31V55a.5.5 0 0 0-.5-.5H30v-20zm5.5 14h10c.827 0 1.5.673 1.5 1.5v10c0 .827-.673 1.5-1.5 1.5h-10c-.827 0-1.5-.673-1.5-1.5V50c0-.827.673-1.5 1.5-1.5zm-8.5 7h3v6h-3v-6z"></path>
  <path fill="#594454" d="M34.7 5.5a.5.5 0 0 1-.5-.5V3.2a.7.7 0 1 0-1.4 0V5a.5.5 0 0 1-1 0V3.2a1.7 1.7 0 0 1 3.4 0V5a.5.5 0 0 1-.5.5z"></path>
</svg>
