<svg width="23" height="24" viewBox="0 0 23 24" fill="none" xmlns="http://www.w3.org/2000/svg">
<path d="M11.4286 0.428855C11.3973 0.428855 11.3674 0.442856 11.3453 0.467777C11.3232 0.492699 11.3108 0.5265 11.3108 0.561745V2.03125H10.8423L10.8395 1.63151C10.8392 1.59645 10.8267 1.56292 10.8046 1.53823C10.7826 1.51354 10.7527 1.49968 10.7216 1.49969H10.7207C10.7052 1.49982 10.6899 1.5034 10.6757 1.51021C10.6614 1.51701 10.6485 1.52692 10.6377 1.53936C10.6268 1.5518 10.6182 1.56653 10.6124 1.5827C10.6066 1.59888 10.6037 1.61619 10.6038 1.63364L10.6076 2.1652V2.82088H10.486C10.4548 2.82088 10.4248 2.83488 10.4027 2.8598C10.3806 2.88473 10.3682 2.91853 10.3682 2.95377C10.3682 2.98902 10.3806 3.02282 10.4027 3.04774C10.4248 3.07266 10.4548 3.08666 10.486 3.08666H10.5609L10.1146 4.68135H9.89691V4.28267C9.89691 4.24743 9.88449 4.21363 9.8624 4.18871C9.8403 4.16379 9.81033 4.14978 9.77909 4.14978C9.74784 4.14978 9.71787 4.16379 9.69577 4.18871C9.67368 4.21363 9.66127 4.24743 9.66127 4.28267V6.27603C9.66127 6.28135 9.66362 6.28533 9.66409 6.29038L9.1954 7.96347C9.19423 7.96799 9.1954 7.97277 9.1947 7.97756C9.19305 7.98633 9.18998 7.9943 9.18998 8.0036V15.5784H4.00589V15.3203H4.13007C4.16132 15.3203 4.19129 15.3063 4.21339 15.2814C4.23548 15.2564 4.24789 15.2226 4.24789 15.1874C4.24789 15.1521 4.23548 15.1183 4.21339 15.0934C4.19129 15.0685 4.16132 15.0545 4.13007 15.0545H3.97644L3.34775 12.9283H3.42056C3.45181 12.9283 3.48178 12.9143 3.50387 12.8893C3.52597 12.8644 3.53838 12.8306 3.53838 12.7954C3.53838 12.7601 3.52597 12.7263 3.50387 12.7014C3.48178 12.6765 3.45181 12.6625 3.42056 12.6625H3.06663V11.4665C3.06663 11.4312 3.05421 11.3974 3.03212 11.3725C3.01002 11.3476 2.98005 11.3336 2.94881 11.3336C2.91756 11.3336 2.88759 11.3476 2.8655 11.3725C2.8434 11.3974 2.83099 11.4312 2.83099 11.4665V11.8651H1.65278V11.4665C1.65278 11.4312 1.64037 11.3974 1.61827 11.3725C1.59618 11.3476 1.56621 11.3336 1.53496 11.3336C1.50372 11.3336 1.47375 11.3476 1.45165 11.3725C1.42956 11.3974 1.41714 11.4312 1.41714 11.4665V12.6625H1.0651C1.03385 12.6625 1.00388 12.6765 0.981784 12.7014C0.959689 12.7263 0.947275 12.7601 0.947275 12.7954C0.947275 12.8306 0.959689 12.8644 0.981784 12.8893C1.00388 12.9143 1.03385 12.9283 1.0651 12.9283H1.1339L0.504271 15.0545H0.355817C0.324569 15.0545 0.294601 15.0685 0.272506 15.0934C0.25041 15.1183 0.237997 15.1521 0.237997 15.1874C0.237997 15.2226 0.25041 15.2564 0.272506 15.2814C0.294601 15.3063 0.324569 15.3203 0.355817 15.3203H0.471281V23.0199H0.11782C0.0865724 23.0199 0.0566044 23.034 0.0345088 23.0589C0.0124132 23.0838 0 23.1176 0 23.1528C0 23.1881 0.0124132 23.2219 0.0345088 23.2468C0.0566044 23.2717 0.0865724 23.2857 0.11782 23.2857H22.7393C22.7706 23.2857 22.8005 23.2717 22.8226 23.2468C22.8447 23.2219 22.8571 23.1881 22.8571 23.1528C22.8571 23.1176 22.8447 23.0838 22.8226 23.0589C22.8005 23.034 22.7706 23.0199 22.7393 23.0199H22.3859V15.3203H22.5037C22.5349 15.3203 22.5649 15.3063 22.587 15.2814C22.6091 15.2564 22.6215 15.2226 22.6215 15.1874C22.6215 15.1521 22.6091 15.1183 22.587 15.0934C22.5649 15.0685 22.5349 15.0545 22.5037 15.0545H22.3552L21.7263 12.9283H21.7991C21.8304 12.9283 21.8603 12.9143 21.8824 12.8893C21.9045 12.8644 21.9169 12.8306 21.9169 12.7954C21.9169 12.7601 21.9045 12.7263 21.8824 12.7014C21.8603 12.6765 21.8304 12.6625 21.7991 12.6625H21.4452V11.4665C21.4452 11.4312 21.4328 11.3974 21.4107 11.3725C21.3886 11.3476 21.3586 11.3336 21.3274 11.3336C21.2961 11.3336 21.2661 11.3476 21.2441 11.3725C21.222 11.3974 21.2095 11.4312 21.2095 11.4665V11.8651H20.0313V11.4665C20.0313 11.4312 20.0189 11.3974 19.9968 11.3725C19.9747 11.3476 19.9448 11.3336 19.9135 11.3336C19.8823 11.3336 19.8523 11.3476 19.8302 11.3725C19.8081 11.3974 19.7957 11.4312 19.7957 11.4665V12.6625H19.4437C19.4124 12.6625 19.3824 12.6765 19.3603 12.7014C19.3382 12.7263 19.3258 12.7601 19.3258 12.7954C19.3258 12.8306 19.3382 12.8644 19.3603 12.8893C19.3824 12.9143 19.4124 12.9283 19.4437 12.9283H19.512L18.8849 15.0465H18.7339C18.7027 15.0465 18.6727 15.0605 18.6506 15.0855C18.6285 15.1104 18.6161 15.1442 18.6161 15.1794C18.6161 15.2147 18.6285 15.2485 18.6506 15.2734C18.6727 15.2983 18.7027 15.3123 18.7339 15.3123H18.8517V15.5781H13.6676V8.00334C13.6676 7.9943 13.6646 7.98633 13.6629 7.97756C13.6622 7.97277 13.6636 7.96799 13.6622 7.96347L13.1935 6.29038C13.194 6.28533 13.1959 6.28108 13.1959 6.27603V4.28267C13.1959 4.24743 13.1835 4.21363 13.1614 4.18871C13.1393 4.16379 13.1093 4.14978 13.0781 4.14978C13.0468 4.14978 13.0168 4.16379 12.9947 4.18871C12.9726 4.21363 12.9602 4.24743 12.9602 4.28267V4.68135H12.743L12.2967 3.08666H12.3711C12.4024 3.08666 12.4323 3.07266 12.4544 3.04774C12.4765 3.02282 12.489 2.98902 12.489 2.95377C12.489 2.91853 12.4765 2.88473 12.4544 2.8598C12.4323 2.83488 12.4024 2.82088 12.3711 2.82088H12.2571V2.16307L12.2533 1.63151C12.2531 1.59645 12.2405 1.56292 12.2185 1.53823C12.1964 1.51354 12.1666 1.49968 12.1355 1.49969H12.1345C12.1191 1.49982 12.1038 1.5034 12.0895 1.51021C12.0753 1.51701 12.0624 1.52692 12.0515 1.53936C12.0407 1.5518 12.0321 1.56653 12.0263 1.5827C12.0205 1.59888 12.0175 1.61619 12.0177 1.63364L12.0205 2.03125H11.5464V0.561479C11.5464 0.526235 11.534 0.492433 11.5119 0.467512C11.4898 0.44259 11.4598 0.428589 11.4286 0.428589V0.428855ZM10.8432 2.29703H11.0751V2.82062H10.8432V2.29703ZM11.3108 2.29703H11.5464V2.82062H11.3108V2.29703ZM11.782 2.29703H12.0214V2.82062H11.782V2.29703ZM10.8058 3.09437H12.0518L13.3886 7.87045H12.7251V7.206C12.7251 7.17075 12.7127 7.13695 12.6906 7.11203C12.6685 7.08711 12.6385 7.07311 12.6072 7.07311H12.1986L11.54 5.03457C11.5318 5.00908 11.5168 4.98703 11.4971 4.97136C11.4775 4.95569 11.4541 4.94715 11.43 4.94686H11.429C11.4052 4.94685 11.3819 4.955 11.3623 4.97024C11.3426 4.98547 11.3275 5.00707 11.319 5.03218L10.6215 7.07337H10.2508C10.2196 7.07337 10.1896 7.08737 10.1675 7.1123C10.1454 7.13722 10.133 7.17102 10.133 7.20626V7.87071H9.46945L10.8058 3.09437ZM9.89691 4.9466H10.0406L9.89691 5.45796V4.9466ZM12.8172 4.9466H12.9602V5.45796L12.8172 4.9466ZM11.4257 5.45769L12.0054 7.25118C12.0054 7.25198 12.0061 7.25171 12.0066 7.25251C12.0144 7.27537 12.0278 7.2937 12.0448 7.30859C12.0485 7.31178 12.0518 7.31497 12.0558 7.31763C12.0737 7.3307 12.0944 7.33788 12.1157 7.33836H12.489V8.00281C12.489 8.03805 12.5014 8.07185 12.5235 8.09678C12.5456 8.1217 12.5755 8.1357 12.6068 8.1357H13.4315V8.16015C13.3938 8.14441 13.3539 8.13614 13.3137 8.1357C13.223 8.1357 13.1407 8.17557 13.0781 8.23935C13.0137 8.17298 12.9297 8.13603 12.8424 8.1357C12.6475 8.1357 12.489 8.31457 12.489 8.53437V8.80015C12.489 8.83539 12.5014 8.8692 12.5235 8.89412C12.5456 8.91904 12.5755 8.93304 12.6068 8.93304C12.638 8.93304 12.668 8.91904 12.6901 8.89412C12.7122 8.8692 12.7246 8.83539 12.7246 8.80015V8.53437C12.7246 8.46128 12.7776 8.40148 12.8424 8.40148C12.9072 8.40148 12.9602 8.46128 12.9602 8.53437V8.80015C12.9602 8.83539 12.9726 8.8692 12.9947 8.89412C13.0168 8.91904 13.0468 8.93304 13.0781 8.93304C13.1093 8.93304 13.1393 8.91904 13.1614 8.89412C13.1835 8.8692 13.1959 8.83539 13.1959 8.80015V8.53437C13.1959 8.46128 13.2489 8.40148 13.3137 8.40148C13.3785 8.40148 13.4315 8.46128 13.4315 8.53437V10.2619H9.42562V8.53437C9.42562 8.46128 9.47864 8.40148 9.54345 8.40148C9.60825 8.40148 9.66127 8.46128 9.66127 8.53437V8.80015C9.66127 8.83539 9.67368 8.8692 9.69577 8.89412C9.71787 8.91904 9.74784 8.93304 9.77909 8.93304C9.81033 8.93304 9.8403 8.91904 9.8624 8.89412C9.88449 8.8692 9.89691 8.83539 9.89691 8.80015V8.53437C9.89691 8.46128 9.94993 8.40148 10.0147 8.40148C10.0795 8.40148 10.1325 8.46128 10.1325 8.53437V8.80015C10.1325 8.83539 10.145 8.8692 10.1671 8.89412C10.1892 8.91904 10.2191 8.93304 10.2504 8.93304C10.2816 8.93304 10.3116 8.91904 10.3337 8.89412C10.3558 8.8692 10.3682 8.83539 10.3682 8.80015V8.53437C10.3681 8.42964 10.3314 8.32917 10.2662 8.25467C10.2009 8.18017 10.1123 8.13763 10.0194 8.13623H10.2504C10.2816 8.13623 10.3116 8.12223 10.3337 8.09731C10.3558 8.07239 10.3682 8.03858 10.3682 8.00334V7.33889H10.7023L10.7042 7.33836C10.7101 7.33809 10.7155 7.33543 10.7212 7.3341C10.741 7.3308 10.7598 7.32174 10.7756 7.30781C10.7914 7.29388 10.8038 7.27556 10.8114 7.25463C10.8114 7.2541 10.8114 7.25357 10.8119 7.25304L11.4257 5.45743V5.45769ZM9.42562 8.1365H9.54109C9.50168 8.13711 9.46265 8.14519 9.42562 8.16042V8.1365ZM9.54816 8.1365H10.01C9.92447 8.13799 9.84235 8.17466 9.77909 8.23962C9.71582 8.17466 9.6337 8.13799 9.54816 8.1365ZM11.4286 8.1365C10.9738 8.1365 10.6038 8.55377 10.6038 9.06673C10.6038 9.57968 10.974 9.99696 11.4286 9.99696C11.8834 9.99696 12.2533 9.57968 12.2533 9.06673C12.2533 8.55377 11.8834 8.1365 11.4286 8.1365ZM11.4286 8.40228C11.7535 8.40228 12.0177 8.69995 12.0177 9.06673C12.0177 9.43324 11.7535 9.73118 11.4286 9.73118C11.2724 9.73104 11.1226 9.66099 11.0122 9.53641C10.9017 9.41183 10.8396 9.24291 10.8395 9.06673C10.8395 8.69995 11.1036 8.40228 11.4286 8.40228ZM11.4286 8.66806C11.3973 8.66806 11.3674 8.68206 11.3453 8.70698C11.3232 8.7319 11.3108 8.7657 11.3108 8.80095V9.06673C11.3108 9.10197 11.3232 9.13577 11.3453 9.1607C11.3674 9.18562 11.3973 9.19962 11.4286 9.19962C11.4307 9.19962 11.4328 9.19856 11.4349 9.19856C11.4373 9.19856 11.4389 9.19962 11.4411 9.19962H11.782C11.8133 9.19962 11.8432 9.18562 11.8653 9.1607C11.8874 9.13577 11.8999 9.10197 11.8999 9.06673C11.8999 9.03148 11.8874 8.99768 11.8653 8.97276C11.8432 8.94784 11.8133 8.93384 11.782 8.93384H11.5464V8.80095C11.5464 8.7657 11.534 8.7319 11.5119 8.70698C11.4898 8.68206 11.4598 8.66806 11.4286 8.66806ZM9.42562 10.5285H10.6038V10.9272C10.6038 10.9774 10.6293 11.0234 10.6691 11.046L11.0751 11.2748V11.7245C11.0751 11.7598 11.0875 11.7936 11.1096 11.8185C11.1317 11.8434 11.1617 11.8574 11.1929 11.8574H11.3108V12.389C11.2795 12.389 11.2495 12.403 11.2274 12.4279C11.2053 12.4528 11.1929 12.4866 11.1929 12.5219C11.1929 12.5571 11.2053 12.5909 11.2274 12.6158C11.2495 12.6408 11.2795 12.6548 11.3108 12.6548H11.5464C11.5776 12.6548 11.6076 12.6408 11.6297 12.6158C11.6518 12.5909 11.6642 12.5571 11.6642 12.5219C11.6642 12.4866 11.6518 12.4528 11.6297 12.4279C11.6076 12.403 11.5776 12.389 11.5464 12.389V11.8574H11.6642C11.6955 11.8574 11.7254 11.8434 11.7475 11.8185C11.7696 11.7936 11.782 11.7598 11.782 11.7245V11.2748L12.1885 11.046C12.208 11.0349 12.2244 11.0179 12.2358 10.997C12.2473 10.976 12.2533 10.9518 12.2533 10.9272V10.5285H13.4315V13.7179H12.489V13.1863C12.489 12.8932 12.2776 12.6548 12.0177 12.6548C11.7578 12.6548 11.5464 12.8932 11.5464 13.1863V13.7179H11.3108V13.1863C11.3108 12.8932 11.0994 12.6548 10.8395 12.6548C10.5796 12.6548 10.3682 12.8932 10.3682 13.1863V13.7179H9.42562V10.5285ZM10.8395 10.5291H12.0177V10.8453L11.6117 11.0739C11.5921 11.085 11.5756 11.102 11.5641 11.123C11.5525 11.144 11.5464 11.1683 11.5464 11.193V11.5916H11.3108V11.193C11.3108 11.1683 11.3048 11.1441 11.2933 11.1231C11.2819 11.102 11.2655 11.085 11.2459 11.0739L10.8395 10.8453V10.5291ZM1.65325 12.1306H1.88513V12.6542H1.65325V12.1306ZM2.12077 12.1306H2.35641V12.6542H2.12077V12.1306ZM2.59205 12.1306H2.83146V12.6542H2.59205V12.1306ZM20.0313 12.1306H20.2637V12.6542H20.0313V12.1306ZM20.4993 12.1306H20.735V12.6542H20.4993V12.1306ZM20.9701 12.1306H21.2095V12.6542H20.9701V12.1306ZM10.8395 12.9203C10.902 12.9203 10.9619 12.9483 11.0061 12.9981C11.0503 13.048 11.0751 13.1156 11.0751 13.1861V15.0465H10.6038V13.1861C10.6038 13.1156 10.6287 13.048 10.6728 12.9981C10.717 12.9483 10.777 12.9203 10.8395 12.9203ZM12.0177 12.9203C12.0802 12.9203 12.1401 12.9483 12.1843 12.9981C12.2285 13.048 12.2533 13.1156 12.2533 13.1861V15.0465H11.782V13.1861C11.782 13.1156 11.8069 13.048 11.851 12.9981C11.8952 12.9483 11.9552 12.9203 12.0177 12.9203ZM1.3825 12.9283H3.10032L3.72831 15.0545H2.99853L2.32601 14.2891C2.31517 14.2765 2.30224 14.2666 2.28796 14.2597C2.27368 14.2529 2.25834 14.2493 2.24283 14.2492H2.24236C2.22685 14.2491 2.21149 14.2526 2.19717 14.2593C2.18285 14.266 2.16986 14.2758 2.15894 14.2883L1.48265 15.0545H0.753107L1.3825 12.9283ZM19.7606 12.9283H21.4784L22.1064 15.0545H21.3766L20.7041 14.2891C20.6933 14.2765 20.6803 14.2666 20.666 14.2597C20.6518 14.2529 20.6364 14.2493 20.6209 14.2492H20.6204C20.6049 14.2491 20.5896 14.2526 20.5753 14.2593C20.5609 14.266 20.5479 14.2758 20.537 14.2883L19.8614 15.0545H19.4752C19.4642 15.0508 19.4528 15.0465 19.4408 15.0465H19.1338L19.7606 12.9283ZM9.42562 13.9831H10.3682V15.0463H10.2504C10.2191 15.0463 10.1892 15.0603 10.1671 15.0852C10.145 15.1101 10.1325 15.1439 10.1325 15.1792V15.7107C10.1325 15.746 10.145 15.7798 10.1671 15.8047C10.1892 15.8296 10.2191 15.8436 10.2504 15.8436H12.6068C12.638 15.8436 12.668 15.8296 12.6901 15.8047C12.7122 15.7798 12.7246 15.746 12.7246 15.7107V15.1792C12.7246 15.1439 12.7122 15.1101 12.6901 15.0852C12.668 15.0603 12.638 15.0463 12.6068 15.0463H12.489V13.9831H13.4315V19.033H12.489V17.0396C12.489 16.6734 12.2248 16.3752 11.8999 16.3752C11.7064 16.3752 11.536 16.4825 11.4286 16.6452C11.3742 16.5618 11.3032 16.494 11.2214 16.4471C11.1395 16.4003 11.0491 16.3757 10.9573 16.3754C10.8011 16.3756 10.6513 16.4456 10.5409 16.5702C10.4304 16.6948 10.3683 16.8637 10.3682 17.0399V19.0332H9.42562V13.9831ZM11.3108 13.9831H11.5464V14.2489H11.3108V13.9831ZM11.3108 14.5147H11.5464V15.0463H11.3108V14.5147ZM2.24188 14.571L2.86539 15.2807C2.87637 15.2932 2.88944 15.3031 2.90384 15.3098C2.91824 15.3166 2.93368 15.32 2.94928 15.32H3.77025V15.6023C3.7325 15.5866 3.69264 15.5784 3.65243 15.5781C3.56171 15.5781 3.47947 15.618 3.41679 15.6817C3.35239 15.6154 3.26838 15.5784 3.18115 15.5781C2.98627 15.5781 2.82769 15.757 2.82769 15.9768V16.2425C2.82769 16.2778 2.8401 16.3116 2.8622 16.3365C2.88429 16.3614 2.91426 16.3754 2.94551 16.3754C2.97676 16.3754 3.00672 16.3614 3.02882 16.3365C3.05092 16.3116 3.06333 16.2778 3.06333 16.2425V15.9768C3.06333 15.9037 3.11635 15.8439 3.18115 15.8439C3.24595 15.8439 3.29897 15.9037 3.29897 15.9768V16.2425C3.29897 16.2778 3.31138 16.3116 3.33348 16.3365C3.35557 16.3614 3.38554 16.3754 3.41679 16.3754C3.44804 16.3754 3.47801 16.3614 3.5001 16.3365C3.5222 16.3116 3.53461 16.2778 3.53461 16.2425V15.9768C3.53461 15.9037 3.58763 15.8439 3.65243 15.8439C3.71723 15.8439 3.77025 15.9037 3.77025 15.9768V23.0199H3.28719V22.0871C3.28719 21.4277 2.81119 20.891 2.2268 20.891C1.94567 20.8914 1.67614 21.0175 1.47734 21.2417C1.27855 21.466 1.16673 21.77 1.16642 22.0871V23.0199H0.706922V15.9768C0.706922 15.9037 0.759941 15.8439 0.824742 15.8439C0.889543 15.8439 0.942563 15.9037 0.942563 15.9768V16.2425C0.942563 16.2778 0.954976 16.3116 0.977071 16.3365C0.999167 16.3614 1.02913 16.3754 1.06038 16.3754C1.09163 16.3754 1.1216 16.3614 1.14369 16.3365C1.16579 16.3116 1.1782 16.2778 1.1782 16.2425V15.9768C1.1782 15.9037 1.23122 15.8439 1.29602 15.8439C1.36082 15.8439 1.41384 15.9037 1.41384 15.9768V16.2425C1.41384 16.2778 1.42626 16.3116 1.44835 16.3365C1.47045 16.3614 1.50042 16.3754 1.53166 16.3754C1.56291 16.3754 1.59288 16.3614 1.61498 16.3365C1.63707 16.3116 1.64948 16.2778 1.64948 16.2425V15.9768C1.64948 15.757 1.4909 15.5781 1.29602 15.5781C1.2053 15.5781 1.12306 15.618 1.06038 15.6817C0.99598 15.6154 0.911978 15.5784 0.824742 15.5781C0.783269 15.5781 0.743917 15.5874 0.706922 15.6023V15.32H1.53166C1.5472 15.32 1.56258 15.3166 1.57694 15.3099C1.59129 15.3032 1.60433 15.2933 1.61532 15.2809L2.24188 14.571ZM20.62 14.571L21.2435 15.2807C21.2545 15.2932 21.2675 15.3031 21.2819 15.3098C21.2963 15.3166 21.3118 15.32 21.3274 15.32H22.1502V15.6023C22.1125 15.5866 22.0726 15.5784 22.0324 15.5781C21.9417 15.5781 21.8594 15.618 21.7968 15.6817C21.7324 15.6154 21.6484 15.5784 21.5611 15.5781C21.3662 15.5781 21.2077 15.757 21.2077 15.9768V16.2425C21.2077 16.2778 21.2201 16.3116 21.2422 16.3365C21.2643 16.3614 21.2942 16.3754 21.3255 16.3754C21.3567 16.3754 21.3867 16.3614 21.4088 16.3365C21.4309 16.3116 21.4433 16.2778 21.4433 16.2425V15.9768C21.4433 15.9037 21.4963 15.8439 21.5611 15.8439C21.6259 15.8439 21.6789 15.9037 21.6789 15.9768V16.2425C21.6789 16.2778 21.6914 16.3116 21.7134 16.3365C21.7355 16.3614 21.7655 16.3754 21.7968 16.3754C21.828 16.3754 21.858 16.3614 21.8801 16.3365C21.9022 16.3116 21.9146 16.2778 21.9146 16.2425V15.9768C21.9146 15.9037 21.9676 15.8439 22.0324 15.8439C22.0972 15.8439 22.1502 15.9037 22.1502 15.9768V23.0199H21.6672V22.0871C21.6672 21.4277 21.1912 20.891 20.6068 20.891C20.3256 20.8914 20.0561 21.0175 19.8573 21.2417C19.6585 21.466 19.5467 21.77 19.5464 22.0871V23.0199H19.0874V15.9768C19.0874 15.9037 19.1404 15.8439 19.2052 15.8439C19.27 15.8439 19.323 15.9037 19.323 15.9768V16.2425C19.323 16.2778 19.3354 16.3116 19.3575 16.3365C19.3796 16.3614 19.4096 16.3754 19.4408 16.3754C19.4721 16.3754 19.502 16.3614 19.5241 16.3365C19.5462 16.3116 19.5586 16.2778 19.5586 16.2425V15.9768C19.5586 15.9037 19.6117 15.8439 19.6765 15.8439C19.7413 15.8439 19.7943 15.9037 19.7943 15.9768V16.2425C19.7943 16.2778 19.8067 16.3116 19.8288 16.3365C19.8509 16.3614 19.8809 16.3754 19.9121 16.3754C19.9434 16.3754 19.9733 16.3614 19.9954 16.3365C20.0175 16.3116 20.0299 16.2778 20.0299 16.2425V15.9768C20.0299 15.757 19.8713 15.5781 19.6765 15.5781C19.5857 15.5781 19.5035 15.618 19.4408 15.6817C19.3764 15.6154 19.2924 15.5784 19.2052 15.5781C19.1637 15.5781 19.1244 15.5874 19.0874 15.6023V15.32H19.9102C19.9416 15.32 19.9715 15.3059 19.9936 15.2809L20.62 14.571ZM2.23859 15.0468C2.04371 15.0468 1.88513 15.2257 1.88513 15.4455V16.2428C1.88513 16.2781 1.89754 16.3119 1.91963 16.3368C1.94173 16.3617 1.9717 16.3757 2.00295 16.3757H2.47423C2.50547 16.3757 2.53544 16.3617 2.55754 16.3368C2.57963 16.3119 2.59205 16.2781 2.59205 16.2428V15.4455C2.59205 15.2257 2.43346 15.0468 2.23859 15.0468ZM20.6186 15.0468C20.4237 15.0468 20.2651 15.2257 20.2651 15.4455V16.2428C20.2651 16.2781 20.2775 16.3119 20.2996 16.3368C20.3217 16.3617 20.3517 16.3757 20.3829 16.3757H20.8542C20.8854 16.3757 20.9154 16.3617 20.9375 16.3368C20.9596 16.3119 20.972 16.2781 20.972 16.2428V15.4455C20.972 15.2257 20.8134 15.0468 20.6186 15.0468ZM2.23859 15.3126C2.30339 15.3126 2.35641 15.3724 2.35641 15.4455V16.1099H2.12077V15.4455C2.12077 15.3724 2.17378 15.3126 2.23859 15.3126ZM10.3682 15.3126H10.6038V15.5784H10.3682V15.3126ZM10.8395 15.3126H11.0751V15.5784H10.8395V15.3126ZM11.3108 15.3126H11.5464V15.5784H11.3108V15.3126ZM11.782 15.3126H12.0177V15.5784H11.782V15.3126ZM12.2533 15.3126H12.489V15.5784H12.2533V15.3126ZM20.6186 15.3126C20.6834 15.3126 20.7364 15.3724 20.7364 15.4455V16.1099H20.5007V15.4455C20.5007 15.3724 20.5538 15.3126 20.6186 15.3126ZM4.00589 15.8441H9.18998V16.9073H4.00589V15.8441ZM13.6672 15.8441H18.8512V16.9073H13.6672V15.8441ZM10.9573 16.6415C11.1522 16.6415 11.3108 16.8203 11.3108 17.0401V19.0335H10.6038V17.0401C10.6038 16.8203 10.7624 16.6415 10.9573 16.6415ZM11.8999 16.6415C12.0947 16.6415 12.2533 16.8203 12.2533 17.0401V19.0335H11.5464V17.0401C11.5464 16.8203 11.705 16.6415 11.8999 16.6415ZM2.23859 17.1704C1.75482 17.1704 1.35046 17.5393 1.22368 18.0398C1.2161 18.0553 1.21145 18.0725 1.21001 18.0903C1.19116 18.1793 1.17867 18.2707 1.17867 18.3664V20.2269C1.17844 20.2999 1.23099 20.3598 1.29602 20.3598H3.18115C3.2124 20.3598 3.24236 20.3457 3.26446 20.3208C3.28656 20.2959 3.29897 20.2621 3.29897 20.2269V18.3664C3.29897 18.2699 3.28624 18.1769 3.26716 18.0873C3.26569 18.0709 3.26136 18.0549 3.25443 18.0403C3.12789 17.5396 2.72259 17.1704 2.23859 17.1704ZM20.619 17.1704C20.1353 17.1704 19.7307 17.5393 19.6037 18.0398C19.5962 18.0554 19.5917 18.0726 19.5905 18.0903C19.5716 18.1793 19.5586 18.2707 19.5586 18.3664V20.2269C19.5586 20.2621 19.5711 20.2959 19.5932 20.3208C19.6152 20.3457 19.6452 20.3598 19.6765 20.3598H21.5616C21.5928 20.3598 21.6228 20.3457 21.6449 20.3208C21.667 20.2959 21.6794 20.2621 21.6794 20.2269V18.3664C21.6794 18.2699 21.6667 18.1774 21.6476 18.0876C21.6458 18.0711 21.6413 18.055 21.6344 18.0403C21.5079 17.5396 21.1033 17.1704 20.619 17.1704ZM4.00589 17.173H9.18998V19.2993H8.95434V18.1697C8.95434 17.9132 8.76937 17.7046 8.54197 17.7046C8.42651 17.7046 8.32236 17.7588 8.24742 17.8452C8.2092 17.8007 8.16343 17.7652 8.11283 17.741C8.06223 17.7168 8.00783 17.7043 7.95287 17.7043C7.72548 17.7043 7.5405 17.9132 7.5405 18.1695V19.299H7.30486V18.1695C7.30486 17.9132 7.11988 17.7043 6.89249 17.7043C6.77702 17.7043 6.67287 17.7588 6.59794 17.8452C6.55972 17.8007 6.51395 17.7652 6.46335 17.741C6.41275 17.7168 6.35835 17.7043 6.30339 17.7043C6.07599 17.7043 5.89102 17.9132 5.89102 18.1695V19.299H5.65538V18.1695C5.65538 17.9132 5.4704 17.7043 5.243 17.7043C5.12754 17.7043 5.02339 17.7588 4.94845 17.8452C4.91023 17.8007 4.86446 17.7652 4.81386 17.741C4.76326 17.7168 4.70886 17.7043 4.6539 17.7043C4.42651 17.7043 4.24153 17.9132 4.24153 18.1695V19.299H4.00589V17.173ZM13.6672 17.173H18.8512V19.2993H18.6156V18.1697C18.6156 17.9132 18.4306 17.7046 18.2032 17.7046C18.0878 17.7046 17.9836 17.7588 17.9087 17.8452C17.8705 17.8007 17.8247 17.7652 17.7741 17.741C17.7235 17.7168 17.6691 17.7043 17.6141 17.7043C17.3867 17.7043 17.2018 17.9132 17.2018 18.1695V19.299H16.9661V18.1695C16.9661 17.9132 16.7811 17.7043 16.5538 17.7043C16.4383 17.7043 16.3341 17.7588 16.2592 17.8452C16.221 17.8007 16.1752 17.7652 16.1246 17.741C16.074 17.7168 16.0196 17.7043 15.9647 17.7043C15.7373 17.7043 15.5523 17.9132 15.5523 18.1695V19.299H15.3166V18.1695C15.3166 17.9132 15.1317 17.7043 14.9043 17.7043C14.7888 17.7043 14.6847 17.7588 14.6097 17.8452C14.5715 17.8007 14.5257 17.7652 14.4751 17.741C14.4245 17.7168 14.3701 17.7043 14.3152 17.7043C14.0878 17.7043 13.9028 17.9132 13.9028 18.1695V19.299H13.6672V17.173ZM2.23859 17.4362C2.5673 17.4362 2.84984 17.6557 2.98227 17.9704H1.49538C1.56162 17.811 1.66666 17.6762 1.79825 17.5816C1.92984 17.487 2.08255 17.4366 2.23859 17.4362ZM20.6186 17.4362C20.9473 17.4362 21.2298 17.6557 21.3622 17.9704H19.8753C19.9416 17.811 20.0466 17.6762 20.1782 17.5816C20.3098 17.487 20.4625 17.4366 20.6186 17.4362ZM4.6539 17.9704C4.75122 17.9704 4.83063 18.0599 4.83063 18.1697V19.2993H4.47717V18.1697C4.47717 18.0599 4.55658 17.9704 4.6539 17.9704ZM5.243 17.9704C5.34032 17.9704 5.41973 18.0599 5.41973 18.1697V19.2993H5.06627V18.1697C5.06627 18.0599 5.14568 17.9704 5.243 17.9704ZM6.30339 17.9704C6.40071 17.9704 6.48012 18.0599 6.48012 18.1697V19.2993H6.12666V18.1697C6.12666 18.0599 6.20607 17.9704 6.30339 17.9704ZM6.89249 17.9704C6.98981 17.9704 7.06922 18.0599 7.06922 18.1697V19.2993H6.71576V18.1697C6.71576 18.0599 6.79517 17.9704 6.89249 17.9704ZM7.95287 17.9704C8.05019 17.9704 8.1296 18.0599 8.1296 18.1697V19.2993H7.77614V18.1697C7.77614 18.0599 7.85555 17.9704 7.95287 17.9704ZM8.54197 17.9704C8.63929 17.9704 8.7187 18.0599 8.7187 18.1697V19.2993H8.36524V18.1697C8.36524 18.0599 8.44465 17.9704 8.54197 17.9704ZM14.3152 17.9704C14.4125 17.9704 14.4919 18.0599 14.4919 18.1697V19.2993H14.1384V18.1697C14.1384 18.0599 14.2178 17.9704 14.3152 17.9704ZM14.9043 17.9704C15.0016 17.9704 15.081 18.0599 15.081 18.1697V19.2993H14.7275V18.1697C14.7275 18.0599 14.807 17.9704 14.9043 17.9704ZM15.9647 17.9704C16.062 17.9704 16.1414 18.0599 16.1414 18.1697V19.2993H15.7879V18.1697C15.7879 18.0599 15.8673 17.9704 15.9647 17.9704ZM16.5538 17.9704C16.6511 17.9704 16.7305 18.0599 16.7305 18.1697V19.2993H16.377V18.1697C16.377 18.0599 16.4564 17.9704 16.5538 17.9704ZM17.6141 17.9704C17.7115 17.9704 17.7909 18.0599 17.7909 18.1697V19.2993H17.4374V18.1697C17.4374 18.0599 17.5168 17.9704 17.6141 17.9704ZM18.2032 17.9704C18.3006 17.9704 18.38 18.0599 18.38 18.1697V19.2993H18.0265V18.1697C18.0265 18.0599 18.1059 17.9704 18.2032 17.9704ZM1.42563 18.2362H1.64948V18.5019H1.41384V18.3664C1.41384 18.3217 1.42044 18.2787 1.42563 18.2362ZM1.88513 18.2362H2.12077V18.5019H1.88513V18.2362ZM2.35641 18.2362H2.59205V18.5019H2.35641V18.2362ZM2.82769 18.2362H3.05178C3.05744 18.2787 3.06333 18.3217 3.06333 18.3664V18.5019H2.82769V18.2362ZM19.8056 18.2362H20.0295V18.5019H19.7938V18.3664C19.7938 18.3217 19.8004 18.2787 19.8056 18.2362ZM20.2651 18.2362H20.5007V18.5019H20.2651V18.2362ZM20.7364 18.2362H20.972V18.5019H20.7364V18.2362ZM21.2077 18.2362H21.4317C21.4372 18.2787 21.4433 18.322 21.4433 18.3664V18.5019H21.2077V18.2362ZM1.41384 18.7677H1.64948V20.094H1.41384V18.7677ZM1.88513 18.7677H2.12077V20.094H1.88513V18.7677ZM2.35641 18.7677H2.59205V20.094H2.35641V18.7677ZM2.82769 18.7677H3.06333V20.094H2.82769V18.7677ZM19.7938 18.7677H20.0295V20.094H19.7938V18.7677ZM20.2651 18.7677H20.5007V20.094H20.2651V18.7677ZM20.7364 18.7677H20.972V20.094H20.7364V18.7677ZM21.2077 18.7677H21.4433V20.094H21.2077V18.7677ZM9.4261 19.2993H13.4315V23.0202H12.7128V21.29C12.7128 20.4841 12.131 19.8282 11.4168 19.8282C11.0732 19.8287 10.7438 19.9828 10.5008 20.2569C10.2579 20.5309 10.1212 20.9024 10.1208 21.29V23.0202H9.4261V19.2993ZM4.00589 19.5651H9.18998V23.0202H8.95434V21.9555C8.95434 21.5159 8.63717 21.1582 8.24742 21.1582C7.85767 21.1582 7.5405 21.5159 7.5405 21.9555V23.0202H7.30486V21.9555C7.30486 21.5159 6.98769 21.1582 6.59794 21.1582C6.20819 21.1582 5.89102 21.5159 5.89102 21.9555V23.0202H5.65538V21.9555C5.65538 21.5159 5.3382 21.1582 4.94845 21.1582C4.5587 21.1582 4.24153 21.5159 4.24153 21.9555V23.0202H4.00589V19.5651ZM13.6672 19.5651H18.8512V23.0202H18.6156V21.9555C18.6156 21.5159 18.2984 21.1582 17.9087 21.1582C17.5189 21.1582 17.2018 21.5159 17.2018 21.9555V23.0202H16.9661V21.9555C16.9661 21.5159 16.649 21.1582 16.2592 21.1582C15.8695 21.1582 15.5523 21.5159 15.5523 21.9555V23.0202H15.3166V21.9555C15.3166 21.5159 14.9995 21.1582 14.6097 21.1582C14.22 21.1582 13.9028 21.5159 13.9028 21.9555V23.0202H13.6672V19.5651ZM4.35935 19.8282C4.3281 19.8282 4.29814 19.8422 4.27604 19.8671C4.25394 19.892 4.24153 19.9258 4.24153 19.9611V20.6255C4.24153 20.6608 4.25394 20.6946 4.27604 20.7195C4.29814 20.7444 4.3281 20.7584 4.35935 20.7584H5.53755C5.5688 20.7584 5.59877 20.7444 5.62087 20.7195C5.64296 20.6946 5.65538 20.6608 5.65538 20.6255V19.9611C5.65538 19.9258 5.64296 19.892 5.62087 19.8671C5.59877 19.8422 5.5688 19.8282 5.53755 19.8282H4.35935ZM6.00884 19.8282C5.97759 19.8282 5.94762 19.8422 5.92552 19.8671C5.90343 19.892 5.89102 19.9258 5.89102 19.9611V20.6255C5.89102 20.6608 5.90343 20.6946 5.92552 20.7195C5.94762 20.7444 5.97759 20.7584 6.00884 20.7584H7.18704C7.21829 20.7584 7.24826 20.7444 7.27035 20.7195C7.29245 20.6946 7.30486 20.6608 7.30486 20.6255V19.9611C7.30486 19.9258 7.29245 19.892 7.27035 19.8671C7.24826 19.8422 7.21829 19.8282 7.18704 19.8282H6.00884ZM7.65832 19.8282C7.62707 19.8282 7.5971 19.8422 7.57501 19.8671C7.55291 19.892 7.5405 19.9258 7.5405 19.9611V20.6255C7.5405 20.6608 7.55291 20.6946 7.57501 20.7195C7.5971 20.7444 7.62707 20.7584 7.65832 20.7584H8.83652C8.86777 20.7584 8.89774 20.7444 8.91984 20.7195C8.94193 20.6946 8.95434 20.6608 8.95434 20.6255V19.9611C8.95434 19.9258 8.94193 19.892 8.91984 19.8671C8.89774 19.8422 8.86777 19.8282 8.83652 19.8282H7.65832ZM14.0206 19.8282C13.9894 19.8282 13.9594 19.8422 13.9373 19.8671C13.9152 19.892 13.9028 19.9258 13.9028 19.9611V20.6255C13.9028 20.6608 13.9152 20.6946 13.9373 20.7195C13.9594 20.7444 13.9894 20.7584 14.0206 20.7584H15.1988C15.2301 20.7584 15.26 20.7444 15.2821 20.7195C15.3042 20.6946 15.3166 20.6608 15.3166 20.6255V19.9611C15.3166 19.9258 15.3042 19.892 15.2821 19.8671C15.26 19.8422 15.2301 19.8282 15.1988 19.8282H14.0206ZM15.6701 19.8282C15.6389 19.8282 15.6089 19.8422 15.5868 19.8671C15.5647 19.892 15.5523 19.9258 15.5523 19.9611V20.6255C15.5523 20.6608 15.5647 20.6946 15.5868 20.7195C15.6089 20.7444 15.6389 20.7584 15.6701 20.7584H16.8483C16.8796 20.7584 16.9095 20.7444 16.9316 20.7195C16.9537 20.6946 16.9661 20.6608 16.9661 20.6255V19.9611C16.9661 19.9258 16.9537 19.892 16.9316 19.8671C16.9095 19.8422 16.8796 19.8282 16.8483 19.8282H15.6701ZM17.3196 19.8282C17.2883 19.8282 17.2584 19.8422 17.2363 19.8671C17.2142 19.892 17.2018 19.9258 17.2018 19.9611V20.6255C17.2018 20.6608 17.2142 20.6946 17.2363 20.7195C17.2584 20.7444 17.2883 20.7584 17.3196 20.7584H18.4978C18.529 20.7584 18.559 20.7444 18.5811 20.7195C18.6032 20.6946 18.6156 20.6608 18.6156 20.6255V19.9611C18.6156 19.9258 18.6032 19.892 18.5811 19.8671C18.559 19.8422 18.529 19.8282 18.4978 19.8282H17.3196ZM4.47717 20.094H4.83063V20.4926H4.47717V20.094ZM5.06627 20.094H5.41973V20.4926H5.06627V20.094ZM6.12666 20.094H6.48012V20.4926H6.12666V20.094ZM6.71576 20.094H7.06922V20.4926H6.71576V20.094ZM7.77614 20.094H8.1296V20.4926H7.77614V20.094ZM8.36524 20.094H8.7187V20.4926H8.36524V20.094ZM11.4168 20.094C12.0012 20.094 12.4772 20.6306 12.4772 21.29V23.0176H10.3564V21.29C10.3564 20.6306 10.8319 20.094 11.4168 20.094ZM14.1384 20.094H14.4919V20.4926H14.1384V20.094ZM14.7275 20.094H15.081V20.4926H14.7275V20.094ZM15.7879 20.094H16.1414V20.4926H15.7879V20.094ZM16.377 20.094H16.7305V20.4926H16.377V20.094ZM17.4374 20.094H17.7909V20.4926H17.4374V20.094ZM18.0265 20.094H18.38V20.4926H18.0265V20.094ZM2.2268 21.1571C2.68159 21.1571 3.05155 21.5744 3.05155 22.0873V23.0176H1.40206V22.0873C1.40206 21.5744 1.77202 21.1571 2.2268 21.1571ZM20.6068 21.1571C21.0616 21.1571 21.4315 21.5744 21.4315 22.0873V23.0176H19.782V22.0873C19.782 21.5744 20.152 21.1571 20.6068 21.1571ZM4.94845 21.4239C5.20836 21.4239 5.41973 21.6623 5.41973 21.9555V23.0202H4.47717V21.9555C4.47717 21.6623 4.68854 21.4239 4.94845 21.4239ZM6.59794 21.4239C6.85785 21.4239 7.06922 21.6623 7.06922 21.9555V23.0202H6.12666V21.9555C6.12666 21.6623 6.33803 21.4239 6.59794 21.4239ZM8.24742 21.4239C8.50733 21.4239 8.7187 21.6623 8.7187 21.9555V23.0202H7.77614V21.9555C7.77614 21.6623 7.98751 21.4239 8.24742 21.4239ZM14.6097 21.4239C14.8696 21.4239 15.081 21.6623 15.081 21.9555V23.0202H14.1384V21.9555C14.1384 21.6623 14.3498 21.4239 14.6097 21.4239ZM16.2592 21.4239C16.5191 21.4239 16.7305 21.6623 16.7305 21.9555V23.0202H15.7879V21.9555C15.7879 21.6623 15.9993 21.4239 16.2592 21.4239ZM17.9087 21.4239C18.1686 21.4239 18.38 21.6623 18.38 21.9555V23.0202H17.4374V21.9555C17.4374 21.6623 17.6488 21.4239 17.9087 21.4239Z" fill="white"/>
</svg>
