<svg width="33" height="33" viewBox="0 0 33 33" fill="none" xmlns="http://www.w3.org/2000/svg">
<path d="M16.5 0.500372C16.4563 0.500372 16.4143 0.519973 16.3834 0.554864C16.3524 0.589754 16.3351 0.637076 16.3351 0.686419V2.74372H15.6792L15.6753 2.18409C15.6749 2.13501 15.6574 2.08807 15.6265 2.0535C15.5956 2.01893 15.5538 1.99953 15.5103 1.99954H15.509C15.4873 1.99973 15.4659 2.00474 15.446 2.01427C15.426 2.0238 15.4079 2.03766 15.3927 2.05508C15.3775 2.07249 15.3655 2.09311 15.3574 2.11576C15.3493 2.13841 15.3452 2.16264 15.3454 2.18707L15.3506 2.93126V3.84921H15.1804C15.1367 3.84921 15.0947 3.86881 15.0638 3.9037C15.0328 3.93859 15.0155 3.98591 15.0155 4.03526C15.0155 4.0846 15.0328 4.13192 15.0638 4.16681C15.0947 4.2017 15.1367 4.2213 15.1804 4.2213H15.2853L14.6605 6.45386H14.3557V5.89572C14.3557 5.84638 14.3383 5.79906 14.3074 5.76417C14.2764 5.72928 14.2345 5.70967 14.1907 5.70967C14.147 5.70967 14.105 5.72928 14.0741 5.76417C14.0432 5.79906 14.0258 5.84638 14.0258 5.89572V8.68642C14.0258 8.69386 14.0291 8.69944 14.0297 8.70651L13.3736 11.0488C13.3719 11.0552 13.3736 11.0619 13.3726 11.0686C13.3703 11.0808 13.366 11.092 13.366 11.105V21.7097H6.10825V21.3484H6.2821C6.32585 21.3484 6.36781 21.3288 6.39874 21.2939C6.42967 21.259 6.44705 21.2117 6.44705 21.1623C6.44705 21.113 6.42967 21.0657 6.39874 21.0308C6.36781 20.9959 6.32585 20.9763 6.2821 20.9763H6.06701L5.18685 17.9995H5.28878C5.33253 17.9995 5.37449 17.9799 5.40542 17.945C5.43635 17.9102 5.45373 17.8628 5.45373 17.8135C5.45373 17.7641 5.43635 17.7168 5.40542 17.6819C5.37449 17.647 5.33253 17.6274 5.28878 17.6274H4.79328V15.953C4.79328 15.9037 4.7759 15.8564 4.74497 15.8215C4.71403 15.7866 4.67208 15.767 4.62833 15.767C4.58458 15.767 4.54263 15.7866 4.51169 15.8215C4.48076 15.8564 4.46338 15.9037 4.46338 15.953V16.5112H2.8139V15.953C2.8139 15.9037 2.79652 15.8564 2.76559 15.8215C2.73465 15.7866 2.6927 15.767 2.64895 15.767C2.6052 15.767 2.56325 15.7866 2.53231 15.8215C2.50138 15.8564 2.484 15.9037 2.484 15.953V17.6274H1.99113C1.94739 17.6274 1.90543 17.647 1.8745 17.6819C1.84356 17.7168 1.82619 17.7641 1.82619 17.8135C1.82619 17.8628 1.84356 17.9102 1.8745 17.945C1.90543 17.9799 1.94739 17.9995 1.99113 17.9995H2.08746L1.20598 20.9763H0.998144C0.954397 20.9763 0.912442 20.9959 0.881508 21.0308C0.850574 21.0657 0.833196 21.113 0.833196 21.1623C0.833196 21.2117 0.850574 21.259 0.881508 21.2939C0.912442 21.3288 0.954397 21.3484 0.998144 21.3484H1.15979V32.1279H0.664948C0.621201 32.1279 0.579246 32.1475 0.548312 32.1824C0.517378 32.2173 0.5 32.2646 0.5 32.314C0.5 32.3633 0.517378 32.4106 0.548312 32.4455C0.579246 32.4804 0.621201 32.5 0.664948 32.5H32.3351C32.3788 32.5 32.4208 32.4804 32.4517 32.4455C32.4826 32.4106 32.5 32.3633 32.5 32.314C32.5 32.2646 32.4826 32.2173 32.4517 32.1824C32.4208 32.1475 32.3788 32.1279 32.3351 32.1279H31.8402V21.3484H32.0052C32.0489 21.3484 32.0909 21.3288 32.1218 21.2939C32.1527 21.259 32.1701 21.2117 32.1701 21.1623C32.1701 21.113 32.1527 21.0657 32.1218 21.0308C32.0909 20.9959 32.0489 20.9763 32.0052 20.9763H31.7973L30.9168 17.9995H31.0188C31.0625 17.9995 31.1045 17.9799 31.1354 17.945C31.1663 17.9102 31.1837 17.8628 31.1837 17.8135C31.1837 17.7641 31.1663 17.7168 31.1354 17.6819C31.1045 17.647 31.0625 17.6274 31.0188 17.6274H30.5233V15.953C30.5233 15.9037 30.5059 15.8564 30.475 15.8215C30.444 15.7866 30.4021 15.767 30.3583 15.767C30.3146 15.767 30.2726 15.7866 30.2417 15.8215C30.2107 15.8564 30.1934 15.9037 30.1934 15.953V16.5112H28.5439V15.953C28.5439 15.9037 28.5265 15.8564 28.4956 15.8215C28.4646 15.7866 28.4227 15.767 28.3789 15.767C28.3352 15.767 28.2932 15.7866 28.2623 15.8215C28.2314 15.8564 28.214 15.9037 28.214 15.953V17.6274H27.7211C27.6774 17.6274 27.6354 17.647 27.6045 17.6819C27.5735 17.7168 27.5562 17.7641 27.5562 17.8135C27.5562 17.8628 27.5735 17.9102 27.6045 17.945C27.6354 17.9799 27.6774 17.9995 27.7211 17.9995H27.8168L26.9389 20.9651H26.7275C26.6837 20.9651 26.6418 20.9847 26.6108 21.0196C26.5799 21.0545 26.5625 21.1018 26.5625 21.1512C26.5625 21.2005 26.5799 21.2478 26.6108 21.2827C26.6418 21.3176 26.6837 21.3372 26.7275 21.3372H26.8924V21.7093H19.6347V11.1047C19.6347 11.092 19.6304 11.0808 19.6281 11.0686C19.6271 11.0619 19.6291 11.0552 19.6271 11.0488L18.9709 8.70651C18.9716 8.69944 18.9742 8.69349 18.9742 8.68642V5.89572C18.9742 5.84638 18.9569 5.79906 18.9259 5.76417C18.895 5.72928 18.853 5.70967 18.8093 5.70967C18.7655 5.70967 18.7236 5.72928 18.6926 5.76417C18.6617 5.79906 18.6443 5.84638 18.6443 5.89572V6.45386H18.3402L17.7153 4.2213H17.8196C17.8633 4.2213 17.9053 4.2017 17.9362 4.16681C17.9672 4.13192 17.9845 4.0846 17.9845 4.03526C17.9845 3.98591 17.9672 3.93859 17.9362 3.9037C17.9053 3.86881 17.8633 3.84921 17.8196 3.84921H17.6599V2.92828L17.6546 2.18409C17.6543 2.13501 17.6368 2.08807 17.6059 2.0535C17.575 2.01893 17.5332 1.99953 17.4897 1.99954H17.4884C17.4667 1.99973 17.4453 2.00474 17.4254 2.01427C17.4054 2.0238 17.3873 2.03766 17.3721 2.05508C17.3569 2.07249 17.3449 2.09311 17.3368 2.11576C17.3287 2.13841 17.3246 2.16264 17.3247 2.18707L17.3287 2.74372H16.665V0.686047C16.665 0.636704 16.6476 0.589382 16.6166 0.554492C16.5857 0.519601 16.5437 0.5 16.5 0.5V0.500372ZM15.6805 3.11581H16.0052V3.84884H15.6805V3.11581ZM16.3351 3.11581H16.665V3.84884H16.3351V3.11581ZM16.9948 3.11581H17.33V3.84884H16.9948V3.11581ZM15.6281 4.23209H17.3726L19.2441 10.9186H18.3151V9.98837C18.3151 9.93903 18.2977 9.89171 18.2668 9.85682C18.2358 9.82193 18.1939 9.80233 18.1501 9.80233H17.5781L16.656 6.94837C16.6445 6.91268 16.6235 6.88182 16.596 6.85988C16.5685 6.83795 16.5357 6.82598 16.502 6.82558H16.5007C16.4673 6.82557 16.4347 6.83698 16.4072 6.85831C16.3797 6.87964 16.3586 6.90987 16.3466 6.94502L15.3701 9.8027H14.8512C14.8074 9.8027 14.7655 9.8223 14.7345 9.85719C14.7036 9.89208 14.6862 9.9394 14.6862 9.98875V10.919H13.7572L15.6281 4.23209ZM14.3557 6.82521H14.5569L14.3557 7.54112V6.82521ZM18.4441 6.82521H18.6443V7.54112L18.4441 6.82521ZM16.496 7.54075L17.3076 10.0516C17.3076 10.0527 17.3086 10.0524 17.3092 10.0535C17.3201 10.0855 17.3389 10.1112 17.3627 10.132C17.368 10.1365 17.3726 10.1409 17.3782 10.1447C17.4032 10.163 17.4322 10.173 17.462 10.1737H17.9845V11.1039C17.9845 11.1533 18.0019 11.2006 18.0329 11.2355C18.0638 11.2704 18.1057 11.29 18.1495 11.29H19.3041V11.3242C19.2513 11.3022 19.1955 11.2906 19.1392 11.29C19.0122 11.29 18.897 11.3458 18.8093 11.4351C18.7191 11.3422 18.6015 11.2904 18.4794 11.29C18.2066 11.29 17.9845 11.5404 17.9845 11.8481V12.2202C17.9845 12.2695 18.0019 12.3169 18.0329 12.3517C18.0638 12.3866 18.1057 12.4062 18.1495 12.4062C18.1932 12.4062 18.2352 12.3866 18.2661 12.3517C18.2971 12.3169 18.3144 12.2695 18.3144 12.2202V11.8481C18.3144 11.7458 18.3887 11.662 18.4794 11.662C18.5701 11.662 18.6443 11.7458 18.6443 11.8481V12.2202C18.6443 12.2695 18.6617 12.3169 18.6926 12.3517C18.7236 12.3866 18.7655 12.4062 18.8093 12.4062C18.853 12.4062 18.895 12.3866 18.9259 12.3517C18.9569 12.3169 18.9742 12.2695 18.9742 12.2202V11.8481C18.9742 11.7458 19.0485 11.662 19.1392 11.662C19.2299 11.662 19.3041 11.7458 19.3041 11.8481V14.2667H13.6959V11.8481C13.6959 11.7458 13.7701 11.662 13.8608 11.662C13.9515 11.662 14.0258 11.7458 14.0258 11.8481V12.2202C14.0258 12.2695 14.0432 12.3169 14.0741 12.3517C14.105 12.3866 14.147 12.4062 14.1907 12.4062C14.2345 12.4062 14.2764 12.3866 14.3074 12.3517C14.3383 12.3169 14.3557 12.2695 14.3557 12.2202V11.8481C14.3557 11.7458 14.4299 11.662 14.5206 11.662C14.6113 11.662 14.6856 11.7458 14.6856 11.8481V12.2202C14.6856 12.2695 14.7029 12.3169 14.7339 12.3517C14.7648 12.3866 14.8068 12.4062 14.8505 12.4062C14.8943 12.4062 14.9362 12.3866 14.9672 12.3517C14.9981 12.3169 15.0155 12.2695 15.0155 12.2202V11.8481C15.0153 11.7015 14.964 11.5608 14.8726 11.4565C14.7813 11.3522 14.6572 11.2927 14.5272 11.2907H14.8505C14.8943 11.2907 14.9362 11.2711 14.9672 11.2362C14.9981 11.2013 15.0155 11.154 15.0155 11.1047V10.1744H15.4833L15.4859 10.1737C15.4941 10.1733 15.5017 10.1696 15.5097 10.1677C15.5374 10.1631 15.5637 10.1504 15.5859 10.1309C15.608 10.1114 15.6253 10.0858 15.636 10.0565C15.636 10.0557 15.636 10.055 15.6367 10.0542L16.496 7.54037V7.54075ZM13.6959 11.2911H13.8575C13.8024 11.2919 13.7477 11.3033 13.6959 11.3246V11.2911ZM13.8674 11.2911H14.514C14.3943 11.2932 14.2793 11.3445 14.1907 11.4354C14.1022 11.3445 13.9872 11.2932 13.8674 11.2911ZM16.5 11.2911C15.8633 11.2911 15.3454 11.8753 15.3454 12.5934C15.3454 13.3115 15.8636 13.8957 16.5 13.8957C17.1367 13.8957 17.6546 13.3115 17.6546 12.5934C17.6546 11.8753 17.1367 11.2911 16.5 11.2911ZM16.5 11.6632C16.9549 11.6632 17.3247 12.0799 17.3247 12.5934C17.3247 13.1065 16.9549 13.5236 16.5 13.5236C16.2813 13.5234 16.0716 13.4254 15.917 13.251C15.7624 13.0765 15.6754 12.84 15.6753 12.5934C15.6753 12.0799 16.0451 11.6632 16.5 11.6632ZM16.5 12.0353C16.4563 12.0353 16.4143 12.0549 16.3834 12.0897C16.3524 12.1246 16.3351 12.172 16.3351 12.2213V12.5934C16.3351 12.6427 16.3524 12.6901 16.3834 12.725C16.4143 12.7598 16.4563 12.7794 16.5 12.7794C16.503 12.7794 16.5059 12.778 16.5089 12.778C16.5122 12.778 16.5145 12.7794 16.5175 12.7794H16.9948C17.0386 12.7794 17.0806 12.7598 17.1115 12.725C17.1424 12.6901 17.1598 12.6427 17.1598 12.5934C17.1598 12.5441 17.1424 12.4967 17.1115 12.4618C17.0806 12.427 17.0386 12.4074 16.9948 12.4074H16.665V12.2213C16.665 12.172 16.6476 12.1246 16.6166 12.0897C16.5857 12.0549 16.5437 12.0353 16.5 12.0353ZM13.6959 14.6399H15.3454V15.198C15.3454 15.2684 15.381 15.3327 15.4367 15.3644L16.0052 15.6847V16.3143C16.0052 16.3637 16.0225 16.411 16.0535 16.4459C16.0844 16.4808 16.1264 16.5004 16.1701 16.5004H16.3351V17.2446C16.2913 17.2446 16.2494 17.2642 16.2184 17.2991C16.1875 17.3339 16.1701 17.3813 16.1701 17.4306C16.1701 17.4799 16.1875 17.5273 16.2184 17.5622C16.2494 17.5971 16.2913 17.6167 16.3351 17.6167H16.665C16.7087 17.6167 16.7507 17.5971 16.7816 17.5622C16.8125 17.5273 16.8299 17.4799 16.8299 17.4306C16.8299 17.3813 16.8125 17.3339 16.7816 17.2991C16.7507 17.2642 16.7087 17.2446 16.665 17.2446V16.5004H16.8299C16.8736 16.5004 16.9156 16.4808 16.9465 16.4459C16.9775 16.411 16.9948 16.3637 16.9948 16.3143V15.6847L17.5639 15.3644C17.5912 15.3489 17.6142 15.3251 17.6302 15.2957C17.6462 15.2663 17.6547 15.2325 17.6546 15.198V14.6399H19.3041V19.105H17.9845V18.3608C17.9845 17.9504 17.6886 17.6167 17.3247 17.6167C16.9609 17.6167 16.665 17.9504 16.665 18.3608V19.105H16.3351V18.3608C16.3351 17.9504 16.0391 17.6167 15.6753 17.6167C15.3114 17.6167 15.0155 17.9504 15.0155 18.3608V19.105H13.6959V14.6399ZM15.6753 14.6407H17.3247V15.0834L16.7563 15.4034C16.7289 15.419 16.7058 15.4428 16.6897 15.4722C16.6736 15.5016 16.665 15.5355 16.665 15.5701V16.1283H16.3351V15.5701C16.3351 15.5356 16.3267 15.5017 16.3107 15.4723C16.2947 15.4428 16.2717 15.419 16.2443 15.4034L15.6753 15.0834V14.6407ZM2.81456 16.8829H3.13918V17.6159H2.81456V16.8829ZM3.46907 16.8829H3.79897V17.6159H3.46907V16.8829ZM4.12887 16.8829H4.46404V17.6159H4.12887V16.8829ZM28.5439 16.8829H28.8692V17.6159H28.5439V16.8829ZM29.1991 16.8829H29.529V17.6159H29.1991V16.8829ZM29.8582 16.8829H30.1934V17.6159H29.8582V16.8829ZM15.6753 17.9884C15.7628 17.9884 15.8467 18.0276 15.9085 18.0974C15.9704 18.1671 16.0052 18.2618 16.0052 18.3605V20.9651H15.3454V18.3605C15.3454 18.2618 15.3801 18.1671 15.442 18.0974C15.5039 18.0276 15.5878 17.9884 15.6753 17.9884ZM17.3247 17.9884C17.4122 17.9884 17.4961 18.0276 17.558 18.0974C17.6199 18.1671 17.6546 18.2618 17.6546 18.3605V20.9651H16.9948V18.3605C16.9948 18.2618 17.0296 18.1671 17.0915 18.0974C17.1533 18.0276 17.2373 17.9884 17.3247 17.9884ZM2.43551 17.9995H4.84045L5.71963 20.9763H4.69794L3.75641 19.9047C3.74124 19.8871 3.72313 19.8732 3.70314 19.8636C3.68315 19.854 3.66168 19.849 3.63996 19.8488H3.6393C3.61759 19.8488 3.59609 19.8536 3.57604 19.863C3.556 19.8724 3.5378 19.8862 3.52252 19.9035L2.57571 20.9763H1.55435L2.43551 17.9995ZM28.1648 17.9995H30.5698L31.449 20.9763H30.4273L29.4857 19.9047C29.4706 19.8871 29.4525 19.8732 29.4325 19.8636C29.4125 19.854 29.391 19.849 29.3693 19.8488H29.3686C29.3469 19.8488 29.3254 19.8536 29.3054 19.863C29.2853 19.8724 29.2671 19.8862 29.2518 19.9035L28.306 20.9763H27.7653C27.7498 20.9711 27.734 20.9651 27.7172 20.9651H27.2873L28.1648 17.9995ZM13.6959 19.4764H15.0155V20.9647H14.8505C14.8068 20.9647 14.7648 20.9843 14.7339 21.0192C14.7029 21.0541 14.6856 21.1015 14.6856 21.1508V21.895C14.6856 21.9443 14.7029 21.9916 14.7339 22.0265C14.7648 22.0614 14.8068 22.081 14.8505 22.081H18.1495C18.1932 22.081 18.2352 22.0614 18.2661 22.0265C18.2971 21.9916 18.3144 21.9443 18.3144 21.895V21.1508C18.3144 21.1015 18.2971 21.0541 18.2661 21.0192C18.2352 20.9843 18.1932 20.9647 18.1495 20.9647H17.9845V19.4764H19.3041V26.5461H17.9845V23.7554C17.9845 23.2427 17.6147 22.8252 17.1598 22.8252C16.889 22.8252 16.6504 22.9755 16.5 23.2033C16.4238 23.0865 16.3245 22.9916 16.2099 22.926C16.0953 22.8604 15.9687 22.826 15.8402 22.8256C15.6215 22.8258 15.4119 22.9239 15.2572 23.0983C15.1026 23.2727 15.0156 23.5092 15.0155 23.7558V26.5465H13.6959V19.4764ZM16.3351 19.4764H16.665V19.8485H16.3351V19.4764ZM16.3351 20.2206H16.665V20.9647H16.3351V20.2206ZM3.63864 20.2994L4.51155 21.2929C4.52692 21.3104 4.54521 21.3243 4.56537 21.3337C4.58553 21.3432 4.60716 21.348 4.62899 21.348H5.77835V21.7432C5.72551 21.7213 5.6697 21.7098 5.6134 21.7093C5.48639 21.7093 5.37126 21.7651 5.28351 21.8544C5.19334 21.7615 5.07574 21.7098 4.95361 21.7093C4.68078 21.7093 4.45876 21.9597 4.45876 22.2674V22.6395C4.45876 22.6889 4.47614 22.7362 4.50708 22.7711C4.53801 22.806 4.57997 22.8256 4.62371 22.8256C4.66746 22.8256 4.70941 22.806 4.74035 22.7711C4.77128 22.7362 4.78866 22.6889 4.78866 22.6395V22.2674C4.78866 22.1651 4.86289 22.0814 4.95361 22.0814C5.04433 22.0814 5.11856 22.1651 5.11856 22.2674V22.6395C5.11856 22.6889 5.13594 22.7362 5.16687 22.7711C5.1978 22.806 5.23976 22.8256 5.28351 22.8256C5.32725 22.8256 5.36921 22.806 5.40014 22.7711C5.43108 22.7362 5.44845 22.6889 5.44845 22.6395V22.2674C5.44845 22.1651 5.52268 22.0814 5.6134 22.0814C5.70412 22.0814 5.77835 22.1651 5.77835 22.2674V32.1279H5.10206V30.8219C5.10206 29.8987 4.43567 29.1474 3.61753 29.1474C3.22394 29.1479 2.84659 29.3245 2.56828 29.6384C2.28997 29.9523 2.13343 30.3779 2.13299 30.8219V32.1279H1.48969V22.2674C1.48969 22.1651 1.56392 22.0814 1.65464 22.0814C1.74536 22.0814 1.81959 22.1651 1.81959 22.2674V22.6395C1.81959 22.6889 1.83697 22.7362 1.8679 22.7711C1.89883 22.806 1.94079 22.8256 1.98454 22.8256C2.02828 22.8256 2.07024 22.806 2.10117 22.7711C2.13211 22.7362 2.14948 22.6889 2.14948 22.6395V22.2674C2.14948 22.1651 2.22371 22.0814 2.31443 22.0814C2.40515 22.0814 2.47938 22.1651 2.47938 22.2674V22.6395C2.47938 22.6889 2.49676 22.7362 2.52769 22.7711C2.55863 22.806 2.60058 22.8256 2.64433 22.8256C2.68808 22.8256 2.73003 22.806 2.76097 22.7711C2.7919 22.7362 2.80928 22.6889 2.80928 22.6395V22.2674C2.80928 21.9597 2.58726 21.7093 2.31443 21.7093C2.18742 21.7093 2.07229 21.7651 1.98454 21.8544C1.89437 21.7615 1.77677 21.7098 1.65464 21.7093C1.59658 21.7093 1.54148 21.7223 1.48969 21.7432V21.348H2.64433C2.66608 21.348 2.68762 21.3432 2.70771 21.3338C2.7278 21.3244 2.74606 21.3107 2.76144 21.2933L3.63864 20.2994ZM29.368 20.2994L30.2409 21.2929C30.2562 21.3104 30.2745 21.3243 30.2947 21.3337C30.3149 21.3432 30.3365 21.348 30.3583 21.348H31.5103V21.7432C31.4575 21.7213 31.4017 21.7098 31.3454 21.7093C31.2184 21.7093 31.1032 21.7651 31.0155 21.8544C30.9253 21.7615 30.8077 21.7098 30.6856 21.7093C30.4127 21.7093 30.1907 21.9597 30.1907 22.2674V22.6395C30.1907 22.6889 30.2081 22.7362 30.239 22.7711C30.27 22.806 30.3119 22.8256 30.3557 22.8256C30.3994 22.8256 30.4414 22.806 30.4723 22.7711C30.5032 22.7362 30.5206 22.6889 30.5206 22.6395V22.2674C30.5206 22.1651 30.5949 22.0814 30.6856 22.0814C30.7763 22.0814 30.8505 22.1651 30.8505 22.2674V22.6395C30.8505 22.6889 30.8679 22.7362 30.8988 22.7711C30.9298 22.806 30.9717 22.8256 31.0155 22.8256C31.0592 22.8256 31.1012 22.806 31.1321 22.7711C31.163 22.7362 31.1804 22.6889 31.1804 22.6395V22.2674C31.1804 22.1651 31.2546 22.0814 31.3454 22.0814C31.4361 22.0814 31.5103 22.1651 31.5103 22.2674V32.1279H30.834V30.8219C30.834 29.8987 30.1676 29.1474 29.3495 29.1474C28.9559 29.1479 28.5786 29.3245 28.3002 29.6384C28.0219 29.9523 27.8654 30.3779 27.865 30.8219V32.1279H27.2223V22.2674C27.2223 22.1651 27.2965 22.0814 27.3873 22.0814C27.478 22.0814 27.5522 22.1651 27.5522 22.2674V22.6395C27.5522 22.6889 27.5696 22.7362 27.6005 22.7711C27.6315 22.806 27.6734 22.8256 27.7172 22.8256C27.7609 22.8256 27.8029 22.806 27.8338 22.7711C27.8647 22.7362 27.8821 22.6889 27.8821 22.6395V22.2674C27.8821 22.1651 27.9563 22.0814 28.0471 22.0814C28.1378 22.0814 28.212 22.1651 28.212 22.2674V22.6395C28.212 22.6889 28.2294 22.7362 28.2603 22.7711C28.2913 22.806 28.3332 22.8256 28.377 22.8256C28.4207 22.8256 28.4627 22.806 28.4936 22.7711C28.5245 22.7362 28.5419 22.6889 28.5419 22.6395V22.2674C28.5419 21.9597 28.3199 21.7093 28.0471 21.7093C27.92 21.7093 27.8049 21.7651 27.7172 21.8544C27.627 21.7615 27.5094 21.7098 27.3873 21.7093C27.3292 21.7093 27.2741 21.7223 27.2223 21.7432V21.348H28.3743C28.4182 21.348 28.4601 21.3283 28.4911 21.2933L29.368 20.2994ZM3.63402 20.9655C3.3612 20.9655 3.13918 21.2159 3.13918 21.5236V22.6399C3.13918 22.6893 3.15655 22.7366 3.18749 22.7715C3.21842 22.8064 3.26038 22.826 3.30412 22.826H3.96392C4.00767 22.826 4.04962 22.8064 4.08055 22.7715C4.11149 22.7366 4.12887 22.6893 4.12887 22.6399V21.5236C4.12887 21.2159 3.90685 20.9655 3.63402 20.9655ZM29.366 20.9655C29.0932 20.9655 28.8711 21.2159 28.8711 21.5236V22.6399C28.8711 22.6893 28.8885 22.7366 28.9195 22.7715C28.9504 22.8064 28.9923 22.826 29.0361 22.826H29.6959C29.7396 22.826 29.7816 22.8064 29.8125 22.7715C29.8435 22.7366 29.8608 22.6893 29.8608 22.6399V21.5236C29.8608 21.2159 29.6388 20.9655 29.366 20.9655ZM3.63402 21.3376C3.72474 21.3376 3.79897 21.4213 3.79897 21.5236V22.4539H3.46907V21.5236C3.46907 21.4213 3.5433 21.3376 3.63402 21.3376ZM15.0155 21.3376H15.3454V21.7097H15.0155V21.3376ZM15.6753 21.3376H16.0052V21.7097H15.6753V21.3376ZM16.3351 21.3376H16.665V21.7097H16.3351V21.3376ZM16.9948 21.3376H17.3247V21.7097H16.9948V21.3376ZM17.6546 21.3376H17.9845V21.7097H17.6546V21.3376ZM29.366 21.3376C29.4567 21.3376 29.5309 21.4213 29.5309 21.5236V22.4539H29.201V21.5236C29.201 21.4213 29.2753 21.3376 29.366 21.3376ZM6.10825 22.0818H13.366V23.5701H6.10825V22.0818ZM19.634 22.0818H26.8918V23.5701H19.634V22.0818ZM15.8402 23.198C16.113 23.198 16.3351 23.4485 16.3351 23.7562V26.5469H15.3454V23.7562C15.3454 23.4485 15.5674 23.198 15.8402 23.198ZM17.1598 23.198C17.4326 23.198 17.6546 23.4485 17.6546 23.7562V26.5469H16.665V23.7562C16.665 23.4485 16.887 23.198 17.1598 23.198ZM3.63402 23.9385C2.95674 23.9385 2.39064 24.455 2.21315 25.1556C2.20255 25.1775 2.19603 25.2015 2.19402 25.2263C2.16763 25.351 2.15014 25.479 2.15014 25.6129V28.2176C2.14981 28.3199 2.22338 28.4036 2.31443 28.4036H4.95361C4.99736 28.4036 5.03931 28.384 5.07025 28.3491C5.10118 28.3142 5.11856 28.2669 5.11856 28.2176V25.6129C5.11856 25.4779 5.10074 25.3476 5.07402 25.2222C5.07196 25.1992 5.06591 25.1768 5.05621 25.1564C4.87905 24.4554 4.31163 23.9385 3.63402 23.9385ZM29.3666 23.9385C28.6894 23.9385 28.1229 24.455 27.9451 25.1556C27.9347 25.1775 27.9284 25.2016 27.9266 25.2263C27.9003 25.351 27.8821 25.479 27.8821 25.6129V28.2176C27.8821 28.2669 27.8995 28.3142 27.9304 28.3491C27.9614 28.384 28.0033 28.4036 28.0471 28.4036H30.6862C30.73 28.4036 30.7719 28.384 30.8029 28.3491C30.8338 28.3142 30.8512 28.2669 30.8512 28.2176V25.6129C30.8512 25.4779 30.8334 25.3484 30.8066 25.2226C30.8041 25.1995 30.7978 25.177 30.7882 25.1564C30.611 24.4554 30.0446 23.9385 29.3666 23.9385ZM6.10825 23.9422H13.366V26.919H13.0361V25.3376C13.0361 24.9785 12.7771 24.6864 12.4588 24.6864C12.2971 24.6864 12.1513 24.7623 12.0464 24.8833C11.9929 24.8209 11.9288 24.7713 11.858 24.7374C11.7871 24.7035 11.711 24.6861 11.634 24.6861C11.3157 24.6861 11.0567 24.9785 11.0567 25.3372V26.9186H10.7268V25.3372C10.7268 24.9785 10.4678 24.6861 10.1495 24.6861C9.98784 24.6861 9.84202 24.7623 9.73711 24.8833C9.68361 24.8209 9.61953 24.7713 9.54869 24.7374C9.47785 24.7035 9.40169 24.6861 9.32474 24.6861C9.00639 24.6861 8.74742 24.9785 8.74742 25.3372V26.9186H8.41753V25.3372C8.41753 24.9785 8.15856 24.6861 7.84021 24.6861C7.67856 24.6861 7.53274 24.7623 7.42784 24.8833C7.37433 24.8209 7.31025 24.7713 7.23941 24.7374C7.16857 24.7035 7.09241 24.6861 7.01546 24.6861C6.69711 24.6861 6.43815 24.9785 6.43815 25.3372V26.9186H6.10825V23.9422ZM19.634 23.9422H26.8918V26.919H26.5619V25.3376C26.5619 24.9785 26.3029 24.6864 25.9845 24.6864C25.8229 24.6864 25.6771 24.7623 25.5722 24.8833C25.5187 24.8209 25.4546 24.7713 25.3837 24.7374C25.3129 24.7035 25.2367 24.6861 25.1598 24.6861C24.8414 24.6861 24.5825 24.9785 24.5825 25.3372V26.9186H24.2526V25.3372C24.2526 24.9785 23.9936 24.6861 23.6753 24.6861C23.5136 24.6861 23.3678 24.7623 23.2629 24.8833C23.2094 24.8209 23.1453 24.7713 23.0745 24.7374C23.0036 24.7035 22.9275 24.6861 22.8505 24.6861C22.5322 24.6861 22.2732 24.9785 22.2732 25.3372V26.9186H21.9433V25.3372C21.9433 24.9785 21.6843 24.6861 21.366 24.6861C21.2043 24.6861 21.0585 24.7623 20.9536 24.8833C20.9001 24.8209 20.836 24.7713 20.7652 24.7374C20.6943 24.7035 20.6182 24.6861 20.5412 24.6861C20.2229 24.6861 19.9639 24.9785 19.9639 25.3372V26.9186H19.634V23.9422ZM3.63402 24.3106C4.09423 24.3106 4.48977 24.618 4.67518 25.0585H2.59353C2.68627 24.8354 2.83333 24.6467 3.01755 24.5143C3.20177 24.3818 3.41557 24.3112 3.63402 24.3106ZM29.366 24.3106C29.8262 24.3106 30.2217 24.618 30.4071 25.0585H28.3255C28.4182 24.8354 28.5653 24.6467 28.7495 24.5143C28.9337 24.3818 29.1475 24.3112 29.366 24.3106ZM7.01546 25.0585C7.15171 25.0585 7.26289 25.1839 7.26289 25.3376V26.919H6.76804V25.3376C6.76804 25.1839 6.87922 25.0585 7.01546 25.0585ZM7.84021 25.0585C7.97645 25.0585 8.08763 25.1839 8.08763 25.3376V26.919H7.59278V25.3376C7.59278 25.1839 7.70396 25.0585 7.84021 25.0585ZM9.32474 25.0585C9.46099 25.0585 9.57217 25.1839 9.57217 25.3376V26.919H9.07732V25.3376C9.07732 25.1839 9.1885 25.0585 9.32474 25.0585ZM10.1495 25.0585C10.2857 25.0585 10.3969 25.1839 10.3969 25.3376V26.919H9.90206V25.3376C9.90206 25.1839 10.0132 25.0585 10.1495 25.0585ZM11.634 25.0585C11.7703 25.0585 11.8814 25.1839 11.8814 25.3376V26.919H11.3866V25.3376C11.3866 25.1839 11.4978 25.0585 11.634 25.0585ZM12.4588 25.0585C12.595 25.0585 12.7062 25.1839 12.7062 25.3376V26.919H12.2113V25.3376C12.2113 25.1839 12.3225 25.0585 12.4588 25.0585ZM20.5412 25.0585C20.6775 25.0585 20.7887 25.1839 20.7887 25.3376V26.919H20.2938V25.3376C20.2938 25.1839 20.405 25.0585 20.5412 25.0585ZM21.366 25.0585C21.5022 25.0585 21.6134 25.1839 21.6134 25.3376V26.919H21.1186V25.3376C21.1186 25.1839 21.2297 25.0585 21.366 25.0585ZM22.8505 25.0585C22.9868 25.0585 23.0979 25.1839 23.0979 25.3376V26.919H22.6031V25.3376C22.6031 25.1839 22.7143 25.0585 22.8505 25.0585ZM23.6753 25.0585C23.8115 25.0585 23.9227 25.1839 23.9227 25.3376V26.919H23.4278V25.3376C23.4278 25.1839 23.539 25.0585 23.6753 25.0585ZM25.1598 25.0585C25.296 25.0585 25.4072 25.1839 25.4072 25.3376V26.919H24.9124V25.3376C24.9124 25.1839 25.0236 25.0585 25.1598 25.0585ZM25.9845 25.0585C26.1208 25.0585 26.232 25.1839 26.232 25.3376V26.919H25.7371V25.3376C25.7371 25.1839 25.8483 25.0585 25.9845 25.0585ZM2.49588 25.4306H2.80928V25.8027H2.47938V25.6129C2.47938 25.5504 2.48862 25.4901 2.49588 25.4306ZM3.13918 25.4306H3.46907V25.8027H3.13918V25.4306ZM3.79897 25.4306H4.12887V25.8027H3.79897V25.4306ZM4.45876 25.4306H4.7725C4.78041 25.4901 4.78866 25.5504 4.78866 25.6129V25.8027H4.45876V25.4306ZM28.2278 25.4306H28.5412V25.8027H28.2113V25.6129C28.2113 25.5504 28.2206 25.4901 28.2278 25.4306ZM28.8711 25.4306H29.201V25.8027H28.8711V25.4306ZM29.5309 25.4306H29.8608V25.8027H29.5309V25.4306ZM30.1907 25.4306H30.5045C30.512 25.4901 30.5206 25.5508 30.5206 25.6129V25.8027H30.1907V25.4306ZM2.47938 26.1748H2.80928V28.0315H2.47938V26.1748ZM3.13918 26.1748H3.46907V28.0315H3.13918V26.1748ZM3.79897 26.1748H4.12887V28.0315H3.79897V26.1748ZM4.45876 26.1748H4.78866V28.0315H4.45876V26.1748ZM28.2113 26.1748H28.5412V28.0315H28.2113V26.1748ZM28.8711 26.1748H29.201V28.0315H28.8711V26.1748ZM29.5309 26.1748H29.8608V28.0315H29.5309V26.1748ZM30.1907 26.1748H30.5206V28.0315H30.1907V26.1748ZM13.6965 26.919H19.3041V32.1283H18.2979V29.706C18.2979 28.5778 17.4834 27.6594 16.4835 27.6594C16.0025 27.6601 15.5413 27.876 15.2012 28.2596C14.861 28.6433 14.6697 29.1634 14.6691 29.706V32.1283H13.6965V26.919ZM6.10825 27.2911H13.366V32.1283H13.0361V30.6377C13.0361 30.0222 12.592 29.5214 12.0464 29.5214C11.5007 29.5214 11.0567 30.0222 11.0567 30.6377V32.1283H10.7268V30.6377C10.7268 30.0222 10.2828 29.5214 9.73711 29.5214C9.19147 29.5214 8.74742 30.0222 8.74742 30.6377V32.1283H8.41753V30.6377C8.41753 30.0222 7.97349 29.5214 7.42784 29.5214C6.88219 29.5214 6.43815 30.0222 6.43815 30.6377V32.1283H6.10825V27.2911ZM19.634 27.2911H26.8918V32.1283H26.5619V30.6377C26.5619 30.0222 26.1178 29.5214 25.5722 29.5214C25.0265 29.5214 24.5825 30.0222 24.5825 30.6377V32.1283H24.2526V30.6377C24.2526 30.0222 23.8085 29.5214 23.2629 29.5214C22.7172 29.5214 22.2732 30.0222 22.2732 30.6377V32.1283H21.9433V30.6377C21.9433 30.0222 21.4993 29.5214 20.9536 29.5214C20.408 29.5214 19.9639 30.0222 19.9639 30.6377V32.1283H19.634V27.2911ZM6.60309 27.6594C6.55935 27.6594 6.51739 27.679 6.48646 27.7139C6.45552 27.7488 6.43815 27.7961 6.43815 27.8455V28.7757C6.43815 28.8251 6.45552 28.8724 6.48646 28.9073C6.51739 28.9422 6.55935 28.9618 6.60309 28.9618H8.25258C8.29633 28.9618 8.33828 28.9422 8.36922 28.9073C8.40015 28.8724 8.41753 28.8251 8.41753 28.7757V27.8455C8.41753 27.7961 8.40015 27.7488 8.36922 27.7139C8.33828 27.679 8.29633 27.6594 8.25258 27.6594H6.60309ZM8.91237 27.6594C8.86863 27.6594 8.82667 27.679 8.79574 27.7139C8.7648 27.7488 8.74742 27.7961 8.74742 27.8455V28.7757C8.74742 28.8251 8.7648 28.8724 8.79574 28.9073C8.82667 28.9422 8.86863 28.9618 8.91237 28.9618H10.5619C10.6056 28.9618 10.6476 28.9422 10.6785 28.9073C10.7094 28.8724 10.7268 28.8251 10.7268 28.7757V27.8455C10.7268 27.7961 10.7094 27.7488 10.6785 27.7139C10.6476 27.679 10.6056 27.6594 10.5619 27.6594H8.91237ZM11.2217 27.6594C11.1779 27.6594 11.1359 27.679 11.105 27.7139C11.0741 27.7488 11.0567 27.7961 11.0567 27.8455V28.7757C11.0567 28.8251 11.0741 28.8724 11.105 28.9073C11.1359 28.9422 11.1779 28.9618 11.2217 28.9618H12.8711C12.9149 28.9618 12.9568 28.9422 12.9878 28.9073C13.0187 28.8724 13.0361 28.8251 13.0361 28.7757V27.8455C13.0361 27.7961 13.0187 27.7488 12.9878 27.7139C12.9568 27.679 12.9149 27.6594 12.8711 27.6594H11.2217ZM20.1289 27.6594C20.0851 27.6594 20.0432 27.679 20.0122 27.7139C19.9813 27.7488 19.9639 27.7961 19.9639 27.8455V28.7757C19.9639 28.8251 19.9813 28.8724 20.0122 28.9073C20.0432 28.9422 20.0851 28.9618 20.1289 28.9618H21.7784C21.8221 28.9618 21.8641 28.9422 21.895 28.9073C21.9259 28.8724 21.9433 28.8251 21.9433 28.7757V27.8455C21.9433 27.7961 21.9259 27.7488 21.895 27.7139C21.8641 27.679 21.8221 27.6594 21.7784 27.6594H20.1289ZM22.4381 27.6594C22.3944 27.6594 22.3524 27.679 22.3215 27.7139C22.2906 27.7488 22.2732 27.7961 22.2732 27.8455V28.7757C22.2732 28.8251 22.2906 28.8724 22.3215 28.9073C22.3524 28.9422 22.3944 28.9618 22.4381 28.9618H24.0876C24.1314 28.9618 24.1733 28.9422 24.2043 28.9073C24.2352 28.8724 24.2526 28.8251 24.2526 28.7757V27.8455C24.2526 27.7961 24.2352 27.7488 24.2043 27.7139C24.1733 27.679 24.1314 27.6594 24.0876 27.6594H22.4381ZM24.7474 27.6594C24.7037 27.6594 24.6617 27.679 24.6308 27.7139C24.5999 27.7488 24.5825 27.7961 24.5825 27.8455V28.7757C24.5825 28.8251 24.5999 28.8724 24.6308 28.9073C24.6617 28.9422 24.7037 28.9618 24.7474 28.9618H26.3969C26.4407 28.9618 26.4826 28.9422 26.5135 28.9073C26.5445 28.8724 26.5619 28.8251 26.5619 28.7757V27.8455C26.5619 27.7961 26.5445 27.7488 26.5135 27.7139C26.4826 27.679 26.4407 27.6594 26.3969 27.6594H24.7474ZM6.76804 28.0315H7.26289V28.5897H6.76804V28.0315ZM7.59278 28.0315H8.08763V28.5897H7.59278V28.0315ZM9.07732 28.0315H9.57217V28.5897H9.07732V28.0315ZM9.90206 28.0315H10.3969V28.5897H9.90206V28.0315ZM11.3866 28.0315H11.8814V28.5897H11.3866V28.0315ZM12.2113 28.0315H12.7062V28.5897H12.2113V28.0315ZM16.4835 28.0315C17.3017 28.0315 17.968 28.7828 17.968 29.706V32.1246H14.999V29.706C14.999 28.7828 15.6647 28.0315 16.4835 28.0315ZM20.2938 28.0315H20.7887V28.5897H20.2938V28.0315ZM21.1186 28.0315H21.6134V28.5897H21.1186V28.0315ZM22.6031 28.0315H23.0979V28.5897H22.6031V28.0315ZM23.4278 28.0315H23.9227V28.5897H23.4278V28.0315ZM24.9124 28.0315H25.4072V28.5897H24.9124V28.0315ZM25.7371 28.0315H26.232V28.5897H25.7371V28.0315ZM3.61753 29.5199C4.25423 29.5199 4.77217 30.1041 4.77217 30.8222V32.1246H2.46289V30.8222C2.46289 30.1041 2.98083 29.5199 3.61753 29.5199ZM29.3495 29.5199C29.9862 29.5199 30.5041 30.1041 30.5041 30.8222V32.1246H28.1948V30.8222C28.1948 30.1041 28.7128 29.5199 29.3495 29.5199ZM7.42784 29.8935C7.79171 29.8935 8.08763 30.2273 8.08763 30.6377V32.1283H6.76804V30.6377C6.76804 30.2273 7.06396 29.8935 7.42784 29.8935ZM9.73711 29.8935C10.101 29.8935 10.3969 30.2273 10.3969 30.6377V32.1283H9.07732V30.6377C9.07732 30.2273 9.37324 29.8935 9.73711 29.8935ZM12.0464 29.8935C12.4103 29.8935 12.7062 30.2273 12.7062 30.6377V32.1283H11.3866V30.6377C11.3866 30.2273 11.6825 29.8935 12.0464 29.8935ZM20.9536 29.8935C21.3175 29.8935 21.6134 30.2273 21.6134 30.6377V32.1283H20.2938V30.6377C20.2938 30.2273 20.5897 29.8935 20.9536 29.8935ZM23.2629 29.8935C23.6268 29.8935 23.9227 30.2273 23.9227 30.6377V32.1283H22.6031V30.6377C22.6031 30.2273 22.899 29.8935 23.2629 29.8935ZM25.5722 29.8935C25.936 29.8935 26.232 30.2273 26.232 30.6377V32.1283H24.9124V30.6377C24.9124 30.2273 25.2083 29.8935 25.5722 29.8935Z" fill="white"/>
</svg>
