<svg width="24" height="23" viewBox="0 0 24 23" fill="none" xmlns="http://www.w3.org/2000/svg">
<path d="M10.5275 0C10.4692 0 10.4133 0.0188136 10.3721 0.0523022C10.3309 0.0857909 10.3077 0.131211 10.3077 0.178571V0.732143C9.98068 0.770709 9.67774 0.894123 9.44406 1.08399C9.21039 1.27385 9.05849 1.51999 9.01102 1.78571H7.89014C7.83185 1.78571 7.77595 1.80453 7.73474 1.83802C7.69352 1.87151 7.67036 1.91693 7.67036 1.96429V2.5H5.25278C5.19449 2.5 5.13859 2.51881 5.09737 2.5523C5.05616 2.58579 5.033 2.63121 5.033 2.67857V5.71429H3.9341C3.87581 5.71429 3.81991 5.7331 3.77869 5.76659C3.73748 5.80008 3.71432 5.8455 3.71432 5.89286V6.78571H3.05498C2.99669 6.78571 2.94079 6.80453 2.89957 6.83802C2.85835 6.8715 2.8352 6.91693 2.8352 6.96429V8.21428H1.7363C1.69885 8.21445 1.66207 8.22236 1.62942 8.23726C1.59677 8.25217 1.56933 8.27358 1.54968 8.29948C1.53002 8.32538 1.51881 8.35491 1.51708 8.38531C1.51536 8.4157 1.52318 8.44595 1.53981 8.47321L2.8352 10.5782V14.2857H2.61542C2.55713 14.2857 2.50123 14.3045 2.46001 14.338C2.41879 14.3715 2.39564 14.4169 2.39564 14.4643C2.39564 14.5116 2.41879 14.5571 2.46001 14.5906C2.50123 14.624 2.55713 14.6429 2.61542 14.6429H2.8352V16.7857H2.20399C2.16435 16.786 2.12553 16.7949 2.09161 16.8115C2.05769 16.8282 2.02991 16.852 2.0112 16.8804C1.99249 16.9088 1.98354 16.9407 1.98529 16.9729C1.98704 17.0051 1.99942 17.0363 2.02113 17.0632L2.8352 18.0554V21.4286H2.61542C2.55713 21.4286 2.50123 21.4474 2.46001 21.4809C2.41879 21.5144 2.39564 21.5598 2.39564 21.6071C2.39564 21.6545 2.41879 21.6999 2.46001 21.7334C2.50123 21.7669 2.55713 21.7857 2.61542 21.7857H2.8352V22.5H1.07696C1.01867 22.5 0.962766 22.5188 0.92155 22.5523C0.880333 22.5858 0.857178 22.6312 0.857178 22.6786C0.857178 22.7259 0.880333 22.7714 0.92155 22.8048C0.962766 22.8383 1.01867 22.8571 1.07696 22.8571H23.4945C23.5528 22.8571 23.6087 22.8383 23.6499 22.8048C23.6912 22.7714 23.7143 22.7259 23.7143 22.6786C23.7143 22.6312 23.6912 22.5858 23.6499 22.5523C23.6087 22.5188 23.5528 22.5 23.4945 22.5H21.7363V21.7857H21.9561C22.0144 21.7857 22.0703 21.7669 22.1115 21.7334C22.1527 21.6999 22.1759 21.6545 22.1759 21.6071C22.1759 21.5598 22.1527 21.5144 22.1115 21.4809C22.0703 21.4474 22.0144 21.4286 21.9561 21.4286H21.7363V18.09L22.5785 17.0632C22.6005 17.0363 22.6132 17.0051 22.6151 16.9728C22.617 16.9406 22.608 16.9085 22.5893 16.88C22.5705 16.8515 22.5426 16.8277 22.5085 16.8111C22.4744 16.7945 22.4354 16.7857 22.3956 16.7857H21.7363V14.6429H21.9561C22.0144 14.6429 22.0703 14.624 22.1115 14.5906C22.1527 14.5571 22.1759 14.5116 22.1759 14.4643C22.1759 14.4169 22.1527 14.3715 22.1115 14.338C22.0703 14.3045 22.0144 14.2857 21.9561 14.2857H21.7363V10.5775L23.0317 8.4725C23.0485 8.4453 23.0565 8.41505 23.0548 8.38464C23.0532 8.35423 23.0419 8.32467 23.0222 8.29878C23.0025 8.27289 22.975 8.25153 22.9423 8.23674C22.9095 8.22195 22.8727 8.21422 22.8352 8.21428H21.7363V6.96429C21.7363 6.91693 21.7131 6.8715 21.6719 6.83802C21.6307 6.80453 21.5748 6.78571 21.5165 6.78571H20.8572V5.89286C20.8572 5.8455 20.834 5.80008 20.7928 5.76659C20.7516 5.7331 20.6957 5.71429 20.6374 5.71429H19.5385V2.67857C19.5385 2.63121 19.5153 2.58579 19.4741 2.5523C19.4329 2.51881 19.377 2.5 19.3187 2.5H16.9011V1.96429C16.9011 1.91693 16.878 1.87151 16.8368 1.83802C16.7955 1.80453 16.7396 1.78571 16.6814 1.78571H15.5605C15.5561 1.76179 15.5574 1.73607 15.5517 1.7125C15.4868 1.46148 15.3284 1.23278 15.098 1.05745C14.8675 0.882126 14.5763 0.768672 14.2638 0.7325V0.178571C14.2638 0.131211 14.2406 0.0857909 14.1994 0.0523022C14.1582 0.0188136 14.1023 0 14.044 0H10.5275ZM10.7473 0.357143H13.8242V0.714286H10.7473V0.357143ZM10.5275 1.07143H14.044C14.5745 1.07143 15.0198 1.37857 15.1214 1.78571H9.45102C9.553 1.37857 9.99696 1.07143 10.5275 1.07143ZM8.10992 2.14286H16.4616V2.5H8.10992V2.14286ZM5.47256 2.85714H19.0989V5.71429H5.47256V2.85714ZM9.64839 3.57143C9.5901 3.57143 9.53419 3.59024 9.49298 3.62373C9.45176 3.65722 9.42861 3.70264 9.42861 3.75V4.82143C9.42861 4.86879 9.45176 4.91421 9.49298 4.9477C9.53419 4.98119 9.5901 5 9.64839 5H10.3077V5.17857C10.3077 5.22593 10.3309 5.27135 10.3721 5.30484C10.4133 5.33833 10.4692 5.35714 10.5275 5.35714H14.044C14.1023 5.35714 14.1582 5.33833 14.1994 5.30484C14.2406 5.27135 14.2638 5.22593 14.2638 5.17857V5H14.9231C14.9814 5 15.0373 4.98119 15.0785 4.9477C15.1197 4.91421 15.1429 4.86879 15.1429 4.82143V3.75C15.1429 3.70264 15.1197 3.65722 15.0785 3.62373C15.0373 3.59024 14.9814 3.57143 14.9231 3.57143H9.64839ZM7.89014 3.57893C7.59877 3.57912 7.3194 3.67325 7.11336 3.84065C6.90733 4.00805 6.79148 4.23504 6.79124 4.47179C6.79124 4.96464 7.28399 5.36464 7.89014 5.36464C8.4963 5.36464 8.98905 4.96464 8.98905 4.47179C8.98905 3.97929 8.4963 3.57893 7.89014 3.57893ZM16.6814 3.57893C16.39 3.57912 16.1106 3.67325 15.9046 3.84065C15.6985 4.00805 15.5827 4.23504 15.5825 4.47179C15.5825 4.96464 16.0752 5.36464 16.6814 5.36464C17.2875 5.36464 17.7803 4.96464 17.7803 4.47179C17.7803 3.97929 17.2875 3.57893 16.6814 3.57893ZM9.86817 3.92857H14.7033V4.64286H14.044C13.9857 4.64286 13.9298 4.66167 13.8886 4.69516C13.8474 4.72865 13.8242 4.77407 13.8242 4.82143V5H10.7473V4.82143C10.7473 4.77407 10.7241 4.72865 10.6829 4.69516C10.6417 4.66167 10.5858 4.64286 10.5275 4.64286H9.86817V3.92857ZM7.89014 3.93607C8.25366 3.93607 8.54949 4.17643 8.54949 4.47179C8.54949 4.76714 8.25366 5.0075 7.89014 5.0075C7.52663 5.0075 7.2308 4.76714 7.2308 4.47179C7.2308 4.17643 7.52663 3.93607 7.89014 3.93607ZM16.6814 3.93607C17.0449 3.93607 17.3407 4.17643 17.3407 4.47179C17.3407 4.76714 17.0449 5.0075 16.6814 5.0075C16.3178 5.0075 16.022 4.76714 16.022 4.47179C16.022 4.17643 16.3178 3.93607 16.6814 3.93607ZM4.15388 6.07143H20.4176V6.78571H4.15388V6.07143ZM3.27476 7.14286H21.2967V8.21428H3.27476V7.14286ZM2.0919 8.57143H22.4792L22.2594 8.92857H2.31212L2.0919 8.57143ZM2.53146 9.28571H2.8352V9.77964L2.53146 9.28571ZM3.27476 9.28571H4.15388V10.3571H3.27476V9.28571ZM4.59344 9.28571H5.47256V10.3571H4.59344V9.28571ZM5.91212 9.28571H6.79124V10.3571H5.91212V9.28571ZM7.2308 9.28571H8.10992V10.3571H7.2308V9.28571ZM8.54949 9.28571H9.42861V10.3571H8.54949V9.28571ZM9.86817 9.28571H10.7473V10.3571H9.86817V9.28571ZM11.1868 9.28571H12.066V10.3571H11.1868V9.28571ZM12.5055 9.28571H13.3846V10.3571H12.5055V9.28571ZM13.8242 9.28571H14.7033V10.3571H13.8242V9.28571ZM15.1429 9.28571H16.022V10.3571H15.1429V9.28571ZM16.4616 9.28571H17.3407V10.3571H16.4616V9.28571ZM17.7803 9.28571H18.6594V10.3571H17.7803V9.28571ZM19.0989 9.28571H19.9781V10.3571H19.0989V9.28571ZM20.4176 9.28571H21.2967V10.3571H20.4176V9.28571ZM21.7363 9.28571H22.04L21.7363 9.77964V9.28571ZM3.27476 10.7143H8.10992V14.2857H7.67036V13.0357C7.67036 12.9884 7.64721 12.9429 7.60599 12.9094C7.56478 12.876 7.50887 12.8571 7.45058 12.8571H3.9341C3.87581 12.8571 3.81991 12.876 3.77869 12.9094C3.73748 12.9429 3.71432 12.9884 3.71432 13.0357V14.2857H3.27476V10.7143ZM8.54949 10.7143H16.022V11.4286H12.7253C12.667 11.4286 12.6111 11.4474 12.5699 11.4809C12.5287 11.5144 12.5055 11.5598 12.5055 11.6071V12.8571H12.066V11.6071C12.066 11.5598 12.0428 11.5144 12.0016 11.4809C11.9604 11.4474 11.9045 11.4286 11.8462 11.4286H8.54949V10.7143ZM16.4616 10.7143H21.2967V14.2857H20.8572V13.0357C20.8572 12.9884 20.834 12.9429 20.7928 12.9094C20.7516 12.876 20.6957 12.8571 20.6374 12.8571H17.1209C17.0626 12.8571 17.0067 12.876 16.9655 12.9094C16.9243 12.9429 16.9011 12.9884 16.9011 13.0357V14.2857H16.4616V10.7143ZM5.69234 11.0714C5.20751 11.0714 4.81322 11.3918 4.81322 11.7857C4.81322 12.1796 5.20751 12.5 5.69234 12.5C6.17718 12.5 6.57146 12.1796 6.57146 11.7857C6.57146 11.3918 6.17718 11.0714 5.69234 11.0714ZM18.8792 11.0714C18.3943 11.0714 18 11.3918 18 11.7857C18 12.1796 18.3943 12.5 18.8792 12.5C19.364 12.5 19.7583 12.1796 19.7583 11.7857C19.7583 11.3918 19.364 11.0714 18.8792 11.0714ZM5.69234 11.4286C5.80892 11.4286 5.92073 11.4662 6.00316 11.5332C6.08559 11.6002 6.1319 11.691 6.1319 11.7857C6.1319 11.8804 6.08559 11.9713 6.00316 12.0383C5.92073 12.1052 5.80892 12.1429 5.69234 12.1429C5.57576 12.1429 5.46396 12.1052 5.38153 12.0383C5.29909 11.9713 5.25278 11.8804 5.25278 11.7857C5.25278 11.691 5.29909 11.6002 5.38153 11.5332C5.46396 11.4662 5.57576 11.4286 5.69234 11.4286ZM18.8792 11.4286C18.9957 11.4286 19.1075 11.4662 19.19 11.5332C19.2724 11.6002 19.3187 11.691 19.3187 11.7857C19.3187 11.8804 19.2724 11.9713 19.19 12.0383C19.1075 12.1052 18.9957 12.1429 18.8792 12.1429C18.7626 12.1429 18.6508 12.1052 18.5683 12.0383C18.4859 11.9713 18.4396 11.8804 18.4396 11.7857C18.4396 11.691 18.4859 11.6002 18.5683 11.5332C18.6508 11.4662 18.7626 11.4286 18.8792 11.4286ZM8.54949 11.7857H11.6264V11.845C10.1943 12.0829 9.09894 13.0732 8.99916 14.2857H8.54949V11.7857ZM12.9451 11.7857H16.022V14.2857H15.5723C15.473 13.0732 14.3767 12.0829 12.9451 11.845V11.7857ZM11.6264 12.2093V12.5836C11.1592 12.6918 10.7432 12.9123 10.433 13.2161C10.1228 13.5198 9.93277 13.8927 9.88795 14.2857H9.43871C9.48633 13.7961 9.72373 13.3314 10.1168 12.9583C10.5099 12.5852 11.0384 12.323 11.6264 12.2093ZM12.9451 12.2093C13.5331 12.323 14.0616 12.5852 14.4547 12.9583C14.8478 13.3314 15.0852 13.7961 15.1328 14.2857H14.6836C14.6388 13.8926 14.4489 13.5197 14.1386 13.216C13.8284 12.9122 13.4123 12.6917 12.9451 12.5836V12.2093ZM11.6264 12.9575V13.0357C11.6264 13.0831 11.6496 13.1285 11.6908 13.162C11.732 13.1955 11.7879 13.2143 11.8462 13.2143H12.7253C12.7836 13.2143 12.8395 13.1955 12.8807 13.162C12.9219 13.1285 12.9451 13.0831 12.9451 13.0357V12.9575C13.2931 13.0577 13.5995 13.2354 13.8294 13.4702C14.0592 13.705 14.2031 13.9876 14.2449 14.2857H14.044C13.9857 14.2857 13.9298 14.3045 13.8886 14.338C13.8474 14.3715 13.8242 14.4169 13.8242 14.4643C13.8242 14.5116 13.8474 14.5571 13.8886 14.5906C13.9298 14.624 13.9857 14.6429 14.044 14.6429H14.2638V16.7857H14.044C13.9857 16.7857 13.9298 16.8045 13.8886 16.838C13.8474 16.8715 13.8242 16.9169 13.8242 16.9643C13.8242 17.0116 13.8474 17.0571 13.8886 17.0906C13.9298 17.124 13.9857 17.1429 14.044 17.1429H14.2638V22.5H10.3077V17.1429H10.5275C10.5858 17.1429 10.6417 17.124 10.6829 17.0906C10.7241 17.0571 10.7473 17.0116 10.7473 16.9643C10.7473 16.9169 10.7241 16.8715 10.6829 16.838C10.6417 16.8045 10.5858 16.7857 10.5275 16.7857H10.3077V14.6429H10.5275C10.5858 14.6429 10.6417 14.624 10.6829 14.5906C10.7241 14.5571 10.7473 14.5116 10.7473 14.4643C10.7473 14.4169 10.7241 14.3715 10.6829 14.338C10.6417 14.3045 10.5858 14.2857 10.5275 14.2857H10.3266C10.3685 13.9876 10.5125 13.7051 10.7423 13.4703C10.9721 13.2354 11.2784 13.0578 11.6264 12.9575ZM4.15388 13.2143H4.81322V13.5714H4.15388V13.2143ZM5.25278 13.2143H6.1319V13.5714H5.25278V13.2143ZM6.57146 13.2143H7.2308V13.5714H6.57146V13.2143ZM17.3407 13.2143H18V13.5714H17.3407V13.2143ZM18.4396 13.2143H19.3187V13.5714H18.4396V13.2143ZM19.7583 13.2143H20.4176V13.5714H19.7583V13.2143ZM4.15388 13.9286H7.2308V14.2857H4.15388V13.9286ZM17.3407 13.9286H20.4176V14.2857H17.3407V13.9286ZM3.27476 14.6429H3.71432V15H3.27476V14.6429ZM4.15388 14.6429H7.2308V15H4.15388V14.6429ZM7.67036 14.6429H8.10992V15H7.67036V14.6429ZM8.54949 14.6429H9.86817V16.7857H8.54949V14.6429ZM14.7033 14.6429H16.022V16.7857H14.7033V14.6429ZM16.4616 14.6429H16.9011V15H16.4616V14.6429ZM17.3407 14.6429H20.4176V15H17.3407V14.6429ZM20.8572 14.6429H21.2967V15H20.8572V14.6429ZM3.27476 15.3571H3.71432V16.7857H3.27476V15.3571ZM4.15388 15.3571H4.59344V16.25C4.59344 16.2974 4.6166 16.3428 4.65781 16.3763C4.69903 16.4098 4.75493 16.4286 4.81322 16.4286H6.57146C6.62975 16.4286 6.68565 16.4098 6.72687 16.3763C6.76809 16.3428 6.79124 16.2974 6.79124 16.25V15.3571H7.2308V16.7857H4.15388V15.3571ZM5.033 15.3571H6.35168V16.0714H5.033V15.3571ZM7.67036 15.3571H8.10992V16.7857H7.67036V15.3571ZM16.4616 15.3571H16.9011V16.7857H16.4616V15.3571ZM17.3407 15.3571H17.7803V16.25C17.7803 16.2974 17.8034 16.3428 17.8446 16.3763C17.8858 16.4098 17.9417 16.4286 18 16.4286H19.7583C19.8166 16.4286 19.8725 16.4098 19.9137 16.3763C19.9549 16.3428 19.9781 16.2974 19.9781 16.25V15.3571H20.4176V16.7857H17.3407V15.3571ZM18.2198 15.3571H19.5385V16.0714H18.2198V15.3571ZM20.8572 15.3571H21.2967V16.7857H20.8572V15.3571ZM2.61454 17.1429H8.79828L8.2119 17.8571H3.20003L2.61454 17.1429ZM9.32663 17.1429H9.86817V22.5H8.54949V18.09L9.32663 17.1429ZM14.7033 17.1429H15.2734L16.022 18.0554V22.5H14.7033V17.1429ZM15.8014 17.1429H21.9851L21.3987 17.8571H16.3868L15.8014 17.1429ZM3.27476 18.2143H3.71432V21.4286H3.27476V18.2143ZM4.15388 18.2143H7.2308V21.4286H4.15388V18.2143ZM7.67036 18.2143H8.10992V21.4286H7.67036V18.2143ZM16.4616 18.2143H16.9011V21.4286H16.4616V18.2143ZM17.3407 18.2143H20.4176V21.4286H17.3407V18.2143ZM20.8572 18.2143H21.2967V21.4286H20.8572V18.2143ZM3.27476 21.7857H3.71432V22.5H3.27476V21.7857ZM4.15388 21.7857H4.59344V22.5H4.15388V21.7857ZM5.033 21.7857H6.35168V22.5H5.033V21.7857ZM6.79124 21.7857H7.2308V22.5H6.79124V21.7857ZM7.67036 21.7857H8.10992V22.5H7.67036V21.7857ZM16.4616 21.7857H16.9011V22.5H16.4616V21.7857ZM17.3407 21.7857H17.7803V22.5H17.3407V21.7857ZM18.2198 21.7857H19.5385V22.5H18.2198V21.7857ZM19.9781 21.7857H20.4176V22.5H19.9781V21.7857ZM20.8572 21.7857H21.2967V22.5H20.8572V21.7857Z" fill="white"/>
</svg>
