<svg width="33" height="33" viewBox="0 0 33 33" fill="none" xmlns="http://www.w3.org/2000/svg">
<path d="M14.0385 0.5C13.9569 0.5 13.8786 0.526339 13.8209 0.573223C13.7632 0.620107 13.7308 0.683696 13.7308 0.75V1.525C13.2729 1.57899 12.8488 1.75177 12.5216 2.01758C12.1945 2.28339 11.9818 2.62799 11.9154 3H10.3462C10.2645 3 10.1863 3.02634 10.1286 3.07322C10.0709 3.12011 10.0385 3.1837 10.0385 3.25V4H6.65385C6.57224 4 6.49398 4.02634 6.43627 4.07322C6.37857 4.12011 6.34615 4.1837 6.34615 4.25V8.5H4.80769C4.72609 8.5 4.64782 8.52634 4.59012 8.57322C4.53242 8.62011 4.5 8.6837 4.5 8.75V10H3.57692C3.49532 10 3.41706 10.0263 3.35935 10.0732C3.30165 10.1201 3.26923 10.1837 3.26923 10.25V12H1.73077C1.67834 12.0002 1.62685 12.0113 1.58114 12.0322C1.53543 12.053 1.49701 12.083 1.4695 12.1193C1.44198 12.1555 1.42628 12.1969 1.42386 12.2394C1.42145 12.282 1.4324 12.3243 1.45569 12.3625L3.26923 15.3095V20.5H2.96154C2.87993 20.5 2.80167 20.5263 2.74397 20.5732C2.68626 20.6201 2.65385 20.6837 2.65385 20.75C2.65385 20.8163 2.68626 20.8799 2.74397 20.9268C2.80167 20.9737 2.87993 21 2.96154 21H3.26923V24H2.38554C2.33005 24.0004 2.2757 24.0128 2.22821 24.0362C2.18071 24.0595 2.14182 24.0928 2.11563 24.1325C2.08944 24.1723 2.07691 24.217 2.07936 24.2621C2.0818 24.3071 2.09914 24.3508 2.12954 24.3885L3.26923 25.7775V30.5H2.96154C2.87993 30.5 2.80167 30.5263 2.74397 30.5732C2.68626 30.6201 2.65385 30.6837 2.65385 30.75C2.65385 30.8163 2.68626 30.8799 2.74397 30.9268C2.80167 30.9737 2.87993 31 2.96154 31H3.26923V32H0.807692C0.726087 32 0.647824 32.0263 0.590121 32.0732C0.532417 32.1201 0.5 32.1837 0.5 32.25C0.5 32.3163 0.532417 32.3799 0.590121 32.4268C0.647824 32.4737 0.726087 32.5 0.807692 32.5H32.1923C32.2739 32.5 32.3522 32.4737 32.4099 32.4268C32.4676 32.3799 32.5 32.3163 32.5 32.25C32.5 32.1837 32.4676 32.1201 32.4099 32.0732C32.3522 32.0263 32.2739 32 32.1923 32H29.7308V31H30.0385C30.1201 31 30.1983 30.9737 30.256 30.9268C30.3137 30.8799 30.3462 30.8163 30.3462 30.75C30.3462 30.6837 30.3137 30.6201 30.256 30.5732C30.1983 30.5263 30.1201 30.5 30.0385 30.5H29.7308V25.826L30.9098 24.3885C30.9407 24.3509 30.9584 24.3071 30.961 24.2619C30.9637 24.2168 30.9512 24.1719 30.925 24.132C30.8987 24.0921 30.8596 24.0588 30.8119 24.0356C30.7641 24.0123 30.7095 24 30.6538 24H29.7308V21H30.0385C30.1201 21 30.1983 20.9737 30.256 20.9268C30.3137 20.8799 30.3462 20.8163 30.3462 20.75C30.3462 20.6837 30.3137 20.6201 30.256 20.5732C30.1983 20.5263 30.1201 20.5 30.0385 20.5H29.7308V15.3085L31.5443 12.3615C31.5679 12.3234 31.579 12.2811 31.5767 12.2385C31.5744 12.1959 31.5587 12.1545 31.5311 12.1183C31.5035 12.082 31.465 12.0521 31.4191 12.0314C31.3733 12.0107 31.3217 11.9999 31.2692 12H29.7308V10.25C29.7308 10.1837 29.6984 10.1201 29.6406 10.0732C29.5829 10.0263 29.5047 10 29.4231 10H28.5V8.75C28.5 8.6837 28.4676 8.62011 28.4099 8.57322C28.3522 8.52634 28.2739 8.5 28.1923 8.5H26.6538V4.25C26.6538 4.1837 26.6214 4.12011 26.5637 4.07322C26.506 4.02634 26.4278 4 26.3462 4H22.9615V3.25C22.9615 3.1837 22.9291 3.12011 22.8714 3.07322C22.8137 3.02634 22.7355 3 22.6538 3H21.0846C21.0785 2.9665 21.0803 2.9305 21.0723 2.8975C20.9815 2.54608 20.7597 2.22589 20.4371 1.98044C20.1145 1.73498 19.7068 1.57614 19.2692 1.5255V0.75C19.2692 0.683696 19.2368 0.620107 19.1791 0.573223C19.1214 0.526339 19.0431 0.5 18.9615 0.5H14.0385ZM14.3462 1H18.6538V1.5H14.3462V1ZM14.0385 2H18.9615C19.7043 2 20.3277 2.43 20.4698 3H12.5314C12.6742 2.43 13.2957 2 14.0385 2ZM10.6538 3.5H22.3462V4H10.6538V3.5ZM6.96154 4.5H26.0385V8.5H6.96154V4.5ZM12.8077 5.5C12.7261 5.5 12.6478 5.52634 12.5901 5.57322C12.5324 5.62011 12.5 5.6837 12.5 5.75V7.25C12.5 7.3163 12.5324 7.37989 12.5901 7.42678C12.6478 7.47366 12.7261 7.5 12.8077 7.5H13.7308V7.75C13.7308 7.8163 13.7632 7.87989 13.8209 7.92678C13.8786 7.97366 13.9569 8 14.0385 8H18.9615C19.0431 8 19.1214 7.97366 19.1791 7.92678C19.2368 7.87989 19.2692 7.8163 19.2692 7.75V7.5H20.1923C20.2739 7.5 20.3522 7.47366 20.4099 7.42678C20.4676 7.37989 20.5 7.3163 20.5 7.25V5.75C20.5 5.6837 20.4676 5.62011 20.4099 5.57322C20.3522 5.52634 20.2739 5.5 20.1923 5.5H12.8077ZM10.3462 5.5105C9.93823 5.51076 9.5471 5.64255 9.25866 5.87691C8.97021 6.11127 8.80802 6.42906 8.80769 6.7605C8.80769 7.4505 9.49754 8.0105 10.3462 8.0105C11.1948 8.0105 11.8846 7.4505 11.8846 6.7605C11.8846 6.071 11.1948 5.5105 10.3462 5.5105ZM22.6538 5.5105C22.2459 5.51076 21.8548 5.64255 21.5664 5.87691C21.2779 6.11127 21.1157 6.42906 21.1154 6.7605C21.1154 7.4505 21.8052 8.0105 22.6538 8.0105C23.5025 8.0105 24.1923 7.4505 24.1923 6.7605C24.1923 6.071 23.5025 5.5105 22.6538 5.5105ZM13.1154 6H19.8846V7H18.9615C18.8799 7 18.8017 7.02634 18.744 7.07322C18.6863 7.12011 18.6538 7.1837 18.6538 7.25V7.5H14.3462V7.25C14.3462 7.1837 14.3137 7.12011 14.256 7.07322C14.1983 7.02634 14.1201 7 14.0385 7H13.1154V6ZM10.3462 6.0105C10.8551 6.0105 11.2692 6.347 11.2692 6.7605C11.2692 7.174 10.8551 7.5105 10.3462 7.5105C9.83723 7.5105 9.42308 7.174 9.42308 6.7605C9.42308 6.347 9.83723 6.0105 10.3462 6.0105ZM22.6538 6.0105C23.1628 6.0105 23.5769 6.347 23.5769 6.7605C23.5769 7.174 23.1628 7.5105 22.6538 7.5105C22.1449 7.5105 21.7308 7.174 21.7308 6.7605C21.7308 6.347 22.1449 6.0105 22.6538 6.0105ZM5.11538 9H27.8846V10H5.11538V9ZM3.88462 10.5H29.1154V12H3.88462V10.5ZM2.22862 12.5H30.7708L30.4631 13H2.53692L2.22862 12.5ZM2.844 13.5H3.26923V14.1915L2.844 13.5ZM3.88462 13.5H5.11538V15H3.88462V13.5ZM5.73077 13.5H6.96154V15H5.73077V13.5ZM7.57692 13.5H8.80769V15H7.57692V13.5ZM9.42308 13.5H10.6538V15H9.42308V13.5ZM11.2692 13.5H12.5V15H11.2692V13.5ZM13.1154 13.5H14.3462V15H13.1154V13.5ZM14.9615 13.5H16.1923V15H14.9615V13.5ZM16.8077 13.5H18.0385V15H16.8077V13.5ZM18.6538 13.5H19.8846V15H18.6538V13.5ZM20.5 13.5H21.7308V15H20.5V13.5ZM22.3462 13.5H23.5769V15H22.3462V13.5ZM24.1923 13.5H25.4231V15H24.1923V13.5ZM26.0385 13.5H27.2692V15H26.0385V13.5ZM27.8846 13.5H29.1154V15H27.8846V13.5ZM29.7308 13.5H30.156L29.7308 14.1915V13.5ZM3.88462 15.5H10.6538V20.5H10.0385V18.75C10.0385 18.6837 10.006 18.6201 9.94834 18.5732C9.89064 18.5263 9.81237 18.5 9.73077 18.5H4.80769C4.72609 18.5 4.64782 18.5263 4.59012 18.5732C4.53242 18.6201 4.5 18.6837 4.5 18.75V20.5H3.88462V15.5ZM11.2692 15.5H21.7308V16.5H17.1154C17.0338 16.5 16.9555 16.5263 16.8978 16.5732C16.8401 16.6201 16.8077 16.6837 16.8077 16.75V18.5H16.1923V16.75C16.1923 16.6837 16.1599 16.6201 16.1022 16.5732C16.0445 16.5263 15.9662 16.5 15.8846 16.5H11.2692V15.5ZM22.3462 15.5H29.1154V20.5H28.5V18.75C28.5 18.6837 28.4676 18.6201 28.4099 18.5732C28.3522 18.5263 28.2739 18.5 28.1923 18.5H23.2692C23.1876 18.5 23.1094 18.5263 23.0517 18.5732C22.994 18.6201 22.9615 18.6837 22.9615 18.75V20.5H22.3462V15.5ZM7.26923 16C6.59046 16 6.03846 16.4485 6.03846 17C6.03846 17.5515 6.59046 18 7.26923 18C7.948 18 8.5 17.5515 8.5 17C8.5 16.4485 7.948 16 7.26923 16ZM25.7308 16C25.052 16 24.5 16.4485 24.5 17C24.5 17.5515 25.052 18 25.7308 18C26.4095 18 26.9615 17.5515 26.9615 17C26.9615 16.4485 26.4095 16 25.7308 16ZM7.26923 16.5C7.43244 16.5 7.58897 16.5527 7.70437 16.6464C7.81978 16.7402 7.88462 16.8674 7.88462 17C7.88462 17.1326 7.81978 17.2598 7.70437 17.3536C7.58897 17.4473 7.43244 17.5 7.26923 17.5C7.10602 17.5 6.94949 17.4473 6.83409 17.3536C6.71868 17.2598 6.65385 17.1326 6.65385 17C6.65385 16.8674 6.71868 16.7402 6.83409 16.6464C6.94949 16.5527 7.10602 16.5 7.26923 16.5ZM25.7308 16.5C25.894 16.5 26.0505 16.5527 26.1659 16.6464C26.2813 16.7402 26.3462 16.8674 26.3462 17C26.3462 17.1326 26.2813 17.2598 26.1659 17.3536C26.0505 17.4473 25.894 17.5 25.7308 17.5C25.5676 17.5 25.411 17.4473 25.2956 17.3536C25.1802 17.2598 25.1154 17.1326 25.1154 17C25.1154 16.8674 25.1802 16.7402 25.2956 16.6464C25.411 16.5527 25.5676 16.5 25.7308 16.5ZM11.2692 17H15.5769V17.083C13.572 17.416 12.0385 18.8025 11.8988 20.5H11.2692V17ZM17.4231 17H21.7308V20.5H21.1012C20.9622 18.8025 19.4274 17.416 17.4231 17.083V17ZM15.5769 17.593V18.117C14.9229 18.2686 14.3405 18.5772 13.9061 19.0025C13.4718 19.4277 13.2058 19.9497 13.1431 20.5H12.5142C12.5808 19.8146 12.9132 19.164 13.4635 18.6417C14.0138 18.1193 14.7537 17.7522 15.5769 17.593ZM17.4231 17.593C18.2463 17.7522 18.9862 18.1193 19.5365 18.6417C20.0868 19.164 20.4192 19.8146 20.4858 20.5H19.8569C19.7943 19.9497 19.5284 19.4276 19.0941 19.0024C18.6597 18.5771 18.0772 18.2684 17.4231 18.117V17.593ZM15.5769 18.6405V18.75C15.5769 18.8163 15.6093 18.8799 15.667 18.9268C15.7247 18.9737 15.803 19 15.8846 19H17.1154C17.197 19 17.2753 18.9737 17.333 18.9268C17.3907 18.8799 17.4231 18.8163 17.4231 18.75V18.6405C17.9104 18.7808 18.3393 19.0295 18.6611 19.3583C18.9828 19.687 19.1844 20.0827 19.2428 20.5H18.9615C18.8799 20.5 18.8017 20.5263 18.744 20.5732C18.6863 20.6201 18.6538 20.6837 18.6538 20.75C18.6538 20.8163 18.6863 20.8799 18.744 20.9268C18.8017 20.9737 18.8799 21 18.9615 21H19.2692V24H18.9615C18.8799 24 18.8017 24.0263 18.744 24.0732C18.6863 24.1201 18.6538 24.1837 18.6538 24.25C18.6538 24.3163 18.6863 24.3799 18.744 24.4268C18.8017 24.4737 18.8799 24.5 18.9615 24.5H19.2692V32H13.7308V24.5H14.0385C14.1201 24.5 14.1983 24.4737 14.256 24.4268C14.3137 24.3799 14.3462 24.3163 14.3462 24.25C14.3462 24.1837 14.3137 24.1201 14.256 24.0732C14.1983 24.0263 14.1201 24 14.0385 24H13.7308V21H14.0385C14.1201 21 14.1983 20.9737 14.256 20.9268C14.3137 20.8799 14.3462 20.8163 14.3462 20.75C14.3462 20.6837 14.3137 20.6201 14.256 20.5732C14.1983 20.5263 14.1201 20.5 14.0385 20.5H13.7572C13.8158 20.0827 14.0174 19.6871 14.3391 19.3584C14.6608 19.0296 15.0897 18.7809 15.5769 18.6405ZM5.11538 19H6.03846V19.5H5.11538V19ZM6.65385 19H7.88462V19.5H6.65385V19ZM8.5 19H9.42308V19.5H8.5V19ZM23.5769 19H24.5V19.5H23.5769V19ZM25.1154 19H26.3462V19.5H25.1154V19ZM26.9615 19H27.8846V19.5H26.9615V19ZM5.11538 20H9.42308V20.5H5.11538V20ZM23.5769 20H27.8846V20.5H23.5769V20ZM3.88462 21H4.5V21.5H3.88462V21ZM5.11538 21H9.42308V21.5H5.11538V21ZM10.0385 21H10.6538V21.5H10.0385V21ZM11.2692 21H13.1154V24H11.2692V21ZM19.8846 21H21.7308V24H19.8846V21ZM22.3462 21H22.9615V21.5H22.3462V21ZM23.5769 21H27.8846V21.5H23.5769V21ZM28.5 21H29.1154V21.5H28.5V21ZM3.88462 22H4.5V24H3.88462V22ZM5.11538 22H5.73077V23.25C5.73077 23.3163 5.76319 23.3799 5.82089 23.4268C5.87859 23.4737 5.95686 23.5 6.03846 23.5H8.5C8.58161 23.5 8.65987 23.4737 8.71757 23.4268C8.77528 23.3799 8.80769 23.3163 8.80769 23.25V22H9.42308V24H5.11538V22ZM6.34615 22H8.19231V23H6.34615V22ZM10.0385 22H10.6538V24H10.0385V22ZM22.3462 22H22.9615V24H22.3462V22ZM23.5769 22H24.1923V23.25C24.1923 23.3163 24.2247 23.3799 24.2824 23.4268C24.3401 23.4737 24.4184 23.5 24.5 23.5H26.9615C27.0431 23.5 27.1214 23.4737 27.1791 23.4268C27.2368 23.3799 27.2692 23.3163 27.2692 23.25V22H27.8846V24H23.5769V22ZM24.8077 22H26.6538V23H24.8077V22ZM28.5 22H29.1154V24H28.5V22ZM2.96031 24.5H11.6175L10.7966 25.5H3.78L2.96031 24.5ZM12.3572 24.5H13.1154V32H11.2692V25.826L12.3572 24.5ZM19.8846 24.5H20.6828L21.7308 25.7775V32H19.8846V24.5ZM21.4218 24.5H30.0791L29.2582 25.5H22.2415L21.4218 24.5ZM3.88462 26H4.5V30.5H3.88462V26ZM5.11538 26H9.42308V30.5H5.11538V26ZM10.0385 26H10.6538V30.5H10.0385V26ZM22.3462 26H22.9615V30.5H22.3462V26ZM23.5769 26H27.8846V30.5H23.5769V26ZM28.5 26H29.1154V30.5H28.5V26ZM3.88462 31H4.5V32H3.88462V31ZM5.11538 31H5.73077V32H5.11538V31ZM6.34615 31H8.19231V32H6.34615V31ZM8.80769 31H9.42308V32H8.80769V31ZM10.0385 31H10.6538V32H10.0385V31ZM22.3462 31H22.9615V32H22.3462V31ZM23.5769 31H24.1923V32H23.5769V31ZM24.8077 31H26.6538V32H24.8077V31ZM27.2692 31H27.8846V32H27.2692V31ZM28.5 31H29.1154V32H28.5V31Z" fill="#17BD3B"/>
</svg>
