<svg width="24" height="23" viewBox="0 0 24 23" fill="none" xmlns="http://www.w3.org/2000/svg">
<path d="M5.86927 17.2856C5.51073 17.2856 5.19701 17.5356 5.19701 17.8213V18.5356C5.19701 18.6428 5.28664 18.7142 5.4211 18.7142H6.31745C6.45191 18.7142 6.54154 18.6428 6.54154 18.5356V17.8213C6.54154 17.5356 6.22782 17.2856 5.86927 17.2856ZM6.09336 18.3571H5.64518V17.8213C5.64518 17.7142 5.73482 17.6428 5.86927 17.6428C6.00373 17.6428 6.09336 17.7142 6.09336 17.8213V18.3571ZM5.86927 15.4999C5.51073 15.4999 5.19701 15.7499 5.19701 16.0356V16.7499C5.19701 16.8571 5.28664 16.9285 5.4211 16.9285H6.31745C6.45191 16.9285 6.54154 16.8571 6.54154 16.7499V16.0356C6.54154 15.7499 6.22782 15.4999 5.86927 15.4999ZM6.09336 16.5713H5.64518V16.0356C5.64518 15.9285 5.73482 15.8571 5.86927 15.8571C6.00373 15.8571 6.09336 15.9285 6.09336 16.0356V16.5713ZM2.73202 14.0713C2.86647 14.0713 2.95611 13.9999 2.95611 13.8928V13.1785C2.95611 12.8928 2.64238 12.6428 2.28384 12.6428C1.9253 12.6428 1.61157 12.8928 1.61157 13.1785V13.8928C1.61157 13.9999 1.70121 14.0713 1.83566 14.0713H2.73202ZM2.05975 13.1785C2.05975 13.0713 2.14939 12.9999 2.28384 12.9999C2.41829 12.9999 2.50793 13.0713 2.50793 13.1785V13.7142H2.05975V13.1785ZM1.83566 12.2856H2.73202C2.86647 12.2856 2.95611 12.2142 2.95611 12.1071V11.3928C2.95611 11.1071 2.64238 10.8571 2.28384 10.8571C1.9253 10.8571 1.61157 11.1071 1.61157 11.3928V12.1071C1.61157 12.2142 1.70121 12.2856 1.83566 12.2856ZM2.05975 11.3928C2.05975 11.2856 2.14939 11.2142 2.28384 11.2142C2.41829 11.2142 2.50793 11.2856 2.50793 11.3928V11.9285H2.05975V11.3928ZM3.62838 14.0713H4.52474C4.65919 14.0713 4.74883 13.9999 4.74883 13.8928V13.1785C4.74883 12.8928 4.4351 12.6428 4.07656 12.6428C3.71801 12.6428 3.40429 12.8928 3.40429 13.1785V13.8928C3.40429 13.9999 3.49392 14.0713 3.62838 14.0713ZM3.85247 13.1785C3.85247 13.0713 3.9421 12.9999 4.07656 12.9999C4.21101 12.9999 4.30065 13.0713 4.30065 13.1785V13.7142H3.85247V13.1785ZM3.62838 12.2856H4.52474C4.65919 12.2856 4.74883 12.2142 4.74883 12.1071V11.3928C4.74883 11.1071 4.4351 10.8571 4.07656 10.8571C3.71801 10.8571 3.40429 11.1071 3.40429 11.3928V12.1071C3.40429 12.2142 3.49392 12.2856 3.62838 12.2856ZM3.85247 11.3928C3.85247 11.2856 3.9421 11.2142 4.07656 11.2142C4.21101 11.2142 4.30065 11.2856 4.30065 11.3928V11.9285H3.85247V11.3928ZM20.211 12.6428C19.8525 12.6428 19.5387 12.8928 19.5387 13.1785V13.8928C19.5387 13.9999 19.6284 14.0713 19.7628 14.0713H20.6592C20.7936 14.0713 20.8833 13.9999 20.8833 13.8928V13.1785C20.8833 12.8928 20.5696 12.6428 20.211 12.6428ZM20.4351 13.7142H19.9869V13.1785C19.9869 13.0713 20.0766 12.9999 20.211 12.9999C20.3455 12.9999 20.4351 13.0713 20.4351 13.1785V13.7142ZM20.211 10.8571C19.8525 10.8571 19.5387 11.1071 19.5387 11.3928V12.1071C19.5387 12.2142 19.6284 12.2856 19.7628 12.2856H20.6592C20.7936 12.2856 20.8833 12.2142 20.8833 12.1071V11.3928C20.8833 11.1071 20.5696 10.8571 20.211 10.8571ZM20.4351 11.9285H19.9869V11.3928C19.9869 11.2856 20.0766 11.2142 20.211 11.2142C20.3455 11.2142 20.4351 11.2856 20.4351 11.3928V11.9285ZM22.0037 12.6428C21.6452 12.6428 21.3315 12.8928 21.3315 13.1785V13.8928C21.3315 13.9999 21.4211 14.0713 21.5555 14.0713H22.4519C22.5864 14.0713 22.676 13.9999 22.676 13.8928V13.1785C22.676 12.8928 22.3623 12.6428 22.0037 12.6428ZM22.2278 13.7142H21.7796V13.1785C21.7796 13.0713 21.8693 12.9999 22.0037 12.9999C22.1382 12.9999 22.2278 13.0713 22.2278 13.1785V13.7142ZM21.3315 11.3928V12.1071C21.3315 12.2142 21.4211 12.2856 21.5555 12.2856H22.4519C22.5864 12.2856 22.676 12.2142 22.676 12.1071V11.3928C22.676 11.1071 22.3623 10.8571 22.0037 10.8571C21.6452 10.8571 21.3315 11.1071 21.3315 11.3928ZM22.2278 11.3928V11.9285H21.7796V11.3928C21.7796 11.2856 21.8693 11.2142 22.0037 11.2142C22.1382 11.2142 22.2278 11.2856 22.2278 11.3928Z" fill="white"/>
<path d="M23.3473 14.7857C23.4817 14.7857 23.5714 14.7142 23.5714 14.6071V10.3214C23.5714 10.2143 23.4817 10.1428 23.3473 10.1428H22.2268V7.64282H22.8991C23.0336 7.64282 23.1232 7.57139 23.1232 7.46425V6.03568C23.1232 5.92854 23.0336 5.85711 22.8991 5.85711H22.2268V4.60711H22.4509C22.5854 4.60711 22.675 4.53568 22.675 4.42854V3.35711C22.675 3.24996 22.5854 3.17854 22.4509 3.17854H22.2268V1.99997C22.2268 1.60711 22.0027 1.24997 21.5546 1.03568L21.3305 0.928537V0.321394C21.3305 0.214251 21.2408 0.142822 21.1064 0.142822C20.9719 0.142822 20.8823 0.214251 20.8823 0.321394V0.928537L20.6582 1.03568C20.2548 1.24997 19.9859 1.60711 19.9859 1.99997V3.17854H19.7619C19.6274 3.17854 19.5378 3.24996 19.5378 3.35711V4.42854C19.5378 4.53568 19.6274 4.60711 19.7619 4.60711H19.9859V5.85711H19.3137C19.1792 5.85711 19.0896 5.92854 19.0896 6.03568V7.46425C19.0896 7.57139 19.1792 7.64282 19.3137 7.64282H19.9859V7.99996H4.29967V7.64282H4.97194C5.10639 7.64282 5.19603 7.57139 5.19603 7.46425V6.03568C5.19603 5.92854 5.10639 5.85711 4.97194 5.85711H4.29967V4.60711H4.52376C4.65821 4.60711 4.74785 4.53568 4.74785 4.42854V3.35711C4.74785 3.24996 4.65821 3.17854 4.52376 3.17854H4.29967V1.99997C4.29967 1.60711 4.07558 1.24997 3.6274 1.03568L3.40331 0.928537V0.321394C3.40331 0.214251 3.31367 0.142822 3.17922 0.142822C3.04477 0.142822 2.95513 0.214251 2.95513 0.321394V0.928537L2.73104 1.03568C2.32768 1.24997 2.05877 1.60711 2.05877 1.99997V3.17854H1.83468C1.70023 3.17854 1.61059 3.24996 1.61059 3.35711V4.42854C1.61059 4.53568 1.70023 4.60711 1.83468 4.60711H2.05877V5.85711H1.3865C1.25205 5.85711 1.16241 5.92854 1.16241 6.03568V7.46425C1.16241 7.57139 1.25205 7.64282 1.3865 7.64282H2.05877V10.1428H0.938323C0.803869 10.1428 0.714233 10.2143 0.714233 10.3214V14.6071C0.714233 14.7142 0.803869 14.7857 0.938323 14.7857H1.61059V22.6428H0.938323C0.803869 22.6428 0.714233 22.7142 0.714233 22.8214C0.714233 22.9285 0.803869 23 0.938323 23H23.3473C23.4817 23 23.5714 22.9285 23.5714 22.8214C23.5714 22.7142 23.4817 22.6428 23.3473 22.6428H22.675V14.7857H23.3473ZM23.1232 14.4285H19.0896V10.5H23.1232V14.4285ZM17.0728 14.4285H16.4005V12.8214C16.4005 12.2857 16.8935 12.0357 17.0728 11.9285C17.252 12 17.745 12.25 17.745 12.8214V14.4285H17.0728ZM17.1624 11.5714H17.028C16.9831 11.5714 15.9523 11.8928 15.9523 12.8214V14.4285H15.5041V12.8214C15.5041 11.8928 14.5182 11.6071 14.4733 11.5714H14.3389C14.2941 11.5714 13.2633 11.8928 13.2633 12.8214V14.4285H11.0224V12.8214C11.0224 11.8928 10.0364 11.6071 9.99154 11.5714H9.85709C9.81227 11.5714 8.78146 11.8928 8.78146 12.8214V14.4285H8.33328V12.8214C8.33328 11.8928 7.34729 11.6071 7.30247 11.5714H7.16802C7.1232 11.5714 6.09238 11.8928 6.09238 12.8214V14.4285H5.64421V10.5H6.09238V10.6785C6.09238 10.7857 6.18202 10.8571 6.31647 10.8571C6.45093 10.8571 6.54056 10.7857 6.54056 10.6785V10.5H6.98874V10.6785C6.98874 10.7857 7.07838 10.8571 7.21283 10.8571C7.34729 10.8571 7.43692 10.7857 7.43692 10.6785V10.5H7.8851V10.6785C7.8851 10.7857 7.97474 10.8571 8.10919 10.8571C8.24364 10.8571 8.33328 10.7857 8.33328 10.6785V10.5H8.78146V10.6785C8.78146 10.7857 8.8711 10.8571 9.00555 10.8571C9.14 10.8571 9.22964 10.7857 9.22964 10.6785V10.5H9.67782V10.6785C9.67782 10.7857 9.76745 10.8571 9.90191 10.8571C10.0364 10.8571 10.126 10.7857 10.126 10.6785V10.5H10.5742V10.6785C10.5742 10.7857 10.6638 10.8571 10.7983 10.8571C10.9327 10.8571 11.0224 10.7857 11.0224 10.6785V10.5H11.4705V10.6785C11.4705 10.7857 11.5602 10.8571 11.6946 10.8571C11.8291 10.8571 11.9187 10.7857 11.9187 10.6785V10.5H12.3669V10.6785C12.3669 10.7857 12.4565 10.8571 12.591 10.8571C12.7254 10.8571 12.8151 10.7857 12.8151 10.6785V10.5H13.2633V10.6785C13.2633 10.7857 13.3529 10.8571 13.4873 10.8571C13.6218 10.8571 13.7114 10.7857 13.7114 10.6785V10.5H14.1596V10.6785C14.1596 10.7857 14.2492 10.8571 14.3837 10.8571C14.5182 10.8571 14.6078 10.7857 14.6078 10.6785V10.5H15.056V10.6785C15.056 10.7857 15.1456 10.8571 15.2801 10.8571C15.4145 10.8571 15.5041 10.7857 15.5041 10.6785V10.5H15.9523V10.6785C15.9523 10.7857 16.042 10.8571 16.1764 10.8571C16.3109 10.8571 16.4005 10.7857 16.4005 10.6785V10.5H16.8487V10.6785C16.8487 10.7857 16.9383 10.8571 17.0728 10.8571C17.2072 10.8571 17.2969 10.7857 17.2969 10.6785V10.5H17.745V10.6785C17.745 10.7857 17.8347 10.8571 17.9691 10.8571C18.1036 10.8571 18.1932 10.7857 18.1932 10.6785V10.5H18.6414V14.4285H18.1932V12.8214C18.1932 11.8928 17.2072 11.6071 17.1624 11.5714ZM13.7114 14.4285V12.8214C13.7114 12.2857 14.2044 12.0357 14.3837 11.9285C14.563 12 15.056 12.25 15.056 12.8214V14.4285H13.7114ZM9.22964 14.4285V12.8214C9.22964 12.2857 9.72264 12.0357 9.90191 11.9285C10.0812 12 10.5742 12.25 10.5742 12.8214V14.4285H9.22964ZM7.21283 14.4285H6.54056V12.8214C6.54056 12.2857 7.03356 12.0357 7.21283 11.9285C7.3921 12 7.8851 12.25 7.8851 12.8214V14.4285H7.21283ZM4.29967 9.07139H19.9859V10.1428H19.0896V9.96425C19.0896 9.67854 18.7759 9.42854 18.4173 9.42854C18.0588 9.42854 17.745 9.67854 17.745 9.96425V10.1428H17.2969V9.96425C17.2969 9.67854 16.9831 9.42854 16.6246 9.42854C16.2661 9.42854 15.9523 9.67854 15.9523 9.96425V10.1428H15.5041V9.96425C15.5041 9.67854 15.1904 9.42854 14.8319 9.42854C14.4733 9.42854 14.1596 9.67854 14.1596 9.96425V10.1428H13.7114V9.96425C13.7114 9.67854 13.3977 9.42854 13.0392 9.42854C12.6806 9.42854 12.3669 9.67854 12.3669 9.96425V10.1428H11.9187V9.96425C11.9187 9.67854 11.605 9.42854 11.2464 9.42854C10.8879 9.42854 10.5742 9.67854 10.5742 9.96425V10.1428H10.126V9.96425C10.126 9.67854 9.81227 9.42854 9.45373 9.42854C9.09519 9.42854 8.78146 9.67854 8.78146 9.96425V10.1428H8.33328V9.96425C8.33328 9.67854 8.01956 9.42854 7.66101 9.42854C7.30247 9.42854 6.98874 9.67854 6.98874 9.96425V10.1428H6.54056V9.96425C6.54056 9.67854 6.22684 9.42854 5.86829 9.42854C5.50975 9.42854 5.19603 9.67854 5.19603 9.96425V10.1428H4.29967V9.07139ZM18.6414 10.1428H18.1932V9.96425C18.1932 9.85711 18.2829 9.78568 18.4173 9.78568C18.5518 9.78568 18.6414 9.85711 18.6414 9.96425V10.1428ZM16.8487 10.1428H16.4005V9.96425C16.4005 9.85711 16.4901 9.78568 16.6246 9.78568C16.7591 9.78568 16.8487 9.85711 16.8487 9.96425V10.1428ZM15.056 10.1428H14.6078V9.96425C14.6078 9.85711 14.6974 9.78568 14.8319 9.78568C14.9663 9.78568 15.056 9.85711 15.056 9.96425V10.1428ZM13.2633 10.1428H12.8151V9.96425C12.8151 9.85711 12.9047 9.78568 13.0392 9.78568C13.1736 9.78568 13.2633 9.85711 13.2633 9.96425V10.1428ZM11.4705 10.1428H11.0224V9.96425C11.0224 9.85711 11.112 9.78568 11.2464 9.78568C11.3809 9.78568 11.4705 9.85711 11.4705 9.96425V10.1428ZM9.67782 10.1428H9.22964V9.96425C9.22964 9.85711 9.31927 9.78568 9.45373 9.78568C9.58818 9.78568 9.67782 9.85711 9.67782 9.96425V10.1428ZM7.8851 10.1428H7.43692V9.96425C7.43692 9.85711 7.52656 9.78568 7.66101 9.78568C7.79547 9.78568 7.8851 9.85711 7.8851 9.96425V10.1428ZM6.09238 10.1428H5.64421V9.96425C5.64421 9.85711 5.73384 9.78568 5.86829 9.78568C6.00275 9.78568 6.09238 9.85711 6.09238 9.96425V10.1428ZM22.2268 4.24996H21.7787V4.07139C21.7787 3.96425 21.689 3.89282 21.5546 3.89282C21.4201 3.89282 21.3305 3.96425 21.3305 4.07139V4.24996H20.8823V4.07139C20.8823 3.96425 20.7927 3.89282 20.6582 3.89282C20.5238 3.89282 20.4341 3.96425 20.4341 4.07139V4.24996H19.9859V3.53568H22.2268V4.24996ZM20.8823 1.35711L21.1064 1.24997L21.3305 1.35711C21.5994 1.49996 21.7338 1.71425 21.7787 1.92854H20.4341C20.4789 1.67854 20.6134 1.46425 20.8823 1.35711ZM20.4341 2.28568H21.7787V3.17854H21.3305V2.82139C21.3305 2.71425 21.2408 2.64282 21.1064 2.64282C20.9719 2.64282 20.8823 2.71425 20.8823 2.82139V3.17854H20.4341V2.28568ZM20.4341 4.60711H21.7787V5.85711H20.4341V4.60711ZM19.5378 7.28568V6.21425H22.675V7.28568H22.2268V6.74996C22.2268 6.64282 22.1372 6.57139 22.0027 6.57139C21.8683 6.57139 21.7787 6.64282 21.7787 6.74996V7.28568H21.3305V6.74996C21.3305 6.64282 21.2408 6.57139 21.1064 6.57139C20.9719 6.57139 20.8823 6.64282 20.8823 6.74996V7.28568H20.4341V6.74996C20.4341 6.64282 20.3445 6.57139 20.21 6.57139C20.0756 6.57139 19.9859 6.64282 19.9859 6.74996V7.28568H19.5378ZM21.7787 7.64282V10.1428H20.4341V7.64282H21.7787ZM19.9859 8.35711V8.71425H4.29967V8.35711H19.9859ZM4.29967 4.24996H3.85149V4.07139C3.85149 3.96425 3.76185 3.89282 3.6274 3.89282C3.49294 3.89282 3.40331 3.96425 3.40331 4.07139V4.24996H2.95513V4.07139C2.95513 3.96425 2.86549 3.89282 2.73104 3.89282C2.59659 3.89282 2.50695 3.96425 2.50695 4.07139V4.24996H2.05877V3.53568H4.29967V4.24996ZM2.95513 1.35711L3.17922 1.24997L3.40331 1.35711C3.67222 1.49996 3.80667 1.71425 3.85149 1.92854H2.50695C2.55177 1.67854 2.68622 1.46425 2.95513 1.35711ZM2.50695 2.28568H3.85149V3.17854H3.40331V2.82139C3.40331 2.71425 3.31367 2.64282 3.17922 2.64282C3.04477 2.64282 2.95513 2.71425 2.95513 2.82139V3.17854H2.50695V2.28568ZM2.50695 4.60711H3.85149V5.85711H2.50695V4.60711ZM1.61059 7.28568V6.21425H4.74785V7.28568H4.29967V6.74996C4.29967 6.64282 4.21003 6.57139 4.07558 6.57139C3.94112 6.57139 3.85149 6.64282 3.85149 6.74996V7.28568H3.40331V6.74996C3.40331 6.64282 3.31367 6.57139 3.17922 6.57139C3.04477 6.57139 2.95513 6.64282 2.95513 6.74996V7.28568H2.50695V6.74996C2.50695 6.64282 2.41731 6.57139 2.28286 6.57139C2.14841 6.57139 2.05877 6.64282 2.05877 6.74996V7.28568H1.61059ZM2.50695 7.64282H3.85149V10.1428H2.50695V7.64282ZM1.16241 10.5H5.19603V14.4285H1.16241V10.5ZM2.05877 14.7857H4.29967V22.6428H2.05877V14.7857ZM4.74785 14.7857H5.19603V14.9642C5.19603 15.0714 5.28566 15.1428 5.42012 15.1428C5.55457 15.1428 5.64421 15.0714 5.64421 14.9642V14.7857H6.09238V14.9642C6.09238 15.0714 6.18202 15.1428 6.31647 15.1428C6.45093 15.1428 6.54056 15.0714 6.54056 14.9642V14.7857H6.98874V22.6428H4.74785V14.7857ZM7.43692 14.7857H7.8851V14.9642C7.8851 15.0714 7.97474 15.1428 8.10919 15.1428C8.24364 15.1428 8.33328 15.0714 8.33328 14.9642V14.7857H8.78146V14.9642C8.78146 15.0714 8.8711 15.1428 9.00555 15.1428C9.14 15.1428 9.22964 15.0714 9.22964 14.9642V14.7857H9.67782V14.9642C9.67782 15.0714 9.76745 15.1428 9.90191 15.1428C10.0364 15.1428 10.126 15.0714 10.126 14.9642V14.7857H10.5742V14.9642C10.5742 15.0714 10.6638 15.1428 10.7983 15.1428C10.9327 15.1428 11.0224 15.0714 11.0224 14.9642V14.7857H11.4705V14.9642C11.4705 15.0714 11.5602 15.1428 11.6946 15.1428C11.8291 15.1428 11.9187 15.0714 11.9187 14.9642V14.7857H12.3669V14.9642C12.3669 15.0714 12.4565 15.1428 12.591 15.1428C12.7254 15.1428 12.8151 15.0714 12.8151 14.9642V14.7857H13.2633V14.9642C13.2633 15.0714 13.3529 15.1428 13.4873 15.1428C13.6218 15.1428 13.7114 15.0714 13.7114 14.9642V14.7857H14.1596V14.9642C14.1596 15.0714 14.2492 15.1428 14.3837 15.1428C14.5182 15.1428 14.6078 15.0714 14.6078 14.9642V14.7857H15.056V14.9642C15.056 15.0714 15.1456 15.1428 15.2801 15.1428C15.4145 15.1428 15.5041 15.0714 15.5041 14.9642V14.7857H15.9523V14.9642C15.9523 15.0714 16.042 15.1428 16.1764 15.1428C16.3109 15.1428 16.4005 15.0714 16.4005 14.9642V14.7857H16.8487V22.6428H15.9523V19.1071C15.9523 17.8928 15.1008 16.7857 13.6218 16.1428L12.2324 15.5357C12.1428 15.5 12.098 15.5 12.0084 15.5357L10.619 16.1428C9.18482 16.7857 8.28846 17.8928 8.28846 19.1071V22.6428H7.3921V14.7857H7.43692ZM15.5041 22.6428H8.78146V19.1071C8.78146 18.0357 9.54336 17.0357 10.8431 16.4642L12.1428 15.8928L13.3977 16.4642C14.6974 17.0357 15.5041 18.0357 15.5041 19.1071V22.6428ZM17.2969 14.7857H17.745V14.9642C17.745 15.0714 17.8347 15.1428 17.9691 15.1428C18.1036 15.1428 18.1932 15.0714 18.1932 14.9642V14.7857H18.6414V14.9642C18.6414 15.0714 18.731 15.1428 18.8655 15.1428C18.9999 15.1428 19.0896 15.0714 19.0896 14.9642V14.7857H19.5378V22.6428H17.2969V14.7857ZM22.2268 22.6428H19.9859V14.7857H22.2268V22.6428Z" fill="white"/>
<path d="M8.55776 16.5714C8.9163 16.5714 9.23002 16.3214 9.23002 16.0357C9.23002 15.75 8.9163 15.5 8.55776 15.5C8.19921 15.5 7.88549 15.75 7.88549 16.0357C7.88549 16.3214 8.19921 16.5714 8.55776 16.5714ZM8.55776 15.8572C8.69221 15.8572 8.78185 15.9286 8.78185 16.0357C8.78185 16.1429 8.69221 16.2143 8.55776 16.2143C8.4233 16.2143 8.33367 16.1429 8.33367 16.0357C8.33367 15.9286 8.4233 15.8572 8.55776 15.8572ZM15.7286 16.5714C16.0872 16.5714 16.4009 16.3214 16.4009 16.0357C16.4009 15.75 16.0872 15.5 15.7286 15.5C15.3701 15.5 15.0564 15.75 15.0564 16.0357C15.0564 16.3214 15.3701 16.5714 15.7286 16.5714ZM15.7286 15.8572C15.8631 15.8572 15.9527 15.9286 15.9527 16.0357C15.9527 16.1429 15.8631 16.2143 15.7286 16.2143C15.5942 16.2143 15.5045 16.1429 15.5045 16.0357C15.5045 15.9286 15.5942 15.8572 15.7286 15.8572ZM12.1432 11.9286C11.7846 11.9286 11.4709 12.1786 11.4709 12.4643C11.4709 12.75 11.7846 13 12.1432 13C12.5017 13 12.8155 12.75 12.8155 12.4643C12.8155 12.1786 12.5017 11.9286 12.1432 11.9286ZM12.1432 12.6429C12.0087 12.6429 11.9191 12.5714 11.9191 12.4643C11.9191 12.3572 12.0087 12.2857 12.1432 12.2857C12.2776 12.2857 12.3673 12.3572 12.3673 12.4643C12.3673 12.5714 12.2776 12.6429 12.1432 12.6429ZM5.86868 19.0714C5.51014 19.0714 5.19641 19.3214 5.19641 19.6072V20.3214C5.19641 20.4286 5.28605 20.5 5.4205 20.5H6.31686C6.45131 20.5 6.54095 20.4286 6.54095 20.3214V19.6072C6.54095 19.3214 6.22722 19.0714 5.86868 19.0714ZM6.09277 20.1429H5.64459V19.6072C5.64459 19.5 5.73423 19.4286 5.86868 19.4286C6.00313 19.4286 6.09277 19.5 6.09277 19.6072V20.1429ZM5.86868 20.8572C5.51014 20.8572 5.19641 21.1072 5.19641 21.3929V22.1072C5.19641 22.2143 5.28605 22.2857 5.4205 22.2857H6.31686C6.45131 22.2857 6.54095 22.2143 6.54095 22.1072V21.3929C6.54095 21.1072 6.22722 20.8572 5.86868 20.8572ZM6.09277 21.9286H5.64459V21.3929C5.64459 21.2857 5.73423 21.2143 5.86868 21.2143C6.00313 21.2143 6.09277 21.2857 6.09277 21.3929V21.9286ZM18.4177 15.5C18.0592 15.5 17.7454 15.75 17.7454 16.0357V16.75C17.7454 16.8572 17.8351 16.9286 17.9695 16.9286H18.8659C19.0003 16.9286 19.09 16.8572 19.09 16.75V16.0357C19.09 15.75 18.7762 15.5 18.4177 15.5ZM18.6418 16.5714H18.1936V16.0357C18.1936 15.9286 18.2832 15.8572 18.4177 15.8572C18.5522 15.8572 18.6418 15.9286 18.6418 16.0357V16.5714ZM18.4177 17.2857C18.0592 17.2857 17.7454 17.5357 17.7454 17.8214V18.5357C17.7454 18.6429 17.8351 18.7143 17.9695 18.7143H18.8659C19.0003 18.7143 19.09 18.6429 19.09 18.5357V17.8214C19.09 17.5357 18.7762 17.2857 18.4177 17.2857ZM18.6418 18.3572H18.1936V17.8214C18.1936 17.7143 18.2832 17.6429 18.4177 17.6429C18.5522 17.6429 18.6418 17.7143 18.6418 17.8214V18.3572ZM18.4177 20.8572C18.0592 20.8572 17.7454 21.1072 17.7454 21.3929V22.1072C17.7454 22.2143 17.8351 22.2857 17.9695 22.2857H18.8659C19.0003 22.2857 19.09 22.2143 19.09 22.1072V21.3929C19.09 21.1072 18.7762 20.8572 18.4177 20.8572ZM18.6418 21.9286H18.1936V21.3929C18.1936 21.2857 18.2832 21.2143 18.4177 21.2143C18.5522 21.2143 18.6418 21.2857 18.6418 21.3929V21.9286ZM18.4177 19.0714C18.0592 19.0714 17.7454 19.3214 17.7454 19.6072V20.3214C17.7454 20.4286 17.8351 20.5 17.9695 20.5H18.8659C19.0003 20.5 19.09 20.4286 19.09 20.3214V19.6072C19.09 19.3214 18.7762 19.0714 18.4177 19.0714ZM18.6418 20.1429H18.1936V19.6072C18.1936 19.5 18.2832 19.4286 18.4177 19.4286C18.5522 19.4286 18.6418 19.5 18.6418 19.6072V20.1429Z" fill="white"/>
</svg>
