<svg width="33" height="33" viewBox="0 0 33 33" fill="none" xmlns="http://www.w3.org/2000/svg">
<path d="M7.71664 24.5C7.21468 24.5 6.77547 24.85 6.77547 25.25V26.25C6.77547 26.4 6.90096 26.5 7.08919 26.5H8.34409C8.53233 26.5 8.65782 26.4 8.65782 26.25V25.25C8.65782 24.85 8.2186 24.5 7.71664 24.5ZM8.03037 26H7.40292V25.25C7.40292 25.1 7.52841 25 7.71664 25C7.90488 25 8.03037 25.1 8.03037 25.25V26ZM7.71664 22C7.21468 22 6.77547 22.35 6.77547 22.75V23.75C6.77547 23.9 6.90096 24 7.08919 24H8.34409C8.53233 24 8.65782 23.9 8.65782 23.75V22.75C8.65782 22.35 8.2186 22 7.71664 22ZM8.03037 23.5H7.40292V22.75C7.40292 22.6 7.52841 22.5 7.71664 22.5C7.90488 22.5 8.03037 22.6 8.03037 22.75V23.5ZM3.32449 20C3.51272 20 3.63821 19.9 3.63821 19.75V18.75C3.63821 18.35 3.199 18 2.69704 18C2.19508 18 1.75586 18.35 1.75586 18.75V19.75C1.75586 19.9 1.88135 20 2.06958 20H3.32449ZM2.38331 18.75C2.38331 18.6 2.5088 18.5 2.69704 18.5C2.88527 18.5 3.01076 18.6 3.01076 18.75V19.5H2.38331V18.75ZM2.06958 17.5H3.32449C3.51272 17.5 3.63821 17.4 3.63821 17.25V16.25C3.63821 15.85 3.199 15.5 2.69704 15.5C2.19508 15.5 1.75586 15.85 1.75586 16.25V17.25C1.75586 17.4 1.88135 17.5 2.06958 17.5ZM2.38331 16.25C2.38331 16.1 2.5088 16 2.69704 16C2.88527 16 3.01076 16.1 3.01076 16.25V17H2.38331V16.25ZM4.57939 20H5.83429C6.02253 20 6.14802 19.9 6.14802 19.75V18.75C6.14802 18.35 5.7088 18 5.20684 18C4.70488 18 4.26566 18.35 4.26566 18.75V19.75C4.26566 19.9 4.39115 20 4.57939 20ZM4.89311 18.75C4.89311 18.6 5.0186 18.5 5.20684 18.5C5.39507 18.5 5.52057 18.6 5.52057 18.75V19.5H4.89311V18.75ZM4.57939 17.5H5.83429C6.02253 17.5 6.14802 17.4 6.14802 17.25V16.25C6.14802 15.85 5.7088 15.5 5.20684 15.5C4.70488 15.5 4.26566 15.85 4.26566 16.25V17.25C4.26566 17.4 4.39115 17.5 4.57939 17.5ZM4.89311 16.25C4.89311 16.1 5.0186 16 5.20684 16C5.39507 16 5.52057 16.1 5.52057 16.25V17H4.89311V16.25ZM27.7951 18C27.2931 18 26.8539 18.35 26.8539 18.75V19.75C26.8539 19.9 26.9794 20 27.1676 20H28.4225C28.6108 20 28.7362 19.9 28.7362 19.75V18.75C28.7362 18.35 28.297 18 27.7951 18ZM28.1088 19.5H27.4813V18.75C27.4813 18.6 27.6068 18.5 27.7951 18.5C27.9833 18.5 28.1088 18.6 28.1088 18.75V19.5ZM27.7951 15.5C27.2931 15.5 26.8539 15.85 26.8539 16.25V17.25C26.8539 17.4 26.9794 17.5 27.1676 17.5H28.4225C28.6108 17.5 28.7362 17.4 28.7362 17.25V16.25C28.7362 15.85 28.297 15.5 27.7951 15.5ZM28.1088 17H27.4813V16.25C27.4813 16.1 27.6068 16 27.7951 16C27.9833 16 28.1088 16.1 28.1088 16.25V17ZM30.3049 18C29.8029 18 29.3637 18.35 29.3637 18.75V19.75C29.3637 19.9 29.4892 20 29.6774 20H30.9323C31.1206 20 31.2461 19.9 31.2461 19.75V18.75C31.2461 18.35 30.8068 18 30.3049 18ZM30.6186 19.5H29.9912V18.75C29.9912 18.6 30.1166 18.5 30.3049 18.5C30.4931 18.5 30.6186 18.6 30.6186 18.75V19.5ZM29.3637 16.25V17.25C29.3637 17.4 29.4892 17.5 29.6774 17.5H30.9323C31.1206 17.5 31.2461 17.4 31.2461 17.25V16.25C31.2461 15.85 30.8068 15.5 30.3049 15.5C29.8029 15.5 29.3637 15.85 29.3637 16.25ZM30.6186 16.25V17H29.9912V16.25C29.9912 16.1 30.1166 16 30.3049 16C30.4931 16 30.6186 16.1 30.6186 16.25Z" fill="white"/>
<path d="M32.1863 21C32.3745 21 32.5 20.9 32.5 20.75V14.75C32.5 14.6 32.3745 14.5 32.1863 14.5H30.6176V11H31.5588C31.7471 11 31.8726 10.9 31.8726 10.75V8.75C31.8726 8.6 31.7471 8.5 31.5588 8.5H30.6176V6.75H30.9314C31.1196 6.75 31.2451 6.65 31.2451 6.5V5C31.2451 4.85 31.1196 4.75 30.9314 4.75H30.6176V3.1C30.6176 2.55 30.3039 2.05 29.6765 1.75L29.3627 1.6V0.75C29.3627 0.6 29.2373 0.5 29.049 0.5C28.8608 0.5 28.7353 0.6 28.7353 0.75V1.6L28.4216 1.75C27.8569 2.05 27.4804 2.55 27.4804 3.1V4.75H27.1667C26.9784 4.75 26.8529 4.85 26.8529 5V6.5C26.8529 6.65 26.9784 6.75 27.1667 6.75H27.4804V8.5H26.5392C26.351 8.5 26.2255 8.6 26.2255 8.75V10.75C26.2255 10.9 26.351 11 26.5392 11H27.4804V11.5H5.51961V11H6.46078C6.64902 11 6.77451 10.9 6.77451 10.75V8.75C6.77451 8.6 6.64902 8.5 6.46078 8.5H5.51961V6.75H5.83333C6.02157 6.75 6.14706 6.65 6.14706 6.5V5C6.14706 4.85 6.02157 4.75 5.83333 4.75H5.51961V3.1C5.51961 2.55 5.20588 2.05 4.57843 1.75L4.26471 1.6V0.75C4.26471 0.6 4.13922 0.5 3.95098 0.5C3.76275 0.5 3.63726 0.6 3.63726 0.75V1.6L3.32353 1.75C2.75882 2.05 2.38235 2.55 2.38235 3.1V4.75H2.06863C1.88039 4.75 1.7549 4.85 1.7549 5V6.5C1.7549 6.65 1.88039 6.75 2.06863 6.75H2.38235V8.5H1.44118C1.25294 8.5 1.12745 8.6 1.12745 8.75V10.75C1.12745 10.9 1.25294 11 1.44118 11H2.38235V14.5H0.813726C0.62549 14.5 0.5 14.6 0.5 14.75V20.75C0.5 20.9 0.62549 21 0.813726 21H1.7549V32H0.813726C0.62549 32 0.5 32.1 0.5 32.25C0.5 32.4 0.62549 32.5 0.813726 32.5H32.1863C32.3745 32.5 32.5 32.4 32.5 32.25C32.5 32.1 32.3745 32 32.1863 32H31.2451V21H32.1863ZM31.8726 20.5H26.2255V15H31.8726V20.5ZM23.402 20.5H22.4608V18.25C22.4608 17.5 23.151 17.15 23.402 17C23.6529 17.1 24.3431 17.45 24.3431 18.25V20.5H23.402ZM23.5275 16.5H23.3392C23.2765 16.5 21.8333 16.95 21.8333 18.25V20.5H21.2059V18.25C21.2059 16.95 19.8255 16.55 19.7627 16.5H19.5745C19.5118 16.5 18.0686 16.95 18.0686 18.25V20.5H14.9314V18.25C14.9314 16.95 13.551 16.55 13.4882 16.5H13.3C13.2373 16.5 11.7941 16.95 11.7941 18.25V20.5H11.1667V18.25C11.1667 16.95 9.78628 16.55 9.72353 16.5H9.5353C9.47255 16.5 8.02941 16.95 8.02941 18.25V20.5H7.40196V15H8.02941V15.25C8.02941 15.4 8.1549 15.5 8.34314 15.5C8.53137 15.5 8.65686 15.4 8.65686 15.25V15H9.28431V15.25C9.28431 15.4 9.4098 15.5 9.59804 15.5C9.78627 15.5 9.91177 15.4 9.91177 15.25V15H10.5392V15.25C10.5392 15.4 10.6647 15.5 10.8529 15.5C11.0412 15.5 11.1667 15.4 11.1667 15.25V15H11.7941V15.25C11.7941 15.4 11.9196 15.5 12.1078 15.5C12.2961 15.5 12.4216 15.4 12.4216 15.25V15H13.049V15.25C13.049 15.4 13.1745 15.5 13.3627 15.5C13.551 15.5 13.6765 15.4 13.6765 15.25V15H14.3039V15.25C14.3039 15.4 14.4294 15.5 14.6176 15.5C14.8059 15.5 14.9314 15.4 14.9314 15.25V15H15.5588V15.25C15.5588 15.4 15.6843 15.5 15.8725 15.5C16.0608 15.5 16.1863 15.4 16.1863 15.25V15H16.8137V15.25C16.8137 15.4 16.9392 15.5 17.1275 15.5C17.3157 15.5 17.4412 15.4 17.4412 15.25V15H18.0686V15.25C18.0686 15.4 18.1941 15.5 18.3824 15.5C18.5706 15.5 18.6961 15.4 18.6961 15.25V15H19.3235V15.25C19.3235 15.4 19.449 15.5 19.6373 15.5C19.8255 15.5 19.951 15.4 19.951 15.25V15H20.5784V15.25C20.5784 15.4 20.7039 15.5 20.8922 15.5C21.0804 15.5 21.2059 15.4 21.2059 15.25V15H21.8333V15.25C21.8333 15.4 21.9588 15.5 22.1471 15.5C22.3353 15.5 22.4608 15.4 22.4608 15.25V15H23.0882V15.25C23.0882 15.4 23.2137 15.5 23.402 15.5C23.5902 15.5 23.7157 15.4 23.7157 15.25V15H24.3431V15.25C24.3431 15.4 24.4686 15.5 24.6569 15.5C24.8451 15.5 24.9706 15.4 24.9706 15.25V15H25.598V20.5H24.9706V18.25C24.9706 16.95 23.5902 16.55 23.5275 16.5ZM18.6961 20.5V18.25C18.6961 17.5 19.3863 17.15 19.6373 17C19.8882 17.1 20.5784 17.45 20.5784 18.25V20.5H18.6961ZM12.4216 20.5V18.25C12.4216 17.5 13.1118 17.15 13.3627 17C13.6137 17.1 14.3039 17.45 14.3039 18.25V20.5H12.4216ZM9.59804 20.5H8.65686V18.25C8.65686 17.5 9.34706 17.15 9.59804 17C9.84902 17.1 10.5392 17.45 10.5392 18.25V20.5H9.59804ZM5.51961 13H27.4804V14.5H26.2255V14.25C26.2255 13.85 25.7863 13.5 25.2843 13.5C24.7824 13.5 24.3431 13.85 24.3431 14.25V14.5H23.7157V14.25C23.7157 13.85 23.2765 13.5 22.7745 13.5C22.2725 13.5 21.8333 13.85 21.8333 14.25V14.5H21.2059V14.25C21.2059 13.85 20.7667 13.5 20.2647 13.5C19.7627 13.5 19.3235 13.85 19.3235 14.25V14.5H18.6961V14.25C18.6961 13.85 18.2569 13.5 17.7549 13.5C17.2529 13.5 16.8137 13.85 16.8137 14.25V14.5H16.1863V14.25C16.1863 13.85 15.7471 13.5 15.2451 13.5C14.7431 13.5 14.3039 13.85 14.3039 14.25V14.5H13.6765V14.25C13.6765 13.85 13.2373 13.5 12.7353 13.5C12.2333 13.5 11.7941 13.85 11.7941 14.25V14.5H11.1667V14.25C11.1667 13.85 10.7275 13.5 10.2255 13.5C9.72353 13.5 9.28431 13.85 9.28431 14.25V14.5H8.65686V14.25C8.65686 13.85 8.21765 13.5 7.71569 13.5C7.21373 13.5 6.77451 13.85 6.77451 14.25V14.5H5.51961V13ZM25.598 14.5H24.9706V14.25C24.9706 14.1 25.0961 14 25.2843 14C25.4725 14 25.598 14.1 25.598 14.25V14.5ZM23.0882 14.5H22.4608V14.25C22.4608 14.1 22.5863 14 22.7745 14C22.9627 14 23.0882 14.1 23.0882 14.25V14.5ZM20.5784 14.5H19.951V14.25C19.951 14.1 20.0765 14 20.2647 14C20.4529 14 20.5784 14.1 20.5784 14.25V14.5ZM18.0686 14.5H17.4412V14.25C17.4412 14.1 17.5667 14 17.7549 14C17.9431 14 18.0686 14.1 18.0686 14.25V14.5ZM15.5588 14.5H14.9314V14.25C14.9314 14.1 15.0569 14 15.2451 14C15.4333 14 15.5588 14.1 15.5588 14.25V14.5ZM13.049 14.5H12.4216V14.25C12.4216 14.1 12.5471 14 12.7353 14C12.9235 14 13.049 14.1 13.049 14.25V14.5ZM10.5392 14.5H9.91177V14.25C9.91177 14.1 10.0373 14 10.2255 14C10.4137 14 10.5392 14.1 10.5392 14.25V14.5ZM8.02941 14.5H7.40196V14.25C7.40196 14.1 7.52745 14 7.71569 14C7.90392 14 8.02941 14.1 8.02941 14.25V14.5ZM30.6176 6.25H29.9902V6C29.9902 5.85 29.8647 5.75 29.6765 5.75C29.4882 5.75 29.3627 5.85 29.3627 6V6.25H28.7353V6C28.7353 5.85 28.6098 5.75 28.4216 5.75C28.2333 5.75 28.1078 5.85 28.1078 6V6.25H27.4804V5.25H30.6176V6.25ZM28.7353 2.2L29.049 2.05L29.3627 2.2C29.7392 2.4 29.9275 2.7 29.9902 3H28.1078C28.1706 2.65 28.3588 2.35 28.7353 2.2ZM28.1078 3.5H29.9902V4.75H29.3627V4.25C29.3627 4.1 29.2373 4 29.049 4C28.8608 4 28.7353 4.1 28.7353 4.25V4.75H28.1078V3.5ZM28.1078 6.75H29.9902V8.5H28.1078V6.75ZM26.8529 10.5V9H31.2451V10.5H30.6176V9.75C30.6176 9.6 30.4922 9.5 30.3039 9.5C30.1157 9.5 29.9902 9.6 29.9902 9.75V10.5H29.3627V9.75C29.3627 9.6 29.2373 9.5 29.049 9.5C28.8608 9.5 28.7353 9.6 28.7353 9.75V10.5H28.1078V9.75C28.1078 9.6 27.9824 9.5 27.7941 9.5C27.6059 9.5 27.4804 9.6 27.4804 9.75V10.5H26.8529ZM29.9902 11V14.5H28.1078V11H29.9902ZM27.4804 12V12.5H5.51961V12H27.4804ZM5.51961 6.25H4.89216V6C4.89216 5.85 4.76667 5.75 4.57843 5.75C4.3902 5.75 4.26471 5.85 4.26471 6V6.25H3.63726V6C3.63726 5.85 3.51176 5.75 3.32353 5.75C3.13529 5.75 3.0098 5.85 3.0098 6V6.25H2.38235V5.25H5.51961V6.25ZM3.63726 2.2L3.95098 2.05L4.26471 2.2C4.64118 2.4 4.82941 2.7 4.89216 3H3.0098C3.07255 2.65 3.26078 2.35 3.63726 2.2ZM3.0098 3.5H4.89216V4.75H4.26471V4.25C4.26471 4.1 4.13922 4 3.95098 4C3.76275 4 3.63726 4.1 3.63726 4.25V4.75H3.0098V3.5ZM3.0098 6.75H4.89216V8.5H3.0098V6.75ZM1.7549 10.5V9H6.14706V10.5H5.51961V9.75C5.51961 9.6 5.39412 9.5 5.20588 9.5C5.01765 9.5 4.89216 9.6 4.89216 9.75V10.5H4.26471V9.75C4.26471 9.6 4.13922 9.5 3.95098 9.5C3.76275 9.5 3.63726 9.6 3.63726 9.75V10.5H3.0098V9.75C3.0098 9.6 2.88431 9.5 2.69608 9.5C2.50784 9.5 2.38235 9.6 2.38235 9.75V10.5H1.7549ZM3.0098 11H4.89216V14.5H3.0098V11ZM1.12745 15H6.77451V20.5H1.12745V15ZM2.38235 21H5.51961V32H2.38235V21ZM6.14706 21H6.77451V21.25C6.77451 21.4 6.9 21.5 7.08824 21.5C7.27647 21.5 7.40196 21.4 7.40196 21.25V21H8.02941V21.25C8.02941 21.4 8.1549 21.5 8.34314 21.5C8.53137 21.5 8.65686 21.4 8.65686 21.25V21H9.28431V32H6.14706V21ZM9.91177 21H10.5392V21.25C10.5392 21.4 10.6647 21.5 10.8529 21.5C11.0412 21.5 11.1667 21.4 11.1667 21.25V21H11.7941V21.25C11.7941 21.4 11.9196 21.5 12.1078 21.5C12.2961 21.5 12.4216 21.4 12.4216 21.25V21H13.049V21.25C13.049 21.4 13.1745 21.5 13.3627 21.5C13.551 21.5 13.6765 21.4 13.6765 21.25V21H14.3039V21.25C14.3039 21.4 14.4294 21.5 14.6176 21.5C14.8059 21.5 14.9314 21.4 14.9314 21.25V21H15.5588V21.25C15.5588 21.4 15.6843 21.5 15.8725 21.5C16.0608 21.5 16.1863 21.4 16.1863 21.25V21H16.8137V21.25C16.8137 21.4 16.9392 21.5 17.1275 21.5C17.3157 21.5 17.4412 21.4 17.4412 21.25V21H18.0686V21.25C18.0686 21.4 18.1941 21.5 18.3824 21.5C18.5706 21.5 18.6961 21.4 18.6961 21.25V21H19.3235V21.25C19.3235 21.4 19.449 21.5 19.6373 21.5C19.8255 21.5 19.951 21.4 19.951 21.25V21H20.5784V21.25C20.5784 21.4 20.7039 21.5 20.8922 21.5C21.0804 21.5 21.2059 21.4 21.2059 21.25V21H21.8333V21.25C21.8333 21.4 21.9588 21.5 22.1471 21.5C22.3353 21.5 22.4608 21.4 22.4608 21.25V21H23.0882V32H21.8333V27.05C21.8333 25.35 20.6412 23.8 18.5706 22.9L16.6255 22.05C16.5 22 16.4373 22 16.3118 22.05L14.3667 22.9C12.3588 23.8 11.1039 25.35 11.1039 27.05V32H9.84902V21H9.91177ZM21.2059 32H11.7941V27.05C11.7941 25.55 12.8608 24.15 14.6804 23.35L16.5 22.55L18.2569 23.35C20.0765 24.15 21.2059 25.55 21.2059 27.05V32ZM23.7157 21H24.3431V21.25C24.3431 21.4 24.4686 21.5 24.6569 21.5C24.8451 21.5 24.9706 21.4 24.9706 21.25V21H25.598V21.25C25.598 21.4 25.7235 21.5 25.9118 21.5C26.1 21.5 26.2255 21.4 26.2255 21.25V21H26.8529V32H23.7157V21ZM30.6176 32H27.4804V21H30.6176V32Z" fill="white"/>
<path d="M11.4813 23.5C11.9832 23.5 12.4224 23.15 12.4224 22.75C12.4224 22.35 11.9832 22 11.4813 22C10.9793 22 10.5401 22.35 10.5401 22.75C10.5401 23.15 10.9793 23.5 11.4813 23.5ZM11.4813 22.5C11.6695 22.5 11.795 22.6 11.795 22.75C11.795 22.9 11.6695 23 11.4813 23C11.293 23 11.1675 22.9 11.1675 22.75C11.1675 22.6 11.293 22.5 11.4813 22.5ZM21.5205 23.5C22.0224 23.5 22.4617 23.15 22.4617 22.75C22.4617 22.35 22.0224 22 21.5205 22C21.0185 22 20.5793 22.35 20.5793 22.75C20.5793 23.15 21.0185 23.5 21.5205 23.5ZM21.5205 22.5C21.7087 22.5 21.8342 22.6 21.8342 22.75C21.8342 22.9 21.7087 23 21.5205 23C21.3323 23 21.2068 22.9 21.2068 22.75C21.2068 22.6 21.3323 22.5 21.5205 22.5ZM16.5009 17C15.9989 17 15.5597 17.35 15.5597 17.75C15.5597 18.15 15.9989 18.5 16.5009 18.5C17.0028 18.5 17.4421 18.15 17.4421 17.75C17.4421 17.35 17.0028 17 16.5009 17ZM16.5009 18C16.3126 18 16.1872 17.9 16.1872 17.75C16.1872 17.6 16.3126 17.5 16.5009 17.5C16.6891 17.5 16.8146 17.6 16.8146 17.75C16.8146 17.9 16.6891 18 16.5009 18ZM7.71657 27C7.21461 27 6.77539 27.35 6.77539 27.75V28.75C6.77539 28.9 6.90088 29 7.08912 29H8.34402C8.53225 29 8.65774 28.9 8.65774 28.75V27.75C8.65774 27.35 8.21853 27 7.71657 27ZM8.03029 28.5H7.40284V27.75C7.40284 27.6 7.52833 27.5 7.71657 27.5C7.9048 27.5 8.03029 27.6 8.03029 27.75V28.5ZM7.71657 29.5C7.21461 29.5 6.77539 29.85 6.77539 30.25V31.25C6.77539 31.4 6.90088 31.5 7.08912 31.5H8.34402C8.53225 31.5 8.65774 31.4 8.65774 31.25V30.25C8.65774 29.85 8.21853 29.5 7.71657 29.5ZM8.03029 31H7.40284V30.25C7.40284 30.1 7.52833 30 7.71657 30C7.9048 30 8.03029 30.1 8.03029 30.25V31ZM25.2852 22C24.7832 22 24.344 22.35 24.344 22.75V23.75C24.344 23.9 24.4695 24 24.6577 24H25.9126C26.1009 24 26.2264 23.9 26.2264 23.75V22.75C26.2264 22.35 25.7872 22 25.2852 22ZM25.5989 23.5H24.9715V22.75C24.9715 22.6 25.097 22.5 25.2852 22.5C25.4734 22.5 25.5989 22.6 25.5989 22.75V23.5ZM25.2852 24.5C24.7832 24.5 24.344 24.85 24.344 25.25V26.25C24.344 26.4 24.4695 26.5 24.6577 26.5H25.9126C26.1009 26.5 26.2264 26.4 26.2264 26.25V25.25C26.2264 24.85 25.7872 24.5 25.2852 24.5ZM25.5989 26H24.9715V25.25C24.9715 25.1 25.097 25 25.2852 25C25.4734 25 25.5989 25.1 25.5989 25.25V26ZM25.2852 29.5C24.7832 29.5 24.344 29.85 24.344 30.25V31.25C24.344 31.4 24.4695 31.5 24.6577 31.5H25.9126C26.1009 31.5 26.2264 31.4 26.2264 31.25V30.25C26.2264 29.85 25.7872 29.5 25.2852 29.5ZM25.5989 31H24.9715V30.25C24.9715 30.1 25.097 30 25.2852 30C25.4734 30 25.5989 30.1 25.5989 30.25V31ZM25.2852 27C24.7832 27 24.344 27.35 24.344 27.75V28.75C24.344 28.9 24.4695 29 24.6577 29H25.9126C26.1009 29 26.2264 28.9 26.2264 28.75V27.75C26.2264 27.35 25.7872 27 25.2852 27ZM25.5989 28.5H24.9715V27.75C24.9715 27.6 25.097 27.5 25.2852 27.5C25.4734 27.5 25.5989 27.6 25.5989 27.75V28.5Z" fill="white"/>
</svg>
