<svg xmlns="http://www.w3.org/2000/svg" data-name="Layer 1" viewBox="0 0 48 48"><path fill="#00dbff" d="M41.32 21.94v-2.55a1.53 1.53 0 0 0-1-1.43v-.61a.5.5 0 0 0-.5-.5.51.51 0 0 0-.5.5V18a1.52 1.52 0 0 0-1 1.43v2.55a1 1 0 0 0-1 1V26h-1v-1a2 2 0 0 0-1.53-2v-.59a.5.5 0 0 0-.5-.5.51.51 0 0 0-.5.5V23a2 2 0 0 0-1.53 2v1h-1v-3.56a1.5 1.5 0 0 0-1-1.42v-.61a.5.5 0 0 0-1 0V21a1.5 1.5 0 0 0-1 1.42V24H28l-.37-2.22a1 1 0 0 0-.57-.74v-2.16a3.05 3.05 0 0 0-1.53-2.63v-3a1.53 1.53 0 0 0-1-1.43v-.61a.5.5 0 0 0-1 0v.61a1.53 1.53 0 0 0-1 1.43v3A3.05 3.05 0 0 0 21 18.88V21a1 1 0 0 0-.57.73L20 24h-.09v-1.56a1.5 1.5 0 0 0-1-1.42v-.61a.5.5 0 0 0-1 0V21a1.5 1.5 0 0 0-1 1.42V26h-1v-1a2 2 0 0 0-1.52-2v-.59a.51.51 0 0 0-.5-.5.5.5 0 0 0-.5.5V23a2 2 0 0 0-1.53 2v1h-1v-3.06a1 1 0 0 0-1-1v-2.55a1.52 1.52 0 0 0-1-1.43v-.61a.51.51 0 0 0-.5-.5.5.5 0 0 0-.5.5V18a1.53 1.53 0 0 0-1 1.43v2.55a1 1 0 0 0-1 1v14.28h36.46V22.94a1 1 0 0 0-1-1Zm-2-2.55a.52.52 0 1 1 1 0v2.55h-1ZM33.15 25a1 1 0 1 1 2.06 0v1h-2.06Zm-1 2h5.1v4.09h-2.6v-1.52a.5.5 0 0 0-.5-.5.5.5 0 0 0-.5.5v1.54h-2.53V27ZM22 19.89h4.1v1H22Zm4.68 2L27 24h-6l.34-2.05Zm2.45.51a.52.52 0 0 1 1 0V24h-1Zm-5.6-6.61v-2.51a.52.52 0 0 1 1 0v2.55Zm.52 1a2.05 2.05 0 0 1 2.05 2.05H22a2.05 2.05 0 0 1 2-2.01Zm-6.12 5.61a.52.52 0 0 1 1 0V24h-1ZM12.79 25a1 1 0 1 1 2.05 0v1h-2.05Zm-1 2h5.09v4.09h-2.73v-1.52a.5.5 0 0 0-.5-.5.5.5 0 0 0-.5.5v1.54h-2.4V27h1ZM7.7 19.39a.52.52 0 1 1 1 0v2.55h-1Zm-1 3.55h3.05V26H6.68ZM9.75 27v4.08h-1v-1.51a.5.5 0 0 0-.5-.5.5.5 0 0 0-.5.5v1.54h-1V27Zm-3.07 5.11h3.07v4.15h-1v-1.6a.51.51 0 0 0-.5-.5.5.5 0 0 0-.5.5v1.6h-1Zm7.47 4.15v-1.6a.5.5 0 0 0-.5-.5.51.51 0 0 0-.5.5v1.6h-2.4v-4.15h6.13v4.15ZM17.88 26v-1h2.06v11.26h-2.06ZM23 36.26V28a1 1 0 0 1 2 0v8.22ZM24 26a2 2 0 0 0-2 2v8.22h-1V25h6.12v11.26H26V28a2 2 0 0 0-2-2Zm6.12 10.24h-2.06V25h2.06v11.26Zm1-4.15h6.13v4.15h-2.6v-1.6a.5.5 0 0 0-.5-.5.51.51 0 0 0-.5.5v1.6h-2.53Zm9.16 4.15v-1.6a.5.5 0 0 0-.5-.5.51.51 0 0 0-.5.5v1.6h-1v-4.13h3.07v4.15Zm1-5.15h-1v-1.52a.5.5 0 0 0-.5-.5.5.5 0 0 0-.5.5v1.54h-1V27h3.07ZM38.25 26v-3.06h3.07V26Z"/></svg>