<svg width="33" height="25" viewBox="0 0 33 25" fill="none" xmlns="http://www.w3.org/2000/svg">
<path d="M31.6223 10.7049V8.46684C31.6214 8.19313 31.5368 7.92623 31.38 7.70192C31.2231 7.47761 31.0014 7.30659 30.7446 7.21177V6.67639C30.7446 6.56 30.6984 6.44838 30.6161 6.36608C30.5338 6.28379 30.4222 6.23755 30.3058 6.23755C30.1901 6.2398 30.0798 6.28675 29.998 6.36857C29.9162 6.45039 29.8692 6.56071 29.867 6.67639V7.24688C29.6095 7.34062 29.3871 7.51137 29.2301 7.73592C29.0731 7.96048 28.989 8.22794 28.9893 8.50195V10.74C28.7565 10.74 28.5333 10.8325 28.3687 10.9971C28.2041 11.1617 28.1116 11.3849 28.1116 11.6177V14.2683H27.234V13.3906C27.2452 12.9884 27.1179 12.5946 26.8735 12.2751C26.629 11.9555 26.2822 11.7296 25.8911 11.6352V11.1174C25.8911 11.001 25.8449 10.8894 25.7626 10.8071C25.6803 10.7248 25.5687 10.6786 25.4523 10.6786C25.3366 10.6808 25.2263 10.7278 25.1445 10.8096C25.0626 10.8914 25.0157 11.0017 25.0134 11.1174V11.6352C24.6223 11.7296 24.2755 11.9555 24.0311 12.2751C23.7866 12.5946 23.6594 12.9884 23.6706 13.3906V14.2683H22.7929V11.1438C22.794 10.8706 22.7101 10.604 22.5528 10.3807C22.3956 10.1574 22.1727 9.98849 21.9152 9.89745V9.36207C21.9152 9.24569 21.869 9.13406 21.7867 9.05177C21.7044 8.96947 21.5928 8.92323 21.4764 8.92323C21.36 8.92323 21.2484 8.96947 21.1661 9.05177C21.0838 9.13406 21.0376 9.24569 21.0376 9.36207V9.8799C20.7801 9.97094 20.5573 10.1398 20.4 10.3631C20.2428 10.5864 20.1588 10.8531 20.1599 11.1262V12.5129H19.9317L19.607 10.5645C19.5827 10.4237 19.5245 10.2909 19.4373 10.1777C19.3501 10.0646 19.2366 9.97437 19.1067 9.91501V8.01923C19.1045 7.5506 18.9793 7.09076 18.7437 6.68568C18.508 6.28061 18.1701 5.94449 17.7639 5.71095V3.07793C17.7629 2.80421 17.6783 2.53731 17.5215 2.313C17.3646 2.08869 17.143 1.91767 16.8862 1.82285V1.28747C16.8862 1.17108 16.8399 1.05946 16.7576 0.977165C16.6753 0.894867 16.5637 0.848633 16.4473 0.848633C16.331 0.848633 16.2193 0.894867 16.137 0.977165C16.0547 1.05946 16.0085 1.17108 16.0085 1.28747V1.82285C15.7517 1.91767 15.5301 2.08869 15.3732 2.313C15.2163 2.53731 15.1318 2.80421 15.1308 3.07793V5.71095C14.7245 5.94449 14.3867 6.28061 14.151 6.68568C13.9154 7.09076 13.7902 7.5506 13.788 8.01923V9.8799C13.6591 9.93844 13.5463 10.0273 13.4592 10.1388C13.3721 10.2504 13.3133 10.3814 13.2877 10.5206L12.9103 12.5129H12.8313V11.1438C12.8324 10.8706 12.7485 10.604 12.5912 10.3807C12.434 10.1574 12.2111 9.98849 11.9536 9.89745V9.36207C11.9536 9.24569 11.9074 9.13406 11.8251 9.05177C11.7428 8.96947 11.6312 8.92323 11.5148 8.92323C11.3984 8.92323 11.2868 8.96947 11.2045 9.05177C11.1222 9.13406 11.076 9.24569 11.076 9.36207V9.8799C10.8185 9.97094 10.5957 10.1398 10.4384 10.3631C10.2812 10.5864 10.1972 10.8531 10.1983 11.1262V14.2683H9.32062V13.3906C9.33231 12.9896 9.2063 12.5967 8.96356 12.2773C8.72083 11.958 8.37603 11.7314 7.98656 11.6352V11.1174C7.98431 11.0017 7.93736 10.8914 7.85554 10.8096C7.77373 10.7278 7.66341 10.6808 7.54772 10.6786C7.43134 10.6786 7.31972 10.7248 7.23742 10.8071C7.15512 10.8894 7.10889 11.001 7.10889 11.1174V11.6352C6.71779 11.7296 6.37099 11.9555 6.12653 12.2751C5.88208 12.5946 5.75482 12.9884 5.76604 13.3906V14.2683H4.88837V11.5826C4.88837 11.3498 4.7959 11.1266 4.63131 10.962C4.46671 10.7974 4.24347 10.7049 4.0107 10.7049V8.46684C4.01101 8.19283 3.92693 7.92537 3.7699 7.70082C3.61287 7.47626 3.3905 7.30551 3.13302 7.21177V6.67639C3.13078 6.56071 3.08382 6.45039 3.002 6.36857C2.92019 6.28675 2.80987 6.2398 2.69419 6.23755C2.5778 6.23755 2.46618 6.28379 2.38388 6.36608C2.30158 6.44838 2.25535 6.56 2.25535 6.67639V7.24688C1.99858 7.34169 1.77691 7.51271 1.62005 7.73703C1.46318 7.96134 1.37862 8.22823 1.37767 8.50195V10.74C1.1449 10.74 0.92166 10.8325 0.757065 10.9971C0.592469 11.1617 0.5 11.3849 0.5 11.6177V24.1509H32.5V11.5826C32.5 11.3498 32.4075 11.1266 32.2429 10.962C32.0783 10.7974 31.8551 10.7049 31.6223 10.7049ZM29.867 8.46684C29.8476 8.39892 29.8442 8.32742 29.8571 8.25798C29.8701 8.18853 29.8989 8.12303 29.9415 8.06664C29.984 8.01025 30.0391 7.9645 30.1023 7.933C30.1655 7.90149 30.2352 7.8851 30.3058 7.8851C30.3765 7.8851 30.4461 7.90149 30.5094 7.933C30.5726 7.9645 30.6276 8.01025 30.6702 8.06664C30.7127 8.12303 30.7416 8.18853 30.7545 8.25798C30.7674 8.32742 30.7641 8.39892 30.7446 8.46684V10.7049H29.867V8.46684ZM24.4517 13.3906C24.4517 13.1508 24.547 12.9209 24.7165 12.7514C24.886 12.5818 25.116 12.4866 25.3557 12.4866C25.5955 12.4866 25.8254 12.5818 25.995 12.7514C26.1645 12.9209 26.2597 13.1508 26.2597 13.3906V14.2683H24.4517V13.3906ZM28.0502 15.1459V18.7356H25.7682V17.4016C25.7682 17.2852 25.722 17.1736 25.6397 17.0913C25.5574 17.009 25.4458 16.9627 25.3294 16.9627C25.213 16.9627 25.1014 17.009 25.0191 17.0913C24.9368 17.1736 24.8906 17.2852 24.8906 17.4016V18.7532H22.67V15.1459H28.0502ZM14.6657 8.90568H18.2641V9.78335H14.6657V8.90568ZM18.7732 10.661L19.054 12.5129H13.788L14.0864 10.7137L18.7732 10.661ZM20.9235 11.1086C20.9507 11.0133 21.0083 10.9294 21.0875 10.8696C21.1666 10.8099 21.2631 10.7776 21.3623 10.7776C21.4615 10.7776 21.558 10.8099 21.6372 10.8696C21.7163 10.9294 21.7739 11.0133 21.8012 11.1086V12.5129H20.9235V11.1086ZM16.0085 5.30722V3.10426C16.0357 3.00889 16.0933 2.92499 16.1725 2.86526C16.2517 2.80553 16.3482 2.77322 16.4473 2.77322C16.5465 2.77322 16.643 2.80553 16.7222 2.86526C16.8014 2.92499 16.8589 3.00889 16.8862 3.10426V5.34232L16.0085 5.30722ZM16.4649 6.18489C16.7012 6.18489 16.9351 6.23143 17.1534 6.32185C17.3717 6.41227 17.5701 6.5448 17.7371 6.71187C17.9042 6.87895 18.0367 7.07729 18.1272 7.29559C18.2176 7.51388 18.2641 7.74785 18.2641 7.98412H14.6657C14.6746 7.52055 14.8621 7.07831 15.1891 6.74963C15.5162 6.42096 15.9575 6.23122 16.421 6.22L16.4649 6.18489ZM11.0935 11.1086C11.1208 11.0133 11.1783 10.9294 11.2575 10.8696C11.3367 10.8099 11.4332 10.7776 11.5324 10.7776C11.6315 10.7776 11.728 10.8099 11.8072 10.8696C11.8864 10.9294 11.944 11.0133 11.9712 11.1086V12.5129H11.0935V11.1086ZM6.58228 13.3906C6.58228 13.152 6.67706 12.9232 6.84577 12.7545C7.01448 12.5858 7.2433 12.491 7.4819 12.491C7.72049 12.491 7.94931 12.5858 8.11802 12.7545C8.28673 12.9232 8.38151 13.152 8.38151 13.3906V14.2683H6.58228V13.3906ZM10.172 15.1459V18.7356H7.77592V17.4016C7.77592 17.2852 7.72968 17.1736 7.64739 17.0913C7.56509 17.009 7.45347 16.9627 7.33708 16.9627C7.22069 16.9627 7.10908 17.009 7.02678 17.0913C6.94448 17.1736 6.89824 17.2852 6.89824 17.4016V18.7532H4.79183V15.1459H10.172ZM2.11492 8.46684C2.09552 8.39892 2.09215 8.32742 2.10507 8.25798C2.118 8.18853 2.14687 8.12303 2.18941 8.06664C2.23195 8.01025 2.287 7.9645 2.35022 7.933C2.41344 7.90149 2.48312 7.8851 2.55376 7.8851C2.6244 7.8851 2.69407 7.90149 2.7573 7.933C2.82052 7.9645 2.87557 8.01025 2.91811 8.06664C2.96065 8.12303 2.98952 8.18853 3.00244 8.25798C3.01537 8.32742 3.012 8.39892 2.99259 8.46684V10.7049H2.11492V8.46684ZM1.23725 11.5826H3.91415V14.2683H1.21969L1.23725 11.5826ZM3.91415 15.1459V18.7269H3.03648V17.4016C3.03648 17.2852 2.99024 17.1736 2.90795 17.0913C2.82565 17.009 2.71403 16.9627 2.59764 16.9627C2.48125 16.9627 2.36963 17.009 2.28734 17.0913C2.20504 17.1736 2.1588 17.2852 2.1588 17.4016V18.7532H1.28113V15.1459H3.91415ZM1.21969 19.6309H3.91415V23.2732H3.03648V21.8689C3.03423 21.7532 2.98728 21.6429 2.90546 21.5611C2.82364 21.4793 2.71332 21.4323 2.59764 21.4301C2.48125 21.4301 2.36963 21.4763 2.28734 21.5586C2.20504 21.6409 2.1588 21.7525 2.1588 21.8689V23.2732H1.28113L1.21969 19.6309ZM7.77592 23.2732V21.8689C7.77592 21.7525 7.72968 21.6409 7.64739 21.5586C7.56509 21.4763 7.45347 21.4301 7.33708 21.4301C7.2214 21.4323 7.11108 21.4793 7.02926 21.5611C6.94745 21.6429 6.90049 21.7532 6.89824 21.8689V23.2732H4.79183V19.6309H10.172V23.2732H7.77592ZM11.0496 13.3906H12.8577V23.2732H11.0496V13.3906ZM15.5433 23.2732V16.0236C15.5433 15.7908 15.6358 15.5676 15.8004 15.403C15.965 15.2384 16.1882 15.1459 16.421 15.1459C16.6538 15.1459 16.877 15.2384 17.0416 15.403C17.2062 15.5676 17.2987 15.7908 17.2987 16.0236V23.2381L15.5433 23.2732ZM16.421 14.2683C15.9555 14.2683 15.509 14.4532 15.1798 14.7824C14.8506 15.1116 14.6657 15.5581 14.6657 16.0236V23.2381H13.788V13.3906H19.1594V23.2732H18.1764V16.0236C18.1764 15.5581 17.9914 15.1116 17.6622 14.7824C17.333 14.4532 16.8866 14.2683 16.421 14.2683ZM21.7924 23.2557H19.9844V13.3906H21.7924V23.2732V23.2557ZM22.67 19.6133H28.0502V23.2557H25.7682V21.8514C25.7682 21.735 25.722 21.6234 25.6397 21.5411C25.5574 21.4588 25.4458 21.4125 25.3294 21.4125C25.2137 21.4148 25.1034 21.4617 25.0216 21.5436C24.9398 21.6254 24.8928 21.7357 24.8906 21.8514V23.2557H22.67V19.6133ZM30.7095 23.2557V21.8514C30.7095 21.735 30.6633 21.6234 30.581 21.5411C30.4987 21.4588 30.3871 21.4125 30.2707 21.4125C30.155 21.4148 30.0447 21.4617 29.9629 21.5436C29.8811 21.6254 29.8341 21.7357 29.8319 21.8514V23.2557H28.9542V19.6309H31.6487V23.2732L30.7095 23.2557ZM31.5872 18.7356H30.7095V17.4016C30.7095 17.2852 30.6633 17.1736 30.581 17.0913C30.4987 17.009 30.3871 16.9627 30.2707 16.9627C30.1543 16.9627 30.0427 17.009 29.9604 17.0913C29.8781 17.1736 29.8319 17.2852 29.8319 17.4016V18.7532H28.9542V15.1459H31.6487L31.5872 18.7356ZM28.9279 14.2683V11.5826H31.6223V14.2683H28.9279Z" fill="white"/>
</svg>
