<svg width="33" height="27" viewBox="0 0 33 27" fill="none" xmlns="http://www.w3.org/2000/svg">
<path d="M32.2252 25.7777H30.9562V14.8063H31.7176C31.8191 14.8063 31.9206 14.7541 31.9714 14.6496L32.479 13.0822C32.5297 12.9777 32.479 12.9255 32.4282 12.821C32.3775 12.7688 32.3267 12.7165 32.2252 12.7165H30.9562V10.6267H31.21C31.3623 10.6267 31.4638 10.5222 31.4638 10.3655V8.79815C31.4638 8.64142 31.3623 8.53693 31.21 8.53693H23.8497V6.70836C23.8497 6.55162 23.7482 6.44713 23.5959 6.44713H23.3421V2.78999C23.3421 2.31979 23.0376 1.90183 22.5807 1.79734V0.96142C22.5807 0.804685 22.4792 0.700195 22.3269 0.700195C22.1746 0.700195 22.0731 0.804685 22.0731 0.96142V1.79734C21.6163 1.90183 21.3117 2.31979 21.3117 2.78999V4.87979H11.6673V2.78999C11.6673 2.31979 11.3627 1.90183 10.9059 1.79734V0.96142C10.9059 0.804685 10.8043 0.700195 10.6521 0.700195C10.4998 0.700195 10.3983 0.804685 10.3983 0.96142V1.79734C9.94141 1.90183 9.63685 2.31979 9.63685 2.78999V6.44713H9.38305C9.23077 6.44713 9.12925 6.55162 9.12925 6.70836V8.53693H1.76901C1.61673 8.53693 1.51521 8.64142 1.51521 8.79815V10.3655C1.51521 10.5222 1.61673 10.6267 1.76901 10.6267H2.02281V12.7165H0.753801C0.652281 12.7165 0.601521 12.7688 0.55076 12.821C0.5 12.8733 0.5 12.9777 0.5 13.0822L1.0076 14.6496C1.05836 14.7541 1.15988 14.8063 1.2614 14.8063H2.02281V25.7777H0.753801C0.601521 25.7777 0.5 25.8822 0.5 26.039C0.5 26.1957 0.601521 26.3002 0.753801 26.3002H32.2252C32.3775 26.3002 32.479 26.1957 32.479 26.039C32.479 25.8822 32.3775 25.7777 32.2252 25.7777ZM31.5145 14.2839H23.8497V13.239H31.8699L31.5145 14.2839ZM12.1749 6.96958H20.8041V10.1043H12.1749V6.96958ZM23.3421 6.96958V10.1043H21.3117V6.96958H23.3421ZM14.7129 10.6267V12.7165H13.6977V10.6267H14.7129ZM15.2205 10.6267H16.2357V12.7165H15.2205V10.6267ZM16.7433 10.6267H17.7585V12.7165H16.7433V10.6267ZM18.2661 10.6267H19.2813V12.7165H18.2661V10.6267ZM19.7889 10.6267H20.8041V12.7165H19.7889V10.6267ZM21.3117 12.7165V10.6267H23.3421V12.7165H21.3117ZM13.1901 10.6267V12.7165H12.1749V10.6267H13.1901ZM11.6673 12.7165H9.63685V10.6267H11.6673V12.7165ZM11.6673 13.239V14.2839H9.63685V13.239H11.6673ZM21.3117 13.239H23.3421V14.2839H21.3117V13.239ZM30.4486 12.7165H23.8497V10.6267H30.4486V12.7165ZM30.9562 9.05938V10.1043H23.8497V9.05938H30.9562ZM21.8193 6.44713V3.83489H22.8345V6.44713H21.8193ZM22.3269 2.26754C22.6315 2.26754 22.8345 2.47652 22.8345 2.78999V3.31244H21.8193V2.78999C21.8193 2.47652 22.0224 2.26754 22.3269 2.26754ZM21.3117 5.40224V6.44713H11.6673V5.40224H21.3117ZM10.6521 2.26754C10.9566 2.26754 11.1597 2.47652 11.1597 2.78999V3.31244H10.1445V2.78999C10.1445 2.47652 10.3475 2.26754 10.6521 2.26754ZM10.1445 3.83489H11.1597V6.44713H10.1445V3.83489ZM9.89065 6.96958H11.6673V10.1043H9.63685V6.96958H9.89065ZM2.02281 9.05938H9.12925V10.1043H2.02281V9.05938ZM2.53041 10.6267H9.12925V12.7165H2.53041V10.6267ZM1.10912 13.239H9.12925V14.2839H1.46445L1.10912 13.239ZM2.53041 14.8063H9.12925V25.7777H8.36784V19.8218C8.36784 18.4112 7.60644 17.1573 6.33743 16.5304C6.18515 16.4259 5.98211 16.4259 5.77907 16.5304C4.56082 17.1573 3.79942 18.4112 3.74866 19.8218V25.7777H2.47965V14.8063H2.53041ZM4.81462 25.7777H4.30702V20.0308H7.86024V25.7777H7.35264V22.3818C7.35264 21.0235 6.23591 20.6055 6.18515 20.5533H6.03287C5.98211 20.5533 4.81462 21.0235 4.81462 22.3818V25.7777ZM4.30702 19.5084C4.40854 18.4112 5.01766 17.4186 6.03287 16.8961H6.13439C7.09884 17.4186 7.75872 18.359 7.86024 19.5084H4.30702ZM5.32223 25.7777V22.3818C5.32223 21.5982 5.88059 21.2324 6.08363 21.0757C6.33743 21.2324 6.84504 21.5982 6.84504 22.3818V25.7777H5.32223ZM9.63685 25.7777V14.8063H11.6673V25.7777H9.63685ZM13.1901 25.7777V20.0831C13.1901 18.5157 13.9515 17.0529 15.2712 16.2169L16.4895 15.381L17.7077 16.1647C19.0275 17.0006 19.7889 18.4635 19.7889 20.0831V25.83H13.1901V25.7777ZM17.9615 15.7467L16.591 14.8586C16.4895 14.8063 16.388 14.8063 16.3372 14.8586L14.9667 15.7467C13.5454 16.6871 12.6825 18.3067 12.6825 20.0831V25.7777H12.1749V13.239H20.8041V25.7777H20.2965V20.0308C20.2965 18.3067 19.4336 16.6871 17.9615 15.7467ZM21.3117 25.7777V14.8063H23.3421V25.7777H21.3117ZM25.1187 20.0308H28.672V25.7777H28.1644V22.3818C28.1644 21.0235 27.0476 20.6055 26.9969 20.5533H26.8446C26.7938 20.5533 25.6263 21.0235 25.6263 22.3818V25.7777H25.1187V20.0308ZM25.1187 19.5084C25.2203 18.4112 25.8294 17.4186 26.8446 16.8961H26.9461C27.9106 17.4186 28.5704 18.359 28.672 19.5084H25.1187ZM26.1339 25.7777V22.3818C26.1339 21.5982 26.6923 21.2324 26.8953 21.0757C27.1491 21.2324 27.6567 21.5982 27.6567 22.3818V25.7777H26.1339ZM29.1796 25.7777V19.8218C29.1796 18.4112 28.4182 17.1573 27.1491 16.4782C26.9969 16.3737 26.7938 16.3737 26.5908 16.4782C25.3725 17.1051 24.5604 18.4112 24.5604 19.8218V25.7777H23.799V14.8063H30.3978V25.7777H29.1796Z" fill="white"/>
</svg>
