<svg width="23" height="19" viewBox="0 0 23 19" fill="none" xmlns="http://www.w3.org/2000/svg">
<path d="M22.8037 18.1983H21.8972V10.3616H22.4411C22.5136 10.3616 22.5861 10.3243 22.6224 10.2496L22.9849 9.13008C23.0212 9.05545 22.9849 9.01813 22.9487 8.94349C22.9124 8.90617 22.8762 8.86886 22.8037 8.86886H21.8972V7.37615H22.0785C22.1873 7.37615 22.2598 7.30151 22.2598 7.18956V6.07002C22.2598 5.95807 22.1873 5.88343 22.0785 5.88343H16.8212V4.57731C16.8212 4.46536 16.7487 4.39072 16.6399 4.39072H16.4586V1.77848C16.4586 1.44262 16.2411 1.14408 15.9148 1.06944V0.472356C15.9148 0.360402 15.8422 0.285767 15.7335 0.285767C15.6247 0.285767 15.5522 0.360402 15.5522 0.472356V1.06944C15.2259 1.14408 15.0083 1.44262 15.0083 1.77848V3.27119H8.11944V1.77848C8.11944 1.44262 7.90189 1.14408 7.57558 1.06944V0.472356C7.57558 0.360402 7.50306 0.285767 7.39429 0.285767C7.28552 0.285767 7.213 0.360402 7.213 0.472356V1.06944C6.88669 1.14408 6.66914 1.44262 6.66914 1.77848V4.39072H6.48786C6.37908 4.39072 6.30657 4.46536 6.30657 4.57731V5.88343H1.04926C0.940484 5.88343 0.867969 5.95807 0.867969 6.07002V7.18956C0.867969 7.30151 0.940484 7.37615 1.04926 7.37615H1.23054V8.86886H0.324109C0.251594 8.86886 0.215337 8.90617 0.17908 8.94349C0.142822 8.98081 0.142822 9.05545 0.142822 9.13008L0.505396 10.2496C0.541653 10.3243 0.614168 10.3616 0.686682 10.3616H1.23054V18.1983H0.324109C0.215337 18.1983 0.142822 18.2729 0.142822 18.3849C0.142822 18.4968 0.215337 18.5715 0.324109 18.5715H22.8037C22.9124 18.5715 22.9849 18.4968 22.9849 18.3849C22.9849 18.2729 22.9124 18.1983 22.8037 18.1983ZM22.2961 9.98839H16.8212V9.24203H22.5499L22.2961 9.98839ZM8.48201 4.7639H14.6458V7.00297H8.48201V4.7639ZM16.4586 4.7639V7.00297H15.0083V4.7639H16.4586ZM10.2949 7.37615V8.86886H9.56973V7.37615H10.2949ZM10.6575 7.37615H11.3826V8.86886H10.6575V7.37615ZM11.7452 7.37615H12.4703V8.86886H11.7452V7.37615ZM12.8329 7.37615H13.558V8.86886H12.8329V7.37615ZM13.9206 7.37615H14.6458V8.86886H13.9206V7.37615ZM15.0083 8.86886V7.37615H16.4586V8.86886H15.0083ZM9.20716 7.37615V8.86886H8.48201V7.37615H9.20716ZM8.11944 8.86886H6.66914V7.37615H8.11944V8.86886ZM8.11944 9.24203V9.98839H6.66914V9.24203H8.11944ZM15.0083 9.24203H16.4586V9.98839H15.0083V9.24203ZM21.5347 8.86886H16.8212V7.37615H21.5347V8.86886ZM21.8972 6.25661V7.00297H16.8212V6.25661H21.8972ZM15.3709 4.39072V2.52483H16.0961V4.39072H15.3709ZM15.7335 1.4053C15.951 1.4053 16.0961 1.55457 16.0961 1.77848V2.15166H15.3709V1.77848C15.3709 1.55457 15.5159 1.4053 15.7335 1.4053ZM15.0083 3.64437V4.39072H8.11944V3.64437H15.0083ZM7.39429 1.4053C7.61183 1.4053 7.75686 1.55457 7.75686 1.77848V2.15166H7.03172V1.77848C7.03172 1.55457 7.17675 1.4053 7.39429 1.4053ZM7.03172 2.52483H7.75686V4.39072H7.03172V2.52483ZM6.85043 4.7639H8.11944V7.00297H6.66914V4.7639H6.85043ZM1.23054 6.25661H6.30657V7.00297H1.23054V6.25661ZM1.59312 7.37615H6.30657V8.86886H1.59312V7.37615ZM0.577911 9.24203H6.30657V9.98839H0.831712L0.577911 9.24203ZM1.59312 10.3616H6.30657V18.1983H5.76271V13.9441C5.76271 12.9365 5.21885 12.0409 4.31242 11.5931C4.20364 11.5184 4.05861 11.5184 3.91359 11.5931C3.04341 12.0409 2.49955 12.9365 2.46329 13.9441V18.1983H1.55686V10.3616H1.59312ZM3.2247 18.1983H2.86212V14.0933H5.40014V18.1983H5.03756V15.7726C5.03756 14.8024 4.2399 14.5038 4.20364 14.4665H4.09487C4.05861 14.4665 3.2247 14.8024 3.2247 15.7726V18.1983ZM2.86212 13.7202C2.93464 12.9365 3.36973 12.2275 4.09487 11.8543H4.16739C4.85628 12.2275 5.32762 12.8992 5.40014 13.7202H2.86212ZM3.58727 18.1983V15.7726C3.58727 15.2129 3.9861 14.9517 4.13113 14.8397C4.31242 14.9517 4.67499 15.2129 4.67499 15.7726V18.1983H3.58727ZM6.66914 18.1983V10.3616H8.11944V18.1983H6.66914ZM9.20716 18.1983V14.1307C9.20716 13.0111 9.75102 11.9662 10.6937 11.3691L11.5639 10.7721L12.4341 11.3318C13.3768 11.9289 13.9206 12.9738 13.9206 14.1307V18.2356H9.20716V18.1983ZM12.6153 11.0333L11.6364 10.3989C11.5639 10.3616 11.4914 10.3616 11.4551 10.3989L10.4762 11.0333C9.46096 11.705 8.84458 12.8619 8.84458 14.1307V18.1983H8.48201V9.24203H14.6458V18.1983H14.2832V14.0933C14.2832 12.8619 13.6668 11.705 12.6153 11.0333ZM15.0083 18.1983V10.3616H16.4586V18.1983H15.0083ZM17.7276 14.0933H20.2656V18.1983H19.9031V15.7726C19.9031 14.8024 19.1054 14.5038 19.0692 14.4665H18.9604C18.9241 14.4665 18.0902 14.8024 18.0902 15.7726V18.1983H17.7276V14.0933ZM17.7276 13.7202C17.8001 12.9365 18.2352 12.2275 18.9604 11.8543H19.0329C19.7218 12.2275 20.1931 12.8992 20.2656 13.7202H17.7276ZM18.4528 18.1983V15.7726C18.4528 15.2129 18.8516 14.9517 18.9966 14.8397C19.1779 14.9517 19.5405 15.2129 19.5405 15.7726V18.1983H18.4528ZM20.6282 18.1983V13.9441C20.6282 12.9365 20.0844 12.0409 19.1779 11.5557C19.0692 11.4811 18.9241 11.4811 18.7791 11.5557C17.9089 12.0036 17.3288 12.9365 17.3288 13.9441V18.1983H16.7849V10.3616H21.4984V18.1983H20.6282Z" fill="white"/>
</svg>
