<svg width="32" height="26" viewBox="0 0 32 26" fill="none" xmlns="http://www.w3.org/2000/svg">
<path d="M3.69995 17.5157H2.19995C2.04995 17.5157 1.94995 17.6056 1.94995 17.7403V19.5368C1.94995 19.6715 2.04995 19.7614 2.19995 19.7614H3.69995C3.84995 19.7614 3.94995 19.6715 3.94995 19.5368V17.7403C3.94995 17.6056 3.84995 17.5157 3.69995 17.5157ZM3.44995 17.9649V18.414H2.44995V17.9649H3.44995ZM2.44995 19.3122V18.8631H3.44995V19.3122H2.44995Z" fill="#17BD3B"/>
<path d="M31.7 25.1509H30.95V21.1088H31.2C31.35 21.1088 31.45 21.0189 31.45 20.8842C31.45 20.7495 31.35 20.6596 31.2 20.6596H30.95V17.0667H31.2C31.35 17.0667 31.45 16.9768 31.45 16.8421C31.45 16.7074 31.35 16.6175 31.2 16.6175H30.95V15.2702H31.2C31.35 15.2702 31.45 15.1804 31.45 15.0456C31.45 14.9109 31.35 14.8211 31.2 14.8211H30.95V13.2491C30.95 13.1144 30.85 13.0246 30.7 13.0246C30.55 13.0246 30.45 13.1144 30.45 13.2491V13.4737H29.95V12.1263H30.2C30.35 12.1263 30.45 12.0365 30.45 11.9018C30.45 11.767 30.35 11.6772 30.2 11.6772H29.95C29.95 11.273 29.65 10.9137 29.2 10.8239V10.1053C29.2 9.97053 29.1 9.8807 28.95 9.8807C28.8 9.8807 28.7 9.97053 28.7 10.1053V10.8239C28.25 10.9137 27.95 11.273 27.95 11.6772H27.7C27.55 11.6772 27.45 11.767 27.45 11.9018C27.45 12.0365 27.55 12.1263 27.7 12.1263H27.95V13.4737H27.45V13.2491C27.45 13.1144 27.35 13.0246 27.2 13.0246C27.05 13.0246 26.95 13.1144 26.95 13.2491V14.8211H26.7C26.55 14.8211 26.45 14.9109 26.45 15.0456C26.45 15.1804 26.55 15.2702 26.7 15.2702H26.95V15.7193H22.95V15.2702H23.2C23.35 15.2702 23.45 15.1804 23.45 15.0456C23.45 14.9109 23.35 14.8211 23.2 14.8211H22.95V12.5754H23.2C23.35 12.5754 23.45 12.4856 23.45 12.3509C23.45 12.2161 23.35 12.1263 23.2 12.1263H22.95C22.85 11.6772 22.45 11.3179 21.95 11.2281V10.5544C21.95 10.4196 21.85 10.3298 21.7 10.3298C21.55 10.3298 21.45 10.4196 21.45 10.5544V11.2281H21.2C20.6 11.2281 20.1 10.8239 20 10.3298H20.7C20.85 10.3298 20.95 10.24 20.95 10.1053V9.20702C20.95 9.07228 20.85 8.98246 20.7 8.98246H19.95V8.08421H20.2C20.35 8.08421 20.45 7.99439 20.45 7.85965C20.45 7.72491 20.35 7.63509 20.2 7.63509H19.95C19.75 6.24281 18.7 5.12 17.25 4.67088V3.14386H17.5C17.65 3.14386 17.75 3.05403 17.75 2.9193C17.75 2.78456 17.65 2.69474 17.5 2.69474H17.25C17.15 2.24561 16.75 1.88632 16.25 1.79649V0.224561C16.25 0.0898246 16.15 0 16 0C15.85 0 15.75 0.0898246 15.75 0.224561V1.79649C15.25 1.88632 14.85 2.24561 14.75 2.69474H14.5C14.35 2.69474 14.25 2.78456 14.25 2.9193C14.25 3.05403 14.35 3.14386 14.5 3.14386H14.75V4.67088C13.3 5.12 12.25 6.24281 12.05 7.63509H11.75C11.6 7.63509 11.5 7.72491 11.5 7.85965C11.5 7.99439 11.6 8.08421 11.75 8.08421H12V8.98246H11.25C11.1 8.98246 11 9.07228 11 9.20702V10.1053C11 10.24 11.1 10.3298 11.25 10.3298H11.95C11.85 10.8239 11.35 11.2281 10.75 11.2281H10.5V10.5544C10.5 10.4196 10.4 10.3298 10.25 10.3298C10.1 10.3298 10 10.4196 10 10.5544V11.2281C9.5 11.3179 9.1 11.6772 9 12.1263H8.75C8.6 12.1263 8.5 12.2161 8.5 12.3509C8.5 12.4856 8.6 12.5754 8.75 12.5754H9V14.8211H8.75C8.6 14.8211 8.5 14.9109 8.5 15.0456C8.5 15.1804 8.6 15.2702 8.75 15.2702H9V15.7193H5V15.2702H5.25C5.4 15.2702 5.5 15.1804 5.5 15.0456C5.5 14.9109 5.4 14.8211 5.25 14.8211H5V13.2491C5 13.1144 4.9 13.0246 4.75 13.0246C4.6 13.0246 4.5 13.1144 4.5 13.2491V13.4737H4V12.1263H4.25C4.4 12.1263 4.5 12.0365 4.5 11.9018C4.5 11.767 4.4 11.6772 4.25 11.6772H4C4 11.273 3.7 10.9137 3.25 10.8239V10.1053C3.25 9.97053 3.15 9.8807 3 9.8807C2.85 9.8807 2.75 9.97053 2.75 10.1053V10.8239C2.3 10.9137 2 11.273 2 11.6772H1.75C1.6 11.6772 1.5 11.767 1.5 11.9018C1.5 12.0365 1.6 12.1263 1.75 12.1263H2V13.4737H1.5V13.2491C1.5 13.1144 1.4 13.0246 1.25 13.0246C1.1 13.0246 1 13.1144 1 13.2491V14.8211H0.75C0.6 14.8211 0.5 14.9109 0.5 15.0456C0.5 15.1804 0.6 15.2702 0.75 15.2702H1V16.6175H0.75C0.6 16.6175 0.5 16.7074 0.5 16.8421C0.5 16.9768 0.6 17.0667 0.75 17.0667H1V20.6596H0.75C0.6 20.6596 0.5 20.7495 0.5 20.8842C0.5 21.0189 0.6 21.1088 0.75 21.1088H1V25.1509H0.25C0.1 25.1509 0 25.2407 0 25.3754C0 25.5102 0.1 25.6 0.25 25.6H31.75C31.9 25.6 32 25.5102 32 25.3754C32 25.2407 31.85 25.1509 31.7 25.1509ZM30.45 20.6596H27.45V17.0667H30.45V20.6596ZM28.95 11.2281C29.25 11.2281 29.45 11.4077 29.45 11.6772H28.45C28.45 11.4077 28.7 11.2281 28.95 11.2281ZM28.45 12.1263H29.45V13.4737H28.45V12.1263ZM27.45 13.9677L28.2 13.9228H30.4V14.8211H27.4V13.9677H27.45ZM30.45 15.2702V16.6175H27.45V15.2702H30.45ZM26.95 16.1684V16.6175H26.7C26.55 16.6175 26.45 16.7074 26.45 16.8421C26.45 16.9768 26.55 17.0667 26.7 17.0667H26.95V17.5158H22.95V17.0667H23.2C23.35 17.0667 23.45 16.9768 23.45 16.8421C23.45 16.7074 23.35 16.6175 23.2 16.6175H22.95V16.1684H26.95ZM13.95 23.8035V19.7614C13.95 18.7733 14.85 17.9649 15.95 17.9649C17.05 17.9649 17.95 18.7733 17.95 19.7614V25.1509H13.95V23.8035ZM15.95 17.5158C15.15 17.5158 14.4 17.8751 13.95 18.414V17.0667H17.95V18.414C17.5 17.8751 16.8 17.5158 15.95 17.5158ZM17.2 16.6175H13.95V15.7193H17.95V16.6175H17.2ZM12.45 13.4737H13.45V14.3719H12.45V13.4737ZM14.7 13.4737H17.95V14.3719H13.95V13.4737H14.7ZM13.45 10.3298H13.95V12.1263H13.45V10.3298ZM14.45 10.3298H17.45V12.1263H16.95V11.6323C16.95 11.1382 16.5 10.734 15.95 10.734C15.4 10.734 14.95 11.1382 14.95 11.6323V12.1263H14.45V10.3298ZM18.45 12.1263H17.95V10.3298H18.45V12.1263ZM16.45 12.1263H15.45V11.6323C15.45 11.3628 15.65 11.1832 15.95 11.1832C16.25 11.1832 16.45 11.3628 16.45 11.6323V12.1263ZM14.95 12.5754H16.95V13.0246H14.95V12.5754ZM19.45 14.3719H18.45V13.4737H19.45V14.3719ZM12.2 14.8211H20.45V15.2702H11.45V14.8211H12.2ZM9.45 15.9439V15.2702H10.95V15.4947C10.95 15.6295 11.05 15.7193 11.2 15.7193H11.95V16.6175H9.45V15.9439ZM11.95 17.0667V18.0996C11.8 18.0098 11.65 17.9649 11.45 17.9649C11.25 17.9649 11.1 18.0098 10.95 18.0996V17.0667H11.95ZM11.95 22.9053H10.95V22.007C10.95 21.7375 11.15 21.5579 11.45 21.5579C11.75 21.5579 11.95 21.7375 11.95 22.007V22.9053ZM11.45 21.1088C11.25 21.1088 11.1 21.1537 10.95 21.2435V20.2105H11.95V21.2435C11.8 21.1537 11.65 21.1088 11.45 21.1088ZM11.95 19.7614H10.95V18.8632C10.95 18.5937 11.15 18.414 11.45 18.414C11.75 18.414 11.95 18.5937 11.95 18.8632V19.7614ZM10.95 23.3544H11.95V25.1509H10.95V23.3544ZM12.45 15.7193H13.45V16.6175H12.45V15.7193ZM18.45 15.7193H19.45V16.6175H18.45V15.7193ZM20.95 22.9053H19.95V22.007C19.95 21.7375 20.15 21.5579 20.45 21.5579C20.75 21.5579 20.95 21.7375 20.95 22.007V22.9053ZM20.45 21.1088C20.25 21.1088 20.1 21.1537 19.95 21.2435V20.2105H20.95V21.2435C20.8 21.1537 20.65 21.1088 20.45 21.1088ZM20.95 19.7614H19.95V18.8632C19.95 18.5937 20.15 18.414 20.45 18.414C20.75 18.414 20.95 18.5937 20.95 18.8632V19.7614ZM19.95 23.3544H20.95V25.1509H19.95V23.3544ZM20.95 18.0996C20.8 18.0098 20.65 17.9649 20.45 17.9649C20.25 17.9649 20.1 18.0098 19.95 18.0996V17.0667H20.95V18.0996ZM19.95 16.6175V15.7193H20.7C20.85 15.7193 20.95 15.6295 20.95 15.4947V15.2702H22.45V16.6175H19.95ZM22.45 14.8211H21.95V13.6982C21.95 13.5635 21.85 13.4737 21.7 13.4737C21.55 13.4737 21.45 13.5635 21.45 13.6982V14.8211H20.95V12.5754H22.45V14.8211ZM22.4 12.1263H21C21.1 11.8568 21.4 11.6772 21.7 11.6772C22 11.6772 22.3 11.8568 22.4 12.1263ZM20.75 11.6323C20.6 11.767 20.5 11.9467 20.45 12.1263H20.2C20.05 12.1263 19.95 12.2161 19.95 12.3509C19.95 12.4856 20.05 12.5754 20.2 12.5754H20.45V14.3719H19.95V13.2491C19.95 13.1144 19.85 13.0246 19.7 13.0246H17.45V12.5754H19.2C19.35 12.5754 19.45 12.4856 19.45 12.3509C19.45 12.2161 19.35 12.1263 19.2 12.1263H18.95V10.3298H19.5C19.6 10.9586 20.1 11.4526 20.75 11.6323ZM19.45 8.98246H18.95V8.08421H19.45V8.98246ZM13.45 8.08421H14.45V8.98246H13.45V8.08421ZM14.95 8.08421H16.95V8.98246H14.95V8.08421ZM17.45 8.08421H18.45V8.98246H17.45V8.08421ZM15.95 2.24561C16.3 2.24561 16.55 2.42526 16.65 2.69474H15.25C15.35 2.42526 15.6 2.24561 15.95 2.24561ZM15.2 3.14386H16.7V4.53614C16.55 4.49123 16.35 4.49123 16.2 4.49123V3.81754C16.2 3.68281 16.1 3.59298 15.95 3.59298C15.8 3.59298 15.7 3.68281 15.7 3.81754V4.49123C15.55 4.49123 15.35 4.53614 15.2 4.53614V3.14386ZM15.95 4.94035C17.7 4.94035 19.15 6.10807 19.4 7.63509H12.5C12.75 6.10807 14.2 4.94035 15.95 4.94035ZM12.45 8.08421H12.95V8.98246H12.45V8.08421ZM11.45 9.43158H20.45V9.8807H11.45V9.43158ZM12.45 10.3298H13V12.1263H12.75C12.6 12.1263 12.5 12.2161 12.5 12.3509C12.5 12.4856 12.6 12.5754 12.75 12.5754H14.5V13.0246H12.25C12.1 13.0246 12 13.1144 12 13.2491V14.3719H11.5V12.5754H11.75C11.9 12.5754 12 12.4856 12 12.3509C12 12.2161 11.9 12.1263 11.75 12.1263H11.5C11.45 11.9467 11.35 11.767 11.2 11.6323C11.8 11.4526 12.35 10.9586 12.45 10.3298ZM10.2 11.6772C10.55 11.6772 10.8 11.8568 10.9 12.1263H9.5C9.6 11.8568 9.9 11.6772 10.2 11.6772ZM10.95 12.5754V14.8211H10.45V13.6982C10.45 13.5635 10.35 13.4737 10.2 13.4737C10.05 13.4737 9.95 13.5635 9.95 13.6982V14.8211H9.45V12.5754H10.95ZM8.95 16.1684V16.6175H8.7C8.55 16.6175 8.45 16.7074 8.45 16.8421C8.45 16.9768 8.55 17.0667 8.7 17.0667H8.95V17.5158H4.95V17.0667H5.2C5.35 17.0667 5.45 16.9768 5.45 16.8421C5.45 16.7074 5.35 16.6175 5.2 16.6175H4.95V16.1684H8.95ZM2.95 11.2281C3.25 11.2281 3.45 11.4077 3.45 11.6772H2.45C2.45 11.4077 2.65 11.2281 2.95 11.2281ZM2.45 12.1263H3.45V13.4737H2.45V12.1263ZM1.45 13.9677L2.15 13.9228H4.4V14.8211H1.4V13.9677H1.45ZM1.45 15.2702H4.45V16.6175H1.45V15.2702ZM1.45 17.0667H4.45V20.6596H1.45V17.0667ZM1.45 21.1088H4.45V25.1509H1.45V21.1088ZM4.95 21.1088H5.2C5.35 21.1088 5.45 21.0189 5.45 20.8842C5.45 20.7495 5.35 20.6596 5.2 20.6596H4.95V17.9649H8.95V25.1509H4.95V21.1088ZM9.45 25.1509V17.0667H10.45V25.1509H9.45ZM12.45 25.1509V17.0667H13.45V25.1509H12.45ZM18.45 25.1509V17.0667H19.45V25.1509H18.45ZM21.45 23.1298V17.0667H22.45V25.1509H21.45V23.1298ZM22.95 17.9649H26.95V20.6596H26.7C26.55 20.6596 26.45 20.7495 26.45 20.8842C26.45 21.0189 26.55 21.1088 26.7 21.1088H26.95V25.1509H22.95V17.9649ZM27.45 25.1509V21.1088H30.45V25.1509H27.45Z" fill="#17BD3B"/>
<path d="M7.69995 21.5579H6.19995C6.04995 21.5579 5.94995 21.6477 5.94995 21.7825V23.579C5.94995 23.7137 6.04995 23.8035 6.19995 23.8035H7.69995C7.84995 23.8035 7.94995 23.7137 7.94995 23.579V21.7825C7.94995 21.6477 7.84995 21.5579 7.69995 21.5579ZM7.44995 22.007V22.4562H6.44995V22.007H7.44995ZM7.44995 23.3544H6.44995V22.9053H7.44995V23.3544ZM7.69995 18.4141H6.19995C6.04995 18.4141 5.94995 18.5039 5.94995 18.6386V20.4351C5.94995 20.5699 6.04995 20.6597 6.19995 20.6597H7.69995C7.84995 20.6597 7.94995 20.5699 7.94995 20.4351V18.6386C7.94995 18.5039 7.84995 18.4141 7.69995 18.4141ZM7.44995 18.8632V19.3123H6.44995V18.8632H7.44995ZM7.44995 20.2106H6.44995V19.7614H7.44995V20.2106ZM3.69995 21.5579H2.19995C2.04995 21.5579 1.94995 21.6477 1.94995 21.7825V23.579C1.94995 23.7137 2.04995 23.8035 2.19995 23.8035H3.69995C3.84995 23.8035 3.94995 23.7137 3.94995 23.579V21.7825C3.94995 21.6477 3.84995 21.5579 3.69995 21.5579ZM3.44995 23.3544H2.44995V22.007H3.44995V23.3544Z" fill="#17BD3B"/>
<path d="M15.95 8.75784C16.088 8.75784 16.2 8.6573 16.2 8.53328C16.2 8.40926 16.088 8.30872 15.95 8.30872C15.8119 8.30872 15.7 8.40926 15.7 8.53328C15.7 8.6573 15.8119 8.75784 15.95 8.75784Z" fill="#17BD3B"/>
<path d="M2.94995 16.1685C3.08802 16.1685 3.19995 16.0679 3.19995 15.9439C3.19995 15.8199 3.08802 15.7194 2.94995 15.7194C2.81188 15.7194 2.69995 15.8199 2.69995 15.9439C2.69995 16.0679 2.81188 16.1685 2.94995 16.1685Z" fill="#17BD3B"/>
<path d="M28.2 19.7614H29.7C29.85 19.7614 29.95 19.6715 29.95 19.5368V17.7403C29.95 17.6056 29.85 17.5157 29.7 17.5157H28.2C28.05 17.5157 27.95 17.6056 27.95 17.7403V19.5368C27.95 19.6715 28.05 19.7614 28.2 19.7614ZM28.45 19.3122V18.8631H29.45V19.3122H28.45ZM29.45 17.9649V18.414H28.45V17.9649H29.45ZM25.7 21.5579H24.2C24.05 21.5579 23.95 21.6477 23.95 21.7824V23.5789C23.95 23.7136 24.05 23.8035 24.2 23.8035H25.7C25.85 23.8035 25.95 23.7136 25.95 23.5789V21.7824C25.95 21.6477 25.85 21.5579 25.7 21.5579ZM24.45 22.007H25.45V22.4561H24.45V22.007ZM24.45 23.3543V22.9052H25.45V23.3543H24.45ZM25.7 18.414H24.2C24.05 18.414 23.95 18.5038 23.95 18.6386V20.435C23.95 20.5698 24.05 20.6596 24.2 20.6596H25.7C25.85 20.6596 25.95 20.5698 25.95 20.435V18.6386C25.95 18.5038 25.85 18.414 25.7 18.414ZM24.45 18.8631H25.45V19.3122H24.45V18.8631ZM24.45 20.2105V19.7614H25.45V20.2105H24.45ZM29.7 21.5579H28.2C28.05 21.5579 27.95 21.6477 27.95 21.7824V23.5789C27.95 23.7136 28.05 23.8035 28.2 23.8035H29.7C29.85 23.8035 29.95 23.7136 29.95 23.5789V21.7824C29.95 21.6477 29.85 21.5579 29.7 21.5579ZM29.45 23.3543H28.45V22.007H29.45V23.3543Z" fill="#17BD3B"/>
<path d="M28.95 16.1685C29.088 16.1685 29.2 16.0679 29.2 15.9439C29.2 15.8199 29.088 15.7194 28.95 15.7194C28.8119 15.7194 28.7 15.8199 28.7 15.9439C28.7 16.0679 28.8119 16.1685 28.95 16.1685Z" fill="#17BD3B"/>
</svg>
