<svg width="33" height="33" viewBox="0 0 33 33" fill="none" xmlns="http://www.w3.org/2000/svg">
<g clip-path="url(#clip0_2141_17954)">
<path d="M11.54 6.25391C11.5103 6.25391 11.4812 6.26217 11.4559 6.27777C11.4307 6.29336 11.4103 6.31568 11.397 6.34223L10.8008 7.53391H10.26C10.2303 7.53391 10.2012 7.54217 10.1759 7.55777C10.1507 7.57336 10.1303 7.59568 10.117 7.62223L9.15696 9.54223C9.15632 9.54351 9.15696 9.54543 9.15632 9.54671C9.14594 9.5675 9.14036 9.59035 9.14 9.61359V10.2536C9.14 10.296 9.15686 10.3367 9.18686 10.3667C9.21687 10.3967 9.25757 10.4136 9.3 10.4136H9.78V12.8289L8.036 12.6545C8.03408 12.6545 8.03184 12.6555 8.0296 12.6552C8.0264 12.6552 8.0232 12.6536 8.02 12.6536H4.82C4.8168 12.6536 4.8136 12.6552 4.8104 12.6552L4.804 12.6545L1.604 12.9745C1.56448 12.9783 1.52779 12.9967 1.50114 13.0261C1.4745 13.0556 1.45982 13.0939 1.46 13.1336V29.3003H0.73872C0.59536 29.3003 0.5 29.3643 0.5 29.4603C0.5 29.5563 0.59536 29.6203 0.73872 29.6203H32.2613C32.4046 29.6203 32.5 29.5563 32.5 29.4603C32.5 29.3643 32.4046 29.3003 32.2613 29.3003H31.86V13.1336C31.8602 13.0939 31.8455 13.0556 31.8189 13.0261C31.7922 12.9967 31.7555 12.9783 31.716 12.9745L28.516 12.6545C28.5141 12.6545 28.5118 12.6555 28.5096 12.6552C28.5064 12.6552 28.5032 12.6536 28.5 12.6536H25.3C25.2968 12.6536 25.2936 12.6552 25.2904 12.6552L25.284 12.6545L23.54 12.8289V10.4139H24.02C24.0624 10.4139 24.1031 10.397 24.1331 10.367C24.1631 10.337 24.18 10.2963 24.18 10.2539V9.61391C24.18 9.61167 24.1787 9.61007 24.1787 9.60815C24.1787 9.59919 24.1755 9.59087 24.1736 9.58191C24.1714 9.57007 24.1694 9.55823 24.1643 9.54735C24.1637 9.54575 24.164 9.54415 24.163 9.54255L23.203 7.62255C23.1897 7.59599 23.1693 7.57365 23.1441 7.558C23.1188 7.54235 23.0897 7.53401 23.06 7.53391H22.5189L21.923 6.34255C21.9097 6.316 21.8893 6.29368 21.8641 6.27809C21.8388 6.26249 21.8097 6.25423 21.78 6.25423H11.54V6.25391ZM11.6389 6.57359H21.6808L22.1746 7.56079C22.1445 7.57859 22.1213 7.60588 22.1084 7.63835C22.0956 7.67082 22.0939 7.70664 22.1037 7.74017C22.1134 7.7737 22.134 7.80304 22.1623 7.82357C22.1905 7.8441 22.2248 7.85466 22.2597 7.85359H22.3208L22.4808 8.17359H10.8392L11.6392 6.57359H11.6389ZM22.6789 7.85359H22.9611L23.7611 9.45359H22.26V9.13359H22.74C22.7824 9.13359 22.8231 9.11673 22.8531 9.08672C22.8831 9.05672 22.9 9.01602 22.9 8.97359V8.33359C22.8998 8.31027 22.8943 8.2873 22.884 8.26639C22.883 8.26511 22.884 8.26351 22.883 8.26223L22.6789 7.85359ZM10.3589 7.85391H10.6411L10.437 8.26223C10.4363 8.26351 10.437 8.26543 10.4363 8.26671C10.4259 8.2875 10.4204 8.31035 10.42 8.33359V8.97359C10.42 9.01602 10.4369 9.05672 10.4669 9.08672C10.4969 9.11673 10.5376 9.13359 10.58 9.13359H11.06V9.45359H9.55888L10.3589 7.85391ZM10.74 8.49391H22.58V8.81391H10.74V8.49391ZM11.38 9.13391H12.66V10.4613C12.5567 10.428 12.4485 10.412 12.34 10.4139C11.987 10.4139 11.7 10.6472 11.7 10.9339V11.0539C11.6576 11.0539 11.6169 11.0708 11.5869 11.1008C11.5569 11.1308 11.54 11.1715 11.54 11.2139C11.54 11.2563 11.5569 11.297 11.5869 11.327C11.6169 11.357 11.6576 11.3739 11.7 11.3739V12.9739H11.38V9.13391ZM12.98 9.13391H20.34V11.0539C20.2976 11.0539 20.2569 11.0708 20.2269 11.1008C20.1969 11.1308 20.18 11.1715 20.18 11.2139C20.18 11.2563 20.1969 11.297 20.2269 11.327C20.2569 11.357 20.2976 11.3739 20.34 11.3739V12.9739H20.02L20.0213 10.0939C20.0213 9.74095 19.6622 9.45391 19.2206 9.45391C18.9582 9.45391 18.7266 9.55663 18.5806 9.71311C18.4344 9.55663 18.203 9.45391 17.9406 9.45391C17.6782 9.45391 17.4466 9.55663 17.3006 9.71311C17.1544 9.55663 16.923 9.45391 16.6606 9.45391C16.3982 9.45391 16.1666 9.55663 16.0206 9.71311C15.8744 9.55663 15.643 9.45391 15.3806 9.45391C15.1182 9.45391 14.8866 9.55663 14.7406 9.71311C14.5944 9.55663 14.363 9.45391 14.1006 9.45391C13.6594 9.45391 13.3 9.74095 13.3 10.0939V10.4139C13.2576 10.4139 13.2169 10.4308 13.1869 10.4608C13.1569 10.4908 13.14 10.5315 13.14 10.5739C13.14 10.6163 13.1569 10.657 13.1869 10.687C13.2169 10.717 13.2576 10.7339 13.3 10.7339V12.9739H12.98V9.13391ZM20.66 9.13391H21.94V12.9739H21.62V11.0539C21.6201 11.0333 21.616 11.0128 21.6082 10.9937C21.6159 10.9747 21.6199 10.9544 21.62 10.9339C21.62 10.6475 21.333 10.4139 20.98 10.4139C20.8693 10.414 20.76 10.4387 20.66 10.4862V9.13391ZM9.46 9.77391H11.06V10.0939H9.46V9.77391ZM14.1006 9.77391C14.3544 9.77391 14.5768 9.92111 14.5806 10.0894L14.58 10.0939V10.4139C14.5376 10.4139 14.4969 10.4308 14.4669 10.4608C14.4369 10.4908 14.42 10.5315 14.42 10.5739C14.42 10.6163 14.4369 10.657 14.4669 10.687C14.4969 10.717 14.5376 10.7339 14.58 10.7339V12.3339H13.62V10.7339C13.6624 10.7339 13.7031 10.717 13.7331 10.687C13.7631 10.657 13.78 10.6163 13.78 10.5739C13.78 10.5315 13.7631 10.4908 13.7331 10.4608C13.7031 10.4308 13.6624 10.4139 13.62 10.4139V10.0939C13.62 9.92367 13.8446 9.77391 14.1006 9.77391ZM15.3806 9.77391C15.6344 9.77391 15.8568 9.92111 15.8606 10.0894L15.86 10.0939V10.4139C15.8176 10.4139 15.7769 10.4308 15.7469 10.4608C15.7169 10.4908 15.7 10.5315 15.7 10.5739C15.7 10.6163 15.7169 10.657 15.7469 10.687C15.7769 10.717 15.8176 10.7339 15.86 10.7339V12.3339H14.9006L14.9013 10.7339C14.9437 10.7339 14.9844 10.717 15.0144 10.687C15.0444 10.657 15.0613 10.6163 15.0613 10.5739C15.0613 10.5315 15.0444 10.4908 15.0144 10.4608C14.9844 10.4308 14.9437 10.4139 14.9013 10.4139V10.0939L14.9006 10.0894C14.9045 9.92111 15.1269 9.77391 15.3806 9.77391ZM16.6606 9.77391C16.9144 9.77391 17.1368 9.92111 17.1406 10.0894L17.14 10.0939V10.4139C17.0976 10.4139 17.0569 10.4308 17.0269 10.4608C16.9969 10.4908 16.98 10.5315 16.98 10.5739C16.98 10.6163 16.9969 10.657 17.0269 10.687C17.0569 10.717 17.0976 10.7339 17.14 10.7339V12.3339H16.1806L16.1813 10.7339C16.2237 10.7339 16.2644 10.717 16.2944 10.687C16.3244 10.657 16.3413 10.6163 16.3413 10.5739C16.3413 10.5315 16.3244 10.4908 16.2944 10.4608C16.2644 10.4308 16.2237 10.4139 16.1813 10.4139V10.0939L16.1806 10.0894C16.1845 9.92111 16.4069 9.77391 16.6606 9.77391ZM17.9406 9.77391C18.1944 9.77391 18.4168 9.92111 18.4206 10.0894L18.42 10.0939V10.4139C18.3776 10.4139 18.3369 10.4308 18.3069 10.4608C18.2769 10.4908 18.26 10.5315 18.26 10.5739C18.26 10.6163 18.2769 10.657 18.3069 10.687C18.3369 10.717 18.3776 10.7339 18.42 10.7339V12.3339H17.4606L17.4613 10.7339C17.5037 10.7339 17.5444 10.717 17.5744 10.687C17.6044 10.657 17.6213 10.6163 17.6213 10.5739C17.6213 10.5315 17.6044 10.4908 17.5744 10.4608C17.5444 10.4308 17.5037 10.4139 17.4613 10.4139V10.0939L17.4606 10.0894C17.4645 9.92111 17.6869 9.77391 17.9406 9.77391ZM19.2206 9.77391C19.4766 9.77391 19.7013 9.92399 19.7013 10.0939V10.4161C19.6802 10.4157 19.6592 10.4195 19.6396 10.4274C19.6201 10.4352 19.6023 10.447 19.5874 10.4619C19.5721 10.4763 19.5601 10.4936 19.5519 10.5129C19.5438 10.5322 19.5397 10.553 19.54 10.5739C19.54 10.6155 19.5554 10.6571 19.5874 10.6859C19.6165 10.7179 19.6584 10.7339 19.7 10.7339H19.7013L19.7006 12.3339H18.7406L18.7413 10.7339C18.7837 10.7339 18.8244 10.717 18.8544 10.687C18.8844 10.657 18.9013 10.6163 18.9013 10.5739C18.9013 10.5315 18.8844 10.4908 18.8544 10.4608C18.8244 10.4308 18.7837 10.4139 18.7413 10.4139V10.0939L18.7406 10.0894C18.7445 9.92111 18.9669 9.77391 19.2206 9.77391ZM22.26 9.77391H23.86V10.0939H22.26V9.77391ZM10.1 10.4139H11.06V12.9576L10.1 12.8613V10.4139ZM22.26 10.4139H23.22V12.8613L22.26 12.9573V10.4139ZM12.34 10.7339C12.4939 10.7339 12.66 10.7726 12.66 10.8587V11.0603C12.6393 11.0592 12.6186 11.0623 12.5991 11.0695C12.5797 11.0767 12.5619 11.0879 12.547 11.1023C12.532 11.1166 12.5202 11.1339 12.5122 11.1531C12.5042 11.1723 12.5003 11.1928 12.5006 11.2136C12.5006 11.2552 12.516 11.2968 12.548 11.3256C12.5608 11.3409 12.58 11.3544 12.5992 11.3608C12.6184 11.3704 12.6376 11.3736 12.66 11.3736V12.3336H12.02V11.3736C12.0624 11.3736 12.1031 11.3567 12.1331 11.3267C12.1631 11.2967 12.18 11.256 12.18 11.2136C12.18 11.1712 12.1631 11.1305 12.1331 11.1004C12.1031 11.0704 12.0624 11.0536 12.02 11.0536V10.9336C12.02 10.8392 12.157 10.7339 12.34 10.7339ZM20.98 10.7339C21.163 10.7339 21.3 10.8395 21.3 10.9339C21.3 10.955 21.3042 10.9752 21.3118 10.9937C21.304 11.0128 21.2999 11.0333 21.3 11.0539V11.0603C21.2795 11.0591 21.259 11.0621 21.2397 11.0692C21.2204 11.0763 21.2028 11.0873 21.188 11.1016C21.1728 11.116 21.1607 11.1333 21.1526 11.1526C21.1444 11.1719 21.1403 11.1927 21.1406 11.2136C21.1406 11.2552 21.156 11.2968 21.188 11.3256C21.2008 11.3409 21.22 11.3544 21.2392 11.3608C21.2584 11.3704 21.2776 11.3736 21.3 11.3736V12.3336H20.66V11.3736C20.7024 11.3736 20.7431 11.3567 20.7731 11.3267C20.8031 11.2967 20.82 11.256 20.82 11.2136C20.82 11.1712 20.8031 11.1305 20.7731 11.1004C20.7431 11.0704 20.7024 11.0536 20.66 11.0536V10.9336C20.66 10.8392 20.797 10.7339 20.98 10.7339ZM12.02 12.6539H12.66V12.9739H12.02V12.6539ZM13.62 12.6539H14.58V12.9739H13.62V12.6539ZM14.9 12.6539H15.86V12.9739H14.9V12.6539ZM16.18 12.6539H17.14V12.9739H16.18V12.6539ZM17.46 12.6539H18.42V12.9739H17.46V12.6539ZM18.74 12.6539H19.7V12.9739H18.74V12.6539ZM20.66 12.6539H21.3V12.9739H20.66V12.6539ZM4.98 12.9739H7.86V13.6139H4.98V12.9739ZM25.46 12.9739H28.34V13.6139H25.46V12.9739ZM4.66 12.9905V13.6139H1.78V13.2789L4.66 12.9905ZM8.18 12.9905L11.06 13.2785V13.6139H8.18V12.9899V12.9905ZM25.14 12.9905V13.6139H22.26V13.2789L25.14 12.9905ZM28.66 12.9905L31.54 13.2785V13.6139H28.66V12.9899V12.9905ZM11.38 13.2939H12.34V13.6139H11.38V13.2939ZM12.66 13.2939H20.66V13.9339H12.66V13.2939ZM20.98 13.2939H21.94V13.6139H20.98V13.2939ZM1.78 13.9339H4.66V16.8139H1.78V13.9339ZM4.98 13.9339H7.86V16.8139H4.98V13.9339ZM8.18 13.9339H11.06V16.8139H8.18V13.9339ZM11.38 13.9339H12.34V14.0939C12.34 14.1363 12.3569 14.177 12.3869 14.207C12.4169 14.237 12.4576 14.2539 12.5 14.2539H12.66V16.8203H11.38V13.9339ZM20.98 13.9339H21.94V16.8203H20.66V14.2536H20.82C20.8624 14.2536 20.9031 14.2367 20.9331 14.2067C20.9631 14.1767 20.98 14.136 20.98 14.0936V13.9339ZM22.26 13.9339H25.14V16.8139H22.26V13.9339ZM25.46 13.9339H28.34V16.8139H25.46V13.9339ZM28.66 13.9339H31.54V16.8139H28.66V13.9339ZM12.98 14.2539H20.34V14.8939H12.98V14.2539ZM3.22 14.5739C2.95536 14.5739 2.74 14.7893 2.74 15.0539V16.0139C2.74 16.0563 2.75686 16.097 2.78686 16.127C2.81687 16.157 2.85757 16.1739 2.9 16.1739H3.54C3.58243 16.1739 3.62313 16.157 3.65314 16.127C3.68314 16.097 3.7 16.0563 3.7 16.0139V15.0539C3.7 14.7893 3.48464 14.5739 3.22 14.5739ZM6.42 14.5739C6.15536 14.5739 5.94 14.7893 5.94 15.0539V16.0139C5.94 16.0563 5.95686 16.097 5.98686 16.127C6.01687 16.157 6.05757 16.1739 6.1 16.1739H6.74C6.78243 16.1739 6.82313 16.157 6.85314 16.127C6.88314 16.097 6.9 16.0563 6.9 16.0139V15.0539C6.9 14.7893 6.68464 14.5739 6.42 14.5739ZM9.62 14.5739C9.35536 14.5739 9.14 14.7893 9.14 15.0539V16.0139C9.14 16.0563 9.15686 16.097 9.18686 16.127C9.21687 16.157 9.25757 16.1739 9.3 16.1739H9.94C9.98243 16.1739 10.0231 16.157 10.0531 16.127C10.0831 16.097 10.1 16.0563 10.1 16.0139V15.0539C10.1 14.7893 9.88464 14.5739 9.62 14.5739ZM23.7 14.5739C23.4354 14.5739 23.22 14.7893 23.22 15.0539V16.0139C23.22 16.0563 23.2369 16.097 23.2669 16.127C23.2969 16.157 23.3376 16.1739 23.38 16.1739H24.02C24.0624 16.1739 24.1031 16.157 24.1331 16.127C24.1631 16.097 24.18 16.0563 24.18 16.0139V15.0539C24.18 14.7893 23.9646 14.5739 23.7 14.5739ZM26.9 14.5739C26.6354 14.5739 26.42 14.7893 26.42 15.0539V16.0139C26.42 16.0563 26.4369 16.097 26.4669 16.127C26.4969 16.157 26.5376 16.1739 26.58 16.1739H27.22C27.2624 16.1739 27.3031 16.157 27.3331 16.127C27.3631 16.097 27.38 16.0563 27.38 16.0139V15.0539C27.38 14.7893 27.1646 14.5739 26.9 14.5739ZM30.1 14.5739C29.8354 14.5739 29.62 14.7893 29.62 15.0539V16.0139C29.62 16.0563 29.6369 16.097 29.6669 16.127C29.6969 16.157 29.7376 16.1739 29.78 16.1739H30.42C30.4624 16.1739 30.5031 16.157 30.5331 16.127C30.5631 16.097 30.58 16.0563 30.58 16.0139V15.0539C30.58 14.7893 30.3646 14.5739 30.1 14.5739ZM2.26 14.5803C2.21757 14.5803 2.17687 14.5972 2.14686 14.6272C2.11686 14.6572 2.1 14.6979 2.1 14.7403V16.0203C2.1 16.0627 2.11686 16.1034 2.14686 16.1334C2.17687 16.1634 2.21757 16.1803 2.26 16.1803C2.30243 16.1803 2.34313 16.1634 2.37314 16.1334C2.40314 16.1034 2.42 16.0627 2.42 16.0203V14.7403C2.42 14.6979 2.40314 14.6572 2.37314 14.6272C2.34313 14.5972 2.30243 14.5803 2.26 14.5803ZM4.18 14.5803C4.13757 14.5803 4.09687 14.5972 4.06686 14.6272C4.03686 14.6572 4.02 14.6979 4.02 14.7403V16.0203C4.02 16.0627 4.03686 16.1034 4.06686 16.1334C4.09687 16.1634 4.13757 16.1803 4.18 16.1803C4.22243 16.1803 4.26313 16.1634 4.29314 16.1334C4.32314 16.1034 4.34 16.0627 4.34 16.0203V14.7403C4.34 14.6979 4.32314 14.6572 4.29314 14.6272C4.26313 14.5972 4.22243 14.5803 4.18 14.5803ZM5.46 14.5803C5.41757 14.5803 5.37687 14.5972 5.34686 14.6272C5.31686 14.6572 5.3 14.6979 5.3 14.7403V16.0203C5.3 16.0627 5.31686 16.1034 5.34686 16.1334C5.37687 16.1634 5.41757 16.1803 5.46 16.1803C5.50243 16.1803 5.54313 16.1634 5.57314 16.1334C5.60314 16.1034 5.62 16.0627 5.62 16.0203V14.7403C5.62 14.6979 5.60314 14.6572 5.57314 14.6272C5.54313 14.5972 5.50243 14.5803 5.46 14.5803ZM7.38 14.5803C7.33757 14.5803 7.29687 14.5972 7.26686 14.6272C7.23686 14.6572 7.22 14.6979 7.22 14.7403V16.0203C7.22 16.0627 7.23686 16.1034 7.26686 16.1334C7.29687 16.1634 7.33757 16.1803 7.38 16.1803C7.42243 16.1803 7.46313 16.1634 7.49314 16.1334C7.52314 16.1034 7.54 16.0627 7.54 16.0203V14.7403C7.54 14.6979 7.52314 14.6572 7.49314 14.6272C7.46313 14.5972 7.42243 14.5803 7.38 14.5803ZM8.66 14.5803C8.61757 14.5803 8.57687 14.5972 8.54686 14.6272C8.51686 14.6572 8.5 14.6979 8.5 14.7403V16.0203C8.5 16.0627 8.51686 16.1034 8.54686 16.1334C8.57687 16.1634 8.61757 16.1803 8.66 16.1803C8.70243 16.1803 8.74313 16.1634 8.77314 16.1334C8.80314 16.1034 8.82 16.0627 8.82 16.0203V14.7403C8.82 14.6979 8.80314 14.6572 8.77314 14.6272C8.74313 14.5972 8.70243 14.5803 8.66 14.5803ZM10.58 14.5803C10.5376 14.5803 10.4969 14.5972 10.4669 14.6272C10.4369 14.6572 10.42 14.6979 10.42 14.7403V16.0203C10.42 16.0627 10.4369 16.1034 10.4669 16.1334C10.4969 16.1634 10.5376 16.1803 10.58 16.1803C10.6224 16.1803 10.6631 16.1634 10.6931 16.1334C10.7231 16.1034 10.74 16.0627 10.74 16.0203V14.7403C10.74 14.6979 10.7231 14.6572 10.6931 14.6272C10.6631 14.5972 10.6224 14.5803 10.58 14.5803ZM22.74 14.5803C22.6976 14.5803 22.6569 14.5972 22.6269 14.6272C22.5969 14.6572 22.58 14.6979 22.58 14.7403V16.0203C22.58 16.0627 22.5969 16.1034 22.6269 16.1334C22.6569 16.1634 22.6976 16.1803 22.74 16.1803C22.7824 16.1803 22.8231 16.1634 22.8531 16.1334C22.8831 16.1034 22.9 16.0627 22.9 16.0203V14.7403C22.9 14.6979 22.8831 14.6572 22.8531 14.6272C22.8231 14.5972 22.7824 14.5803 22.74 14.5803ZM24.66 14.5803C24.6176 14.5803 24.5769 14.5972 24.5469 14.6272C24.5169 14.6572 24.5 14.6979 24.5 14.7403V16.0203C24.5 16.0627 24.5169 16.1034 24.5469 16.1334C24.5769 16.1634 24.6176 16.1803 24.66 16.1803C24.7024 16.1803 24.7431 16.1634 24.7731 16.1334C24.8031 16.1034 24.82 16.0627 24.82 16.0203V14.7403C24.82 14.6979 24.8031 14.6572 24.7731 14.6272C24.7431 14.5972 24.7024 14.5803 24.66 14.5803ZM25.94 14.5803C25.8976 14.5803 25.8569 14.5972 25.8269 14.6272C25.7969 14.6572 25.78 14.6979 25.78 14.7403V16.0203C25.78 16.0627 25.7969 16.1034 25.8269 16.1334C25.8569 16.1634 25.8976 16.1803 25.94 16.1803C25.9824 16.1803 26.0231 16.1634 26.0531 16.1334C26.0831 16.1034 26.1 16.0627 26.1 16.0203V14.7403C26.1 14.6979 26.0831 14.6572 26.0531 14.6272C26.0231 14.5972 25.9824 14.5803 25.94 14.5803ZM27.86 14.5803C27.8176 14.5803 27.7769 14.5972 27.7469 14.6272C27.7169 14.6572 27.7 14.6979 27.7 14.7403V16.0203C27.7 16.0627 27.7169 16.1034 27.7469 16.1334C27.7769 16.1634 27.8176 16.1803 27.86 16.1803C27.9024 16.1803 27.9431 16.1634 27.9731 16.1334C28.0031 16.1034 28.02 16.0627 28.02 16.0203V14.7403C28.02 14.6979 28.0031 14.6572 27.9731 14.6272C27.9431 14.5972 27.9024 14.5803 27.86 14.5803ZM29.14 14.5803C29.0976 14.5803 29.0569 14.5972 29.0269 14.6272C28.9969 14.6572 28.98 14.6979 28.98 14.7403V16.0203C28.98 16.0627 28.9969 16.1034 29.0269 16.1334C29.0569 16.1634 29.0976 16.1803 29.14 16.1803C29.1824 16.1803 29.2231 16.1634 29.2531 16.1334C29.2831 16.1034 29.3 16.0627 29.3 16.0203V14.7403C29.3 14.6979 29.2831 14.6572 29.2531 14.6272C29.2231 14.5972 29.1824 14.5803 29.14 14.5803ZM31.06 14.5803C31.0176 14.5803 30.9769 14.5972 30.9469 14.6272C30.9169 14.6572 30.9 14.6979 30.9 14.7403V16.0203C30.9 16.0627 30.9169 16.1034 30.9469 16.1334C30.9769 16.1634 31.0176 16.1803 31.06 16.1803C31.1024 16.1803 31.1431 16.1634 31.1731 16.1334C31.2031 16.1034 31.22 16.0627 31.22 16.0203V14.7403C31.22 14.6979 31.2031 14.6572 31.1731 14.6272C31.1431 14.5972 31.1024 14.5803 31.06 14.5803ZM3.22 14.8936C3.308 14.8936 3.38 14.9656 3.38 15.0536V15.8536H3.06V15.0536C3.06 14.9656 3.132 14.8936 3.22 14.8936ZM6.42 14.8936C6.508 14.8936 6.58 14.9656 6.58 15.0536V15.8536H6.26V15.0536C6.26 14.9656 6.332 14.8936 6.42 14.8936ZM9.62 14.8936C9.708 14.8936 9.78 14.9656 9.78 15.0536V15.8536H9.46V15.0536C9.46 14.9656 9.532 14.8936 9.62 14.8936ZM23.7 14.8936C23.788 14.8936 23.86 14.9656 23.86 15.0536V15.8536H23.54V15.0536C23.54 14.9656 23.612 14.8936 23.7 14.8936ZM26.9 14.8936C26.988 14.8936 27.06 14.9656 27.06 15.0536V15.8536H26.74V15.0536C26.74 14.9656 26.812 14.8936 26.9 14.8936ZM30.1 14.8936C30.188 14.8936 30.26 14.9656 30.26 15.0536V15.8536H29.94V15.0536C29.94 14.9656 30.012 14.8936 30.1 14.8936ZM12.98 15.2136H20.34V15.6977C20.2023 15.5919 20.0337 15.5342 19.86 15.5336C19.7354 15.5339 19.6125 15.5634 19.5014 15.6198C19.3902 15.6763 19.2938 15.758 19.22 15.8584C19.1462 15.758 19.0498 15.6763 18.9386 15.6198C18.8275 15.5634 18.7046 15.5339 18.58 15.5336C18.4554 15.5339 18.3325 15.5634 18.2214 15.6198C18.1102 15.6763 18.0138 15.758 17.94 15.8584C17.8662 15.758 17.7698 15.6763 17.6586 15.6198C17.5475 15.5634 17.4246 15.5339 17.3 15.5336C17.1754 15.5339 17.0525 15.5634 16.9414 15.6198C16.8302 15.6763 16.7338 15.758 16.66 15.8584C16.5862 15.758 16.4898 15.6763 16.3786 15.6198C16.2675 15.5634 16.1446 15.5339 16.02 15.5336C15.8954 15.5339 15.7725 15.5634 15.6614 15.6198C15.5502 15.6763 15.4538 15.758 15.38 15.8584C15.3062 15.758 15.2098 15.6763 15.0986 15.6198C14.9875 15.5634 14.8646 15.5339 14.74 15.5336C14.6154 15.5339 14.4925 15.5634 14.3814 15.6198C14.2702 15.6763 14.1738 15.758 14.1 15.8584C14.0262 15.758 13.9298 15.6763 13.8186 15.6198C13.7075 15.5634 13.5846 15.5339 13.46 15.5336C13.2792 15.5336 13.1144 15.5963 12.98 15.6977V15.2136ZM13.46 15.8536C13.7246 15.8536 13.94 16.0689 13.94 16.3336V16.7605C13.94 16.7793 13.9445 16.7966 13.9506 16.8136H12.98V16.3336C12.98 16.0689 13.1954 15.8536 13.46 15.8536ZM14.74 15.8536C15.0046 15.8536 15.22 16.0689 15.22 16.3336V16.7605C15.22 16.7793 15.2245 16.7966 15.2306 16.8136H14.2494C14.256 16.7966 14.2596 16.7787 14.26 16.7605V16.3336C14.26 16.0689 14.4754 15.8536 14.74 15.8536ZM16.02 15.8536C16.2846 15.8536 16.5 16.0689 16.5 16.3336V16.7605C16.5 16.7793 16.5045 16.7966 16.5106 16.8136H15.5294C15.536 16.7966 15.5396 16.7787 15.54 16.7605V16.3336C15.54 16.0689 15.7554 15.8536 16.02 15.8536ZM17.3 15.8536C17.5646 15.8536 17.78 16.0689 17.78 16.3336V16.7605C17.78 16.7793 17.7845 16.7966 17.7906 16.8136H16.8094C16.816 16.7966 16.8196 16.7787 16.82 16.7605V16.3336C16.82 16.0689 17.0354 15.8536 17.3 15.8536ZM18.58 15.8536C18.8446 15.8536 19.06 16.0689 19.06 16.3336V16.7605C19.06 16.7793 19.0645 16.7966 19.0706 16.8136H18.0894C18.096 16.7966 18.0996 16.7787 18.1 16.7605V16.3336C18.1 16.0689 18.3154 15.8536 18.58 15.8536ZM19.86 15.8536C20.1246 15.8536 20.34 16.0689 20.34 16.3336V16.8136H19.3694C19.376 16.7966 19.3796 16.7787 19.38 16.7605V16.3336C19.38 16.0689 19.5954 15.8536 19.86 15.8536ZM1.78 17.1336H4.66V17.4536H1.78V17.1336ZM4.98 17.1336H7.86V17.4536H4.98V17.1336ZM8.18 17.1336H11.06V17.4536H8.18V17.1336ZM12.98 17.1336H20.34V17.4536H12.98V17.1336ZM22.26 17.1336H25.14V17.4536H22.26V17.1336ZM25.46 17.1336H28.34V17.4536H25.46V17.1336ZM28.66 17.1336H31.54V17.4536H28.66V17.1336ZM11.38 17.1403H12.66V17.4536H11.38V17.1403ZM20.66 17.1403H21.94V17.4536H20.66V17.1403ZM1.78 17.7736H4.66V29.2936H1.78V17.7736ZM4.98 17.7736H7.86V29.2936H4.98V17.7736ZM8.18 17.7736H11.06V29.2936H8.18V17.7736ZM11.38 17.7736H12.66V29.2936H11.38V17.7736ZM12.98 17.7736H20.34V29.2936H19.7V24.5179C19.699 24.0445 19.5749 23.5795 19.34 23.1685C19.105 22.7575 18.7673 22.4146 18.3598 22.1736L16.9019 21.316C16.8765 21.301 16.8475 21.2933 16.818 21.2937C16.7886 21.2942 16.7598 21.3028 16.7349 21.3185L15.2107 22.2785C14.8206 22.5223 14.4992 22.8616 14.2768 23.2643C14.0545 23.6669 13.9385 24.1197 13.94 24.5797V29.2933H12.98V17.7736ZM20.66 17.7736H21.94V29.2936H20.66V17.7736ZM22.26 17.7736H25.14V29.2936H22.26V17.7736ZM25.46 17.7736H28.34V29.2936H25.46V17.7736ZM28.66 17.7736H31.54V29.2936H28.66V17.7736ZM2.26 18.4203C2.21757 18.4203 2.17687 18.4372 2.14686 18.4672C2.11686 18.4972 2.1 18.5379 2.1 18.5803V20.5003C2.1 20.5427 2.11686 20.5834 2.14686 20.6134C2.17687 20.6434 2.21757 20.6603 2.26 20.6603C2.30243 20.6603 2.34313 20.6434 2.37314 20.6134C2.40314 20.5834 2.42 20.5427 2.42 20.5003V18.5803C2.42 18.5379 2.40314 18.4972 2.37314 18.4672C2.34313 18.4372 2.30243 18.4203 2.26 18.4203ZM3.22 18.4203C3.17757 18.4203 3.13687 18.4372 3.10686 18.4672C3.07686 18.4972 3.06 18.5379 3.06 18.5803V20.5003C3.06 20.5427 3.07686 20.5834 3.10686 20.6134C3.13687 20.6434 3.17757 20.6603 3.22 20.6603C3.26243 20.6603 3.30313 20.6434 3.33314 20.6134C3.36314 20.5834 3.38 20.5427 3.38 20.5003V18.5803C3.38 18.5379 3.36314 18.4972 3.33314 18.4672C3.30313 18.4372 3.26243 18.4203 3.22 18.4203ZM4.18 18.4203C4.13757 18.4203 4.09687 18.4372 4.06686 18.4672C4.03686 18.4972 4.02 18.5379 4.02 18.5803V20.5003C4.02 20.5427 4.03686 20.5834 4.06686 20.6134C4.09687 20.6434 4.13757 20.6603 4.18 20.6603C4.22243 20.6603 4.26313 20.6434 4.29314 20.6134C4.32314 20.5834 4.34 20.5427 4.34 20.5003V18.5803C4.34 18.5379 4.32314 18.4972 4.29314 18.4672C4.26313 18.4372 4.22243 18.4203 4.18 18.4203ZM5.46 18.4203C5.41757 18.4203 5.37687 18.4372 5.34686 18.4672C5.31686 18.4972 5.3 18.5379 5.3 18.5803V20.5003C5.3 20.5427 5.31686 20.5834 5.34686 20.6134C5.37687 20.6434 5.41757 20.6603 5.46 20.6603C5.50243 20.6603 5.54313 20.6434 5.57314 20.6134C5.60314 20.5834 5.62 20.5427 5.62 20.5003V18.5803C5.62 18.5379 5.60314 18.4972 5.57314 18.4672C5.54313 18.4372 5.50243 18.4203 5.46 18.4203ZM6.42 18.4203C6.37757 18.4203 6.33687 18.4372 6.30686 18.4672C6.27686 18.4972 6.26 18.5379 6.26 18.5803V20.5003C6.26 20.5427 6.27686 20.5834 6.30686 20.6134C6.33687 20.6434 6.37757 20.6603 6.42 20.6603C6.46243 20.6603 6.50313 20.6434 6.53314 20.6134C6.56314 20.5834 6.58 20.5427 6.58 20.5003V18.5803C6.58 18.5379 6.56314 18.4972 6.53314 18.4672C6.50313 18.4372 6.46243 18.4203 6.42 18.4203ZM7.38 18.4203C7.33757 18.4203 7.29687 18.4372 7.26686 18.4672C7.23686 18.4972 7.22 18.5379 7.22 18.5803V20.5003C7.22 20.5427 7.23686 20.5834 7.26686 20.6134C7.29687 20.6434 7.33757 20.6603 7.38 20.6603C7.42243 20.6603 7.46313 20.6434 7.49314 20.6134C7.52314 20.5834 7.54 20.5427 7.54 20.5003V18.5803C7.54 18.5379 7.52314 18.4972 7.49314 18.4672C7.46313 18.4372 7.42243 18.4203 7.38 18.4203ZM8.66 18.4203C8.61757 18.4203 8.57687 18.4372 8.54686 18.4672C8.51686 18.4972 8.5 18.5379 8.5 18.5803V20.5003C8.5 20.5427 8.51686 20.5834 8.54686 20.6134C8.57687 20.6434 8.61757 20.6603 8.66 20.6603C8.70243 20.6603 8.74313 20.6434 8.77314 20.6134C8.80314 20.5834 8.82 20.5427 8.82 20.5003V18.5803C8.82 18.5379 8.80314 18.4972 8.77314 18.4672C8.74313 18.4372 8.70243 18.4203 8.66 18.4203ZM9.62 18.4203C9.57757 18.4203 9.53687 18.4372 9.50686 18.4672C9.47686 18.4972 9.46 18.5379 9.46 18.5803V20.5003C9.46 20.5427 9.47686 20.5834 9.50686 20.6134C9.53687 20.6434 9.57757 20.6603 9.62 20.6603C9.66243 20.6603 9.70313 20.6434 9.73314 20.6134C9.76314 20.5834 9.78 20.5427 9.78 20.5003V18.5803C9.78 18.5379 9.76314 18.4972 9.73314 18.4672C9.70313 18.4372 9.66243 18.4203 9.62 18.4203ZM10.58 18.4203C10.5376 18.4203 10.4969 18.4372 10.4669 18.4672C10.4369 18.4972 10.42 18.5379 10.42 18.5803V20.5003C10.42 20.5427 10.4369 20.5834 10.4669 20.6134C10.4969 20.6434 10.5376 20.6603 10.58 20.6603C10.6224 20.6603 10.6631 20.6434 10.6931 20.6134C10.7231 20.5834 10.74 20.5427 10.74 20.5003V18.5803C10.74 18.5379 10.7231 18.4972 10.6931 18.4672C10.6631 18.4372 10.6224 18.4203 10.58 18.4203ZM12.02 18.4203C11.9776 18.4203 11.9369 18.4372 11.9069 18.4672C11.8769 18.4972 11.86 18.5379 11.86 18.5803V20.5003C11.86 20.5427 11.8769 20.5834 11.9069 20.6134C11.9369 20.6434 11.9776 20.6603 12.02 20.6603C12.0624 20.6603 12.1031 20.6434 12.1331 20.6134C12.1631 20.5834 12.18 20.5427 12.18 20.5003V18.5803C12.18 18.5379 12.1631 18.4972 12.1331 18.4672C12.1031 18.4372 12.0624 18.4203 12.02 18.4203ZM14.1 18.4203C14.0576 18.4203 14.0169 18.4372 13.9869 18.4672C13.9569 18.4972 13.94 18.5379 13.94 18.5803V20.5003C13.94 20.5427 13.9569 20.5834 13.9869 20.6134C14.0169 20.6434 14.0576 20.6603 14.1 20.6603C14.1424 20.6603 14.1831 20.6434 14.2131 20.6134C14.2431 20.5834 14.26 20.5427 14.26 20.5003V18.5803C14.26 18.5379 14.2431 18.4972 14.2131 18.4672C14.1831 18.4372 14.1424 18.4203 14.1 18.4203ZM15.38 18.4203C15.3376 18.4203 15.2969 18.4372 15.2669 18.4672C15.2369 18.4972 15.22 18.5379 15.22 18.5803V20.5003C15.22 20.5427 15.2369 20.5834 15.2669 20.6134C15.2969 20.6434 15.3376 20.6603 15.38 20.6603C15.4224 20.6603 15.4631 20.6434 15.4931 20.6134C15.5231 20.5834 15.54 20.5427 15.54 20.5003V18.5803C15.54 18.5379 15.5231 18.4972 15.4931 18.4672C15.4631 18.4372 15.4224 18.4203 15.38 18.4203ZM16.66 18.4203C16.6176 18.4203 16.5769 18.4372 16.5469 18.4672C16.5169 18.4972 16.5 18.5379 16.5 18.5803V20.5003C16.5 20.5427 16.5169 20.5834 16.5469 20.6134C16.5769 20.6434 16.6176 20.6603 16.66 20.6603C16.7024 20.6603 16.7431 20.6434 16.7731 20.6134C16.8031 20.5834 16.82 20.5427 16.82 20.5003V18.5803C16.82 18.5379 16.8031 18.4972 16.7731 18.4672C16.7431 18.4372 16.7024 18.4203 16.66 18.4203ZM17.94 18.4203C17.8976 18.4203 17.8569 18.4372 17.8269 18.4672C17.7969 18.4972 17.78 18.5379 17.78 18.5803V20.5003C17.78 20.5427 17.7969 20.5834 17.8269 20.6134C17.8569 20.6434 17.8976 20.6603 17.94 20.6603C17.9824 20.6603 18.0231 20.6434 18.0531 20.6134C18.0831 20.5834 18.1 20.5427 18.1 20.5003V18.5803C18.1 18.5379 18.0831 18.4972 18.0531 18.4672C18.0231 18.4372 17.9824 18.4203 17.94 18.4203ZM19.22 18.4203C19.1776 18.4203 19.1369 18.4372 19.1069 18.4672C19.0769 18.4972 19.06 18.5379 19.06 18.5803V20.5003C19.06 20.5427 19.0769 20.5834 19.1069 20.6134C19.1369 20.6434 19.1776 20.6603 19.22 20.6603C19.2624 20.6603 19.3031 20.6434 19.3331 20.6134C19.3631 20.5834 19.38 20.5427 19.38 20.5003V18.5803C19.38 18.5379 19.3631 18.4972 19.3331 18.4672C19.3031 18.4372 19.2624 18.4203 19.22 18.4203ZM21.3 18.4203C21.2576 18.4203 21.2169 18.4372 21.1869 18.4672C21.1569 18.4972 21.14 18.5379 21.14 18.5803V20.5003C21.14 20.5427 21.1569 20.5834 21.1869 20.6134C21.2169 20.6434 21.2576 20.6603 21.3 20.6603C21.3424 20.6603 21.3831 20.6434 21.4131 20.6134C21.4431 20.5834 21.46 20.5427 21.46 20.5003V18.5803C21.46 18.5379 21.4431 18.4972 21.4131 18.4672C21.3831 18.4372 21.3424 18.4203 21.3 18.4203ZM22.74 18.4203C22.6976 18.4203 22.6569 18.4372 22.6269 18.4672C22.5969 18.4972 22.58 18.5379 22.58 18.5803V20.5003C22.58 20.5427 22.5969 20.5834 22.6269 20.6134C22.6569 20.6434 22.6976 20.6603 22.74 20.6603C22.7824 20.6603 22.8231 20.6434 22.8531 20.6134C22.8831 20.5834 22.9 20.5427 22.9 20.5003V18.5803C22.9 18.5379 22.8831 18.4972 22.8531 18.4672C22.8231 18.4372 22.7824 18.4203 22.74 18.4203ZM23.7 18.4203C23.6576 18.4203 23.6169 18.4372 23.5869 18.4672C23.5569 18.4972 23.54 18.5379 23.54 18.5803V20.5003C23.54 20.5427 23.5569 20.5834 23.5869 20.6134C23.6169 20.6434 23.6576 20.6603 23.7 20.6603C23.7424 20.6603 23.7831 20.6434 23.8131 20.6134C23.8431 20.5834 23.86 20.5427 23.86 20.5003V18.5803C23.86 18.5379 23.8431 18.4972 23.8131 18.4672C23.7831 18.4372 23.7424 18.4203 23.7 18.4203ZM24.66 18.4203C24.6176 18.4203 24.5769 18.4372 24.5469 18.4672C24.5169 18.4972 24.5 18.5379 24.5 18.5803V20.5003C24.5 20.5427 24.5169 20.5834 24.5469 20.6134C24.5769 20.6434 24.6176 20.6603 24.66 20.6603C24.7024 20.6603 24.7431 20.6434 24.7731 20.6134C24.8031 20.5834 24.82 20.5427 24.82 20.5003V18.5803C24.82 18.5379 24.8031 18.4972 24.7731 18.4672C24.7431 18.4372 24.7024 18.4203 24.66 18.4203ZM25.94 18.4203C25.8976 18.4203 25.8569 18.4372 25.8269 18.4672C25.7969 18.4972 25.78 18.5379 25.78 18.5803V20.5003C25.78 20.5427 25.7969 20.5834 25.8269 20.6134C25.8569 20.6434 25.8976 20.6603 25.94 20.6603C25.9824 20.6603 26.0231 20.6434 26.0531 20.6134C26.0831 20.5834 26.1 20.5427 26.1 20.5003V18.5803C26.1 18.5379 26.0831 18.4972 26.0531 18.4672C26.0231 18.4372 25.9824 18.4203 25.94 18.4203ZM26.9 18.4203C26.8576 18.4203 26.8169 18.4372 26.7869 18.4672C26.7569 18.4972 26.74 18.5379 26.74 18.5803V20.5003C26.74 20.5427 26.7569 20.5834 26.7869 20.6134C26.8169 20.6434 26.8576 20.6603 26.9 20.6603C26.9424 20.6603 26.9831 20.6434 27.0131 20.6134C27.0431 20.5834 27.06 20.5427 27.06 20.5003V18.5803C27.06 18.5379 27.0431 18.4972 27.0131 18.4672C26.9831 18.4372 26.9424 18.4203 26.9 18.4203ZM27.86 18.4203C27.8176 18.4203 27.7769 18.4372 27.7469 18.4672C27.7169 18.4972 27.7 18.5379 27.7 18.5803V20.5003C27.7 20.5427 27.7169 20.5834 27.7469 20.6134C27.7769 20.6434 27.8176 20.6603 27.86 20.6603C27.9024 20.6603 27.9431 20.6434 27.9731 20.6134C28.0031 20.5834 28.02 20.5427 28.02 20.5003V18.5803C28.02 18.5379 28.0031 18.4972 27.9731 18.4672C27.9431 18.4372 27.9024 18.4203 27.86 18.4203ZM29.14 18.4203C29.0976 18.4203 29.0569 18.4372 29.0269 18.4672C28.9969 18.4972 28.98 18.5379 28.98 18.5803V20.5003C28.98 20.5427 28.9969 20.5834 29.0269 20.6134C29.0569 20.6434 29.0976 20.6603 29.14 20.6603C29.1824 20.6603 29.2231 20.6434 29.2531 20.6134C29.2831 20.5834 29.3 20.5427 29.3 20.5003V18.5803C29.3 18.5379 29.2831 18.4972 29.2531 18.4672C29.2231 18.4372 29.1824 18.4203 29.14 18.4203ZM30.1 18.4203C30.0576 18.4203 30.0169 18.4372 29.9869 18.4672C29.9569 18.4972 29.94 18.5379 29.94 18.5803V20.5003C29.94 20.5427 29.9569 20.5834 29.9869 20.6134C30.0169 20.6434 30.0576 20.6603 30.1 20.6603C30.1424 20.6603 30.1831 20.6434 30.2131 20.6134C30.2431 20.5834 30.26 20.5427 30.26 20.5003V18.5803C30.26 18.5379 30.2431 18.4972 30.2131 18.4672C30.1831 18.4372 30.1424 18.4203 30.1 18.4203ZM31.06 18.4203C31.0176 18.4203 30.9769 18.4372 30.9469 18.4672C30.9169 18.4972 30.9 18.5379 30.9 18.5803V20.5003C30.9 20.5427 30.9169 20.5834 30.9469 20.6134C30.9769 20.6434 31.0176 20.6603 31.06 20.6603C31.1024 20.6603 31.1431 20.6434 31.1731 20.6134C31.2031 20.5834 31.22 20.5427 31.22 20.5003V18.5803C31.22 18.5379 31.2031 18.4972 31.1731 18.4672C31.1431 18.4372 31.1024 18.4203 31.06 18.4203ZM14.74 20.9736C14.4754 20.9736 14.26 21.1889 14.26 21.4536C14.26 21.7182 14.4754 21.9336 14.74 21.9336C15.0046 21.9336 15.22 21.7182 15.22 21.4536C15.22 21.1889 15.0046 20.9736 14.74 20.9736ZM18.58 20.9736C18.3154 20.9736 18.1 21.1889 18.1 21.4536C18.1 21.7182 18.3154 21.9336 18.58 21.9336C18.8446 21.9336 19.06 21.7182 19.06 21.4536C19.06 21.1889 18.8446 20.9736 18.58 20.9736ZM14.74 21.2936C14.828 21.2936 14.9 21.3656 14.9 21.4536C14.9 21.5416 14.828 21.6136 14.74 21.6136C14.6976 21.6135 14.6569 21.5966 14.627 21.5666C14.597 21.5366 14.5801 21.496 14.58 21.4536C14.58 21.3656 14.652 21.2936 14.74 21.2936ZM18.58 21.2936C18.668 21.2936 18.74 21.3656 18.74 21.4536C18.74 21.5416 18.668 21.6136 18.58 21.6136C18.5376 21.6135 18.4969 21.5966 18.467 21.5666C18.437 21.5366 18.4201 21.496 18.42 21.4536C18.42 21.3656 18.492 21.2936 18.58 21.2936ZM16.8232 21.6408L18.197 22.4491C18.5566 22.6618 18.8547 22.9643 19.0621 23.327C19.2695 23.6897 19.3791 24.1001 19.38 24.5179V29.2936H18.74V24.5345C18.7391 24.2183 18.6561 23.9078 18.4991 23.6333C18.342 23.3588 18.1164 23.1299 17.8443 22.9688L16.9013 22.4139H16.9006L16.8168 22.3646L16.7342 22.4165L15.748 23.0379C15.4877 23.2008 15.2732 23.4274 15.1248 23.6963C14.9765 23.9652 14.8991 24.2675 14.9 24.5745V29.2939H14.26V24.5797C14.2587 24.1737 14.361 23.774 14.5572 23.4186C14.7534 23.0631 15.0371 22.7636 15.3813 22.5483L16.8232 21.6408ZM16.98 22.8315L17.6818 23.2446C17.8142 23.3227 17.9301 23.4219 18.0306 23.5336H16.98V22.8315ZM16.66 22.8414V23.5336H15.6424C15.7253 23.4478 15.8181 23.3722 15.9189 23.3083L16.66 22.8414ZM18.2494 23.8478C18.3285 24.0005 18.3838 24.1662 18.4069 24.339C18.4136 24.3902 18.4162 24.4414 18.4174 24.4936H16.98V23.8536H18.22C18.2302 23.8536 18.2395 23.8497 18.2494 23.8478ZM15.405 23.8504H15.4056C15.4107 23.8507 15.4152 23.8536 15.42 23.8536H16.66V24.4936H15.2251C15.2357 24.2684 15.2972 24.0485 15.405 23.8504ZM15.22 24.8136H16.66V25.4536H15.22V24.8136ZM16.98 24.8136H18.42V25.4536H16.98V24.8136ZM15.22 25.7736H16.66V26.4136H15.22V25.7736ZM16.98 25.7736H18.42V26.4136H16.98V25.7736ZM15.22 26.7336H16.66V27.3736H15.22V26.7336ZM16.98 26.7336H18.42V27.3736H16.98V26.7336ZM15.22 27.6936H16.66V28.3336H15.22V27.6936ZM16.98 27.6936H18.42V28.3336H16.98V27.6936ZM15.22 28.6536H16.66V29.2936H15.22V28.6536ZM16.98 28.6536H18.42V29.2936H16.98V28.6536Z" fill="white"/>
</g>
<defs>
<clipPath id="clip0_2141_17954">
<rect width="32" height="32" fill="white" transform="translate(0.5 0.5)"/>
</clipPath>
</defs>
</svg>
