<svg xmlns="http://www.w3.org/2000/svg" viewBox="0 0 100 100" id="shaniwar-wada">
  <path fill="#594454" d="M34.5 17.98a.5.5 0 0 0-.447.276L32.19 21.98H30.5a.5.5 0 0 0-.447.276l-3 6c-.002.004 0 .01-.002.014a.485.485 0 0 0-.051.209v2a.5.5 0 0 0 .5.5H29v7.548l-5.45-.545c-.006 0-.013.003-.02.002-.01 0-.02-.005-.03-.005h-10c-.01 0-.02.005-.03.005l-.02-.002-10 1a.497.497 0 0 0-.45.497V90H.746c-.448 0-.746.2-.746.5s.298.5.746.5h98.508c.448 0 .746-.2.746-.5s-.298-.5-.746-.5H98V39.479a.497.497 0 0 0-.45-.497l-10-1c-.006 0-.013.003-.02.002-.01 0-.02-.005-.03-.005h-10c-.01 0-.02.005-.03.005l-.02-.002-5.45.545V30.98h1.5a.5.5 0 0 0 .5-.5v-2c0-.007-.004-.012-.004-.018 0-.028-.01-.054-.016-.082-.007-.037-.013-.074-.029-.108-.002-.005-.001-.01-.004-.015l-3-6a.502.502 0 0 0-.447-.277h-1.691l-1.862-3.723a.5.5 0 0 0-.447-.276h-32zm.309.999H66.19l1.543 3.085a.492.492 0 0 0 .266.915h.191l.5 1H32.31l2.5-5zm34.5 4h.882l2.5 5H68v-1h1.5a.5.5 0 0 0 .5-.5v-2a.485.485 0 0 0-.05-.21c-.003-.004 0-.009-.003-.013l-.638-1.277zm-38.5.001h.882l-.638 1.276c-.002.004 0 .01-.002.014a.485.485 0 0 0-.051.209v2a.5.5 0 0 0 .5.5H33v1h-4.691l2.5-4.999zM32 24.98h37v1H32v-1zm2 2h4v4.148a3.087 3.087 0 0 0-1-.148c-1.103 0-2 .729-2 1.625v.375a.5.5 0 0 0 0 1v5h-1v-12zm5 0h23v6a.5.5 0 0 0 0 1v5h-1l.004-9c0-1.103-1.122-2-2.502-2-.82 0-1.544.321-2 .81-.457-.489-1.18-.81-2-.81-.82 0-1.544.321-2 .81-.457-.489-1.18-.81-2-.81-.82 0-1.544.321-2 .81-.457-.489-1.18-.81-2-.81-.82 0-1.544.321-2 .81-.457-.489-1.18-.81-2-.81-1.379 0-2.502.897-2.502 2v1a.5.5 0 0 0 0 1v7h-1v-12zm24 0h4v12h-1v-6a.49.49 0 0 0-.037-.188.5.5 0 0 0 .037-.187c0-.895-.897-1.625-2-1.625a2.33 2.33 0 0 0-1 .226V26.98zm-35 2h5v1h-5v-1zm14.502 0c.793 0 1.488.46 1.5.986l-.002.014v1a.5.5 0 0 0 0 1v5h-3v-5a.5.5 0 0 0 0-1v-1c0-.532.702-1 1.502-1zm4 0c.793 0 1.488.46 1.5.986l-.002.014v1a.5.5 0 0 0 0 1v5h-2.998l.002-5a.5.5 0 0 0 0-1v-1l-.002-.014c.012-.526.707-.986 1.5-.986zm4 0c.793 0 1.488.46 1.5.986l-.002.014v1a.5.5 0 0 0 0 1v5h-2.998l.002-5a.5.5 0 0 0 0-1v-1l-.002-.014c.012-.526.707-.986 1.5-.986zm4 0c.793 0 1.488.46 1.5.986l-.002.014v1a.5.5 0 0 0 0 1v5h-2.998l.002-5a.5.5 0 0 0 0-1v-1l-.002-.014c.012-.526.707-.986 1.5-.986zm4 0c.8 0 1.502.469 1.502 1v1.007a.488.488 0 0 0-.356.143.472.472 0 0 0-.148.35c0 .13.048.26.148.35.091.1.222.15.352.15h.004l-.002 5h-3l.002-5a.5.5 0 0 0 0-1v-1l-.002-.014c.012-.526.707-.986 1.5-.986zm9.498 0h5v1h-5v-1zm-38 2h3v7.949l-3-.301v-7.648zm38 0h3v7.648l-3 .3V30.98zm-31 1c.481 0 1 .121 1 .39V33a.472.472 0 0 0-.498.479c0 .13.048.26.148.35.04.048.1.09.16.11.06.03.12.04.19.04v3h-2v-3a.5.5 0 0 0 0-1v-.375c0-.295.428-.625 1-.625zm27 0c.572 0 1 .33 1 .625 0 .066.013.129.037.187a.49.49 0 0 0-.037.188V33a.465.465 0 0 0-.35.129.472.472 0 0 0-.148.35c0 .13.048.26.148.35.04.048.1.09.16.11.06.03.12.04.19.04v3h-2v-3a.5.5 0 0 0 0-1v-.375c0-.295.428-.625 1-.625zm-28 6h2v1h-2v-1zm5 0h3v1h-3v-1zm4 0h3v1h-3v-1zm4 0h3v1h-3v-1zm4 0h3v1h-3v-1zm4 0h3v1h-3v-1zm6 0h2v1h-2v-1zm-49 1h9v2h-9v-2zm64 0h9v2h-9v-2zm-65 .052v1.948H4v-1.047l9-.9zm11 0 9 .9v1.048h-9V39.03zm53 0v1.948h-9v-1.047l9-.9zm11 0 9 .9v1.048h-9V39.03zm-54 .948h3v1h-3v-1zm4 0h25v2H38v-2zm26 0h3v1h-3v-1zm-60 2h9v9H4v-9zm10 0h9v9h-9v-9zm10 0h9v9h-9v-9zm10 0h3v.5a.5.5 0 0 0 .5.5h.5V51h-4v-9.021zm30 0h3V51h-4v-8.021h.5a.5.5 0 0 0 .5-.5v-.5zm4 0h9v9h-9v-9zm10 0h9v9h-9v-9zm10 0h9v9h-9v-9zm-49 1h23v2H39v-2zm-30.5 1c-.827 0-1.5.673-1.5 1.5v3a.5.5 0 0 0 .5.5h2a.5.5 0 0 0 .5-.5v-3c0-.827-.673-1.5-1.5-1.5zm10 0c-.827 0-1.5.673-1.5 1.5v3a.5.5 0 0 0 .5.5h2a.5.5 0 0 0 .5-.5v-3c0-.827-.673-1.5-1.5-1.5zm10 0c-.827 0-1.5.673-1.5 1.5v3a.5.5 0 0 0 .5.5h2a.5.5 0 0 0 .5-.5v-3c0-.827-.673-1.5-1.5-1.5zm44 0c-.827 0-1.5.673-1.5 1.5v3a.5.5 0 0 0 .5.5h2a.5.5 0 0 0 .5-.5v-3c0-.827-.673-1.5-1.5-1.5zm10 0c-.827 0-1.5.673-1.5 1.5v3a.5.5 0 0 0 .5.5h2a.5.5 0 0 0 .5-.5v-3c0-.827-.673-1.5-1.5-1.5zm10 0c-.827 0-1.5.673-1.5 1.5v3a.5.5 0 0 0 .5.5h2a.5.5 0 0 0 .5-.5v-3c0-.827-.673-1.5-1.5-1.5zM5.5 44a.5.5 0 0 0-.5.5v4a.5.5 0 0 0 1 0v-4a.5.5 0 0 0-.5-.5zm6 0a.5.5 0 0 0-.5.5v4a.5.5 0 0 0 1 0v-4a.5.5 0 0 0-.5-.5zm4 0a.5.5 0 0 0-.5.5v4a.5.5 0 0 0 1 0v-4a.5.5 0 0 0-.5-.5zm6 0a.5.5 0 0 0-.5.5v4a.5.5 0 0 0 1 0v-4a.5.5 0 0 0-.5-.5zm4 0a.5.5 0 0 0-.5.5v4a.5.5 0 0 0 1 0v-4a.5.5 0 0 0-.5-.5zm6 0a.5.5 0 0 0-.5.5v4a.5.5 0 0 0 1 0v-4a.5.5 0 0 0-.5-.5zm38 0a.5.5 0 0 0-.5.5v4a.5.5 0 0 0 1 0v-4a.5.5 0 0 0-.5-.5zm6 0a.5.5 0 0 0-.5.5v4a.5.5 0 0 0 1 0v-4a.5.5 0 0 0-.5-.5zm4 0a.5.5 0 0 0-.5.5v4a.5.5 0 0 0 1 0v-4a.5.5 0 0 0-.5-.5zm6 0a.5.5 0 0 0-.5.5v4a.5.5 0 0 0 1 0v-4a.5.5 0 0 0-.5-.5zm4 0a.5.5 0 0 0-.5.5v4a.5.5 0 0 0 1 0v-4a.5.5 0 0 0-.5-.5zm6 0a.5.5 0 0 0-.5.5v4a.5.5 0 0 0 1 0v-4a.5.5 0 0 0-.5-.5zm-87 .979c.275 0 .5.225.5.5v2.5H8v-2.5c0-.275.225-.5.5-.5zm10 0c.275 0 .5.225.5.5v2.5h-1v-2.5c0-.275.225-.5.5-.5zm10 0c.275 0 .5.225.5.5v2.5h-1v-2.5c0-.275.225-.5.5-.5zm44 0c.275 0 .5.225.5.5v2.5h-1v-2.5c0-.275.225-.5.5-.5zm10 0c.275 0 .5.225.5.5v2.5h-1v-2.5c0-.275.225-.5.5-.5zm10 0c.275 0 .5.225.5.5v2.5h-1v-2.5c0-.275.225-.5.5-.5zm-53.5 1h23v1.513a2.475 2.475 0 0 0-1.5-.513 2.49 2.49 0 0 0-2 1.015 2.49 2.49 0 0 0-2-1.015 2.49 2.49 0 0 0-2 1.015 2.49 2.49 0 0 0-2-1.015 2.49 2.49 0 0 0-2 1.015 2.49 2.49 0 0 0-2-1.015 2.49 2.49 0 0 0-2 1.015 2.49 2.49 0 0 0-2-1.015 2.49 2.49 0 0 0-2 1.015 2.49 2.49 0 0 0-2-1.015c-.565 0-1.08.196-1.5.513V45.98zm1.5 2c.827 0 1.5.673 1.5 1.5v1.334c0 .059.014.113.033.166H39v-1.5c0-.827.673-1.5 1.5-1.5zm4 0c.827 0 1.5.673 1.5 1.5v1.334c0 .059.014.113.033.166h-3.066a.485.485 0 0 0 .033-.166v-1.334c0-.827.673-1.5 1.5-1.5zm4 0c.827 0 1.5.673 1.5 1.5v1.334c0 .059.014.113.033.166h-3.066a.485.485 0 0 0 .033-.166v-1.334c0-.827.673-1.5 1.5-1.5zm4 0c.827 0 1.5.673 1.5 1.5v1.334c0 .059.014.113.033.166h-3.066a.485.485 0 0 0 .033-.166v-1.334c0-.827.673-1.5 1.5-1.5zm4 0c.827 0 1.5.673 1.5 1.5v1.334c0 .059.014.113.033.166h-3.066a.485.485 0 0 0 .033-.166v-1.334c0-.827.673-1.5 1.5-1.5zm4 0c.827 0 1.5.673 1.5 1.5v1.5h-3.033a.485.485 0 0 0 .033-.166v-1.334c0-.827.673-1.5 1.5-1.5zm-56.5 4h9v1H4v-1zm10 0h9v1h-9v-1zm10 0h9v1h-9v-1zm15 0h23v1H39v-1zm29 0h9v1h-9v-1zm10 0h9v1h-9v-1zm10 0h9v1h-9v-1zM34 52h4v.979h-4V52zm29 0h4v.979h-4V52zM4 53.979h9v36H4v-36zm10 0h9v36h-9v-36zm10 0h9v36h-9v-36zm10 0h4v36h-4v-36zm5 0h23v36h-2V75.055a8.533 8.533 0 0 0-4.188-7.326l-4.556-2.68a.5.5 0 0 0-.522.008l-4.763 3A8.448 8.448 0 0 0 42 75.248v14.73h-3v-36zm24 0h4v36h-4v-36zm5 0h9v36h-9v-36zm10 0h9v36h-9v-36zm10 0h9v36h-9v-36zM5.5 56a.5.5 0 0 0-.5.5v6a.5.5 0 0 0 1 0v-6a.5.5 0 0 0-.5-.5zm3 0a.5.5 0 0 0-.5.5v6a.5.5 0 0 0 1 0v-6a.5.5 0 0 0-.5-.5zm3 0a.5.5 0 0 0-.5.5v6a.5.5 0 0 0 1 0v-6a.5.5 0 0 0-.5-.5zm4 0a.5.5 0 0 0-.5.5v6a.5.5 0 0 0 1 0v-6a.5.5 0 0 0-.5-.5zm3 0a.5.5 0 0 0-.5.5v6a.5.5 0 0 0 1 0v-6a.5.5 0 0 0-.5-.5zm3 0a.5.5 0 0 0-.5.5v6a.5.5 0 0 0 1 0v-6a.5.5 0 0 0-.5-.5zm4 0a.5.5 0 0 0-.5.5v6a.5.5 0 0 0 1 0v-6a.5.5 0 0 0-.5-.5zm3 0a.5.5 0 0 0-.5.5v6a.5.5 0 0 0 1 0v-6a.5.5 0 0 0-.5-.5zm3 0a.5.5 0 0 0-.5.5v6a.5.5 0 0 0 1 0v-6a.5.5 0 0 0-.5-.5zm4.5 0a.5.5 0 0 0-.5.5v6a.5.5 0 0 0 1 0v-6a.5.5 0 0 0-.5-.5zm6.5 0a.5.5 0 0 0-.5.5v6a.5.5 0 0 0 1 0v-6a.5.5 0 0 0-.5-.5zm4 0a.5.5 0 0 0-.5.5v6a.5.5 0 0 0 1 0v-6a.5.5 0 0 0-.5-.5zm4 0a.5.5 0 0 0-.5.5v6a.5.5 0 0 0 1 0v-6a.5.5 0 0 0-.5-.5zm4 0a.5.5 0 0 0-.5.5v6a.5.5 0 0 0 1 0v-6a.5.5 0 0 0-.5-.5zm4 0a.5.5 0 0 0-.5.5v6a.5.5 0 0 0 1 0v-6a.5.5 0 0 0-.5-.5zm6.5 0a.5.5 0 0 0-.5.5v6a.5.5 0 0 0 1 0v-6a.5.5 0 0 0-.5-.5zm4.5 0a.5.5 0 0 0-.5.5v6a.5.5 0 0 0 1 0v-6a.5.5 0 0 0-.5-.5zm3 0a.5.5 0 0 0-.5.5v6a.5.5 0 0 0 1 0v-6a.5.5 0 0 0-.5-.5zm3 0a.5.5 0 0 0-.5.5v6a.5.5 0 0 0 1 0v-6a.5.5 0 0 0-.5-.5zm4 0a.5.5 0 0 0-.5.5v6a.5.5 0 0 0 1 0v-6a.5.5 0 0 0-.5-.5zm3 0a.5.5 0 0 0-.5.5v6a.5.5 0 0 0 1 0v-6a.5.5 0 0 0-.5-.5zm3 0a.5.5 0 0 0-.5.5v6a.5.5 0 0 0 1 0v-6a.5.5 0 0 0-.5-.5zm4 0a.5.5 0 0 0-.5.5v6a.5.5 0 0 0 1 0v-6a.5.5 0 0 0-.5-.5zm3 0a.5.5 0 0 0-.5.5v6a.5.5 0 0 0 1 0v-6a.5.5 0 0 0-.5-.5zm3 0a.5.5 0 0 0-.5.5v6a.5.5 0 0 0 1 0v-6a.5.5 0 0 0-.5-.5zm-51 7.979c-.827 0-1.5.673-1.5 1.5s.673 1.5 1.5 1.5 1.5-.673 1.5-1.5-.673-1.5-1.5-1.5zm12 0c-.827 0-1.5.673-1.5 1.5s.673 1.5 1.5 1.5 1.5-.673 1.5-1.5-.673-1.5-1.5-1.5zm-12 1c.275 0 .5.225.5.5s-.225.5-.5.5a.501.501 0 0 1-.5-.5c0-.275.225-.5.5-.5zm12 0c.275 0 .5.225.5.5s-.225.5-.5.5a.501.501 0 0 1-.5-.5c0-.275.225-.5.5-.5zm-5.49 1.085 4.293 2.526A7.531 7.531 0 0 1 59 75.055v14.924h-2V75.107a5.705 5.705 0 0 0-2.799-4.893l-2.947-1.734h-.002l-.262-.154-.258.162-3.082 1.942A5.645 5.645 0 0 0 45 75.232V89.98h-2V75.248a7.46 7.46 0 0 1 3.504-6.348l4.506-2.836zm.49 3.721 2.193 1.291c.414.244.776.554 1.09.903H51.5v-2.194zm-1 .031v2.163h-3.18a4.7 4.7 0 0 1 .864-.704l2.316-1.459zm4.967 3.145c.247.477.42.995.492 1.535.021.16.029.32.033.483H51.5v-2h3.875c.032 0 .061-.012.092-.018zm-8.889.008h.002c.016.001.03.01.045.01H50.5v2h-4.484a4.667 4.667 0 0 1 .562-2.01zM46 75.979h4.5v2H46v-2zm5.5 0H56v2h-4.5v-2zm-5.5 3h4.5v2H46v-2zm5.5 0H56v2h-4.5v-2zm-5.5 3h4.5v2H46v-2zm5.5 0H56v2h-4.5v-2zm-5.5 3h4.5v2H46v-2zm5.5 0H56v2h-4.5v-2zm-5.5 3h4.5v2H46v-2zm5.5 0H56v2h-4.5v-2z"></path>
</svg>
