<svg width="15" height="14" viewBox="0 0 15 14" fill="none" xmlns="http://www.w3.org/2000/svg">
<path fill-rule="evenodd" clip-rule="evenodd" d="M7.50244 1.375C4.39584 1.375 1.87744 3.8934 1.87744 7C1.87744 10.1066 4.39584 12.625 7.50244 12.625C10.609 12.625 13.1274 10.1066 13.1274 7C13.1274 3.8934 10.609 1.375 7.50244 1.375ZM0.627441 7C0.627441 3.20304 3.70548 0.125 7.50244 0.125C11.2994 0.125 14.3774 3.20304 14.3774 7C14.3774 10.797 11.2994 13.875 7.50244 13.875C3.70548 13.875 0.627441 10.797 0.627441 7ZM7.50244 3.875C7.84762 3.875 8.12744 4.15482 8.12744 4.5V6.375H10.0024C10.3476 6.375 10.6274 6.65482 10.6274 7C10.6274 7.34518 10.3476 7.625 10.0024 7.625H8.12744V9.5C8.12744 9.84518 7.84762 10.125 7.50244 10.125C7.15726 10.125 6.87744 9.84518 6.87744 9.5V7.625H5.00244C4.65726 7.625 4.37744 7.34518 4.37744 7C4.37744 6.65482 4.65726 6.375 5.00244 6.375H6.87744V4.5C6.87744 4.15482 7.15726 3.875 7.50244 3.875Z" fill="#F5F5F5"/>
</svg>
