<svg width="20" height="20" viewBox="0 0 20 20" fill="none" xmlns="http://www.w3.org/2000/svg">
<path d="M5 10V8.33336H15V10M2.5239 8.33341L8.5208 12.3472C9.05539 12.7036 9.32269 12.8818 9.6116 12.9511C9.86692 13.0122 10.1331 13.0122 10.3884 12.9511C10.6773 12.8818 10.9446 12.7036 11.4792 12.3472L17.4761 8.33336M7.87267 3.83602L4.37267 6.03407C3.68901 6.46341 3.34719 6.67808 3.09925 6.96828C2.87981 7.22513 2.7147 7.52379 2.61389 7.84623C2.5 8.21053 2.5 8.61417 2.5 9.42147V12.6667C2.5 14.0668 2.5 14.7669 2.77248 15.3017C3.01217 15.7721 3.39462 16.1545 3.86502 16.3942C4.3998 16.6667 5.09987 16.6667 6.5 16.6667H13.5C14.9001 16.6667 15.6002 16.6667 16.135 16.3942C16.6054 16.1545 16.9878 15.7721 17.2275 15.3017C17.5 14.7669 17.5 14.0668 17.5 12.6667V9.42147C17.5 8.61417 17.5 8.21053 17.3861 7.84623C17.2853 7.52379 17.1202 7.22513 16.9007 6.96828C16.6528 6.67808 16.311 6.46341 15.6273 6.03407L12.1273 3.83602C11.3558 3.35148 10.97 3.10922 10.5561 3.01478C10.1901 2.93127 9.80994 2.93127 9.44393 3.01478C9.02998 3.10922 8.64421 3.35148 7.87267 3.83602Z" stroke="#131A29" stroke-width="1.66667" stroke-linecap="round" stroke-linejoin="round"/>
</svg>
