<svg width="20" height="20" viewBox="0 0 20 20" fill="none" xmlns="http://www.w3.org/2000/svg">
<g clip-path="url(#clip0_2137_17568)">
<path d="M0 6.33929L0 9.19643C0.000546516 9.3857 0.0759769 9.56706 0.209813 9.7009C0.343649 9.83474 0.525013 9.91017 0.714286 9.91071C0.903726 9.91071 1.08541 9.98597 1.21936 10.1199C1.35332 10.2539 1.42857 10.4356 1.42857 10.625C1.42857 10.8144 1.35332 10.9961 1.21936 11.1301C1.08541 11.264 0.903726 11.3393 0.714286 11.3393C0.525013 11.3398 0.343649 11.4153 0.209813 11.5491C0.0759769 11.6829 0.000546516 11.8643 0 12.0536L0 14.9107C0.000546516 15.1 0.0759769 15.2814 0.209813 15.4152C0.343649 15.549 0.525013 15.6245 0.714286 15.625H14.2857V5.625L0.714286 5.625C0.525013 5.62555 0.343649 5.70098 0.209813 5.83481C0.0759769 5.96865 0.000546516 6.15001 0 6.33929ZM4.28571 7.76786H11.4286C11.618 7.76786 11.7997 7.84311 11.9336 7.97707C12.0676 8.11102 12.1429 8.2927 12.1429 8.48214C12.1429 8.67158 12.0676 8.85326 11.9336 8.98722C11.7997 9.12117 11.618 9.19643 11.4286 9.19643H4.28571C4.09627 9.19643 3.91459 9.12117 3.78064 8.98722C3.64668 8.85326 3.57143 8.67158 3.57143 8.48214C3.57143 8.2927 3.64668 8.11102 3.78064 7.97707C3.91459 7.84311 4.09627 7.76786 4.28571 7.76786ZM4.28571 9.91071H11.4286C11.618 9.91071 11.7997 9.98597 11.9336 10.1199C12.0676 10.2539 12.1429 10.4356 12.1429 10.625C12.1429 10.8144 12.0676 10.9961 11.9336 11.1301C11.7997 11.264 11.618 11.3393 11.4286 11.3393H4.28571C4.09627 11.3393 3.91459 11.264 3.78064 11.1301C3.64668 10.9961 3.57143 10.8144 3.57143 10.625C3.57143 10.4356 3.64668 10.2539 3.78064 10.1199C3.91459 9.98597 4.09627 9.91071 4.28571 9.91071ZM4.28571 12.0536H11.4286C11.618 12.0536 11.7997 12.1288 11.9336 12.2628C12.0676 12.3967 12.1429 12.5784 12.1429 12.7679C12.1429 12.9573 12.0676 13.139 11.9336 13.2729C11.7997 13.4069 11.618 13.4821 11.4286 13.4821H4.28571C4.09627 13.4821 3.91459 13.4069 3.78064 13.2729C3.64668 13.139 3.57143 12.9573 3.57143 12.7679C3.57143 12.5784 3.64668 12.3967 3.78064 12.2628C3.91459 12.1288 4.09627 12.0536 4.28571 12.0536ZM19.2857 9.91071C19.475 9.91017 19.6564 9.83474 19.7902 9.7009C19.924 9.56706 19.9995 9.3857 20 9.19643V6.33929C19.9995 6.15001 19.924 5.96865 19.7902 5.83481C19.6564 5.70098 19.475 5.62555 19.2857 5.625H15.7143V15.625L19.2857 15.625C19.475 15.6245 19.6564 15.549 19.7902 15.4152C19.924 15.2814 19.9995 15.1 20 14.9107V12.0536C19.9995 11.8643 19.924 11.6829 19.7902 11.5491C19.6564 11.4153 19.475 11.3398 19.2857 11.3393C19.0963 11.3393 18.9146 11.264 18.7806 11.1301C18.6467 10.9961 18.5714 10.8144 18.5714 10.625C18.5714 10.4356 18.6467 10.2539 18.7806 10.1199C18.9146 9.98597 19.0963 9.91071 19.2857 9.91071Z" fill="black"/>
</g>
<defs>
<clipPath id="clip0_2137_17568">
<rect width="20" height="20" fill="white"/>
</clipPath>
</defs>
</svg>
